<svg xmlns="http://www.w3.org/2000/svg" viewBox="0 0 1587.9 2301.39"><g id="レイヤー_2" data-name="レイヤー 2"><g id="svg"><g id="レイヤー_2-2" data-name="レイヤー 2"><g id="レイヤー_1-2" data-name="レイヤー 1-2"><path d="M111.63,1817.39q0,19.39-5.67,33.1t-15.88,20.73a40.06,40.06,0,0,1-23.74,6.8,60.46,60.46,0,0,1-33.17-10.35Q17.93,1857.59,9,1839.2t-9-42.7a88.19,88.19,0,0,1,4-27.42q3.93-12,11.16-18.57l5.14,6.88q-12.9,13.15-12.9,40,0,20.91,7.93,37t21.29,24.87A53.5,53.5,0,0,0,66,1868.32q17.61.24,27.91-13.11t10.3-38.64q0-27.36-13.2-44.09l5.51-5.82a62.3,62.3,0,0,1,11.15,22.11A101.1,101.1,0,0,1,111.63,1817.39Zm0-131.93q0,19.2-5.67,32.81t-15.88,20.6a40,40,0,0,1-23.74,6.79,60.41,60.41,0,0,1-33.09-10.27q-15.18-10-24.24-28.25t-9-42q0-19.17,5.67-32.9t15.88-20.69a40.06,40.06,0,0,1,23.74-6.8,60.24,60.24,0,0,1,33.13,10.34q15.16,10.1,24.2,28.37T111.63,1685.46Zm.12-568.73a90.38,90.38,0,0,1-4.17,27.51q-4.17,13-10.46,19.24L91,1158.27q6-6,9.83-17.83a78.47,78.47,0,0,0,3.85-24.56q0-19.2-6.44-30.79t-17.88-11.7a12.23,12.23,0,0,0-9.75,4.14,30.89,30.89,0,0,0-6,10.56,174.45,174.45,0,0,0-4.72,17.14q-3.14,12.51-5.82,20.07A33.29,33.29,0,0,1,46.2,1138q-5.19,5.16-13.52,5a25.53,25.53,0,0,1-17.45-6.9Q7.87,1129.4,4,1117.75a84.88,84.88,0,0,1-3.84-26.67A94.1,94.1,0,0,1,2.69,1069a60.34,60.34,0,0,1,7.08-17.86l6.6,4.65A55.84,55.84,0,0,0,9.61,1072a79.08,79.08,0,0,0-2.37,19.55q0,18.63,6.6,30.13t18.07,11.65a12.72,12.72,0,0,0,10.1-4.23,30.59,30.59,0,0,0,6.13-10.65q2.19-6.35,4.88-17.52,3.15-12.48,5.74-19.88a32.7,32.7,0,0,1,7.63-12.44q5-5.07,13-5,15.42.21,23.9,15t8.48,38.13ZM.3,442.69a91.74,91.74,0,0,1,3.93-28.17q3.93-12.21,11.32-19.33l5,6.92Q7.7,415.24,7.68,443.39q0,20.91,7.86,37.08t21.29,25.1a53.41,53.41,0,0,0,29.47,9.16q17.61.24,27.91-13.21t10.31-38.92q0-20.91-10.06-37.4l-37.88-9.81v-9.31l41.34,10.63a69.56,69.56,0,0,1,10.3,21.34,88.73,88.73,0,0,1,3.68,25.8q0,19.22-5.66,32.91T90.36,517.54a39.56,39.56,0,0,1-23.74,6.85,60.28,60.28,0,0,1-33.25-10.34Q18.21,504,9.25,485.48t-9-42.8Zm.44,1665,110,73.19v10.26l-98.39,16.13,98.4,66.75v10.27l-110,17.1v-9.69L100,2276.39.72,2209.2v-9.13L100.08,2184,.74,2117.57ZM8,2072.8l43.34,11v-70.71l7.07,1.81v70.71l45.11,11.65v-82.12l7.23,2v91.62l-110-28.13v-89l7.23,2ZM.76,1957.32v-9.69L103.56,1974v-76.56l7.23,2v86.07ZM.88,1427l110,28.14v9.51l-93.49-23.92,78.9,74.7v4.75l-80,36.53,94.63,24.12v9.51L.86,1562.12v-8l85.05-38.55-85-80.07Zm7.24-50.63,43.38,11.06v-70.72l7.07,1.81v70.72l45.11,11.65v-82.12l7.23,2v91.66l-110-28.18v-89l7.23,2Zm.09-386.09v47.9l-7.23-2V930.64l7.23,1.81v47.94L111,1006.68v9.71ZM31.34,818.16q17,.24,27.74,11.32T73.3,860.56L111,835.39V846L74.55,870.39c.21,4.06.31,7.16.31,9.32v39.91L111,929v9.7L1,910.5V863.93q0-22,7.94-34t22.41-11.76ZM80.09,714.69v77.36l31,25v10.84L1,738.49v-9.7l110.05-33.06v9.88ZM1,538.87,111,567v8.18L14.16,640.94,111,665.67v9.72L1,647.22v-8l96.85-66L1,548.56ZM8.28,345.3l43.44,11.09V285.68l7.08,1.81V358.2l45.12,11.65V287.73l7.24,2v91.66l-110-28.14v-89l7.23,2ZM31.49,137.39q17,.24,27.74,11.32t14.22,31.08l37.74-25.13v10.73l-36.48,24.4c.21,4.06.31,7.16.31,9.32V239l36.16,9.25V258l-110-28.15V183.25q0-22,8-34T31.49,137.39Zm72.78,1547q0-20.34-7.93-36.23T75,1623.59a54.28,54.28,0,0,0-29.32-9q-17.61-.24-27.91,13T7.44,1666q0,20.34,7.93,36.23T36.74,1727A53.66,53.66,0,0,0,66,1736q17.43.24,27.83-13.12t10.38-38.44ZM67.8,879.69q0-24.72-9.11-38.15T32,827.86q-11.46-.15-17.6,9.36T8.27,864.6v38l59.58,15.28ZM68,199q0-24.72-9.11-38.15T32.12,147.15Q20.65,147,14.51,156.5T8.37,183.88v38L68,237.16Zm5.38,517.71L9.51,735.39l63.81,51.25Z"/></g></g><path d="M94.05,117.61a6.54,6.54,0,0,1,2.63-4.41,6.17,6.17,0,0,1,4.88-1.22,7.74,7.74,0,0,1,2.76,1,22.43,22.43,0,0,1,2.28,1.53,11.35,11.35,0,0,0,1.38,1l20.38,14.94-.9,5.85-20.92-13.52a6.85,6.85,0,0,1-2.91,2.54,6.16,6.16,0,0,1-3.73.56A6.65,6.65,0,0,1,95.25,123a7.26,7.26,0,0,1-1.2-5.36Z"/><path d="M93.64,1276.52a6.54,6.54,0,0,1,2.63-4.41,6.17,6.17,0,0,1,4.88-1.22,7.74,7.74,0,0,1,2.76,1,22.43,22.43,0,0,1,2.28,1.53,11.35,11.35,0,0,0,1.38,1L128,1289.36l-.9,5.85-20.92-13.52a6.85,6.85,0,0,1-2.91,2.54,6.16,6.16,0,0,1-3.73.56,6.65,6.65,0,0,1-4.65-2.91,7.26,7.26,0,0,1-1.2-5.36Z"/><path d="M240,7.59l-50.58-.14L164,107.63l-10.23,0L178.94,7.42l-50.58-.14,1.94-7L241.69.55l-1.74,7Zm133.11,69q-10.31,14.76-29.38,23.52t-44.17,8.69q-20.26-.06-34.77-5.62T242.62,87.62a37.8,37.8,0,0,1-7.75-23.17,54.59,54.59,0,0,1,10-32.24q10.18-14.76,29.27-23.52T318.34,0q20.27.06,34.87,5.62t22.23,15.54a37.73,37.73,0,0,1,7.74,23.17,54.2,54.2,0,0,1-10.12,32.24ZM358.34,17.36Q344.11,7.28,317.61,7.2q-21.48-.06-38.06,7.63T254,35.61a48.42,48.42,0,0,0-8.86,28.56q.17,17,14.51,27.18t40.84,10.23q21.46.06,38.06-7.63T364,73.17a48.81,48.81,0,0,0,8.76-28.56q-.17-17.18-14.41-27.25ZM560.65,8.51l-50.58-.15L484.74,108.54l-10.23,0L499.64,8.33l-50.58-.14,1.94-7,111.38.32-1.73,7.05ZM671,109.07l-10.24,0L673.5,58.19l-93.92-.27-12.76,50.86-10.23,0L583.66,1.52l10.23,0L581.52,50.72l93.92.27L687.81,1.82l10.24,0L671,109.07Zm55.19.16-10.24,0L743,2l10.24,0L726.17,109.23ZM872.39,17.37a63.56,63.56,0,0,0-17.32-6.64,90.41,90.41,0,0,0-20.69-2.36q-19.68-.06-31.65,6.34t-11.88,17.6a12.35,12.35,0,0,0,4.71,9.82,33.75,33.75,0,0,0,11.4,6q6.75,2.18,18.61,4.81,13.27,3.11,21.13,5.65A36.55,36.55,0,0,1,860,66.08a16.58,16.58,0,0,1,5.55,12.73q.13,15-15.24,23.26t-40.05,8.17a103.18,103.18,0,0,1-29.14-4.15Q767.24,102,760.56,95.84l5.36-6q6.48,5.84,19.06,9.63a90.62,90.62,0,0,0,26,3.83q20.26.06,32.35-6.19t12-17.44a11.85,11.85,0,0,0-4.61-9.52,34.59,34.59,0,0,0-11.29-5.86q-6.75-2.16-18.21-4.65-13.28-3.1-21.33-5.73a36.76,36.76,0,0,1-13.62-7.71,17.25,17.25,0,0,1-5.64-13.19,23.24,23.24,0,0,1,6.86-17q7-7.19,19.16-10.9a95,95,0,0,1,28.06-3.68A108.41,108.41,0,0,1,858.11,4a68.8,68.8,0,0,1,19,7l-4.76,6.43Zm172.83,46.55Q1028.06,75,998,74.9L956,74.78l-8.89,35.08-10.24,0L964,2.6l49,.14q23.28.07,36.2,7.85t13,21.88q.19,20.39-17,31.45Zm-3.77-48.06q-10.2-6-29.06-6.07l-39.93-.11-14.7,58.05,40.14.12q26.08.08,40.05-8.78t13.8-26q-.11-11.19-10.3-17.19Zm127.77,87.58-1.94,7-90.91-.25L1103.44,3l10.23,0-25.33,100.18,80.88.23Zm126.1,7.41L1285,80.62l-81.68-.23-25.6,30.13-11.44,0L1258,3.44l10.24,0,37.55,107.41-10.44,0Zm-33.86-99.12-52.59,62.09,73.86.21-21.27-62.3Zm191,11.27Q1438.25,10.4,1410,10.31q-22.08-.06-38.86,7.63t-25.79,20.7a48.34,48.34,0,0,0-8.86,28.64q.16,17.18,14.51,27.25t41,10.16q28.9.07,46.24-12.75l6.27,5.39q-9.16,7-23.08,10.81a113.07,113.07,0,0,1-30.16,3.75q-20.48-.06-35.08-5.62T1334,90.73a37.8,37.8,0,0,1-7.75-23.17,54.57,54.57,0,0,1,10.13-32.32q10.29-14.83,29.47-23.52t44.88-8.61a101.5,101.5,0,0,1,29,3.91q12.78,3.87,19.87,10.94l-7.17,5ZM1586,11.43l-83.49-.24-10.63,42.28,74.66.21-1.74,6.89-74.66-.21-11.22,44,86.7.25-1.94,7-96.73-.27L1494,4.11l93.92.27L1586,11.43Z"/></g></g></svg>