<svg xmlns="http://www.w3.org/2000/svg" viewBox="0 0 163.93 40.86"><defs><style>.cls-1{fill:#f3fc00;}</style></defs><g id="レイヤー_2" data-name="レイヤー 2"><g id="图层_1" data-name="图层 1"><path class="cls-1" d="M34.33,23.26c-.49.63-2.65,3.51-3.15,4L27,24.61A34.57,34.57,0,0,0,32.22,19H22.5v9.18c0,1,.18,5.36.18,6.21,0,4-.72,5.9-5.31,5.9a19.65,19.65,0,0,1-4-.36l-1.62-4.68a17.16,17.16,0,0,0,4.05.72c2,0,2.25-.72,2.25-3.51V19H6.43A51,51,0,0,0,0,19.62V14.76c2.43.27,10.62.45,13.41.45h6.75A25.07,25.07,0,0,0,13.41,9L17,6.25a42.5,42.5,0,0,1,3.64,3,53.22,53.22,0,0,0,5.18-4.14H14c-.68,0-3.65.23-4.23.32L7,5.71V1a57.28,57.28,0,0,0,6.84.4c.49,0,2.7.09,3.15.09h5.76c1.84,0,8.28-.4,9-.49l2.34,3.59c-1.57.9-6.52,4.23-10.93,7.34a21.79,21.79,0,0,1,1.3,1.84l-1.75,1.49h2.25c2.38,0,7.24-.09,10-.23,1,0,1.75-.13,2.52-.22l2,2.43A63.42,63.42,0,0,0,34.33,23.26Z"/><path class="cls-1" d="M50.76,27.36c0,1.17-.4,7.47-2.11,11.16l-4-1A18.66,18.66,0,0,0,47,27.9a21.61,21.61,0,0,0-.18-2.75l3.87.59c.45.09.9.31.9.72S51.21,27.13,50.76,27.36Zm10-3.24c-.31-1-.49-1.62-.81-2.43-1,.13-2.43.31-3.64.49V29c0,2.92.09,5.76.45,10.53,0,.27,0,.72,0,.85h-4.9a72.49,72.49,0,0,0,.63-11.52V22.59c-.85.09-4.73.45-5.49.54-.63,1-.81,1.12-1.08,1.12-.45,0-.49-.31-.54-.67l-.36-4.46c1.22,0,1.44,0,3.47,0,.49-.54.81-.95,3.41-4.19a29.19,29.19,0,0,0-7.06-5.31L47.48,6c.76.59.9.73,2.25,1.81A50.4,50.4,0,0,0,53.91,0L58,1.89c.46.23.59.36.59.67s-.13.45-1.49.86C56.7,4,55,6.75,54.54,7.29A24,24,0,0,1,52.33,10c.32.32,1.71,1.62,2,1.89a68,68,0,0,0,4.09-6.16l4,2.25s.45.27.45.63-.18.54-1.49.85c0,.09-4.27,5.31-8.32,9.5,1.26,0,2.66-.14,5.4-.45-.63-1.08-.9-1.53-1.53-2.48l3.42-1.75a63.79,63.79,0,0,1,4.41,8ZM59.71,36a28.19,28.19,0,0,0-1.88-10.49l3.73-.94c.94,2.11,1.93,4.86,2.47,10.48ZM84.55,24.25c-.22,5-1,10.67-2.7,13.46-1.3,2.2-3.15,2.34-5.71,2.34a20.78,20.78,0,0,1-3.42-.32l-1.17-5.08a32.4,32.4,0,0,0,5.17,1c1.44,0,1.94-1,2.7-3.78,1-3.6,1.13-10.66,1.13-12.28,0-1.26,0-6.71,0-7.83H68.58a34.11,34.11,0,0,1-2.7,5.49l-4.41-1.62a20.93,20.93,0,0,0,4-7.34A41.59,41.59,0,0,0,67.23,0l4.36,1c.45.09.77.22.77.76s-.36.63-1.26,1a27.53,27.53,0,0,1-1.26,5.4h5.89c2,0,6-.18,9-.45C84.69,10.35,84.64,21.87,84.55,24.25Zm-11.7,4.1a38.09,38.09,0,0,0-4.5-9l3.87-1.8a39.07,39.07,0,0,1,4.91,9Z"/><path class="cls-1" d="M119.47,10.44c-2.88,0-4,.09-5.71.23-.09,1-.32,5.35-.36,6.25a15.34,15.34,0,0,1,2,7.42,23.91,23.91,0,0,1-7.29,16.52L103,38.79a12,12,0,0,0,4.27-3.2,12.65,12.65,0,0,0,2.88-5.76A5.48,5.48,0,0,1,106.69,31c-4.36,0-6.3-4.14-6.3-7.47,0-3.83,2.53-8.6,7.11-8.6a17.79,17.79,0,0,1,2.12.14c0-1.22,0-1.49,0-4a145.81,145.81,0,0,0-18,1.57l-.5-4.67c1.22,0,1.54.08,2.88.08,1.62,0,8.74-.27,10.17-.31,2-.05,3.15-.05,5.36-.09A41,41,0,0,0,109,.27L113.8.5c.72,0,1.71,0,1.71.76,0,.32-.31.54-.45.63l-.9.72a30,30,0,0,0-.31,4.68,100.51,100.51,0,0,0,13.86-1.12l.18,4.58C123.88,10.44,120.46,10.44,119.47,10.44Zm-11.88,8.37c-1.88,0-3.19,2.11-3.19,4.63,0,2.88,1.8,3.83,2.7,3.83,2.88,0,3.33-2.93,3.33-4.46C110.43,20.25,109.08,18.81,107.59,18.81Z"/><path class="cls-1" d="M149,38.43c-3.87,0-9.36-1.76-9.36-6.08,0-3.69,3.69-6,7.11-6a10.76,10.76,0,0,1,6.93,2.79,11.43,11.43,0,0,1,2.34,3,7.62,7.62,0,0,0,3.51-6.3c0-.63-.14-3.65-2-5.45A8.25,8.25,0,0,0,152,18.45a15.83,15.83,0,0,0-8.86,3c-2,1.4-3.51,3-7,6.75l-3.73-3C136.8,22,146.25,12.37,150.48,6.75c-3,.63-4.41.94-7.47,1.35-.85.09-4.59.45-5.35.54l-.95-4.37a20.71,20.71,0,0,0,3,.19,56.43,56.43,0,0,0,16-2.53l2.7,3.15a21.28,21.28,0,0,0-5,4.23,73.15,73.15,0,0,0-6.16,6.8,12.5,12.5,0,0,1,5.76-1.4,10.63,10.63,0,0,1,10.93,10.35C163.93,32.49,157.14,38.43,149,38.43Zm1.62-7.07a6.56,6.56,0,0,0-3.87-1.26c-2.25,0-3.2,1.26-3.2,2.07,0,1.71,2.7,2.61,5.32,2.61a9.82,9.82,0,0,0,3.55-.58A7.68,7.68,0,0,0,150.66,31.36Z"/></g></g></svg>