<svg xmlns="http://www.w3.org/2000/svg" viewBox="0 0 47 47"><defs><style>.cls-1{fill:none;stroke:#fff;stroke-miterlimit:10;stroke-width:1.2px;}</style></defs><g id="レイヤー_2" data-name="レイヤー 2"><g id="图层_1" data-name="图层 1"><g id="レイヤー_2-2" data-name="レイヤー 2"><g id="レイヤー_1-2" data-name="レイヤー 1-2"><path class="cls-1" d="M27.89,23.5a4.39,4.39,0,1,1-4.39-4.39h0A4.41,4.41,0,0,1,27.89,23.5Z"/><path class="cls-1" d="M34.74,15a4.42,4.42,0,0,0-1.11-1.65A4.38,4.38,0,0,0,32,12.26a7.63,7.63,0,0,0-2.67-.51H17.63a7.63,7.63,0,0,0-2.67.51A4.75,4.75,0,0,0,12.26,15a7.68,7.68,0,0,0-.51,2.68V29.33A7.68,7.68,0,0,0,12.26,32,4.74,4.74,0,0,0,15,34.74a7.68,7.68,0,0,0,2.68.51H29.33A7.68,7.68,0,0,0,32,34.74,4.71,4.71,0,0,0,34.74,32a7.68,7.68,0,0,0,.51-2.68V17.67A7.68,7.68,0,0,0,34.74,15Z"/><circle class="cls-1" cx="23.5" cy="23.5" r="6.75"/><path class="cls-1" d="M30.51,18.06a1.59,1.59,0,1,1,1.59-1.59v0a1.57,1.57,0,0,1-1.57,1.57Z"/><circle class="cls-1" cx="23.5" cy="23.5" r="22.9"/></g></g></g></g></svg>