<svg xmlns="http://www.w3.org/2000/svg" viewBox="0 0 45.24 45.24"><defs><style>.cls-1{fill:none;stroke:#fff;stroke-miterlimit:10;stroke-width:1.2px;}</style></defs><g id="レイヤー_2" data-name="レイヤー 2"><g id="图层_1" data-name="图层 1"><g id="レイヤー_2-2" data-name="レイヤー 2"><g id="レイヤー_1-2" data-name="レイヤー 1-2"><path class="cls-1" d="M22.62.6a22,22,0,1,0,22,22A22,22,0,0,0,22.62.6ZM32.68,17.78v.65A14.28,14.28,0,0,1,18.48,32.8h-.19a14.34,14.34,0,0,1-7.74-2.27,8,8,0,0,0,1.2,0A10.09,10.09,0,0,0,18,28.36a5.06,5.06,0,0,1-4.72-3.52,5,5,0,0,0,2.31,0,5.07,5.07,0,0,1-4.07-4.93h0a5.06,5.06,0,0,0,2.31.63,5,5,0,0,1-1.57-6.74,14.38,14.38,0,0,0,10.41,5.28,5.05,5.05,0,0,1,8.61-4.61,10,10,0,0,0,3.21-1.24A5,5,0,0,1,32.29,16a10.56,10.56,0,0,0,2.91-.79A10.75,10.75,0,0,1,32.68,17.78Z"/></g></g></g></g></svg>