<svg xmlns="http://www.w3.org/2000/svg" viewBox="0 0 1442.21 517.19"><defs><style>.cls-1{fill:rgb(235, 241, 249)}</style></defs><g id="レイヤー_2" data-name="レイヤー 2"><g id="レイヤー_1-2" data-name="レイヤー 1"><path class="cls-1" d="M256,0C114.64,0,0,114.64,0,256S114.64,512,256,512,512,397.36,512,256,397.36,0,256,0ZM372.89,199.6q.17,3.78.16,7.6c0,77.64-59.1,167.18-167.18,167.18h0A166.35,166.35,0,0,1,115.8,348a118.69,118.69,0,0,0,87-24.34,58.8,58.8,0,0,1-54.89-40.81,58.63,58.63,0,0,0,26.54-1,58.77,58.77,0,0,1-47.15-57.59c0-.27,0-.51,0-.75a58.33,58.33,0,0,0,26.62,7.34,58.82,58.82,0,0,1-18.2-78.44,166.84,166.84,0,0,0,121.12,61.39A58.79,58.79,0,0,1,357,160.19a117.75,117.75,0,0,0,37.31-14.26,59,59,0,0,1-25.84,32.5,117.49,117.49,0,0,0,33.75-9.26A119.45,119.45,0,0,1,372.89,199.6Z"/><path class="cls-1" d="M430.73,512l7-31.43H453L446,512Z"/><path class="cls-1" d="M489.17,512l7-31.43h15.25l-7,31.43Z"/><path class="cls-1" d="M547.6,512l7-31.43h15.26l-7,31.43Z"/><path class="cls-1" d="M656.23,294.13H672.1l95.51,204.44h.61l42.41-204.44h13.43L776.76,512H761.2L665.08,307.56h-.61L623,512H609.54Z"/><path class="cls-1" d="M863.45,294.13h142.2l-2.75,11.6H874.44L856.13,393H975.74l-2.13,11.59H853.69L833.55,500.4H966L963.54,512H817.68Z"/><path class="cls-1" d="M1014.5,294.13h13.42l14.34,202.61h.61l100.7-202.61h16.78l15.87,202.61h.61l98.87-202.61h13.73L1181.41,512h-15L1150,307.56h-.61L1047.45,512h-15Z"/><path class="cls-1" d="M1277.13,440.29a40.41,40.41,0,0,0-.31,6.41v6.41a53.5,53.5,0,0,0,3.67,19.53,45.32,45.32,0,0,0,11.44,16.78q7.78,7.32,20.14,11.75t29.75,4.42a120.3,120.3,0,0,0,27-2.9,68.75,68.75,0,0,0,22.13-9,44.3,44.3,0,0,0,15-16q5.49-9.92,5.49-23.95,0-11.91-6-19.84a53.75,53.75,0,0,0-14.8-13.42,87.47,87.47,0,0,0-19.22-8.85q-10.38-3.36-19.53-6.1-10.38-3.06-21.06-7a81.35,81.35,0,0,1-19.37-10.22,49.49,49.49,0,0,1-14.19-15.87q-5.49-9.61-5.49-24.26t6.4-25.78a57,57,0,0,1,17.24-18.62,78.19,78.19,0,0,1,25-11.14,117.33,117.33,0,0,1,29.44-3.66,111.56,111.56,0,0,1,27.77,3.36,71.12,71.12,0,0,1,23,10.22,51.7,51.7,0,0,1,15.71,17.09q5.79,10.23,5.8,24.26c0,2,0,3.92-.15,5.64s-.36,4-.77,6.87h-13.42c.4-3.05.66-5.24.76-6.56s.15-2.9.15-4.73q0-11.59-4.88-20a41.82,41.82,0,0,0-13.12-13.88,58.84,58.84,0,0,0-18.92-8.09,94.56,94.56,0,0,0-22.27-2.59,107.13,107.13,0,0,0-22.43,2.44,66.23,66.23,0,0,0-20.75,8.09,47.08,47.08,0,0,0-15.26,14.79q-6,9.17-6,22.28,0,12.21,5,20.14a42.74,42.74,0,0,0,13.42,13.27,80,80,0,0,0,19.07,8.7q10.68,3.36,22,6.41Q1376,400,1386.83,404a73,73,0,0,1,19.22,10.37,50.71,50.71,0,0,1,13.58,15.72q5.19,9.31,5.19,23,0,15.87-6.41,27.77a58.46,58.46,0,0,1-17.7,20,81.66,81.66,0,0,1-26.55,12.21,126.33,126.33,0,0,1-33,4.12,107.54,107.54,0,0,1-30.06-4.12,77.63,77.63,0,0,1-24.71-11.9,58.61,58.61,0,0,1-16.79-19.23q-6.26-11.43-6.25-26.39c0-2.64-.06-5.19-.15-7.63a61.5,61.5,0,0,1,.15-7.63Z"/></g></g></svg>