<svg xmlns="http://www.w3.org/2000/svg" viewBox="0 0 34.6 25.43"><defs><style>.cls-1{fill:none;stroke:#000;stroke-miterlimit:10;stroke-width:2px;}</style></defs><g id="レイヤー_2" data-name="レイヤー 2"><g id="图层_1" data-name="图层 1"><path class="cls-1" d="M28.9,7.39v.74A16.19,16.19,0,0,1,12.8,24.42h-.22a16.24,16.24,0,0,1-8.77-2.57,10.29,10.29,0,0,0,1.36,0,11.45,11.45,0,0,0,7.11-2.46,5.75,5.75,0,0,1-5.35-4,5.8,5.8,0,0,0,2.62,0,5.76,5.76,0,0,1-4.62-5.6h0a5.6,5.6,0,0,0,2.62.72A5.74,5.74,0,0,1,5.77,2.85a16.26,16.26,0,0,0,11.81,6,5.73,5.73,0,0,1,9.76-5.23A11.05,11.05,0,0,0,31,2.21a5.73,5.73,0,0,1-2.52,3.18,11.79,11.79,0,0,0,3.3-.9A12.12,12.12,0,0,1,28.9,7.39Z"/></g></g></svg>