<svg xmlns="http://www.w3.org/2000/svg" viewBox="0 0 118.17 37.02"><g id="レイヤー_2" data-name="レイヤー 2"><g id="レイヤー_1-2" data-name="レイヤー 1"><path d="M21.16,36.61l1-3.4h-18l-1,3.4H0L9.82,2.46H34.1L24.27,36.61Zm5-17.3h-18L4.9,30.42h18Zm4-13.86h-18l-3.16,11H27Z"/><path d="M67.76,30.55c-6.06-5.62-8.83-10.95-9.93-17.22L53.71,27.64h7.34l-.86,3H52.85L51,37H48.06l1.84-6.39H42.35l.86-3h7.55l4.11-14.31A75.51,75.51,0,0,1,35.07,31l-1.84-2.3A72.51,72.51,0,0,0,53,11.44H39.18L40,8.53H56.25L58.71,0l3,.21c.16,0,.84.08.75.41s-.58.57-1.25.9l-2,7H75.65l-.84,2.91H60.46A27.11,27.11,0,0,0,71.08,28.13Z"/><path d="M83.37,36.29l.48-1.68H77l-.52,1.8H73.82l3.62-12.59H89.7L86.11,36.29Zm2.89-10H79.41l-1.7,5.9h6.85Zm-7.85-5.66L79.14,18H91.07l-.73,2.54Zm1.37-10.45.77-2.67h15l-.76,2.67Zm.11,5.33.73-2.54H92.55l-.73,2.54Zm3.16-11,.76-2.67H95.75L95,4.47Zm21.41,31.61.52-1.8H94l-.56,1.92H90.52l3.72-12.91h16.69l-3.68,12.79ZM92.12,20l.74-2.59h6.07l3-5.57H97.13l.74-2.58h5.5l2.74-5H98l.71-2.46h19.43l-.71,2.46h-8.24l-2.74,5h7.92l-2.68,8.15H115L114.3,20Zm15.29,5.86h-11l-1.66,5.78h11Zm-2.33-14L102,17.38h6.65l1.93-5.57Z"/></g></g></svg>