<svg xmlns="http://www.w3.org/2000/svg" viewBox="0 0 76.76 16.8"><defs><style>.cls-1{fill:none;}</style></defs><g id="レイヤー_2" data-name="レイヤー 2"><g id="レイヤー_1-2" data-name="レイヤー 1"><rect class="cls-1" width="76.76" height="16.8"/><path d="M14,2.05l1.31,12.72H13.41l-.29-3.83H7.74L5.21,14.77H3.48L12.1,2.05ZM13,9.51l-.42-5.93h0L8.68,9.51Z"/><path d="M26.17,2.05a3.25,3.25,0,0,1,2.59.89,2.48,2.48,0,0,1,.32,2.44,5.1,5.1,0,0,1-1.11,2A3.93,3.93,0,0,1,26,8.6l0,0a1.61,1.61,0,0,1,.8.36,1.21,1.21,0,0,1,.38.59,2.16,2.16,0,0,1,.08.78,7.35,7.35,0,0,1-.1.89c-.07.31-.14.62-.22.94a8.33,8.33,0,0,0-.18,1,5.38,5.38,0,0,0-.05.88,1.59,1.59,0,0,0,.19.74H24.94a.88.88,0,0,1-.09-.54,5.07,5.07,0,0,1,.14-.75l.22-.9a6.55,6.55,0,0,0,.17-.95c0-.31.06-.6.07-.88a1.54,1.54,0,0,0-.13-.73,1.05,1.05,0,0,0-.46-.5,1.94,1.94,0,0,0-.94-.19H19.78l-1.56,5.44H16.53L20.19,2.05Zm-1.3,5.77a3.36,3.36,0,0,0,1-.35,3,3,0,0,0,.84-.69,3,3,0,0,0,.56-1.14,1.91,1.91,0,0,0-.08-1.56c-.24-.41-.76-.61-1.56-.61h-4.2L20.19,7.91h3.53A7.24,7.24,0,0,0,24.87,7.82Z"/><path d="M30.31,3.47l.41-1.42H40.89l-.41,1.42H36.24L33,14.77H31.3l3.25-11.3Z"/><path d="M44.07,2.05,40.41,14.77h-1.7L42.37,2.05Z"/><path d="M52.79,3.78a2.86,2.86,0,0,0-2-.61,5,5,0,0,0-1.08.11,3.72,3.72,0,0,0-1,.35,2.86,2.86,0,0,0-.84.67,2.78,2.78,0,0,0-.54,1,1.08,1.08,0,0,0,.08,1,1.64,1.64,0,0,0,.75.6,6.26,6.26,0,0,0,1.2.39l1.39.33A11.49,11.49,0,0,1,52.11,8a3.41,3.41,0,0,1,1.12.65,2.07,2.07,0,0,1,.63,1,2.91,2.91,0,0,1-.1,1.57,4.26,4.26,0,0,1-1,1.73,5.47,5.47,0,0,1-1.5,1.18,7.06,7.06,0,0,1-1.78.66,8.38,8.38,0,0,1-1.82.2,6.9,6.9,0,0,1-1.94-.26A3.58,3.58,0,0,1,44.31,14a2.72,2.72,0,0,1-.74-1.39,4.36,4.36,0,0,1,.16-2h1.6A2.67,2.67,0,0,0,45.25,12a1.92,1.92,0,0,0,.55,1,2.49,2.49,0,0,0,1,.55,4.82,4.82,0,0,0,1.34.18,7,7,0,0,0,1.18-.11,4.08,4.08,0,0,0,1.15-.37,3.08,3.08,0,0,0,.95-.7,2.83,2.83,0,0,0,.61-1.14,1.37,1.37,0,0,0,0-1.07,1.71,1.71,0,0,0-.73-.67,5.7,5.7,0,0,0-1.19-.42l-1.4-.33c-.47-.11-.93-.24-1.37-.39a3.84,3.84,0,0,1-1.14-.59,1.81,1.81,0,0,1-.66-.94,2.62,2.62,0,0,1,.07-1.45,4.53,4.53,0,0,1,.88-1.67,5.25,5.25,0,0,1,1.37-1.16A6.59,6.59,0,0,1,49.51,2a7.79,7.79,0,0,1,1.77-.22A6.24,6.24,0,0,1,53,2a2.82,2.82,0,0,1,1.26.74A2.38,2.38,0,0,1,54.93,4a4.13,4.13,0,0,1-.12,1.81h-1.6A2.1,2.1,0,0,0,52.79,3.78Z"/><path d="M56.7,3.47l.41-1.42H67.29l-.41,1.42H62.63l-3.25,11.3H57.69l3.25-11.3Z"/><path d="M74.56,3.78a2.83,2.83,0,0,0-2-.61,5.1,5.1,0,0,0-1.09.11,4,4,0,0,0-1,.35,3,3,0,0,0-.83.67,2.78,2.78,0,0,0-.54,1,1.12,1.12,0,0,0,.07,1,1.62,1.62,0,0,0,.76.6,6.26,6.26,0,0,0,1.2.39l1.39.33A12.07,12.07,0,0,1,73.89,8,3.51,3.51,0,0,1,75,8.67a2.07,2.07,0,0,1,.63,1,3,3,0,0,1-.1,1.57,4.38,4.38,0,0,1-1,1.73,5.47,5.47,0,0,1-1.5,1.18,7.13,7.13,0,0,1-1.79.66,8.29,8.29,0,0,1-1.81.2,7,7,0,0,1-2-.26A3.61,3.61,0,0,1,66.09,14a2.65,2.65,0,0,1-.74-1.39,4.1,4.1,0,0,1,.16-2h1.6A2.67,2.67,0,0,0,67,12a1.83,1.83,0,0,0,.54,1,2.6,2.6,0,0,0,1,.55,4.75,4.75,0,0,0,1.33.18,7.12,7.12,0,0,0,1.19-.11,4.12,4.12,0,0,0,1.14-.37,3,3,0,0,0,.95-.7,2.85,2.85,0,0,0,.62-1.14,1.42,1.42,0,0,0,0-1.07,1.74,1.74,0,0,0-.74-.67,5.32,5.32,0,0,0-1.19-.42l-1.39-.33q-.7-.16-1.38-.39A3.84,3.84,0,0,1,68,7.86a1.85,1.85,0,0,1-.65-.94,2.53,2.53,0,0,1,.07-1.45,4.37,4.37,0,0,1,.87-1.67,5.29,5.29,0,0,1,1.38-1.16A6.44,6.44,0,0,1,71.29,2a7.73,7.73,0,0,1,1.77-.22A6.29,6.29,0,0,1,74.81,2a2.93,2.93,0,0,1,1.26.74A2.37,2.37,0,0,1,76.7,4a4.13,4.13,0,0,1-.12,1.81H75A2,2,0,0,0,74.56,3.78Z"/></g></g></svg>