<svg xmlns="http://www.w3.org/2000/svg" viewBox="0 0 123.3 23.23"><defs><style>.cls-1{fill:none;stroke:#000;stroke-miterlimit:10;stroke-width:2px;}</style></defs><g id="レイヤー_2" data-name="レイヤー 2"><g id="图层_1" data-name="图层 1"><g id="レイヤー_2-2" data-name="レイヤー 2"><g id="图层_1-2" data-name="图层 1"><path class="cls-1" d="M118.13,8.62v.59a12.94,12.94,0,0,1-12.86,13h-.18a12.9,12.9,0,0,1-7-2.06,6.61,6.61,0,0,0,1.09,0,9.09,9.09,0,0,0,5.68-2,4.6,4.6,0,0,1-4.28-3.2,4.65,4.65,0,0,0,2.1,0A4.61,4.61,0,0,1,99,10.54h0a4.4,4.4,0,0,0,2.1.57A4.59,4.59,0,0,1,99.64,5a13,13,0,0,0,9.44,4.8,4.58,4.58,0,0,1,7.8-4.18,8.79,8.79,0,0,0,2.93-1.13,4.59,4.59,0,0,1-2,2.54,9.32,9.32,0,0,0,2.64-.72A9.74,9.74,0,0,1,118.13,8.62Z"/></g></g><path d="M7.69.52l7.76,18h.06l3.62-18h2.79L17.33,22.23h-3.1L6.54,4.38H6.48L2.8,22.23H0L4.59.52Z"/><path d="M42.71.52,42.22,3H30.15l-1.46,6.9H39.94l-.49,2.43H28.17l-1.58,7.51H38.81l-.54,2.44H23.15L27.75.52Z"/><path d="M59.94,22.23,58.58,3.5h-.06L49.94,22.23h-3.1L45.47.52h2.86l.76,18.27h.06L57.48.52h3.29L62,18.85H62L70,.52h3L63,22.23Z"/><path d="M87.3,4.79a3.45,3.45,0,0,0-1-1.4,4,4,0,0,0-1.6-.75,9.48,9.48,0,0,0-2.07-.21,7.82,7.82,0,0,0-1.67.2,5.74,5.74,0,0,0-1.62.62,4,4,0,0,0-1.24,1.1A2.72,2.72,0,0,0,77.62,6a3.07,3.07,0,0,0,.27,1.35,3,3,0,0,0,.75,1A4,4,0,0,0,79.76,9a14,14,0,0,0,1.38.49l2.92.79A14.5,14.5,0,0,1,86,11,6.12,6.12,0,0,1,87.68,12a4.57,4.57,0,0,1,1.17,1.65,6,6,0,0,1,.44,2.47,5.36,5.36,0,0,1-.77,2.93,6.79,6.79,0,0,1-2,2,9.16,9.16,0,0,1-2.72,1.2,11.89,11.89,0,0,1-3,.39,13.58,13.58,0,0,1-3.59-.44,7.44,7.44,0,0,1-2.78-1.35,5.68,5.68,0,0,1-1.73-2.36,7.35,7.35,0,0,1-.44-3.45h2.89a6,6,0,0,0,.33,2.47,3.76,3.76,0,0,0,1.17,1.61,4.81,4.81,0,0,0,1.87.86,10,10,0,0,0,2.4.26,8.4,8.4,0,0,0,2-.24,5.33,5.33,0,0,0,1.75-.75A3.8,3.8,0,0,0,85.93,18a3.55,3.55,0,0,0,.48-1.88,3.13,3.13,0,0,0-.31-1.42,2.88,2.88,0,0,0-.84-1A4.83,4.83,0,0,0,84,13.05a11.83,11.83,0,0,0-1.49-.49l-3-.79a10.13,10.13,0,0,1-1.85-.72A6,6,0,0,1,76.19,10a5,5,0,0,1-1.07-1.55,5.28,5.28,0,0,1-.39-2.12,5.23,5.23,0,0,1,.7-2.75,6.39,6.39,0,0,1,1.81-2A7.9,7.9,0,0,1,79.76.4,10.36,10.36,0,0,1,82.63,0a11.25,11.25,0,0,1,3.06.41,7.45,7.45,0,0,1,2.54,1.25A5.77,5.77,0,0,1,90,3.8a6.77,6.77,0,0,1,.56,3.13H87.62A5.45,5.45,0,0,0,87.3,4.79Z"/></g></g></svg>