<svg xmlns="http://www.w3.org/2000/svg" viewBox="0 0 45.28 16.11"><defs><style>.cls-1{fill:none;}</style></defs><g id="レイヤー_2" data-name="レイヤー 2"><g id="レイヤー_1-2" data-name="レイヤー 1"><rect class="cls-1" width="45.28" height="16.11"/><path d="M5.27,1.56H7.5l-3.66,13H1.61Z"/><path d="M10.14,1.56h2.35l3.11,9.57h0l2.7-9.57h2.12l-3.66,13H14.44L11.34,5h-.05L8.6,14.56H6.48Z"/><path d="M23.09,1.56h8.79l-.56,2H24.77l-1,3.41h5.75L29,8.78H23.29l-1.63,5.78H19.43Z"/><path d="M39.16,1.25a4.94,4.94,0,0,1,2.41.54,3.88,3.88,0,0,1,1.5,1.48,4.94,4.94,0,0,1,.59,2.16,8,8,0,0,1-.32,2.63,10.35,10.35,0,0,1-1.16,2.64,10,10,0,0,1-1.81,2.16A8.49,8.49,0,0,1,38,14.33a6.94,6.94,0,0,1-2.71.54,5,5,0,0,1-2.41-.54,3.79,3.79,0,0,1-1.5-1.47,4.81,4.81,0,0,1-.59-2.16,8,8,0,0,1,.32-2.64,10.29,10.29,0,0,1,1.16-2.63,9.71,9.71,0,0,1,1.81-2.16,8.77,8.77,0,0,1,2.33-1.48A6.94,6.94,0,0,1,39.16,1.25ZM38.64,3.1a4.17,4.17,0,0,0-1.87.42,5.39,5.39,0,0,0-1.52,1.12,7.46,7.46,0,0,0-1.14,1.6,9.11,9.11,0,0,0-.73,1.82,7.83,7.83,0,0,0-.29,1.82,4,4,0,0,0,.24,1.59,2.27,2.27,0,0,0,.88,1.12,2.91,2.91,0,0,0,1.64.42,4.25,4.25,0,0,0,1.88-.42,5.16,5.16,0,0,0,1.51-1.12,7.65,7.65,0,0,0,1.14-1.59,9.35,9.35,0,0,0,.73-1.82,7.41,7.41,0,0,0,.29-1.82,4.25,4.25,0,0,0-.23-1.6,2.39,2.39,0,0,0-.89-1.12A2.89,2.89,0,0,0,38.64,3.1Z"/></g></g></svg>