<svg xmlns="http://www.w3.org/2000/svg" viewBox="0 0 80.91 20.82"><defs><style>.cls-1{fill:#070001;}.cls-2{fill:#00269a;}</style></defs><g id="レイヤー_2" data-name="レイヤー 2"><g id="图层_1" data-name="图层 1"><path class="cls-1" d="M47,4.16s-.37.12-.48.23a.06.06,0,0,1,0,0,2.56,2.56,0,0,1-1.24-1.12c0,.4,0,.8,0,1.16h0c0,.11-.12.16-.19.16a.13.13,0,0,1-.14-.14h0c0-.29,0-.59,0-.89a3.11,3.11,0,0,1-1.72.91h0s0,0,.09-.05a4,4,0,0,0,1.58-1.2h-.54v.12h0a.16.16,0,0,1-.17.14A.12.12,0,0,1,44,3.38h0c0-.3,0-.61,0-.82V2.42A3,3,0,0,0,44,2s0,0,0,0a0,0,0,0,1,0,0,1.92,1.92,0,0,1,.4.18h.52V1.73h-.21c-.21,0-.74,0-1.09,0h0c-.07,0-.18-.15-.18-.2.4.05,1.06.06,1.29.06h.18a2.89,2.89,0,0,0,0-.52v0s0,0,0,0,.49.06.49.16,0,.05-.08.08-.08,0-.09.16v.15H46a.09.09,0,0,0,.07,0c.17-.27.22-.27.24-.27h0c.12,0,.36.28.36.35s0,.05-.09.05H45.19v.38h.56a.06.06,0,0,0,0,0l.08-.1.05,0s.34.17.34.24,0,.06-.08.09-.09,0-.09.13v.11c0,.2,0,.52,0,.74h0c0,.06,0,.14-.18.14a.12.12,0,0,1-.13-.11h0V3.23h-.6a2.71,2.71,0,0,0,1.7.92h0m-2-1.95h-.54l0,0s0,0,0,.37h.62V2.21m-.62.48v.44h.62V2.69Zm1.51-.43a0,0,0,0,0,0,0h-.59V2.6h.64V2.26m-.64.43v.44h.64V2.69Z"/><path class="cls-1" d="M48.89,3.86s0,0-.06,0h-.09s0,0-.07,0a3,3,0,0,1-1.22.53h0s0,0,.06,0a2.45,2.45,0,0,0,1-.82s0,0,0,0,.35.23.35.32m2.08-2s0,0-.08,0h-2c-.21,0-.74,0-1.09,0h0c-.08,0-.19-.16-.19-.21.4.05,1.08.07,1.3.07h.21V1.69a3.13,3.13,0,0,0,0-.56,0,0,0,0,1,0,0h0s.51.08.51.16,0,.06-.08.09-.08,0-.1.16v.26h.81a.08.08,0,0,0,.07,0c.15-.22.2-.27.23-.27a.76.76,0,0,1,.39.36m-.52.59s0,.07-.09.09-.08.06-.08.2,0,.41,0,.62h0c0,.11-.12.14-.18.14A.13.13,0,0,1,50,3.34h0V3.25h-.4s0,0,0,0,0,0-.05.06-.08,0-.08.31c0,.08,0,.17,0,.27s0,.18,0,.26h0c0,.34-.36.41-.45.41s-.06,0-.09-.06-.41-.25-.41-.28h.06a2.21,2.21,0,0,0,.38,0c.15,0,.21,0,.22-.14V3.48a.93.93,0,0,0,0-.23h-.54v.1c0,.08-.1.13-.18.13s-.13,0-.13-.1v0c0-.32,0-.58,0-.75a3.09,3.09,0,0,0,0-.44v0a0,0,0,0,1,0,0,2.19,2.19,0,0,1,.41.18h1.15a.05.05,0,0,0,.05,0c.07-.09.12-.13.14-.13s.35.16.35.24M50,2.71a1.7,1.7,0,0,0,0-.24,0,0,0,0,0-.05-.05H48.75c-.08,0-.09.07-.09.46,0,.09,0,.18,0,.28H50c0-.16,0-.31,0-.45m.82,1.49a.17.17,0,0,1-.16.18.23.23,0,0,1-.18-.12,2.71,2.71,0,0,0-.66-.57s0,0,0,0h0c.11,0,1,.19,1,.56"/><path class="cls-1" d="M55.26,1.56s0,0-.08,0H54.11v.11a.09.09,0,0,1,0,.07c.25,0,.32.06.32.1s0,.05-.06.06-.05,0-.05.12v.13h.21l.07-.09h0c.06,0,.26.12.26.17s0,.07,0,.07-.08,0-.09.07a1.32,1.32,0,0,0,0,.28c0,.46.22.58.27.58s.13-.15.19-.32v0h0s0,0,0,.06c0,.27,0,.32,0,.35a.13.13,0,0,1,0,.08c0,.07-.08.13-.19.13s-.58,0-.58-.92c0-.11,0-.21,0-.3s0,0,0,0h-.19a2.7,2.7,0,0,1-.07.44c.14.07.21.16.21.23a.09.09,0,0,1-.09.1A.15.15,0,0,1,54.2,3l-.06-.07a1.3,1.3,0,0,1-1,.62h0s0,0,.06,0A1.08,1.08,0,0,0,54,2.77l-.23-.16,0,0h0a1.77,1.77,0,0,1,.29.06c0-.11,0-.23,0-.35l-.28,0s-.13-.12-.13-.14l.41,0v-.1a1.23,1.23,0,0,0,0-.27H54c-.07,0-.13,0-.13-.1h0V1.6h-.5v.12h0c0,.07-.08.12-.16.12l-.07,0s0,0,0,0,0,0-.07,0,0,0,0,.1V2h.14l0,0a.54.54,0,0,1,.09-.12h0a.44.44,0,0,1,.26.18s0,.05-.06.05H53a1.09,1.09,0,0,0,0,.19h.2l0,0a.6.6,0,0,1,.11-.12h0c.07,0,.26.12.26.19s0,0-.06,0h-.34v0s0,0,0,0,0,0,0,0v.06c0,.06,0,.07.16.07s.16,0,.22-.18c0,0,0,0,0,0s0,.15,0,.16a.08.08,0,0,1,.07.07c0,.11-.29.11-.47.11s-.25,0-.25-.16h0V2.38h-.19l0,0s0,0,0,0,0,0,0,0,0,0-.06,0a.94.94,0,0,1-.73.4s0,0,0,0a.14.14,0,0,1,.06,0,.68.68,0,0,0,.53-.46l-.38,0h0S52,2.29,52,2.26c.27,0,.55.05.73.05V2.12l-.44,0h0S52.19,2,52.19,2h0l.57,0a1.86,1.86,0,0,0,0-.26,0,0,0,0,1,0,0s0,0,0,0l.3,0h0a.09.09,0,0,1,0-.06h0a.53.53,0,0,0,0-.13c-.25,0-.68,0-1,0h0c-.07,0-.18-.15-.18-.2.33,0,.86.06,1.16.06V1.38a.92.92,0,0,0,0-.26v0s0,0,0,0,.43,0,.43.12,0,0-.08.07-.07,0-.07.24h.52V1.38a1,1,0,0,0,0-.26v0s0,0,0,0,.42,0,.42.12,0,0-.09.07-.06,0-.06.09v.15h.48a.08.08,0,0,0,.06,0c.05-.08.18-.26.23-.26h0a.7.7,0,0,1,.35.33m-.07,2.33s0,0-.08,0H53.56l0,0s0,0-.11,0a.08.08,0,0,0-.06,0,2.62,2.62,0,0,1-.23.21l1.07-.08L54,4.06l0,0h0s1,.06,1,.4a.14.14,0,0,1-.14.15.24.24,0,0,1-.16-.08,1.52,1.52,0,0,0-.33-.26c-.65.14-1.33.21-1.94.29,0,0-.07,0-.1,0s-.22-.29-.22-.33h0l.34,0,.55,0a2.11,2.11,0,0,0,.09-.32c-.28,0-.71,0-1,0h0c-.07,0-.18-.15-.18-.19.39,0,1.12.06,1.34.06h1.28s0,0,0,0,.13-.2.22-.2.35.2.35.28m-2.94-.36s0,0-.06,0S52,3.34,52,3.31s0,0,0,0h.11c.11,0,.34,0,.62-.06V3l-.49,0h0c-.05,0-.13-.11-.13-.14l.62,0a1.3,1.3,0,0,0,0-.22s0,0,0,0h0s.35,0,.35.1,0,0-.05.05,0,0-.06.09v0h.15l0,0a1.2,1.2,0,0,1,.11-.12h0a.4.4,0,0,1,.25.19s0,0-.07,0H53a1.34,1.34,0,0,0,0,.21l.6-.1h.05a5.73,5.73,0,0,1-1.38.39m2.41.07s0,0-.08,0h-1c-.2,0-.64,0-.87,0h0c-.07,0-.17-.13-.17-.17.31,0,.85,0,1,0h.54a.07.07,0,0,0,.06,0c.13-.16.18-.16.2-.16h0c.06,0,.3.16.3.24"/><path class="cls-1" d="M57.22,2.23s0,0-.1,0-.06,0-.09.06l-.22.23.08,0s.06,0,.06.05,0,0-.08.08,0,0-.06.12,0,.56,0,.89,0,.52,0,.7h0a.17.17,0,0,1-.17.17.13.13,0,0,1-.13-.15v0c0-.39.06-1,.06-1.39V2.81a1.62,1.62,0,0,1-.6.38h0s0,0,.06-.06A3.12,3.12,0,0,0,56.9,2a.08.08,0,0,0,0,0s.31.17.31.26m0-.71s0,0-.08,0h0s0,0-.07,0a2.42,2.42,0,0,1-1,.62h0s0,0,.05-.05a2.56,2.56,0,0,0,.81-.91s0,0,0,0,.31.2.31.28m.42,1.15s0,.06-.08.07,0,0-.06.08C57.26,3.68,57,4,56.91,4h0a.15.15,0,0,1,0-.06,3.77,3.77,0,0,0,.3-1.17c0-.06,0-.13,0-.17s0,0,0,0h0s.37.06.37.15m1-.58s0,0-.06,0h-.67v.33c0,.6,0,1.35,0,1.89h0c0,.12-.14.15-.18.15a.12.12,0,0,1-.13-.13h0c0-.53,0-1.41,0-2V2.14l-.39,0h0c-.06,0-.16-.15-.16-.19a3,3,0,0,0,.55,0V1.86a2.94,2.94,0,0,0,0-.56v0s0,0,0,0,.44.07.44.14,0,0,0,.05h0c.12,0,.39.05.39.24a.13.13,0,0,1-.13.14.14.14,0,0,1-.12-.1A1,1,0,0,0,58,1.5s0,0,0,0h0c-.08,0-.08,0-.09.55h.24a.05.05,0,0,0,0,0c0-.05.14-.16.17-.16a0,0,0,0,1,0,0c.08,0,.27.16.27.24m-.09,1.34c0,.14-.09.24-.17.24s-.13-.07-.14-.23A2.48,2.48,0,0,0,58,2.55a0,0,0,0,1,0,0h0a1.57,1.57,0,0,1,.53.91m1.11-1s0,0-.08,0h-.37s.05,0,.05,0,0,0-.05,0-.06,0-.06.13,0,.31,0,.49,0,.37,0,.51,0,.31,0,.39h0a.44.44,0,0,1-.43.43s-.05,0-.07-.05-.37-.27-.37-.3h0a1.76,1.76,0,0,0,.33,0c.16,0,.22-.06.23-.17V3.6c0-.34,0-.94,0-1.09l-.38,0h0c-.07,0-.17-.15-.17-.19a4.76,4.76,0,0,0,.59.05h.18a.06.06,0,0,0,.06,0s.14-.23.18-.23,0,0,0,0,.3.22.3.31m-.12-.84s0,0-.07,0H59a2.19,2.19,0,0,0-.31,0h0c-.06,0-.16-.14-.16-.19a2,2,0,0,0,.43.06H59a.07.07,0,0,0,.05,0s.15-.23.19-.23h0c.1,0,.29.22.29.31"/><path class="cls-1" d="M64,4.28s-.38.07-.51.18,0,0,0,0a2.67,2.67,0,0,1-1.24-2,2.42,2.42,0,0,1-1.86,2.06h0s0,0,.11-.08a2.72,2.72,0,0,0,1.47-2.09h-.11c-.21,0-.76,0-1.11,0h0c-.07,0-.19-.15-.19-.2.4,0,1.1.06,1.32.06h.1a1.85,1.85,0,0,0,0-.23,1.93,1.93,0,0,0,0-.23,4.64,4.64,0,0,0,0-.67s0,0,0,0h0s.55.05.55.18,0,.07-.11.09-.08,0-.08.24,0,.28,0,.44a1.41,1.41,0,0,1,0,.2h.89a.08.08,0,0,0,.06,0c.14-.21.18-.27.23-.27h0a.84.84,0,0,1,.37.35s0,0-.09,0H62.23A2.74,2.74,0,0,0,64,4.26s0,0,0,0"/><path class="cls-1" d="M68.12,3.37s0,0-.08,0h-1.5v.43c0,.09,0,.2,0,.29,0,.46-.52.46-.52.46a.08.08,0,0,1-.09-.06c-.07-.11-.46-.28-.46-.31h.06a2.61,2.61,0,0,0,.46.06c.26,0,.27-.09.27-.49,0-.13,0-.25,0-.38H66c-.21,0-.8,0-1.15,0h0c-.08,0-.18-.15-.18-.2.4.05,1.13.06,1.35.06h.27A2.52,2.52,0,0,0,66.21,3v0h0a1.73,1.73,0,0,1,.29.05,2.36,2.36,0,0,0,.27-.38s0,0,0,0h-.37c-.22,0-.5,0-.83,0h0c-.06,0-.17-.14-.17-.19a9.39,9.39,0,0,0,1,.06h.36a.1.1,0,0,0,.08,0l.11-.1h0a.59.59,0,0,1,.24.16,1.63,1.63,0,0,0,.24-.43,0,0,0,0,0,0,0H65.31c0,.35-.22.6-.4.6a.15.15,0,0,1-.17-.15.29.29,0,0,1,.12-.21.79.79,0,0,0,.36-.53c0-.05,0-.07,0-.07a.48.48,0,0,1,.07.27h1.44a2.26,2.26,0,0,0,.3-.78s0,0,0,0,.44.21.44.28,0,.05-.13.05-.06,0-.1.05-.29.31-.43.44h.58l.06,0s.09-.11.14-.11.37.2.37.32,0,.08-.17.09a2.57,2.57,0,0,0-.58.31l0,0a.11.11,0,0,1,0,.07s0,.07-.11.09a.63.63,0,0,0-.2.06c-.11.07-.24.16-.37.23h0c.05,0,.07,0,.07.06s0,.06-.08.08-.07,0-.08.14v0h.88a.06.06,0,0,0,.06,0c.11-.17.2-.28.24-.28a.75.75,0,0,1,.4.36M65.89,1.6a.18.18,0,0,1-.16.18.19.19,0,0,1-.17-.14,1.51,1.51,0,0,0-.24-.34s0,0,0,0,0,0,0,0c.22,0,.58.11.58.35m.66-.07a.17.17,0,0,1-.17.18c-.06,0-.13,0-.16-.16A1.39,1.39,0,0,0,66,1.19l0-.05s0,0,0,0,.54.14.54.4"/><path class="cls-1" d="M72.52,4.28s-.38.07-.51.18l-.06,0a2.7,2.7,0,0,1-1.24-2,2.4,2.4,0,0,1-1.85,2.06h0s0,0,.11-.08a2.72,2.72,0,0,0,1.47-2.09h-.11c-.21,0-.76,0-1.11,0h0c-.08,0-.19-.15-.19-.2.39,0,1.1.06,1.32.06h.1c0-.08,0-.16,0-.23a1.93,1.93,0,0,0,0-.23,4.64,4.64,0,0,0,0-.67s0,0,0,0h0s.55.05.55.18,0,.07-.11.09-.08,0-.09.24,0,.28,0,.44,0,.13,0,.2h.88a.08.08,0,0,0,.07,0c.14-.21.18-.27.23-.27h0a.81.81,0,0,1,.36.35s0,0-.08,0H70.76a2.72,2.72,0,0,0,1.72,1.85s0,0,0,0"/><path class="cls-1" d="M76.57,3.37s0,0-.08,0H75v.43c0,.09,0,.2,0,.29,0,.46-.52.46-.53.46s-.06,0-.09-.06-.46-.28-.46-.31H74a2.73,2.73,0,0,0,.46.06c.26,0,.27-.09.27-.49,0-.13,0-.25,0-.38h-.29c-.21,0-.8,0-1.15,0h0c-.08,0-.18-.15-.18-.2.4.05,1.13.06,1.35.06h.27a2.52,2.52,0,0,0,0-.37v0h0A1.73,1.73,0,0,1,75,3a2.36,2.36,0,0,0,.27-.38s0,0,0,0h-.37c-.22,0-.5,0-.83,0h0c-.06,0-.17-.14-.17-.19a9.39,9.39,0,0,0,1,.06h.37a.1.1,0,0,0,.07,0l.11-.1h0a.59.59,0,0,1,.24.16,1.63,1.63,0,0,0,.24-.43l0,0H73.76c0,.35-.22.6-.4.6a.15.15,0,0,1-.17-.15.28.28,0,0,1,.13-.21.81.81,0,0,0,.35-.53c0-.05,0-.07,0-.07a.48.48,0,0,1,.07.27H75.2a2.26,2.26,0,0,0,.3-.78s0,0,0,0,.44.21.44.28,0,.05-.13.05-.06,0-.1.05-.28.31-.43.44h.58l.06,0s.09-.11.14-.11.37.2.37.32,0,.08-.17.09a2.57,2.57,0,0,0-.58.31l0,0a.11.11,0,0,1,0,.07s0,.07-.11.09a.52.52,0,0,0-.19.06L75.06,3h0s.07,0,.07.06,0,.06-.08.08-.07,0-.08.14v0h.88a.09.09,0,0,0,.07,0c.1-.17.19-.28.23-.28a.75.75,0,0,1,.4.36M74.34,1.6a.17.17,0,0,1-.16.18A.19.19,0,0,1,74,1.64a1.51,1.51,0,0,0-.24-.34s0,0,0,0,0,0,0,0c.23,0,.58.11.58.35M75,1.53a.17.17,0,0,1-.17.18c-.06,0-.13,0-.16-.16a1.39,1.39,0,0,0-.19-.36l0-.05s0,0,0,0,.54.14.54.4"/><path class="cls-1" d="M78.61,1.55s0,.06-.1.08a.14.14,0,0,0-.1.07c-.08.12-.23.33-.28.42a.24.24,0,0,0,0,.12c0,.06,0,.1.09.16a1,1,0,0,1,.36.68.52.52,0,0,1-.45.54.1.1,0,0,1-.08,0,1,1,0,0,0-.21-.25c0,.4,0,.78,0,1.11h0a.17.17,0,0,1-.18.15.12.12,0,0,1-.13-.14h0c0-.5,0-1.29,0-1.9a7.55,7.55,0,0,0-.06-1.28v0s0,0,0,0a2.75,2.75,0,0,1,.41.17l0,0h.21a0,0,0,0,0,0,0c.06-.08.11-.12.13-.12s.32.19.32.26M78.27,3a.9.9,0,0,0-.18-.51A.31.31,0,0,1,78,2.24a.37.37,0,0,1,0-.13c0-.12.12-.52.12-.56a0,0,0,0,0,0,0h-.24l0,0s0,.05,0,.17c0,.32,0,.76,0,1.23v.34a.79.79,0,0,0,.2,0c.25,0,.27-.24.27-.37m2.51,1.3c0,.16-.26.24-.67.24-.16,0-.5,0-.5-.32V3.31a2.37,2.37,0,0,0,0-.31h-.16l0,0s0,.05-.07.07,0,0,0,.1A1.39,1.39,0,0,1,78,4.6h0l.09,0a1.39,1.39,0,0,0,1-1.43s0-.08,0-.12l-.37,0h0c-.06,0-.17-.15-.17-.2a5.53,5.53,0,0,0,.91.06h.64a.08.08,0,0,0,.06,0s.15-.22.2-.22.35.22.35.31,0,0-.09,0H80s0,0,0,0,0,0-.07.06-.06.06-.06.73v.26c0,.13,0,.16.25.16s.37,0,.46-.59c0,0,0,0,0,0s0,.47.09.5a.17.17,0,0,1,.09.14m-.06-2.37c0,.05,0,.08-.15.09s-.28.16-.42.25c.09.09.11.13.11.15s0,.05-.07.05h-.74a4.75,4.75,0,0,0-.51,0h0c-.06,0-.16-.14-.16-.19a3.92,3.92,0,0,0,.69.06h.25a.05.05,0,0,0,.05,0c0-.07.15-.21.19-.21a.45.45,0,0,1,.16.09,2.21,2.21,0,0,0,.12-.32h0a0,0,0,0,0,0,0H78.9v0c0,.17-.08.44-.28.44a.16.16,0,0,1-.16-.15A.21.21,0,0,1,78.53,2a.65.65,0,0,0,.25-.46s0-.06,0-.06.07.1.09.23h.5V1.59a1.87,1.87,0,0,0,0-.42v0s0,0,0,0,.46.06.46.15,0,.06-.07.08-.09,0-.09.36h.54l.06,0s.09-.11.12-.11.34.17.34.29"/><path class="cls-1" d="M46.57,12.17a.19.19,0,0,1-.19.17.14.14,0,0,1-.14-.14V12H43.9v.15a.19.19,0,0,1-.19.16.13.13,0,0,1-.14-.14h0c0-.69,0-1.59,0-2.2a6.57,6.57,0,0,0,0-1,0,0,0,0,1,0,0,0,0,0,0,1,0,0,1.45,1.45,0,0,1,.43.19h2.13a.07.07,0,0,0,.06,0c.11-.12.14-.13.15-.13s.37.19.37.27-.05.07-.12.11-.07,0-.07.5c0,.63,0,1.77,0,2.3Zm-.33-.84c0-.76,0-1.67,0-2a.07.07,0,0,0-.06-.07H44c-.1.07-.1.07-.1.16,0,.27,0,1.73,0,2.53h2.34ZM45,11.46c-.14,0-.43,0-.73,0h0c-.07,0-.18-.14-.18-.19.32,0,.67,0,.86.06,0-.16,0-.5,0-.8a4.6,4.6,0,0,0-.49,0h0c-.06,0-.17-.14-.17-.19a6.23,6.23,0,0,0,.67.05v-.33c0-.08,0-.2,0-.3a4.83,4.83,0,0,0-.59,0h0c-.06,0-.17-.14-.17-.19.36,0,.71.06.87.06h.4a.07.07,0,0,0,.06,0c.08-.12.15-.23.19-.23h0a.61.61,0,0,1,.3.3s0,.05-.08.05h-.66a.05.05,0,0,1,0,.05.08.08,0,0,1-.06,0s0,0,0,.53h.15s0,0,0,0,.13-.21.17-.21h0c.11,0,.29.18.29.27s0,.05-.08.05h-.6c0,.29,0,.61,0,.8h.31a.07.07,0,0,0,0,0c.15-.22.17-.24.2-.24h0a.63.63,0,0,1,.32.31s0,.05-.08.05Zm.61-.47a1,1,0,0,0-.23-.27l0,0s0,0,0,0,.5,0,.5.26a.15.15,0,0,1-.14.15.15.15,0,0,1-.14-.1"/><path class="cls-1" d="M51.21,10.5s-.29.06-.41.18,0,0,0,0a1.94,1.94,0,0,1-.86-1.15h0s-.06,0-.08.06a2.58,2.58,0,0,1-.53.82,3.16,3.16,0,0,0,.47,0h.12s0,0,0,0,.12-.19.16-.19.29.2.29.27,0,.05-.07.05h-.57a1.73,1.73,0,0,0-.32,0h0c-.05,0-.12-.09-.14-.15a2.13,2.13,0,0,1-.5.39v0a.52.52,0,0,1-.42.5.07.07,0,0,1-.07-.05.78.78,0,0,0-.17-.21c0,.37,0,.75,0,1.07h0a.16.16,0,0,1-.17.15.12.12,0,0,1-.12-.13v0c0-.45,0-1.17,0-1.76A8.46,8.46,0,0,0,47.77,9V9h0a1.79,1.79,0,0,1,.4.18l0,0h.16l0,0L48.48,9h.06s.28.17.28.26,0,.06-.09.08a.14.14,0,0,0-.1.07c-.25.4-.3.48-.3.55s0,.09.08.15l.09.11A3.2,3.2,0,0,0,49.06,9s0,0,0,0,.38.11.38.19,0,.06-.08.06-.06,0-.15.2h.31a0,0,0,0,0,0,0l.09-.07s0,0,.19.11c0-.11,0-.23,0-.23s0-.06,0-.06,0,0,0,.06a2.2,2.2,0,0,0,.39.74,2.77,2.77,0,0,0,.28-.48s0,0,0,0h-.08l-.28,0h0A.27.27,0,0,1,50,9.28a2.91,2.91,0,0,0,.44.05h.08a.05.05,0,0,0,0,0l.08-.07s0,0,0,0,.3.18.3.26,0,.06-.07.07a.24.24,0,0,0-.15.06,3.84,3.84,0,0,1-.45.37,1.7,1.7,0,0,0,.88.52h0m-2.72.22a1,1,0,0,0-.17-.52.35.35,0,0,1-.07-.2.93.93,0,0,1,0-.14c0-.15.12-.55.12-.56s0,0,0,0h-.18c-.08.05-.09.05-.09.16,0,.27,0,.67,0,1.12v.5l.16,0c.13,0,.25-.08.25-.37m.92.85s0,0-.08,0h0s0,0-.07.05a2.16,2.16,0,0,1-.93.56h0s0,0,.06-.05a2,2,0,0,0,.73-.81s0,0,0,0,.33.18.33.26m.13-2.06s0,0,0,0h-.36a1.18,1.18,0,0,1-.11.19h.06c.15,0,.24.07.24.16a.11.11,0,0,1-.1.12.14.14,0,0,1-.09-.06A1,1,0,0,0,49,9.73l-.19.26h0c.27,0,.27.15.27.17s0,.12-.1.12a.12.12,0,0,1-.09-.06,2.26,2.26,0,0,0-.13-.2,2.46,2.46,0,0,1-.27.28.93.93,0,0,1,.2.46,2.77,2.77,0,0,0,.81-1.25M50.87,11s0,.05-.09.05H50l0,0s0,0-.05.05-.06,0-.07.13v.38c0,.06,0,.16,0,.23a.42.42,0,0,1-.42.42s-.06,0-.08-.06S49,12,49,12h.06a1.86,1.86,0,0,0,.36,0c.15,0,.21,0,.21-.15s0-.22,0-.32c0-.27,0-.44,0-.47h-.07c-.19,0-.4,0-.6,0h0c-.06,0-.17-.14-.17-.19a6.6,6.6,0,0,0,.79.05h.72a.09.09,0,0,0,.06,0c.14-.19.15-.2.18-.2h0c.12,0,.31.2.31.27m.06.85a.16.16,0,0,1-.15.17.19.19,0,0,1-.16-.12,1.9,1.9,0,0,0-.49-.49.05.05,0,0,1,0,0h0s.81.16.81.49"/><path class="cls-1" d="M54.16,9.57V9.9h0c0,.09-.1.13-.17.13s-.13,0-.13-.11h0c0-.13,0-.25,0-.35h-.63v.36h0c0,.11-.14.13-.17.13A.12.12,0,0,1,53,10h0c0-.14,0-.26,0-.37-.25,0-.62,0-.9,0h0c-.07,0-.18-.15-.18-.2A10.52,10.52,0,0,0,53,9.47V9.36A3.67,3.67,0,0,0,53,9a0,0,0,0,1,0,0s0,0,0,0,.45.05.45.14,0,.06-.1.09-.07.05-.07.31h.64V9.36a2.13,2.13,0,0,0,0-.39V9s0,0,0,0,.43.05.43.15,0,.05-.09.08-.07.12-.07.31h.43l.06,0s.16-.27.24-.27h0a.75.75,0,0,1,.36.34s0,.05-.08.05ZM53.58,11l0,0s0,.05-.08.06a.13.13,0,0,0-.08.08c-.1.17-.24.45-.36.64.47,0,.93-.09,1.24-.14a4.54,4.54,0,0,0-.38-.38l0,0h0c.13,0,1,.39,1,.75a.19.19,0,0,1-.17.2c-.06,0-.13,0-.19-.15a1.74,1.74,0,0,0-.2-.3,16.25,16.25,0,0,1-1.89.43c-.06,0-.08.07-.12.07s-.29-.37-.29-.41h0a2.13,2.13,0,0,0,.33,0h.48a3.26,3.26,0,0,0,.17-.83c-.28,0-.73,0-1,0h0c-.07,0-.19-.15-.19-.2.4.05,1.16.06,1.38.06h1.25a.06.06,0,0,0,.06,0,.85.85,0,0,1,.23-.27h0c.13.05.37.27.37.34s0,0-.08,0Zm0-.64a9.61,9.61,0,0,0-1,0h0c-.07,0-.17-.15-.17-.2a11.31,11.31,0,0,0,1.19.06h.55a.08.08,0,0,0,.06,0c0-.05.17-.25.23-.25h0c.14,0,.36.27.36.34s0,0-.08,0Z"/><path class="cls-1" d="M57.22,10s0,0-.1,0a.1.1,0,0,0-.09.05c-.07.09-.15.16-.22.24l.08,0s.06,0,.06.05,0,0-.08.07,0,0-.06.12,0,.56,0,.89,0,.53,0,.71h0a.17.17,0,0,1-.17.16.12.12,0,0,1-.13-.14v0c0-.4.06-1,.06-1.4v-.24a1.62,1.62,0,0,1-.6.38h0s0,0,.06-.06a3.12,3.12,0,0,0,.89-1.13v0s.31.17.31.27m0-.72s0,.05-.08.05h0s0,0-.07,0A2.47,2.47,0,0,1,56,10h0l.05-.05A2.56,2.56,0,0,0,56.87,9s0,0,0,0,.31.21.31.28m.42,1.15s0,.06-.08.08,0,0-.06.07c-.21.87-.51,1.15-.56,1.15h0a.15.15,0,0,1,0-.06,3.77,3.77,0,0,0,.3-1.17c0-.06,0-.13,0-.17v0h0s.37.06.37.15m1-.58s0,0-.06,0h-.67v.33c0,.6,0,1.36,0,1.89h0c0,.12-.14.15-.18.15a.12.12,0,0,1-.13-.13v0c0-.53,0-1.4,0-2v-.2l-.39,0h0c-.06,0-.16-.14-.16-.19a4.55,4.55,0,0,0,.55.06V9.61a2.94,2.94,0,0,0,0-.56V9h0c.11,0,.44.08.44.14s0,0,0,.06h0c.12,0,.39,0,.39.23a.13.13,0,0,1-.13.14.13.13,0,0,1-.12-.09A1,1,0,0,0,58,9.25l0,0h0c-.08,0-.08,0-.09.56h.24l0,0c0-.06.14-.17.17-.17h0c.08,0,.27.16.27.24m-.09,1.34c0,.15-.09.24-.17.24s-.13-.06-.14-.22a2.59,2.59,0,0,0-.22-.9s0,0,0,0h0a1.57,1.57,0,0,1,.53.91m1.11-1s0,0-.08,0h-.37s.05,0,.05.05l-.05,0c-.06,0-.06,0-.06.12s0,.31,0,.49,0,.37,0,.52,0,.31,0,.38v0a.43.43,0,0,1-.43.42s-.05,0-.07-.05-.37-.27-.37-.3h0a1.19,1.19,0,0,0,.33,0c.16,0,.22-.06.23-.17v-.49c0-.35,0-.95,0-1.1l-.38,0h0c-.07,0-.17-.14-.17-.19a3.71,3.71,0,0,0,.59.06h.18a.07.07,0,0,0,.06,0s.14-.23.18-.23h0c.11,0,.3.22.3.31m-.12-.84s0,0-.07,0H59a2.19,2.19,0,0,0-.31,0h0c-.06,0-.16-.15-.16-.2a2,2,0,0,0,.43.06H59a.05.05,0,0,0,.05,0s.15-.23.19-.23h0c.1,0,.29.23.29.31"/><path class="cls-1" d="M62.26,12.18c0,.07-.09.12-.17.12a.1.1,0,0,1-.11-.1h0v-.12h-.77c0,.06,0,.11,0,.14s-.09.13-.16.13a.11.11,0,0,1-.12-.11h0c0-.14,0-.4,0-.54v0a2.16,2.16,0,0,0,0-.31,1.38,1.38,0,0,1-.7.82h0l0-.05a2.08,2.08,0,0,0,.53-1.48v-.08a2.93,2.93,0,0,0,0-.47v0a1.76,1.76,0,0,1-.49.3h0s0,0,.06-.07a3.48,3.48,0,0,0,1-1.37s0,0,0,0,.39.15.39.22,0,.06-.12.07-.05,0-.08.05c.29.07.92.3.92.61,0,.09,0,.16-.13.16s-.12,0-.18-.13a2.49,2.49,0,0,0-.64-.6,3.8,3.8,0,0,1-.47.53,2.33,2.33,0,0,0,.41,0h.07a.09.09,0,0,0,0,0c0-.07.12-.17.16-.17s.28.16.28.25,0,.05-.07.05h-.51l-.37,0h0s-.06,0-.1-.07l-.21.17h0a2,2,0,0,1,.33.15h.71a0,0,0,0,0,0,0c.09-.11.09-.11.12-.11a.61.61,0,0,1,.29.22s0,.06-.08.08-.06,0-.06.14v0a4.41,4.41,0,0,0,0,.52.15.15,0,0,1-.16.15.11.11,0,0,1-.12-.11v0H61a1.33,1.33,0,0,1,0,.19,1.47,1.47,0,0,1,.33.14h.61s0,0,.05,0,.12-.11.12-.11.31.12.31.22,0,.06-.08.08-.07.06-.07.16,0,.3,0,.4Zm-1.2-1.49A1.55,1.55,0,0,1,61,11h.89v-.31Zm.06-.37h0s0,.07,0,.12v.15h.85a1.69,1.69,0,0,0,0-.23s0,0,0,0Zm.16,1.22h0s0,0,0,.11V12H62v-.4a0,0,0,0,0,0,0ZM63,11.39a.16.16,0,0,1-.16.15c-.06,0-.12,0-.12-.14h0c0-.39,0-.81,0-1.21a6.05,6.05,0,0,0,0-1v0h0s.44.07.44.17,0,.05-.07.08-.07,0-.08.14,0,.46,0,.76,0,.84,0,1.05Zm.21.89s0,0-.08,0-.38-.27-.38-.3h0a1.93,1.93,0,0,0,.35.05c.16,0,.23-.06.23-.16s0-.55,0-.89A15,15,0,0,0,63.29,9V9l0,0,.4.09s.07,0,.07.07,0,.06-.08.08-.06,0-.07.16,0,.53,0,.85,0,.82,0,1.18c0,.1,0,.36,0,.45a.43.43,0,0,1-.45.43"/><path class="cls-1" d="M68.23,11.8h0s-.26.21-.34.36a.11.11,0,0,1-.09.07,6.84,6.84,0,0,1-.94.06,3.78,3.78,0,0,1-.6,0,.91.91,0,0,1-.81-.62c-.1.14-.32.4-.48.58,0,0,0,.09-.06.09a1.22,1.22,0,0,1-.35-.33h0a2.12,2.12,0,0,0,.61-.32c.06-.05.06-.14.06-.82v-.14s0,0,0,0h-.06l-.3,0h0c-.07,0-.17-.15-.17-.2l.46,0h.07a.08.08,0,0,0,.06,0c.08-.08.1-.11.13-.11s.34.16.34.25,0,.07-.08.08-.1,0-.11.11,0,.32,0,.49,0,.15,0,.21c0,.45.73.49,1.07.49a5.73,5.73,0,0,0,1.57-.21h0M65.65,9.53a.16.16,0,0,1-.16.17.22.22,0,0,1-.19-.13,1.71,1.71,0,0,0-.41-.4l0,0h0c.23,0,.76.12.76.4m2.4.77s0,0-.08,0H66.76c-.17,0-.63,0-.9,0h0s-.16-.15-.16-.19h.11l0-.07a2.67,2.67,0,0,0,.33-.93v0s0,0,0,0,.4.13.4.21,0,.05-.11.06-.06,0-.07.06-.06.1-.09.15h.42c0-.1,0-.19,0-.23a2.15,2.15,0,0,0,0-.43v0h0s.46.07.46.15,0,.05-.06.07-.09,0-.1.13,0,.19,0,.35h.23a.08.08,0,0,0,.06,0c.15-.22.17-.23.2-.23h0c.13.05.34.24.34.32s0,0-.09,0H67v.53h.43a.08.08,0,0,0,.06,0c.16-.24.2-.24.21-.24h0a.77.77,0,0,1,.34.33m-1.32-.58h-.47a1.94,1.94,0,0,1-.43.49l.9,0Zm1,1.1s0,.07-.08.1a.14.14,0,0,0-.08.15v0a4.71,4.71,0,0,0,0,.48h0a.17.17,0,0,1-.18.15c-.07,0-.13,0-.13-.12h0s0-.06,0-.09h-.89v.11c0,.09-.09.14-.18.14s-.12,0-.12-.11v0c0-.25,0-.44,0-.63a2,2,0,0,0,0-.43v0h0a1.47,1.47,0,0,1,.4.18h.72a.06.06,0,0,0,.06,0s.09-.12.13-.12.33.13.33.23m-.43.28v-.2s0-.05-.07-.05H66.5l0,0s-.06,0-.06.33c0,.07,0,.15,0,.23h.89V11.1"/><path class="cls-1" d="M71.83,12.17c0,.1-.1.15-.19.15a.13.13,0,0,1-.14-.13h0c0-.46,0-1.26,0-1.86h-.45a1.93,1.93,0,0,1-1.45,2.06l-.1,0h0s0,0,.1-.06a2,2,0,0,0,1.19-2l-.41,0h0s-.11-.09-.15-.15,0,0-.06.12v.13c0,.26,0,.7,0,1h0a.16.16,0,0,1-.17.15.11.11,0,0,1-.12-.12v-.14h-.36c0,.15,0,.29,0,.41s0,.14-.18.14a.11.11,0,0,1-.12-.11v0c0-.37,0-.84,0-1.23v-.16a1.94,1.94,0,0,1-.57.62h0l.05-.08a5.11,5.11,0,0,0,.76-1.67l-.45,0h0s-.16-.14-.16-.18a6.18,6.18,0,0,0,.76.05h.16a.05.05,0,0,0,0,0c0-.06.1-.16.16-.22h0c.07,0,.33.24.33.32s0,0-.07,0h-.44s0,0,0,.05,0,0-.09.06-.05,0-.08.12-.16.34-.25.51l.1,0h.21a.05.05,0,0,0,.05,0c.07-.1.09-.12.11-.12s.32.16.32.23,0,0,0,.06l.52,0s0-.05,0-.08a6.88,6.88,0,0,0,0-.88H70.6c-.06,0-.17-.14-.17-.18a8.14,8.14,0,0,0,.89.05h.43a.07.07,0,0,0,0,0c.13-.19.17-.24.2-.24h0c.13,0,.33.25.33.32s0,0-.08,0H71.9s0,0,0,0,0,.05-.06.06-.06,0-.06.9h.06l.06,0s.14-.24.2-.24h0c.14.06.33.26.33.32s0,0-.08,0h-.59v.48c0,.52,0,1,0,1.36Zm-1.91-.93c0-.23,0-.48,0-.69s0-.26,0-.36,0,0,0,0H69.6s0,0,0,.75v.34Zm1.62-1.57c0-.15,0-.32,0-.43h-.35l0,0a.05.05,0,0,1,0,.05s-.06,0-.06.13v.79h.44Z"/><path class="cls-1" d="M76.55,12c0,.24-.55.26-.87.26s-.58,0-.58-.4c0-.18.06-.64.09-.85h0s0,0,0,0h-.37a1.74,1.74,0,0,1-1.54,1.37h-.14l.12-.05A1.75,1.75,0,0,0,74.49,11h0c-.22,0-.64,0-.89,0h0c-.06,0-.17-.14-.17-.19.34,0,1,0,1.06,0h0a2.09,2.09,0,0,0,0-.35,1.48,1.48,0,0,0,0-.2h0c.07,0,.45,0,.45.14s0,.06-.07.08-.08,0-.09.12l0,.23h.35a.05.05,0,0,0,0,0c.07-.08.09-.1.12-.1s.31.13.31.22,0,.06-.08.08-.09,0-.1.08a4.2,4.2,0,0,0-.08.67c0,.14,0,.22.35.22s.47,0,.59-.74c0,0,0,0,0,0s0,.59.11.63a.16.16,0,0,1,.1.13m-.11-2.33c0,.05,0,.09-.16.09a1.66,1.66,0,0,0-.55.25h0v0a2.4,2.4,0,0,0,.2-.39l0,0H75.3l.07,0s0,0,0,0,0,0-.05,0-.06.06-.06.3,0,.23.34.23.49-.06.54-.34v0s0,.23.12.27a.14.14,0,0,1,.08.12c0,.18-.38.23-.85.23s-.51-.06-.51-.29v0c0-.11,0-.27,0-.35a1.48,1.48,0,0,0,0-.21h-.5c.23.09.24.12.24.14s0,.06-.11.07-.05,0-.07,0a1.88,1.88,0,0,1-1.3.85s0,0,0,0l0,0a1.69,1.69,0,0,0,1-1h-.53c0,.3-.2.51-.37.51a.16.16,0,0,1-.17-.16.24.24,0,0,1,.11-.19.74.74,0,0,0,.34-.46s0-.06,0-.06.06.17.06.27h.88V9.27a1.25,1.25,0,0,0,0-.36v0s0,0,0,0,.49.06.49.15,0,.05-.08.07-.07,0-.09.12v.27h.91a.11.11,0,0,0,.06,0s.11-.12.14-.12.36.21.36.33"/><path class="cls-1" d="M78.39,12.18a.18.18,0,0,1-.19.16.13.13,0,0,1-.13-.13h0c0-.46,0-1,.05-1.51a1.84,1.84,0,0,1-.89.83h0l.06-.07a3.47,3.47,0,0,0,.85-1.34v0a4,4,0,0,0-.58,0h0s-.15-.15-.15-.19a6.88,6.88,0,0,0,.74.06c0-.21,0-.6,0-.66l-.57,0h-.09s0,0,.08,0a2.62,2.62,0,0,0,1.09-.4v0s.3.22.3.3,0,0-.06,0h-.17l-.25.06s0,0,0,0,0,0-.06.06-.06,0-.07.6h.16s0,0,.06,0,.12-.22.17-.22.32.23.32.31,0,0-.08,0h-.63v.39s.42,0,.53.21a.23.23,0,0,1,0,.15.14.14,0,0,1-.13.15.19.19,0,0,1-.16-.12,1.19,1.19,0,0,0-.29-.34c0,.55,0,1.19,0,1.66Zm1.82,0c0,.09-.11.15-.2.15a.12.12,0,0,1-.13-.13h0c0-.27,0-.66,0-1.07l-.28.08a7.59,7.59,0,0,0-.74.26h0a.32.32,0,0,1-.2-.13,8.65,8.65,0,0,0,.94-.23l.3-.08c0-.18,0-.35,0-.51s0-1.36-.06-1.58v0h0s.49.06.49.16,0,.06-.08.08-.08.06-.08.16a7.68,7.68,0,0,0,0,.78v.86l.14,0a.07.07,0,0,0,0-.05c.08-.24.1-.28.15-.28s.4.12.4.21,0,.05-.06.06l-.67.2c0,.46,0,.88,0,1.14Zm-.89-1.58a1.21,1.21,0,0,0-.31-.28s0,0,0,0,.06,0,.18,0c.47,0,.48.22.48.26a.17.17,0,0,1-.16.18.19.19,0,0,1-.15-.1M79.15,9.4c.29,0,.57.13.57.33a.17.17,0,0,1-.16.17.18.18,0,0,1-.16-.12,1.19,1.19,0,0,0-.28-.32s0,0,0-.05h.07Z"/><path class="cls-1" d="M44.71,17.73l.13,0c.13,0,.2.09.21.22.13-.1.57-.45.57-.56s0-.06-.1-.06a4.9,4.9,0,0,0-1.17.21.88.88,0,0,1-.28.07c-.07,0-.51-.11-.51-.36,0,0,0-.06,0-.06l.06,0a.58.58,0,0,0,.36.08h.2l1.2-.14c.14,0,.15-.06.21-.06s.5.19.5.36-.2.13-.27.17a6.74,6.74,0,0,1-.83.44,2.57,2.57,0,0,1-1.56,1.8l-.14,0h0l.12-.08a2.85,2.85,0,0,0,1.25-1.79c0-.11,0-.15-.11-.15s-.11,0-.11-.05.13-.13.21-.13Z"/><path class="cls-1" d="M49.05,18.46l-1,0a3.63,3.63,0,0,0-.74.08l-.23,0c-.18,0-.52-.18-.52-.37,0,0,0,0,0,0l.06,0a.7.7,0,0,0,.44.09c.26,0,1.73-.09,1.74-.09H49c.22,0,.38,0,.38.13s-.19.14-.32.14"/><path class="cls-1" d="M50.94,19.6c0,.19-.06.35-.16.35s-.2-.18-.2-.38a.76.76,0,0,1,0-.15,2.47,2.47,0,0,0,.06-.29c0-.22,0-.7,0-1.08,0-.66,0-.87-.16-.88s-.1,0-.1-.06.07-.09.15-.09.43.15.43.35,0,.17-.06.31,0,.31,0,.51h.25c.65,0,.72.28.72.35a.15.15,0,0,1-.16.16.27.27,0,0,1-.17-.07,1.9,1.9,0,0,0-.6-.37h0v.23c0,.48,0,1,0,1.08Z"/><path class="cls-1" d="M53.05,19.78l-.13,0h0a.28.28,0,0,1,.12-.08,4.49,4.49,0,0,0,1.8-2,.09.09,0,0,0-.1-.08,3.45,3.45,0,0,0-.85.2,1.13,1.13,0,0,1-.35.09c-.22,0-.52-.22-.52-.32s0-.11.06-.11a.13.13,0,0,1,.09.06c0,.05.15.07.29.07s1.14-.14,1.2-.15.14-.11.22-.11.49.14.49.26-.05.09-.12.14a.51.51,0,0,0-.14.17,3.59,3.59,0,0,1-2,1.84m2.36-2.37a.35.35,0,1,1,.36-.35.35.35,0,0,1-.36.35m.24-.35a.24.24,0,1,0-.23.23.24.24,0,0,0,.23-.23"/><path class="cls-1" d="M58.38,19.26h-.21c-.27,0-.66,0-1,0,0,.17-.06.24-.13.24s-.18-.09-.18-.32,0-.23,0-.34v0c0-.82-.13-1.07-.29-1.09s-.12,0-.12-.07a.25.25,0,0,1,.21-.1.56.56,0,0,1,.39.27c.27,0,1-.13,1.05-.13s.11-.1.21-.1.47.12.47.24,0,.09-.11.15-.12.24-.3.94c.16,0,.29.12.29.2s-.08.11-.28.11Zm-1.2-.17c.14,0,.76-.06,1-.09,0-.16.17-.92.17-1s0-.08-.11-.08a8.55,8.55,0,0,0-.87.11h-.11l-.12,0v0c0,.14,0,.8.06.87Z"/><path class="cls-1" d="M61.5,18.25a.49.49,0,0,1,0,.11A2.2,2.2,0,0,1,59.81,20h0s0,0,.1-.07a2.36,2.36,0,0,0,1.27-1.65c0-.08,0-.14-.07-.14H61s0,0,0-.05a2.55,2.55,0,0,0-.44.11.56.56,0,0,1-.23.06c-.17,0-.52-.1-.52-.31,0,0,0-.05,0-.05l.1,0a.77.77,0,0,0,.36.07h.11c.35-.06.82-.14,1.3-.18.13,0,.19-.08.31-.08s.48.09.48.25-.07.11-.16.11h-.06a2.08,2.08,0,0,0-.55-.07h-.34a.19.19,0,0,1,.11.19m.26-.88c-.3,0-.69.1-.92.13H60.7c-.29,0-.39-.16-.39-.26s0-.06,0-.06l0,0a.54.54,0,0,0,.3.06,3.81,3.81,0,0,0,.67-.1.65.65,0,0,1,.24-.06c.14,0,.33.07.33.16s-.06.1-.18.1m.47-.12A1.25,1.25,0,0,0,61.9,17s-.06,0-.06,0,.16,0,.16,0c.19,0,.45.07.45.26a.12.12,0,0,1-.11.13.15.15,0,0,1-.11-.06m.41-.19a1.23,1.23,0,0,0-.34-.25s-.06,0-.06,0a.31.31,0,0,1,.17,0c.2,0,.45.07.45.25a.12.12,0,0,1-.12.13.14.14,0,0,1-.1-.06"/><path class="cls-1" d="M64.08,18.62a0,0,0,0,1,0,0s0,0,0,0a2.93,2.93,0,0,0-.47.12.56.56,0,0,1-.15,0s-.3,0-.3-.22,0-.05,0-.05h0l.06,0,.09,0a4.75,4.75,0,0,0,.65-.1c.07,0,.08-.06.15-.06s.32.12.32.19a.2.2,0,0,1,0,.08.26.26,0,0,0-.09.09c0,.15-.12.38-.17.55h.23c.1,0,.13-.05.2-.05s.37.09.37.21,0,.1-.14.1h-.06a2,2,0,0,0-.5-.05,4.43,4.43,0,0,0-1,.14h-.06c-.15,0-.37-.1-.37-.23s0-.08,0-.08h0l0,0a.63.63,0,0,0,.27.06l.75-.08Z"/><path class="cls-1" d="M68.2,18.46l-1,0a3.63,3.63,0,0,0-.74.08l-.23,0c-.18,0-.52-.18-.52-.37,0,0,0,0,0,0l.06,0a.7.7,0,0,0,.44.09c.26,0,1.73-.09,1.74-.09h.14c.23,0,.38,0,.38.13s-.19.14-.32.14"/><path class="cls-1" d="M69.16,19.74h0s0,0,.13-.06a4.23,4.23,0,0,0,2-1.88s0-.05-.07-.05a3.11,3.11,0,0,0-.61.2.81.81,0,0,1-.28.09c-.16,0-.44-.15-.44-.28s0-.12.06-.12,0,0,.06.05.1.06.2.06A4.61,4.61,0,0,0,71,17.6c.1,0,.15-.12.24-.12s.42.12.42.27a.13.13,0,0,1-.07.1.44.44,0,0,0-.16.17,5.06,5.06,0,0,1-.45.63c.42.1,1.08.43,1.08.76a.16.16,0,0,1-.15.18.24.24,0,0,1-.2-.14,2.6,2.6,0,0,0-.72-.72l0,0a3.23,3.23,0,0,1-1.81,1"/><path class="cls-1" d="M76.37,19.07s0,0-.08,0h-1v.3a2.44,2.44,0,0,1,0,.27c0,.4-.42.45-.48.45s-.06,0-.08-.06-.44-.26-.44-.29,0,0,0,0h0a2.13,2.13,0,0,0,.39,0c.28,0,.28-.08.28-.32v-.39H74.3c-.21,0-.8,0-1.14.05h0c-.07,0-.19-.15-.19-.2.39.05,1.13.06,1.35.06h.73a2.68,2.68,0,0,0,0-.35v0s0,0,0,0,.44.05.44.12a.1.1,0,0,1-.06.07c-.06,0-.07,0-.08.15V19h.39a.08.08,0,0,0,.06,0c.17-.24.18-.25.22-.25a.75.75,0,0,1,.38.34m-.13-1.92s0,.05-.08.05H74.8v.34h.58a.09.09,0,0,0,.06,0c.09-.12.1-.12.12-.12s.33.16.33.24,0,.07-.1.1-.06,0-.06.22,0,.45,0,.63v0a.16.16,0,0,1-.17.14.12.12,0,0,1-.13-.12v0H73.88v.08h0c0,.08-.09.12-.18.12a.11.11,0,0,1-.12-.11h0c0-.31,0-.62,0-.8a3.26,3.26,0,0,0-.05-.48v0a0,0,0,0,1,0,0,1.91,1.91,0,0,1,.39.17h.58c0-.17,0-.3,0-.34h-.21c-.21,0-.72,0-1.06,0h0c-.07,0-.18-.15-.18-.2.39,0,1,.06,1.25.06h.2a2.49,2.49,0,0,0,0-.49s0,0,0,0h0c.1,0,.48.07.48.15s0,.06-.07.09-.08,0-.09.16v.12h.75a.08.08,0,0,0,.07,0c.08-.13.18-.26.23-.26h0c.12,0,.35.26.35.34m-1.69,2.42a.15.15,0,0,1-.14.15.28.28,0,0,1-.18-.1,1.68,1.68,0,0,0-.4-.3s-.06,0-.06-.05h.15c.62,0,.63.27.63.31m0-1.93H74l0,0c-.06,0-.06,0-.06.33h.67Zm0,.44h-.67c0,.13,0,.27,0,.4h.66Zm.92-.4s0,0-.06,0h-.6V18h.67a2.82,2.82,0,0,0,0-.31m-.66.4v.4h.66c0-.13,0-.27,0-.4Z"/><path class="cls-1" d="M77.24,19a2.62,2.62,0,0,0,.58-.08V17.84a1.67,1.67,0,0,0,0-.34l-.4,0h0s-.17-.14-.17-.18a5.35,5.35,0,0,0,.69,0h.28a.05.05,0,0,0,0,0c.13-.2.17-.22.19-.22h0c.1,0,.3.24.3.3s0,.05-.08.05h-.51a0,0,0,0,1,0,0s0,0-.07.06-.05,0-.05.54v.69a6.57,6.57,0,0,0,.66-.2h.09a6.47,6.47,0,0,1-1.33.68s0,.06-.08.06-.28-.35-.28-.36,0,0,0,0ZM80,17.67c.12,0,.2.06.2.11s0,.06-.09.07,0,0-.06.11a3,3,0,0,1-.39,1.09,2.24,2.24,0,0,0,1.13.71s0,0,0,0-.34,0-.49.18l-.06,0a2.07,2.07,0,0,1-.77-.73,2.6,2.6,0,0,1-1.69.84s0,0,0,0,0,0,.11-.06a2.41,2.41,0,0,0,1.46-1A3.12,3.12,0,0,1,79,17.81a2.25,2.25,0,0,1-.58.76h0a.07.07,0,0,1,0-.06,5.32,5.32,0,0,0,.6-1.54,1.53,1.53,0,0,0,0-.3s0,0,0,0,.48.13.48.21,0,.07-.12.09-.06,0-.09.11-.15.36-.23.53H80a.07.07,0,0,0,.06,0s.17-.25.22-.25h0c.1,0,.34.25.34.33s0,.05-.08.05Zm-.25,0h-.67a2.87,2.87,0,0,0,.4,1.13,2.74,2.74,0,0,0,.27-1.1Z"/><path class="cls-2" d="M14.42.75c.6.29,1.1.58,1.56.86l.68.43a3.81,3.81,0,0,1,.33.25c.05,0,0,.15.06.39s.11,2.26.13,2.64,0,.29,0,.38-.1.12-.17.13-.24,0-.27,0,0-.14-.12-.42A6.39,6.39,0,0,0,10.3.57,6.49,6.49,0,0,0,5.21,3a10.28,10.28,0,0,0-2.38,7.19,11.54,11.54,0,0,0,3.43,8.33,6.31,6.31,0,0,0,4.4,1.71,6.65,6.65,0,0,0,4-1.27,2,2,0,0,0,.44-.75,3.51,3.51,0,0,0,.07-.85c0-.63,0-2.33,0-3.41a5.36,5.36,0,0,0-.06-.71c-.16-.74-1-1-2.19-1.2L12.59,12c-.08,0-.07-.2-.07-.25s0-.2.12-.2h.28c.44,0,2.36.07,3.4.07.67,0,2.13-.07,2.38-.07s.22,0,.23.1a.49.49,0,0,1,0,.12c0,.08,0,.23-.07.26s-.46.08-.63.12c-.38.09-.56.24-.59,1,0,.27,0,.6,0,1,0,1.05,0,2.39,0,3.2,0,.36,0,1.14,0,1.28,0,.3,0,.35-.1.43s-.23.11-.36.13a5.1,5.1,0,0,0-1.31.45,15.47,15.47,0,0,1-5.41,1.14,10,10,0,0,1-7.31-2.64c-2.3-2-3.19-5.29-3.19-8A9.91,9.91,0,0,1,4,2.07,9.94,9.94,0,0,1,10.71,0a9.57,9.57,0,0,1,3.71.75"/><path class="cls-2" d="M30.12.46s.52,1.46.93,2.52c2.2,5.84,3.89,10.11,5.84,14.54.79,1.85,1.1,2.13,1.88,2.31l.34.1a.16.16,0,0,1,.1.18c0,.08,0,.2-.09.22a1.53,1.53,0,0,1-.38,0c-.59,0-1.1,0-2.73,0-1.16,0-2.58.07-3.11.07h-.26c-.14,0-.14,0-.14-.23s0-.17.12-.2l.35-.06a3.28,3.28,0,0,0,1.34-.55c.23-.18.13-.48.07-.87s-.88-2.63-1.93-5.4a.68.68,0,0,0-.62-.49H25.88a.51.51,0,0,0-.36.12,1.89,1.89,0,0,0-.23.43c-.27.7-1,2.55-1.46,4.09-.35,1.19-.35,1.79,0,2.13a1.54,1.54,0,0,0,1.11.49l.34.08c.12,0,.12.16.12.26s0,.24-.13.24l-.44,0c-.66-.06-1.72-.09-2.86-.09-.78,0-1.11.05-1.89.1-.12,0-.27,0-.35,0s-.11-.12-.11-.24,0-.23.22-.27l.31-.07c1.45-.28,1.51-.48,2.7-3.11.91-2,3.68-8.83,5.5-13.51l1-2.62a1.45,1.45,0,0,1,.1-.18.21.21,0,0,1,.21-.11h.2A.2.2,0,0,1,30,.35a.23.23,0,0,1,.08.11m1.53,10.63c-1.25-3.55-2.26-6-2.74-7-.05-.11-.07-.13-.11-.13s-.09.07-.14.19c-.75,1.79-2.21,5.94-2.65,7.23-.07.22,0,.32.16.32H31c.48,0,.63,0,.69-.14s0-.27,0-.43"/></g></g></svg>