<svg xmlns="http://www.w3.org/2000/svg" viewBox="0 0 58.89 27.06"><defs><style>.cls-1{fill:#231815;}</style></defs><g id="レイヤー_2" data-name="レイヤー 2"><g id="图层_1" data-name="图层 1"><path class="cls-1" d="M26.32,12.28a1.08,1.08,0,0,0,.33-.9.8.8,0,0,0-.22-.46.79.79,0,0,0,0-.46.84.84,0,0,0-.26-.45.77.77,0,0,0,0-.45,1,1,0,0,0-.66-.63q-.8-.31-1.59-.57c.2-.53.38-1.06.54-1.6h0a1,1,0,0,0-.08-.91.78.78,0,0,0-.34-.29.82.82,0,0,0-.19-.49.79.79,0,0,0-.37-.26.86.86,0,0,0-.22-.46,1.09,1.09,0,0,0-.92-.3c-.55,0-1.1.09-1.64.16-.05-.54-.11-1.09-.2-1.64a1.1,1.1,0,0,0-.5-.82.83.83,0,0,0-.5-.12.83.83,0,0,0-.34-.3.8.8,0,0,0-.52-.07A.76.76,0,0,0,18.3,1a1.06,1.06,0,0,0-.91.13c-.48.27-.95.56-1.4.86-.29-.49-.59-1-.92-1.43a1.07,1.07,0,0,0-.8-.53.9.9,0,0,0-.5.11A.83.83,0,0,0,13.34,0h0a.82.82,0,0,0-.49.16.72.72,0,0,0-.44-.09,1,1,0,0,0-.76.5C11.3,1,11,1.51,10.72,2c-.47-.31-1-.6-1.45-.88A1,1,0,0,0,8.37,1,.78.78,0,0,0,8,1.26a.77.77,0,0,0-.51.07.8.8,0,0,0-.35.3.86.86,0,0,0-.5.12,1.09,1.09,0,0,0-.49.82C6.07,3.12,6,3.67,6,4.21c-.55-.07-1.1-.13-1.65-.16a1.06,1.06,0,0,0-.91.3.79.79,0,0,0-.22.46.81.81,0,0,0-.56.75.81.81,0,0,0-.35.29,1,1,0,0,0-.08.91h0c.16.54.34,1.07.54,1.6-.53.17-1.06.36-1.58.57a1,1,0,0,0-.67.63.77.77,0,0,0,0,.45.8.8,0,0,0-.27.45.88.88,0,0,0,0,.46.86.86,0,0,0-.22.46,1.12,1.12,0,0,0,.34.9c.37.41.76.8,1.15,1.18-.4.38-.78.77-1.15,1.18a1.12,1.12,0,0,0-.34.9A.86.86,0,0,0,.23,16a.89.89,0,0,0,0,.46.8.8,0,0,0,.27.45.77.77,0,0,0,0,.45,1,1,0,0,0,.67.63h0c.52.21,1.05.4,1.58.57-.2.53-.38,1.06-.54,1.6a1,1,0,0,0,.08.91.81.81,0,0,0,.35.29.87.87,0,0,0,.18.49,1,1,0,0,0,.38.27.8.8,0,0,0,.22.45,1,1,0,0,0,.81.31h.1c.55,0,1.1-.09,1.65-.16,0,.54.11,1.09.2,1.64a1.09,1.09,0,0,0,.49.82.84.84,0,0,0,.44.12h.06a.76.76,0,0,0,.35.31.8.8,0,0,0,.36.09l.15,0a.78.78,0,0,0,.36.28.8.8,0,0,0,.3.06,1.25,1.25,0,0,0,.6-.19h0c.48-.27.94-.55,1.39-.86.29.49.6,1,.92,1.43a1.09,1.09,0,0,0,.8.53h.07a.83.83,0,0,0,.43-.11.9.9,0,0,0,.44.12h0a.8.8,0,0,0,.49-.16.8.8,0,0,0,.38.1h.06a1,1,0,0,0,.76-.51h0c.32-.47.62-.94.91-1.42.47.31.94.6,1.44.88h0A1.29,1.29,0,0,0,18,26a.89.89,0,0,0,.3-.06.81.81,0,0,0,.35-.28l.15,0a.87.87,0,0,0,.37-.09.79.79,0,0,0,.34-.31h.06a.79.79,0,0,0,.44-.12,1.1,1.1,0,0,0,.5-.82c.09-.55.15-1.1.2-1.64.54.07,1.09.13,1.64.16h.11a1,1,0,0,0,.81-.3.89.89,0,0,0,.22-.46.89.89,0,0,0,.37-.27.82.82,0,0,0,.19-.49.78.78,0,0,0,.34-.29,1,1,0,0,0,.08-.91c-.16-.54-.34-1.07-.54-1.6q.8-.25,1.59-.57h0a1,1,0,0,0,.66-.63.77.77,0,0,0,0-.45.84.84,0,0,0,.26-.45.79.79,0,0,0,0-.46.8.8,0,0,0,.22-.46,1.08,1.08,0,0,0-.33-.9c-.37-.41-.76-.8-1.16-1.18.4-.38.79-.77,1.16-1.18m0-1.79a.74.74,0,0,1,0,.33,2.34,2.34,0,0,0-.27-.2l-.14-.08.06-.09a1.43,1.43,0,0,0,.16-.3.67.67,0,0,1,.19.34m-5.6,8.82a19.47,19.47,0,0,0,2-.4,23,23,0,0,1,.56,2.52,20.86,20.86,0,0,1-2.5,0c0-.71,0-1.42-.05-2.13m-.47-.45c0-.08,0-.16,0-.25l.25-.06c0,.09,0,.18,0,.26l-.25.05m.27.08c0,.11,0,.22,0,.34l-.28,0c0-.1,0-.21,0-.32l.27,0m-.3-.5q0-.71-.15-1.41l.16-.08c.09.47.17.95.23,1.43l-.24.06m-14.08.37,0-.26.24.06c0,.09,0,.17,0,.25l-.26-.05M6.4,19c0,.11,0,.22,0,.32l-.28,0,0-.34.26,0m-.2-.61c.06-.48.13-1,.22-1.43l.16.08q-.09.7-.15,1.41l-.23-.06m-.32,3.06a20.69,20.69,0,0,1-2.49,0A19.16,19.16,0,0,1,4,18.91a19.84,19.84,0,0,0,2,.4c0,.71-.07,1.42,0,2.13m0-13.83A19.84,19.84,0,0,0,4,8a19.16,19.16,0,0,1-.56-2.52,20.69,20.69,0,0,1,2.49,0c0,.71,0,1.42,0,2.13m.48.45c0,.08,0,.17,0,.25l-.24.06,0-.26.26,0M6.14,8l0-.34.28,0c0,.1,0,.21,0,.32L6.14,8m.29.5q.06.7.15,1.41L6.42,10c-.09-.47-.16-1-.22-1.43l.23-.06m14.08-.37c0,.08,0,.17,0,.26l-.25-.06c0-.08,0-.17,0-.25l.25,0m-.25-.18c0-.11,0-.22,0-.32l.28,0c0,.11,0,.22,0,.33l-.27-.05m.21.61c-.06.48-.14,1-.23,1.43l-.16-.08q.11-.71.15-1.41l.24.06m.31-3.06q.55,0,1.11,0c.46,0,.92,0,1.39,0A23.38,23.38,0,0,1,22.72,8a19.47,19.47,0,0,0-2-.4c.05-.71.07-1.42.05-2.13m-1,13.45a.88.88,0,0,0,0-.23l.28-.06c0,.08,0,.16,0,.24l-.3.05m.3.09c0,.1,0,.21,0,.31l-.32,0v-.31l.3,0m-.3-.49c0-.45,0-.9-.07-1.35l.2-.09c.06.46.11.92.14,1.38l-.27.06m-13,.53v.31l-.31,0c0-.1,0-.21,0-.31l.3,0m-.29-.18a1.93,1.93,0,0,1,0-.24l.28.06v.23l-.29-.05m.29-.35-.27-.06c0-.46.08-.92.14-1.38l.2.09c0,.45-.06.9-.07,1.35M6.83,8v.23l-.28.06a1.93,1.93,0,0,1,0-.24l.29,0m-.3-.08c0-.11,0-.21,0-.32l.31,0v.31l-.3,0m.3.49c0,.44,0,.89.07,1.34l-.2.09c-.06-.46-.11-.92-.14-1.38l.27,0m13-.54V7.55l.32,0c0,.11,0,.21,0,.32l-.3,0m.3.18c0,.08,0,.16,0,.24l-.28-.06a.88.88,0,0,0,0-.23l.3,0m-.3.35.27.06c0,.46-.08.92-.14,1.38l-.2-.09c0-.45.06-.9.07-1.35M23.38,9.5a20,20,0,0,1-.91,1.79l-.29-.19A18.6,18.6,0,0,0,23,9.34l.4.16m-.33-.32.13-.36c.15,0,.29.1.43.15l-.15.37-.41-.16m.37,4.28c-.45.46-.92.89-1.41,1.3-.28-.45-.58-.88-.9-1.3.32-.42.62-.85.9-1.3.49.41,1,.85,1.41,1.3m-1.37-1.35.17-.28c.53.41,1,.84,1.54,1.29l-.29.29c-.46-.45-.93-.89-1.42-1.3m1.42,1.4.29.29c-.5.46-1,.88-1.54,1.29l-.17-.28c.49-.41,1-.84,1.42-1.3m.37.39.26.28a20.28,20.28,0,0,1-1.67,1.26c0-.08-.09-.16-.14-.24a19.38,19.38,0,0,0,1.55-1.3m0-.14-.29-.3a4.11,4.11,0,0,0,.29-.3l.31.3-.31.3m-1.51-2c.05-.08.1-.16.14-.24a18.37,18.37,0,0,1,1.67,1.27l-.26.27a19.38,19.38,0,0,0-1.55-1.3m.09-.28c-.05.08-.1.16-.14.24a2.48,2.48,0,0,1-.26-.19l.12-.23.28.18m-.21.36c-.06.09-.11.18-.17.26l-.23-.19a2.15,2.15,0,0,0,.14-.26l.26.19m-.21.32c-.28.44-.57.87-.89,1.29l-.13-.19c.28-.42.54-.85.79-1.29l.23.19m-2,4.15c-.06-.38-.14-.76-.23-1.15l.06-.06c.11.38.21.76.29,1.14l-.12.07m.14,0a1.6,1.6,0,0,0,0,.21l-.14.08,0-.21.12-.08M6.58,16.2q.13-.57.3-1.14l.06.06c-.09.39-.17.77-.24,1.15l-.12-.07m.11.14c0,.07,0,.14,0,.21l-.13-.08a1.6,1.6,0,0,1,.05-.21l.12.08m-.8-2.88-.12.18-.14-.18.14-.18.12.18m0-.29.1-.12a1.74,1.74,0,0,0,.11.18L6,13.35l-.12-.18m.12.4.09.12a1.74,1.74,0,0,0-.11.18l-.1-.12L6,13.57m.08-.11.08-.11.07.11-.07.11-.08-.11m.65-2.81c.07.38.15.77.24,1.15l-.06.06c-.11-.38-.21-.75-.3-1.14l.12-.07m-.13,0a1.6,1.6,0,0,1-.05-.21l.13-.08c0,.07,0,.14,0,.21l-.12.08m13.51.07c-.08.38-.18.75-.29,1.13l-.06-.06c.09-.38.17-.77.23-1.15l.12.08m-.1-.15,0-.21.14.08a1.6,1.6,0,0,0,0,.21L20,10.58m-.29,5.87c-.05-.37-.1-.74-.16-1.11l.09-.1c.09.37.16.74.23,1.11l-.16.1m.17,0,0,.2-.17.09c0-.06,0-.12,0-.18l.16-.11m-13-.07c.06-.37.14-.74.22-1.11l.1.1c-.07.37-.12.74-.16,1.11l-.16-.1m.15.18a1.1,1.1,0,0,0,0,.18l-.18-.1c0-.06,0-.12,0-.19l.16.11M6.3,13.62c.19.29.38.57.58.85l0,.07c-.21-.26-.41-.54-.61-.81l.06-.11m-.06-.43.61-.81,0,.07c-.2.28-.39.56-.58.85l-.06-.11m.16.27.54-.8c.09.27.19.53.29.8-.1.27-.2.53-.29.8l-.54-.8m.58-3c0,.37.09.74.16,1.11l-.1.1c-.08-.37-.16-.74-.22-1.11l.16-.1m-.17,0c0-.06,0-.13,0-.19l.18-.1a1.37,1.37,0,0,0,0,.19l-.16.1M18.5,9.78l0,0c0,.27.07.54.1.81,0-.28-.09-.56-.14-.83m.1,1.5s0-.06,0-.1h0a.28.28,0,0,0,0,.09m-.48-1.87,0,.11-.83-.4s0,0,0,0l.82.34m-.82-.48.77.27v.05l-.78-.32m.12.5-.18-.28,0,0c0,.08.09.17.14.26m0-.22.79.39c.08.29.14.57.2.86-.2-.18-.4-.36-.61-.53s-.25-.48-.38-.72m1,1.36v0l-.23-.24.23.2m.1.51.06.38c-.12-.25-.25-.5-.38-.74l.32.36m0-.44,0,0v.05l0,0v0m0-1,0-.12.06,0a.69.69,0,0,1,0,.13l-.05,0m-.06-.28,0-.08.08,0s0,.05,0,.08l-.07,0m.08,1.17,0,0-.21-.9.1.06c0,.29.11.58.15.88m-.27-1,0-.11.11.05,0,.11-.1,0m-.07-.27s0,0,0-.06l.12,0s0,.05,0,.07l-.11-.05M18.08,9q-.13-.48-.3-1l.18,0c.09.33.18.66.25,1L18.08,9M18,9c-.31-.12-.62-.22-.94-.33L16.62,8c.36,0,.73,0,1.09.09.1.31.2.62.29.94m-.77.09-.05,0,0-.05.05,0,0,.05M9.78,8.61l-.08,0c.14-.22.28-.45.43-.67h.11l-.46.66m.21.22,0,0h0ZM9.87,9l.34-.15c-.21.18-.42.35-.62.54.09-.14.19-.27.28-.39m.26-.62A3.89,3.89,0,0,1,10.41,8h0c-.1.13-.21.26-.31.4m.12-.56,0-.06h.13l0,0h-.13m.42.16h.69l-.51.38-.61.16c.14-.18.28-.36.43-.53m-.12-.17,0,0h0l0,0h0m2.6-.58.1,0c-.27.12-.55.25-.82.39h-.06l.78-.43M13,7.06,13.13,7l.06,0-.12.06-.05,0m.31,0,.11.05-.11,0-.1,0,.1-.05m-.07-.18.07,0,.07,0-.07,0-.07,0m.26.27.78.43h-.06c-.27-.14-.55-.27-.82-.39l.1,0m0-.16.06,0,.11.06-.06,0L13.48,7m2.31.41c-.25-.28-.51-.56-.78-.83l.12-.05.74.87h-.08m.12.06a.39.39,0,0,1,.08.1h-.06l-.09-.1h.07m-.07.26h-.52l.5,0,0,0m-.26-.3-.83.09L13.92,7l.92-.35c.25.26.5.52.74.79m-.75.48.08,0-.09,0Zm-.42-.4c-.24-.15-.49-.28-.74-.41l.05,0,.69.44m0,.16h-.06l0,0h.06l0,0m-2.19-.16L13,7.1l.05,0c-.26.13-.51.27-.76.41m.09.14,0,0h0l0,0h.06m-.42-.13-.82-.09c.24-.27.49-.54.74-.79l.92.35-.84.53m-.07.39-.09,0,.08,0h0m-1-.5H10.8c.23-.29.48-.58.73-.87l.12,0c-.27.28-.52.56-.77.84m.46.32h-.51l0,0,.49,0m-.52-.26-.08.1h-.07l.08-.1h.07m.14.11L11,7.52l.8.09-.07,0-.8,0m1,.33.46,0-.8.15L12,7.94m.43-.23h0l.34.06-.37,0m.13-.06.8-.38.79.38c-.27,0-.53.09-.8.15s-.53-.11-.79-.15m1.69,0h0l-.38,0,.35-.06m.46.24.34.18L14.21,8l.48,0m.21-.29-.06,0c.26,0,.52-.07.79-.09l.08.09-.81,0M16,7.94c.15.17.29.35.44.53l-.62-.16-.51-.38H16m0-.21h.05l0,0h-.05l0,0m.18.21h0l.28.39-.32-.39m0-.22h.13l0,.06h-.13Zm.17.23h.12c.14.22.29.45.42.67l-.07,0L16.42,8m.29.9,0,0,0,0h0m.08.11c.1.13.2.25.29.39-.21-.19-.42-.36-.63-.54l.34.15M16.5,7.78l0-.06,1.14,0,0,.12L16.5,7.78m-.12-.19-.09-.12c.4,0,.8,0,1.2,0l.06.19q-.59,0-1.17,0m-.08,0h-.15a1,1,0,0,1-.08-.11h.14l.09.12M16,7.42q-.36-.46-.75-.9l.19-.06c.24.31.48.63.71,1H16m-.8-1-.14-.16.2-.08.13.17-.19.07m-.13,0-.13,0-.14-.13L15,6.36l.14.15m-.37-.19-.1-.11.14-.06.1.11-.14.06m-.07.17a.8.8,0,0,1,.13.13q-.46.17-.93.36l-.13-.07q.46-.23.93-.42m-1.06.34-.08,0,.94-.49.1.1c-.32.14-.64.28-1,.44m-.26-.15c-.32-.18-.65-.35-1-.51.32-.3.65-.59,1-.87q.51.42,1,.87c-.34.16-.66.33-1,.51m-.18.1-.07,0c-.32-.16-.64-.3-1-.44l.1-.1c.31.16.63.32.93.49m-.21.13L12.82,7c-.31-.13-.62-.25-.94-.36A1.59,1.59,0,0,1,12,6.49q.48.2.93.42m-1-.59-.13-.06a.52.52,0,0,1,.1-.11l.14.06-.11.11m-.1.1-.14.13-.12,0,.13-.15.13.06m-.39,0-.2-.07a1.09,1.09,0,0,0,.13-.17l.2.08c0,.05-.09.1-.13.16m0,0c-.26.29-.51.59-.76.9H10.5c.23-.32.46-.64.71-1l.19.06m-.8,1-.09.11h-.14l.08-.12h.15m-.31.11-1.12,0a1.34,1.34,0,0,1,.07-.18c.37,0,.75,0,1.13,0a.83.83,0,0,1-.08.12m-.15.13h.06l0,.06-1.09.08a.76.76,0,0,1,0-.11l1,0M10.05,8l-.44.7L8.72,9c.09-.31.19-.62.29-.92.35,0,.69-.07,1-.09M9.51,9l0,.05,0,0,0-.05,0,0M8.33,10.54v0l.16-.14-.16.17m.16.18c-.11.19-.21.39-.31.58L8.24,11a3.47,3.47,0,0,1,.25-.29m-.13-.32c.06-.28.12-.55.2-.83l.73-.36c-.13.24-.26.48-.38.72s-.37.31-.55.47m1-1.33,0,0-.76.37,0-.1c.25-.12.5-.22.76-.32m-.72.15v0l.7-.25-.71.29m.74-.05,0,0-.17.28a2.15,2.15,0,0,1,.14-.26M8.52,9l-.07,0c.07-.33.16-.66.25-1h.12c-.11.32-.21.64-.3,1m-.06.21a.19.19,0,0,1,0,.07l0,0V9.27l.06,0m-.06.23,0,.11,0,0a.5.5,0,0,0,0-.12l.05,0m-.05.2c0,.19-.09.38-.14.57,0-.18.07-.37.11-.55Zm-.11-.27-.13.06s0-.06,0-.08l.13-.06,0,.08m0,.16,0,.13-.11.06s0-.1,0-.14l.12,0m0,.21c-.06.31-.12.63-.16.94l-.06,0c0-.31.07-.62.11-.93l.11-.06M7,16.49c0-.37.09-.73.16-1.1q.3.33.63.63c0,.34.06.67.1,1L7,16.49m.9.6a.77.77,0,0,1,0,.15c-.32-.15-.64-.32-1-.49,0-.07,0-.13,0-.19.3.19.6.36.91.53M7.43,13l0,.06c-.07-.23-.14-.47-.2-.71l.06-.09c0,.25.11.49.17.74m-.17-1.07.34-.39-.33.42v0M7.43,14c-.06.25-.12.49-.17.74l-.06-.09c.06-.24.13-.48.2-.71l0,.06m.33.77c0,.22,0,.43,0,.64l-.47-.6c.05-.24.1-.47.16-.71.09.23.19.45.29.67m-.22-1.27v0m.08,0,.18-.64a2.28,2.28,0,0,1,0,.26l0,.84-.13-.46m0,.32-.06-.18v0c0,.07,0,.14,0,.2m0-.44v0l.06-.18c0,.06,0,.13,0,.2m0,2.08L7.26,15v0l.33.42m-.39-.49v0l-.08-.1v0a.61.61,0,0,1,.07.1m0,.27c.19.22.38.44.58.65v.08c-.21-.2-.41-.41-.61-.62,0,0,0-.07,0-.11m.58-3.13c-.12.26-.23.52-.34.79-.06-.24-.11-.47-.16-.71.17-.23.35-.45.53-.67l0,.59m-.58-.35s0-.07,0-.11l.67-.67V11c-.22.23-.43.47-.64.71m0,.27a.61.61,0,0,1-.07.1v0l.08-.1v0m-.12-.1,0-.13.09-.1,0,.13-.09.1m0,.55c.07.25.14.51.22.76-.09-.24-.17-.48-.25-.72l0,0m.22,1.28c-.08.25-.15.51-.22.76l0,0c.08-.24.16-.48.25-.72M7.09,15l.09.1,0,.13-.09-.1,0-.13m.8-3.37c0-.09,0-.18,0-.27v0l0,.29m0-.82c-.23.22-.46.45-.68.69-.07-.37-.12-.73-.16-1.1l1-.56c0,.33-.08.65-.11,1M7,10.36c0-.06,0-.12,0-.19.33-.18.67-.35,1-.52,0,0,0,.1,0,.14-.33.19-.65.37-1,.57m.92.51,0,0v.06l0,0v-.06M8,9.5,7,10s0-.09,0-.14c.35-.17.71-.32,1.08-.47,0,0,0,.05,0,.08M7,12.23l0,0s0,0,0-.06l0-.05v.06M7,12l0,.06s0-.09,0-.14l0-.06A1,1,0,0,1,7,12M7,14.7v.05l0-.05v-.06l0,.06m-.1.15,0,.06a1,1,0,0,1,0,.14l0-.06c0-.05,0-.09,0-.14m0,2c.33.17.66.35,1,.51a.25.25,0,0,0,0,.08q-.51-.21-1-.45c0-.05,0-.1,0-.14m1-2.21a2.54,2.54,0,0,0,0-.29c0-.19,0-.38,0-.57s0-.49,0-.73S8,12.35,8.08,12v0c.07-.18.14-.35.22-.52s.22-.44.34-.65.29-.48.44-.72.39-.39.6-.58.37-.32.55-.48l.42-.3.3-.19.34-.11.51-.14.69-.14.83-.1.83.1.7.14.51.14.34.11.25.16.46.33.56.48.59.59.45.71.34.65.22.52a2.31,2.31,0,0,0,.1.28l0,.3q0,.27,0,.57c0,.24,0,.48,0,.72s-.07.74-.12,1.11v0c-.07.18-.15.35-.22.52l-.34.65-.45.72c-.19.2-.39.39-.59.58s-.37.32-.56.48l-.46.33-.25.16-.34.12-.52.13-.68.14-.84.1-.83-.1-.69-.14-.51-.13L11,18.4l-.25-.16-.46-.33-.55-.47-.6-.59c-.15-.24-.3-.48-.44-.72s-.23-.43-.34-.65-.15-.35-.23-.52L8,14.68m11.86-4.11c-.07.37-.14.74-.23,1.12l-.09-.11c.06-.37.11-.74.16-1.11l.16.1m-.15-.17c0-.07,0-.13,0-.19l.17.1,0,.19-.16-.1m0,1.61,0-.14.06.06c0,.05,0,.1-.05.14l0-.06m0,.21,0,.06,0,0,0-.06,0,.05m-1,4.83c0-.32.07-.65.1-1q.36-.33.69-.69c.06.37.11.73.16,1.1-.31.2-.63.38-.95.56m1-.49a1.37,1.37,0,0,0,0,.19l-1,.52a.78.78,0,0,0,0-.14c.33-.18.66-.37,1-.57m-.92-.51,0,0a.43.43,0,0,1,0-.05l0,0v.06m.91-5.62c0,.37-.1.73-.16,1.1q-.31-.33-.63-.63c0-.34-.06-.67-.11-1,.31.16.6.34.9.52m-.91-.6c0-.05,0-.1,0-.15l1,.49a1.37,1.37,0,0,0,0,.19c-.3-.19-.61-.36-.92-.53m.19,2.36c0-.21,0-.43,0-.64l.47.6-.15.71c-.1-.23-.19-.45-.29-.67m.22,1.27v0m-.09,0c-.05.21-.12.43-.18.64l0-.25c0-.29,0-.57,0-.85.05.15.09.31.13.46m0-.32.06.18v0l-.06-.2m.06.44v0l-.06.18.06-.2m0-2.08.34.39v0l-.34-.42m-.21-.43V11l.61.62,0,.11c-.18-.22-.38-.43-.58-.65m0,3.79c.12-.27.24-.53.35-.8l.15.71c-.17.23-.34.45-.52.67,0-.19,0-.39,0-.58m.55.14v0l-.33.39L19.4,15m0,.2,0,.11-.67.67v-.07c.22-.23.44-.47.64-.71m0-.27a.61.61,0,0,0,.07-.1v0a.86.86,0,0,1-.07.1v0m-.05-.23c0-.25-.1-.49-.16-.74l0-.06c.07.24.13.47.2.72l-.07.08M19.27,13l0-.06c.06-.24.11-.49.16-.74l.07.09c-.07.24-.13.48-.2.71m.18-1v0l.07.1v0l-.07-.1m-.68,3.27c0,.09,0,.18,0,.27l0,0,0-.29m.72-.13.08-.1,0,.13-.09.1s0-.09,0-.13m.08-.65c-.07-.25-.14-.5-.22-.76l.25.72,0,0m-.22-1.28c.08-.25.15-.51.22-.76l0,0-.25.72m.22-1.31-.08-.1s0-.08,0-.13l.09.1,0,.13m.1-1.86-1-.51a.19.19,0,0,1,0-.08c.34.14.68.29,1,.45a.61.61,0,0,1,0,.14M17.3,17.85s0,0,0-.05l.77-.37,0,.11-.76.31M18,17.7l0,0-.7.25L18,17.7m-.74.05,0,0,.18-.28c-.05.09-.09.18-.14.26m.1,0c.13-.24.26-.48.38-.72s.37-.31.55-.47c-.06.28-.13.55-.2.83l-.73.36m.79-1.16.17-.17v0l-.16.14m0-.35.3-.58c0,.1,0,.2-.05.3s-.17.19-.25.28m-.95,1.65,0,0-.05,0,0,0,.05,0m-1,1.13h0l.32-.4c-.09.14-.19.27-.29.4m.17.16,0,.06h-.13l0-.05h.13M16,19H15.3l.51-.38.62-.16L16,19m.13.17,0,0H16l0,0h.05m-2.61.57-.1-.05c.28-.12.55-.25.83-.39h.06l-.79.43m.14.13-.11.06-.06,0,.11-.06.06,0m-.32,0-.11-.05.11-.05.11.05-.11.05m.07.18-.07,0-.07,0,.07,0,.07,0m-.25-.27-.79-.43h.07c.27.14.55.27.83.39l-.11.05m0,.16-.06,0L13,19.86l.05,0,.12.06m-2.95-1.44.61.16c.17.13.34.26.52.38h-.7l-.43-.54m.38.74h0l0,0h0l0,0M10.41,19l-.28-.39.31.39Zm0,.22h-.13l0-.06h.14l0,.05M9.87,18l-.28-.39.62.53L9.87,18m.11.12,0,0h0l0,0m-.2.22.46.66h-.11c-.15-.22-.29-.44-.43-.67Zm5.93,1-.08.09c-.27,0-.53,0-.79-.09l.06,0,.81,0m-.4-.15h.53l0,0-.51,0M14.83,19h0l.13-.07Zm-.14,0-.48,0L15,18.8l-.33.18m-.26.24,0,0h-.06l0,0Zm-.17,0h0l-.36-.06.39.05m-.13.06-.8.38-.8-.38c.27,0,.54-.09.8-.15s.53.11.8.15m-1.69-.05h0l.39-.05-.36.06M12,19l-.33-.18.81.16L12,19m.36.26h-.05l0,0h0l0,0M11.85,19h0l-.11-.07.13.07m-.09.29.07,0L11,19.4,11,19.31l.8,0m-.91-.08,0,0h.54l-.51,0m-.11.13.08.1h-.07l-.08-.11h.07m.13.16c.26.28.51.57.78.84l-.12,0c-.25-.29-.5-.58-.73-.87h.07m.22,0,.82-.09c.27.18.55.36.84.53l-.92.35c-.25-.25-.5-.52-.74-.79m1.16-.08c.25.15.5.28.75.42l-.05,0c-.24-.14-.47-.29-.7-.44m2.16,0-.69.44-.05,0c.25-.14.5-.27.74-.42m.35,0,.82.09c-.24.27-.49.54-.75.79l-.91-.35.84-.53m1,.11h.08l-.74.87-.12,0c.27-.27.53-.56.78-.84m.05-.06.09-.1H16l-.08.11h-.07m1.05-1.11.07,0c-.13.23-.28.45-.42.67h-.12l.47-.66m-.21-.22,0,0h0Zm.11-.12-.34.14.63-.53-.29.39m-7.28-.06,0,0,0,0,0,0,0,0m-1-.4,0-.11.83.4,0,.05-.83-.34m.82.48-.76-.27v0l.77.32M8.17,15.84c0-.13-.05-.25-.07-.38.13.25.25.5.39.74l-.32-.36m0,.44s0,0,0,0v0l0,0v.05m.3.27-.22-.2v0l.23.24m.42.44c.12.24.25.48.38.72l-.8-.39c-.07-.29-.14-.57-.2-.86l.62.53m.34.5a2.61,2.61,0,0,0,.17.28l0,0a2.15,2.15,0,0,1-.14-.26M8.08,15.74h0a.28.28,0,0,1,0-.09s0,.06,0,.1m.09,1.4-.05,0q-.06-.4-.09-.81c0,.28.09.56.14.83m0,.09a.69.69,0,0,0,0,.13l-.06,0a.59.59,0,0,0,0-.13l.06,0m.05.28s0,.06,0,.08l-.07,0,0-.08.07,0m-.08-1.16.05,0c.06.29.13.59.21.89l-.1-.06c-.06-.29-.11-.58-.16-.87m.28,1,0,.11-.11,0,0-.11.11.05m.07.27,0,.06-.13,0v-.07l.12.05m.08.27q.13.5.3,1l-.19,0c-.09-.33-.17-.66-.25-1l.14,0m.07,0c.31.12.63.23.95.33l.44.7c-.37,0-.73-.05-1.09-.09-.11-.31-.21-.62-.3-.94m1.5,1.21a.21.21,0,0,1,0,.06q-.57,0-1.14,0l0-.12q.57.06,1.14.09m0,.19h.15l.09.12c-.4,0-.8,0-1.2,0l-.07-.19c.34,0,.69,0,1,0m.23,0h.14l.09.12h-.15a.83.83,0,0,1-.08-.12m.27.17c.25.31.5.61.76.9l-.19.06c-.25-.31-.49-.63-.71-.95h.14m.8.95.14.16-.2.08a1.09,1.09,0,0,0-.13-.17l.19-.07m.14,0,.12,0a1.85,1.85,0,0,1,.14.14l-.13,0-.13-.15m.36.19.11.11-.14.06a1.14,1.14,0,0,1-.11-.11l.14-.06m.07-.17a1.59,1.59,0,0,1-.13-.13c.31-.11.63-.23.94-.36l.12.07q-.45.22-.93.42m1.07-.34.07.05c-.3.17-.62.33-.93.49l-.1-.1c.32-.14.64-.28,1-.44m.25.15c.33.18.65.35,1,.51q-.48.45-1,.87c-.33-.28-.66-.57-1-.87.33-.16.66-.33,1-.51m.18-.1.08-.05c.31.16.63.3,1,.44l-.1.1-.94-.49m.21-.13.13-.07c.31.13.62.25.94.36l-.14.13q-.47-.2-.93-.42m1,.59.14.06-.1.11-.14-.06.1-.11m.1-.09.14-.14.12,0-.13.15-.13,0m.4-.06.19.07-.13.17-.2-.08.14-.16m0-.05q.39-.43.75-.9h.15c-.23.32-.47.64-.71.95l-.19-.06m.8-1a1,1,0,0,1,.08-.11h.15l-.09.12h-.14m.31-.11h.14l1,0-.07.18c-.38,0-.76,0-1.14,0l.09-.12m.08-.13,0-.06,1.09-.08a.76.76,0,0,0,0,.11l-1.09,0m.16-.24.44-.7.88-.31c-.09.31-.19.62-.29.93l-1,.08m1.52-1.08.08,0c-.08.33-.16.66-.26,1l-.12,0c.11-.33.21-.65.3-1m.06-.21,0-.07.06,0a.64.64,0,0,0,0,.07l-.06,0m.06-.23,0-.11,0,0a.52.52,0,0,1,0,.11l0,0m0-.2c.05-.19.1-.38.14-.57,0,.19-.07.37-.1.55l0,0m.11.27.13-.06s0,.06,0,.09l-.13.05v-.08m0-.16,0-.12a.41.41,0,0,0,.11-.07.59.59,0,0,1,0,.14l-.11.05m0-.21c.06-.31.11-.62.16-.94l.05-.05c0,.31-.06.62-.11.93l-.1.06m.12.28c.36-.17.71-.35,1.05-.53a.61.61,0,0,1,0,.14c-.35.17-.71.33-1.07.48,0,0,0-.06,0-.09m1-2.72,0-.06,0,.06,0,.05,0-.05m.06.21,0-.06.05.14-.06.06,0-.14m0-.65c-.09-.26-.18-.53-.28-.8.1-.27.19-.53.28-.8.19.26.37.53.54.8-.17.27-.35.54-.54.8m.64-.64.07.11c-.2.27-.41.55-.62.81l0-.07c.2-.28.39-.56.57-.85m0-.32c-.18-.29-.37-.57-.57-.85,0,0,0,0,0-.07.21.27.42.54.62.82a.86.86,0,0,0-.07.1m-.5-1.07c0-.05,0-.1,0-.14.24.26.48.54.7.82l-.1.16-.64-.84m.05-2.06-.18-.1c0-.05,0-.1,0-.15l.19.09,0,.16m-.21-.46c-.35-.17-.71-.33-1.07-.47-.06-.37-.13-.74-.21-1.1.45.07.9.14,1.35.24,0,.44,0,.88-.07,1.33m-1.26-.55-.08,0c-.08-.35-.16-.69-.26-1h.14c.08.35.14.7.2,1.05m-.39-1.24s0-.1,0-.15l.15,0a.74.74,0,0,1,0,.14h-.15M18,7.64a1.72,1.72,0,0,0-.07-.21h.18a1.6,1.6,0,0,0,.05.21H18m-.06.26-.19,0s0-.09,0-.13l.2,0s0,.08,0,.13m-.29-.28a1.46,1.46,0,0,0-.07-.19h.22l.06.2h-.21m-.09-.26c-.17-.45-.36-.89-.56-1.33L17.24,6c.19.46.36.92.51,1.4h-.22m-.07,0c-.4,0-.81,0-1.22,0-.23-.33-.47-.66-.72-1,.46-.15.92-.28,1.39-.39.2.43.38.87.55,1.31m-2-1-.14-.17c.47-.18.94-.34,1.42-.48l.12.26c-.47.11-.94.24-1.4.39m-.22-.27L15.14,6c.48-.21,1-.4,1.45-.57l.11.22a14.35,14.35,0,0,0-1.44.49m-.06,0L15,6.21l-.11-.12.2-.09.12.13M14.76,6c-.33-.35-.67-.68-1-1L14,4.78q.51.52,1,1.08l-.21.1M14.63,6l-.15.07c-.33-.31-.66-.61-1-.9l.17-.14c.34.31.67.63,1,1m-1.3-.94-.18-.15.18-.16.18.16-.18.15m-.13.11q-.52.43-1,.9L12,6c.32-.34.65-.66,1-1l.18.14M11.91,6l-.21-.1c.32-.37.64-.73,1-1.08l.24.18c-.35.32-.69.65-1,1m-.13.13-.1.12-.21-.08L11.58,6l.2.09m-.37,0c-.46-.17-.93-.33-1.39-.47l.1-.22c.48.17.94.36,1.4.56l-.11.13m-.09.11-.13.17c-.45-.14-.9-.27-1.35-.38L10,5.75c.46.14.91.29,1.36.46m-.18.23c-.25.31-.49.64-.72,1-.39,0-.77,0-1.16,0,.17-.44.35-.87.55-1.3.45.11.89.24,1.33.38m-2.07.92H8.91c.16-.48.32-.94.51-1.4l.22,0c-.2.44-.39.89-.57,1.34m0,.07L9,7.62H8.83l.06-.2h.16m-.12.33,0,.12-.14,0c0-.05,0-.09,0-.13h.14m-.24-.12-.22,0,.06-.22h.23c0,.07,0,.14-.07.21m0,.14a1,1,0,0,1,0,.14l-.2,0,0-.15h.21m-.09.32c-.09.34-.18.68-.26,1l-.14,0c.06-.35.13-.71.21-1.06l.19,0M8.09,9.21c-.38.16-.76.32-1.13.5,0-.45,0-.89-.06-1.33.46-.1.93-.18,1.4-.25q-.12.54-.21,1.08m-1.16.86-.18.1a1,1,0,0,0,0-.16l.19-.09c0,.05,0,.1,0,.15m-.12,2.16-.65.84a1.4,1.4,0,0,0-.1-.16c.23-.28.46-.56.7-.82,0,0,0,.09,0,.14m-.65,1.62c.21.28.43.57.65.84,0,.05,0,.1,0,.14-.24-.26-.47-.54-.7-.82a1.4,1.4,0,0,0,.1-.16m.59,2.9.18.1s0,.1,0,.15l-.19-.09c0-.05,0-.11,0-.16m.21.47L8,17.69c.06.36.13.73.21,1.09-.45-.06-.9-.14-1.34-.24q0-.66.06-1.32m1.26.54.08,0c.08.35.17.69.26,1H8.43q-.12-.52-.21-1M8.61,19c0,.05,0,.1.05.15l-.16,0,0-.14h.14m.09.28.06.21H8.59l-.06-.21H8.7M8.75,19,9,19l0,.13h-.2a.74.74,0,0,0,0-.14M9,19.3l.07.19H8.9c0-.07,0-.13-.07-.2H9m.06.26h0c.17.45.35.89.56,1.33L9.42,21c-.18-.46-.35-.92-.5-1.4H9.1m.1,0c.41,0,.81,0,1.22,0,.23.34.47.66.72,1-.45.14-.91.27-1.38.38-.2-.43-.39-.87-.56-1.32m2,1,.14.17c-.46.18-.94.34-1.41.48l-.12-.26c.47-.11.93-.24,1.39-.39m.23.28.11.13c-.47.21-1,.4-1.45.58,0-.08-.07-.15-.1-.22.48-.15,1-.31,1.44-.49m.06,0,.21-.08.1.12-.2.09-.11-.13m.44.17c.32.35.66.68,1,1l-.24.18c-.34-.35-.67-.71-1-1.08l.21-.1m.12-.05.15-.08q.5.48,1,.9l-.18.14q-.51-.47-1-1m1.3.94.18.14-.18.16L13.15,22l.18-.14m.14-.12c.35-.28.68-.58,1-.9l.15.08q-.48.49-1,1l-.17-.14M14.76,21l.21.1q-.48.56-1,1.08L13.74,22c.35-.32.69-.65,1-1m.12-.13.11-.12.2.08a.69.69,0,0,1-.11.13l-.2-.09m.38,0c.46.17.92.33,1.39.47l-.11.22c-.47-.17-.94-.36-1.4-.56l.12-.13m.08-.11.14-.17c.45.14.89.27,1.35.38l-.12.25c-.46-.13-.92-.29-1.37-.46m.18-.23c.25-.31.49-.63.73-1,.38,0,.77,0,1.16,0-.17.45-.36.88-.56,1.31-.44-.11-.89-.23-1.33-.38m2.07-.92h.16c-.15.48-.32.94-.5,1.4L17,20.9c.2-.44.39-.89.56-1.34m0-.07c0-.06.05-.13.08-.19h.14l-.06.2h-.16m.12-.33.05-.12.13,0a.74.74,0,0,1,0,.14h-.14m.24.12.22,0-.06.22h-.22l.06-.21m0-.13a.83.83,0,0,0,0-.15l.21,0c0,.05,0,.1,0,.15l-.21,0m.09-.33c.1-.34.18-.68.26-1l.14-.05c-.06.35-.12.71-.2,1.06l-.2,0m.48-1.11c.38-.15.75-.32,1.12-.49,0,.44.06.88.07,1.32-.47.1-.93.18-1.4.25.08-.36.14-.72.21-1.08m1.15-.86.18-.1,0,.16-.19.09c0-.05,0-.1,0-.15m.13-2.16c.22-.27.43-.56.64-.84l.1.16c-.22.28-.46.56-.7.82l0-.14m.68-1.12-.07-.11.07-.11.07.11-.07.11m.07-.34.11-.18.1.12-.13.18-.08-.12m.08.34.13.18-.1.12-.11-.18.08-.12m.08-.11.13-.18.13.18-.13.18-.13-.18m.08-.35-.1-.12c.25-.42.49-.84.7-1.28l.18.14q-.36.64-.78,1.26m.5-1.57c-.36-.27-.72-.53-1.1-.78a1.74,1.74,0,0,0,.05-.22q.6.36,1.17.75l-.12.25m0,.06c-.22.42-.44.84-.68,1.25q-.34-.43-.72-.84c.12-.39.22-.79.32-1.18.37.24.73.5,1.08.77m-1.15-1.28L20,10.24l0-.16.15.07c0,.06,0,.11,0,.17M18.38,8l0-.16c.47,0,.95.1,1.42.18V8.2c-.46-.09-.92-.17-1.39-.24m-.07-.29a1.89,1.89,0,0,1,0-.23c.5,0,1,0,1.5.11,0,.1,0,.2,0,.3-.48-.08-1-.14-1.46-.18m-.07-.29c-.13-.52-.29-1-.46-1.53.61-.12,1.23-.21,1.85-.28.07.64.12,1.27.13,1.91-.5-.05-1-.09-1.52-.1m-.18,0h-.18c-.15-.49-.32-1-.51-1.43l.24-.05c.17.49.32,1,.45,1.48m-.71-1.49-.12-.28.25-.07c0,.1.07.2.11.29l-.24.06m-.17-.4a2.72,2.72,0,0,0-.11-.25l.27-.09.1.27-.26.07m-.08.15.12.28L16.94,6l-.12-.26.28-.08m-.34,0a2.4,2.4,0,0,0-.11-.23l.3-.1.1.24-.29.09m-.19-.38c-.28-.54-.58-1.08-.91-1.59L16,3.41c.32.56.61,1.13.87,1.7l-.31.11m-.06,0c-.5.18-1,.38-1.48.59-.32-.37-.65-.73-1-1.09.51-.38,1-.74,1.58-1.08.32.52.62,1,.9,1.58m-2.6-.62-.19-.19a19.16,19.16,0,0,1,1.6-1.21l.19.3c-.55.34-1.08.71-1.6,1.1m-.05,0-.24.18-.19-.16.24-.2.19.18m-.53-.07-.24-.21.24-.23.25.23-.25.21m-.1.09-.18.16-.24-.18L13,4.48l.24.2m-.47-.06c-.51-.38-1-.74-1.57-1.08l.2-.3c.54.38,1.06.77,1.56,1.19l-.19.19m-.13.12c-.34.36-.67.72-1,1.09q-.71-.31-1.44-.57c.28-.54.58-1.06.9-1.57q.8.49,1.53,1.05M10,5.2l-.26-.09c.27-.58.56-1.14.87-1.7l.3.19c-.33.52-.63,1.05-.91,1.6M10,5.35a2.4,2.4,0,0,0-.11.23l-.24-.07.1-.24.25.08m-.17.35L9.67,6l-.23,0,.12-.28.23.07m-.31-.23-.31-.08c0-.09.07-.17.1-.26l.32.1-.11.24m-.05.12c0,.1-.08.19-.11.29L9,5.81l.11-.3.3.08m-.14.35c-.19.47-.36.94-.51,1.43H8.55c.13-.5.28-1,.45-1.49.1,0,.19,0,.29.06M8.48,7.37c-.53,0-1.05.06-1.58.11,0-.64.06-1.28.14-1.91.64.07,1.27.17,1.89.29-.17.5-.32,1-.45,1.51m0,.07a1.74,1.74,0,0,0-.05.22c-.51,0-1,.11-1.51.19v-.3c.52-.06,1-.09,1.56-.11m-.09.36,0,.15c-.49.07-1,.15-1.45.25A1.62,1.62,0,0,1,6.9,8q.73-.12,1.47-.18M6.63,10.24l-.14.08,0-.17.15-.07c0,.05,0,.1,0,.16M6.74,12c-.24.27-.48.55-.71.84-.24-.41-.47-.83-.68-1.25.35-.27.71-.53,1.08-.77.09.39.2.79.31,1.18m-1.42-.47-.12-.25c.38-.26.77-.51,1.16-.75a1.74,1.74,0,0,1,0,.22c-.37.25-.74.51-1.09.78m-.11.17c.22.44.45.86.7,1.28l-.1.12q-.4-.62-.78-1.26l.18-.14m.52,1.51-.14.19C5.28,13,5,12.56,4.7,12.12l.23-.19c.25.44.52.87.8,1.29M2.82,13l-.25-.27a18.24,18.24,0,0,1,1.66-1.27l.15.24c-.54.41-1.06.84-1.56,1.3m1.63-1.19a2.61,2.61,0,0,0,.17.28c-.5.41-1,.85-1.42,1.3a4,4,0,0,1-.29-.29c.49-.45,1-.88,1.54-1.29M2.86,13.16l.29.3-.29.3-.31-.3.31-.3m1.52,2-.15.24a20.13,20.13,0,0,1-1.66-1.26,3.33,3.33,0,0,1,.25-.28c.5.46,1,.89,1.56,1.3M2.91,13.8a4,4,0,0,1,.29-.29,17.5,17.5,0,0,0,1.42,1.3l-.17.28A19.11,19.11,0,0,1,2.91,13.8m.33-.34c.45-.45.92-.89,1.41-1.3.28.45.58.88.9,1.3-.32.42-.62.85-.9,1.3-.49-.41-1-.84-1.41-1.3m1.43-1.4a2.33,2.33,0,0,1-.17-.26l.25-.19.15.26-.23.19m-.24-.37-.14-.25.27-.18.13.23-.26.2m-.23-.4c-.33-.58-.64-1.18-.92-1.79l.4-.16c.24.6.51,1.19.8,1.76l-.28.19m-1-1.95L3.05,9l.43-.15.14.36-.41.16m0,.18c.28.62.59,1.22.92,1.81a21,21,0,0,0-1.69,1.29,21.23,21.23,0,0,1-1.54-2A22.42,22.42,0,0,1,3.22,9.52m-.7,3.27.25.28-.31.3-.29-.28.35-.3m-.06.76.31.3c-.08.1-.17.19-.25.28l-.35-.29.29-.29m1.68,2c-.33.58-.64,1.18-.92,1.8A23.62,23.62,0,0,1,.9,16.27a21.54,21.54,0,0,1,1.55-2A21,21,0,0,0,4.14,15.6m-.52,2.14-.14.36A3.66,3.66,0,0,1,3.05,18l.16-.37.41.16m-.34-.32c.28-.61.59-1.21.92-1.79l.28.19c-.29.57-.56,1.16-.8,1.76l-.4-.16m1-1.94c0-.08.09-.16.14-.24l.26.19c0,.08-.08.16-.13.24l-.27-.19m.21-.35c0-.09.11-.18.17-.27l.23.19-.15.26-.25-.18m.2-.33c.28-.44.58-.87.89-1.29l.14.19c-.28.42-.55.85-.8,1.29L4.7,14.8m1.11-1,.1.12c-.25.42-.48.85-.7,1.28L5,15.07q.38-.64.78-1.26m-.49,1.57c.35.27.72.53,1.09.78,0,.07,0,.15,0,.22-.39-.24-.78-.49-1.16-.75l.12-.25m0-.06c.21-.42.44-.84.68-1.25.23.29.47.57.71.84-.11.39-.22.79-.31,1.18-.37-.24-.73-.5-1.08-.77m1.14,1.29.14.07c0,.06,0,.11,0,.17l-.15-.08,0-.16M8.28,19l0,.16c-.48,0-1-.1-1.42-.18a.81.81,0,0,1,0-.22c.45.09.92.17,1.38.24m.07.29.06.23c-.51,0-1-.05-1.51-.11v-.3c.48.08,1,.14,1.45.18m.08.3c.13.51.28,1,.45,1.52-.61.12-1.22.22-1.84.28-.08-.63-.12-1.27-.14-1.91.51,0,1,.09,1.53.11m.18,0h.17c.15.49.33,1,.51,1.43L9.06,21c-.17-.48-.32-1-.45-1.48M9.32,21c0,.1.07.19.11.28l-.25.07c0-.1-.07-.2-.1-.3L9.32,21m.17.41.1.24-.26.09c0-.09-.07-.18-.1-.27l.26-.06m.07-.16c0-.09-.08-.18-.11-.27L9.72,21c0,.09.08.17.13.26l-.29.08m.34,0a1.51,1.51,0,0,1,.11.22l-.29.1-.11-.24.29-.08m.19.37c.28.54.58,1.08.91,1.59l-.35.22c-.31-.56-.6-1.12-.86-1.7l.3-.11m.06,0c.51-.18,1-.38,1.49-.59.32.37.65.74,1,1.09-.51.38-1,.74-1.57,1.08-.33-.51-.63-1-.91-1.58m2.61.62.19.19c-.52.43-1,.83-1.6,1.22-.07-.1-.14-.2-.2-.3.55-.35,1.09-.72,1.61-1.11m.05,0,.24-.18.18.16-.24.21-.18-.19m.52.07.25.21-.25.23-.24-.23.24-.21m.1-.09.19-.16.24.18a1.7,1.7,0,0,0-.19.19l-.24-.21m.48.06q.75.57,1.56,1.08l-.19.3c-.54-.38-1.06-.77-1.56-1.19l.19-.19m.12-.12c.35-.35.68-.72,1-1.09.47.21,1,.4,1.43.57-.27.54-.57,1.06-.89,1.57-.53-.33-1-.68-1.54-1.05m2.6-.46.25.09c-.26.58-.55,1.14-.87,1.7l-.3-.19c.33-.52.64-1.05.92-1.6m.08-.15a2.4,2.4,0,0,1,.11-.23l.24.07-.11.24-.24-.08m.16-.35A2.1,2.1,0,0,0,17,21l.22.06-.11.27-.24-.07m.31.23.31.08a2,2,0,0,1-.1.26l-.31-.1.1-.24m.05-.12.12-.28.3.06c0,.1-.08.2-.11.3l-.31-.08m.14-.35c.19-.47.36-.94.52-1.43h.23q-.2.75-.45,1.5l-.3-.07m.82-1.43c.52,0,1-.05,1.57-.11,0,.64-.06,1.28-.13,1.91-.64-.07-1.27-.17-1.9-.29.17-.5.32-1,.46-1.51m0-.07.06-.22c.5,0,1-.11,1.51-.19,0,.1,0,.2,0,.3-.51.06-1,.1-1.56.11m.09-.36a.83.83,0,0,1,0-.15c.48-.07,1-.15,1.44-.25v.22c-.49.08-1,.14-1.48.18M20,16.68l.14-.07c0,.05,0,.1,0,.16l-.15.08,0-.17m-.11-1.77q.38-.4.72-.84c.24.41.46.83.68,1.25-.35.27-.71.53-1.08.77-.1-.39-.2-.79-.32-1.18m1.43.47.12.25q-.57.39-1.17.75a1.74,1.74,0,0,0-.05-.22c.38-.25.74-.51,1.1-.78m.1-.17c-.21-.43-.45-.86-.7-1.28l.1-.12q.42.62.78,1.26l-.18.14m-.51-1.51c0-.06.09-.12.13-.19.32.42.61.85.89,1.29l-.23.19c-.25-.44-.51-.87-.79-1.29M22,14.86l.17.27-.26.18c0-.09-.09-.17-.14-.26l.23-.19m.24.38c0,.08.09.16.14.24l-.28.19L22,15.43a2.48,2.48,0,0,1,.26-.19m.23.39a20,20,0,0,1,.91,1.79l-.4.16a18.6,18.6,0,0,0-.8-1.76l.29-.19m1,1.95.15.37a3.12,3.12,0,0,1-.43.15l-.13-.36.41-.16m0-.18a19,19,0,0,0-.92-1.8,21.1,21.1,0,0,0,1.7-1.29,19.84,19.84,0,0,1,1.54,2,23.62,23.62,0,0,1-2.32,1.13m.71-3.27-.26-.28.32-.3.28.29-.34.29m-.26-1.06.26-.28c.11.09.23.19.34.3l-.28.28-.32-.3m-1.37-1.74c.34-.59.64-1.19.92-1.81a23.62,23.62,0,0,1,2.32,1.13,21.23,21.23,0,0,1-1.54,2,21.1,21.1,0,0,0-1.7-1.29m1-2L23.67,9a20.17,20.17,0,0,1,2.09.89,1.27,1.27,0,0,1,.33.22,1.91,1.91,0,0,1-.16.32l-.07.09a24.12,24.12,0,0,0-2.34-1.15m.14-.51-.43-.16.15-.43.47.14-.19.45m-.56-.2-.36-.11c0-.14.09-.28.13-.42l.38.1a3.12,3.12,0,0,1-.15.43m0,.13c0,.11-.09.23-.14.35L22.59,9c0-.11.07-.22.11-.34l.36.12m-.2.51c-.23.59-.5,1.17-.79,1.74l-.22-.14c.25-.57.48-1.14.68-1.72l.33.12M22,11.19l-.12.23-.2-.15a2.14,2.14,0,0,0,.1-.22,1.64,1.64,0,0,1,.22.14m-.18.34-.15.26-.18-.14c.05-.09.09-.17.13-.26l.2.14m-.29-.36c-.38-.26-.78-.52-1.19-.76a.85.85,0,0,1,0-.17c.42.22.85.46,1.26.71l-.11.22M20.15,7.52l-.32,0c0-.64-.06-1.29-.14-1.93l.41,0c0,.66.06,1.33,0,2m-.47-2c0-.14,0-.28-.05-.41L20.06,5l0,.43-.41,0M19.61,5l-.06-.38L20,4.5c0,.13,0,.27.05.4L19.61,5m0,.14c0,.13,0,.27.05.4-.63.07-1.25.17-1.86.29,0-.1-.07-.2-.11-.31.63-.15,1.27-.28,1.92-.38m-2,.27c0-.1-.07-.19-.11-.28.66-.19,1.32-.36,2-.5l.06.38a18,18,0,0,0-1.94.4m-.17-.44c-.25-.63-.53-1.25-.84-1.85A19.14,19.14,0,0,1,18.89,2a20.7,20.7,0,0,1,.57,2.42c-.68.14-1.36.31-2,.51M17.28,5,17,5.07c-.26-.58-.56-1.16-.88-1.72l.33-.19c.31.6.58,1.21.83,1.82M16,3.2l-.2-.33.34-.21a3.9,3.9,0,0,1,.19.35L16,3.2m-.12.06-.35.22-.2-.3.36-.24.19.32m-.62-.19-.25-.36.37-.27.24.39-.36.24m-.05,0a18.13,18.13,0,0,0-1.62,1.23l-.25-.23c.52-.48,1.06-.93,1.62-1.36l.25.36m-1.92.95a20.72,20.72,0,0,0-1.59-1.33,20.75,20.75,0,0,1,1.63-2A21.53,21.53,0,0,1,15,2.7c-.57.43-1.11.88-1.63,1.36m-.05.05L13,4.34c-.51-.42-1-.83-1.58-1.2l.25-.36c.54.42,1.07.86,1.57,1.33M11.32,3,11,2.83l.24-.39.33.24L11.32,3m-.08.11-.19.3-.31-.19.19-.32.31.21m-.62.05c-.12-.08-.25-.15-.38-.22l.19-.36.39.25-.2.33m-.08.15c-.32.56-.61,1.13-.88,1.72L9.33,5c.25-.63.53-1.24.83-1.83.13.06.25.14.38.21M9.27,5A20.93,20.93,0,0,0,7.2,4.42c.15-.81.34-1.62.57-2.42a20.85,20.85,0,0,1,2.34,1.1C9.8,3.71,9.52,4.32,9.27,5m-.06.16c0,.09-.07.18-.1.27a19.51,19.51,0,0,0-2-.41c0-.13,0-.25.06-.38a20.84,20.84,0,0,1,2,.52m-.15.39c0,.1-.07.2-.1.3C8.32,5.67,7.69,5.57,7,5.5l.06-.4a18.39,18.39,0,0,1,2,.4M7.05,5,6.62,4.9c0-.13,0-.27,0-.4l.45.08L7.05,5m0,.13c0,.13,0,.27,0,.41l-.41,0c0-.15,0-.29,0-.43L7,5.09M7,5.56c-.07.64-.12,1.29-.13,1.93l-.32,0c0-.66,0-1.33,0-2l.41,0m-.64,4.85c-.4.24-.8.5-1.19.76,0-.07-.07-.14-.1-.22.41-.25.83-.49,1.26-.71l0,.17m-1.28,1,.13.26L5,11.79a2.15,2.15,0,0,1-.14-.26l.19-.14m-.25,0-.13-.23.22-.14.1.22-.19.15M4.59,11C4.3,10.46,4,9.88,3.8,9.29l.33-.12c.21.58.43,1.16.69,1.72L4.59,11m-.85-1.9c-.05-.12-.09-.24-.13-.35L4,8.66,4.08,9l-.34.13m.19-.59-.37.11-.15-.43.39-.1c0,.14.08.28.13.42m-.49.15L3,8.85,2.82,8.4l.47-.14a3.66,3.66,0,0,0,.15.43m-.29.67A24.28,24.28,0,0,0,.8,10.51l-.06-.09a1.41,1.41,0,0,1-.17-.32A1.46,1.46,0,0,1,.9,9.88,21.14,21.14,0,0,1,3,9c0,.13.1.25.16.37M.85,10.69a21.33,21.33,0,0,0,1.55,2l-.35.3A21.55,21.55,0,0,1,.58,11.28,1.41,1.41,0,0,1,.4,11a3.15,3.15,0,0,1,.29-.22l.16-.08m1.23,2.48.28.29-.28.29-.32-.29.32-.29m.32,1.09a21.47,21.47,0,0,0-1.55,2l-.16-.09a3.15,3.15,0,0,1-.29-.22,1.75,1.75,0,0,1,.18-.29A21.55,21.55,0,0,1,2.05,14l.35.3m.75,3.3c-.06.12-.11.25-.16.37A21.14,21.14,0,0,1,.9,17a1.46,1.46,0,0,1-.33-.22,1.41,1.41,0,0,1,.17-.32l.06-.09a22.17,22.17,0,0,0,2.35,1.15M3,18.07l.44.16c-.06.14-.11.29-.16.43l-.46-.14L3,18.07m.56.2.37.11c-.05.14-.09.28-.13.43l-.39-.11.15-.43m0-.12c0-.12.08-.24.13-.36l.34.13L4,18.26l-.35-.11m.19-.52c.24-.59.5-1.17.79-1.74l.23.15c-.26.56-.48,1.13-.69,1.71l-.33-.12m.87-1.89a1.71,1.71,0,0,1,.13-.23l.19.14-.1.22-.22-.13m.19-.35c0-.09.09-.17.14-.26l.18.14-.13.26-.19-.14m.28.36c.39.27.79.52,1.19.76l0,.17c-.43-.22-.85-.46-1.26-.71,0-.08.07-.15.1-.22M6.52,19.4l.32,0c0,.65.06,1.29.13,1.93l-.41,0c0-.67-.06-1.34,0-2m.46,2c0,.14,0,.28,0,.41l-.42.06c0-.14,0-.29,0-.43l.41,0m.07.54.06.38-.45.08c0-.13,0-.26,0-.4L7.05,22m0-.14L7,21.42c.63-.07,1.25-.17,1.86-.29a2.83,2.83,0,0,1,.11.31c-.63.15-1.27.28-1.91.38m2-.26.1.27c-.65.2-1.31.36-2,.5,0-.13,0-.25-.06-.38.65-.1,1.3-.23,1.94-.39m.16.43c.25.63.53,1.25.84,1.85a20,20,0,0,1-2.29,1.09q-.34-1.21-.57-2.43c.69-.14,1.36-.31,2-.51m.17,0,.27-.09c.27.58.56,1.16.88,1.72l-.33.19c-.3-.6-.58-1.21-.82-1.82m1.24,1.78.19.33-.34.22c-.06-.12-.12-.24-.19-.36l.34-.19m.11-.06.35-.22c.07.1.14.2.2.3l-.36.24-.19-.32m.63.19.24.36-.37.27L11,24.09l.37-.24m.05,0A19.17,19.17,0,0,0,13,22.58l.24.23a21,21,0,0,1-1.61,1.36l-.25-.36m1.91-.95c.51.47,1,.91,1.59,1.33a20.64,20.64,0,0,1-1.62,2,20.07,20.07,0,0,1-1.6-2c.57-.43,1.11-.88,1.63-1.36m.05-.05.25-.23c.5.42,1,.83,1.57,1.21l-.24.35a20.19,20.19,0,0,1-1.58-1.33m2,1.07.32.21c-.08.13-.16.26-.25.39l-.32-.24.25-.36m.07-.11.2-.3.31.19-.19.32-.32-.21m.62-.05.38.22c-.06.12-.12.24-.19.36l-.39-.25c.07-.11.14-.22.2-.33m.09-.15A18.47,18.47,0,0,0,17,21.85l.33.1c-.25.63-.52,1.24-.83,1.84l-.37-.22M17.39,22a20.93,20.93,0,0,0,2.07.53,21.35,21.35,0,0,1-.57,2.43,23.71,23.71,0,0,1-2.33-1.11A19,19,0,0,0,17.39,22m.07-.16a2,2,0,0,1,.1-.26c.65.16,1.32.3,2,.4l-.06.38a19.46,19.46,0,0,1-2-.52m.14-.39.11-.3c.63.13,1.27.23,1.91.3,0,.13,0,.27-.05.4a18.57,18.57,0,0,1-2-.4m2,.54.44.06c0,.14,0,.27-.05.4l-.45-.08.06-.38m0-.13c0-.13,0-.27.05-.41l.42,0c0,.14,0,.29,0,.43l-.43-.06m.06-.47c.08-.64.12-1.28.14-1.93l.32,0c0,.66,0,1.33,0,2l-.41,0m.64-4.85c.41-.24.8-.49,1.19-.76l.11.22c-.41.25-.84.49-1.26.71a.85.85,0,0,1,0-.17m1.28-1c0-.09-.08-.17-.13-.26l.18-.14.15.26-.2.14m.26,0,.12.23-.22.13a2.14,2.14,0,0,0-.1-.22l.2-.14m.2.38c.29.57.56,1.15.79,1.74l-.33.12c-.2-.58-.43-1.15-.68-1.71l.22-.15m.85,1.9.14.36-.36.11c0-.12-.07-.23-.11-.34l.33-.13m-.18.59.36-.11a3.66,3.66,0,0,1,.15.43l-.38.11c0-.15-.09-.29-.13-.43m.49-.15.43-.16.19.45-.47.14-.15-.43m.29-.67a22,22,0,0,0,2.34-1.15l.07.09a1.91,1.91,0,0,1,.16.32,1.27,1.27,0,0,1-.33.22,20.17,20.17,0,0,1-2.09.89l-.15-.37m2.3-1.32a23.33,23.33,0,0,0-1.55-2l.35-.3a21.43,21.43,0,0,1,1.46,1.68,1.27,1.27,0,0,1,.18.29,1.69,1.69,0,0,1-.29.22l-.15.09m-1.23-2.49-.29-.29.29-.29.32.29-.32.29m-.32-1.09a23.18,23.18,0,0,0,1.55-2l.15.08a2.21,2.21,0,0,1,.29.22,1.08,1.08,0,0,1-.18.29A21.43,21.43,0,0,1,24.62,13l-.35-.3M25.49,9a1,1,0,0,1,.63.59.7.7,0,0,1,0,.38,1.65,1.65,0,0,0-.31-.2,21.3,21.3,0,0,0-2.1-.89c.07-.15.13-.3.19-.45.53.17,1.06.36,1.58.57M24,6a2.09,2.09,0,0,0,0-.36.73.73,0,0,1,.29.24,1,1,0,0,1,.07.86c-.16.54-.34,1.07-.54,1.6l-.47-.15A20.08,20.08,0,0,0,24,6h0m-.52-.72h0a1.82,1.82,0,0,0,0-.33.66.66,0,0,1,.26.21.72.72,0,0,1,.15.35,2,2,0,0,0-.34-.06h-.11l0-.16m.08.23a1.55,1.55,0,0,1,.35.07,1.36,1.36,0,0,1,0,.4,20.08,20.08,0,0,1-.61,2.18l-.39-.11a21.71,21.71,0,0,0,.57-2.54h.12m-.26-.25a1.11,1.11,0,0,1,0,.17,21,21,0,0,0-2.51,0c0-.15,0-.31,0-.46a20.15,20.15,0,0,1,2.06-.1H23a1.27,1.27,0,0,1,.34,0,1.16,1.16,0,0,1,0,.37m-.95-1h.1a.86.86,0,0,1,.68.24.76.76,0,0,1,.16.29,1.63,1.63,0,0,0-.31,0c-.75,0-1.5,0-2.24.1a3.11,3.11,0,0,0,0-.43c.55-.08,1.09-.14,1.64-.17M20.73,7.67c.66.1,1.32.24,2,.4,0,.14-.08.28-.13.42C22,8.3,21.33,8.14,20.7,8l0-.34m-.05.47c.63.13,1.24.28,1.86.47L22.42,9c-.58-.21-1.17-.39-1.76-.54a2.45,2.45,0,0,0,0-.27m1.69,1c-.2.57-.42,1.13-.67,1.68-.42-.26-.86-.5-1.3-.73.1-.49.18-1,.24-1.48.58.15,1.16.33,1.73.53M20.56,7.58l-.28,0c0-.67,0-1.35-.05-2l.38,0a20.76,20.76,0,0,1-.05,2.09m.05-2.16-.38,0c0-.15,0-.29,0-.44l.4,0c0,.15,0,.3,0,.45m0-.58-.4,0c0-.14,0-.28-.05-.41l.42-.07,0,.43M19.93,1.9a1,1,0,0,1,.41.7c.08.55.15,1.09.2,1.64l-.43.06c-.1-.73-.23-1.47-.4-2.2,0-.09-.06-.2-.1-.29a.68.68,0,0,1,.32.09m-.35.23a20.72,20.72,0,0,1,.4,2.2l-.46.08A21,21,0,0,0,19,2l.16-.07.36-.09a1.73,1.73,0,0,1,.11.32m-.78-.75a.7.7,0,0,1,.31.07.75.75,0,0,1,.26.2,3,3,0,0,0-.32.09l-.15.06,0-.1a1.83,1.83,0,0,0-.14-.32h.07m-.14,0a2,2,0,0,1,.15.33l0,.11a23.4,23.4,0,0,0-2.32,1.09c-.06-.12-.12-.24-.19-.36q.95-.57,2-1a1.68,1.68,0,0,1,.38-.12m-1.24-.22A1.17,1.17,0,0,1,18,1a.86.86,0,0,1,.27.05.81.81,0,0,1,.31.23,2.06,2.06,0,0,0-.35.12,21.63,21.63,0,0,0-2,1.06L16,2c.46-.3.92-.59,1.4-.85m-1.3,1.37-.35.22-.24-.39c.11-.09.23-.17.35-.25l.24.42M14.2.18h.06a.9.9,0,0,1,.67.46c.33.46.63.94.92,1.42l-.36.25c-.41-.63-.86-1.25-1.34-1.85L13.93.24A.6.6,0,0,1,14.2.18M13.81.3a1.81,1.81,0,0,1,.24.24,21.71,21.71,0,0,1,1.34,1.85L15,2.66a21.44,21.44,0,0,0-1.6-2l.12-.13A1.31,1.31,0,0,1,13.81.3M13.32.13h0a.66.66,0,0,1,.32.07L13.4.42l-.11.12L13.22.46,13,.23a.69.69,0,0,1,.36-.1M12.9.27a2,2,0,0,1,.27.23l.08.09a22.52,22.52,0,0,0-1.65,2,2.75,2.75,0,0,0-.33-.23A20.09,20.09,0,0,1,12.61.55,1.28,1.28,0,0,1,12.9.27M11.68.61A1,1,0,0,1,12.4.13h.06a.78.78,0,0,1,.31.07,2.13,2.13,0,0,0-.26.26c-.48.6-.93,1.22-1.34,1.85L10.77,2c.28-.48.59-1,.91-1.42m-.94,1.48.39.27-.24.4-.4-.25c.08-.14.16-.28.25-.42M8.39,1a1,1,0,0,1,.85.13c.5.27,1,.57,1.44.88l-.24.43a21.47,21.47,0,0,0-2-1.09,1.9,1.9,0,0,0-.36-.12A.81.81,0,0,1,8.39,1m0,.47c.69.33,1.35.69,2,1.08-.07.12-.13.24-.19.36A21.42,21.42,0,0,0,7.82,1.83a.76.76,0,0,0,0-.11A1.36,1.36,0,0,1,8,1.39a1.68,1.68,0,0,1,.38.12m-.83-.06a.75.75,0,0,1,.38-.07,1.27,1.27,0,0,0-.13.32l0,.1-.15-.06a2.8,2.8,0,0,0-.31-.09.63.63,0,0,1,.25-.2m-.35.36a2,2,0,0,1,.35.09L7.71,2a21,21,0,0,0-.57,2.44l-.46-.08c.1-.73.23-1.47.4-2.19a2.19,2.19,0,0,1,.12-.33m-.87.79a.92.92,0,0,1,.41-.7.62.62,0,0,1,.32-.09A1.11,1.11,0,0,0,7,2.1a19.23,19.23,0,0,0-.4,2.2l-.43-.06c0-.55.11-1.09.2-1.64M6.11,4.41l.42.07c0,.13,0,.27,0,.4l-.41,0,0-.43m0,.56.4,0c0,.15,0,.29,0,.44l-.38,0c0-.15,0-.3,0-.45m0,.52.37,0c0,.68-.06,1.36,0,2l-.28,0a18.18,18.18,0,0,1-.05-2.09m.2,4.57c-.44.23-.87.47-1.29.73A17.28,17.28,0,0,1,4.3,9.11c.57-.2,1.15-.38,1.73-.53.06.5.14,1,.23,1.48M6,8.41A18.07,18.07,0,0,0,4.24,9c0-.12-.07-.23-.11-.34.61-.18,1.23-.34,1.85-.47l0,.27M6,8c-.63.13-1.26.29-1.88.48L4,8.07c.65-.16,1.31-.3,2-.4L6,8M3.53,4.46a.9.9,0,0,1,.77-.24c.55,0,1.1.09,1.64.17l0,.43a20.68,20.68,0,0,0-2.23-.1,1.55,1.55,0,0,0-.31,0,.56.56,0,0,1,.16-.29m-.19.43a1.27,1.27,0,0,1,.34,0A20.38,20.38,0,0,1,5.9,5c0,.15,0,.31,0,.46a21,21,0,0,0-2.51,0l0-.17a1.54,1.54,0,0,1,0-.37m-.44.27A.83.83,0,0,1,3.16,5a1.83,1.83,0,0,0,0,.33h0a1,1,0,0,1,0,.16H3.09l-.34.06a.72.72,0,0,1,.15-.35m.2.35h.11a21.43,21.43,0,0,0,.57,2.55l-.39.11C3.15,7.45,3,6.72,2.78,6a1.8,1.8,0,0,1,0-.4,1.36,1.36,0,0,1,.35-.07M2.25,6.74a1,1,0,0,1,.07-.86.73.73,0,0,1,.29-.24,2.09,2.09,0,0,0,0,.36h0c.17.74.38,1.47.61,2.18l-.46.15c-.2-.53-.39-1.06-.55-1.6M.55,9.58A1,1,0,0,1,1.17,9Q2,8.67,2.76,8.42c.05.15.12.3.18.45-.71.26-1.41.56-2.1.89a2.7,2.7,0,0,0-.31.2.71.71,0,0,1,0-.38m-.21.91a.66.66,0,0,1,.18-.34,1.43,1.43,0,0,0,.16.3l.07.09-.14.08a1.35,1.35,0,0,0-.27.2.62.62,0,0,1,0-.33m.14,1.67a.93.93,0,0,1-.3-.76.74.74,0,0,1,.13-.3,2.33,2.33,0,0,0,.17.26c.46.59,1,1.15,1.47,1.69l-.32.29c-.4-.38-.78-.77-1.15-1.18m-.3,3.36a.93.93,0,0,1,.3-.76c.37-.41.75-.8,1.15-1.18l.32.3A21.55,21.55,0,0,0,.48,15.56a2.33,2.33,0,0,0-.17.26.69.69,0,0,1-.13-.3m.16.91a.62.62,0,0,1,0-.33,1.35,1.35,0,0,0,.27.2h0l.14.08-.07.09a1.43,1.43,0,0,0-.16.3.66.66,0,0,1-.18-.34m.83,1.5h0a1,1,0,0,1-.62-.59.71.71,0,0,1,0-.38,2.7,2.7,0,0,0,.31.2h0a20.17,20.17,0,0,0,2.09.89c-.06.15-.13.3-.18.45q-.81-.26-1.59-.57m1.44,3.35A.73.73,0,0,1,2.32,21a1,1,0,0,1-.07-.86c.16-.54.35-1.07.55-1.6l.47.15a22.08,22.08,0,0,0-.62,2.19,2.09,2.09,0,0,0,0,.36m.57.36a1.83,1.83,0,0,0,0,.33.7.7,0,0,1-.41-.56l.34.06H3.2a.88.88,0,0,1,0,.16m-.08-.23a1.36,1.36,0,0,1-.35-.07,1.8,1.8,0,0,1,0-.4c.17-.74.37-1.47.61-2.18l.39.11a21.43,21.43,0,0,0-.57,2.55H3.1m.25.25,0-.17c.46,0,.93.05,1.39.05s.75,0,1.12,0c0,.15,0,.31,0,.46a20.38,20.38,0,0,1-2.22.1,1.32,1.32,0,0,1-.34,0,1.54,1.54,0,0,1,0-.37m.95,1a.93.93,0,0,1-.78-.24.76.76,0,0,1-.16-.29l.32,0h.16a20.21,20.21,0,0,0,2.07-.1l0,.44c-.54.07-1.09.13-1.64.16m1.64-3.45c-.66-.1-1.32-.24-2-.4l.12-.42c.62.19,1.25.35,1.88.48l0,.34m0-.47c-.62-.13-1.24-.28-1.85-.47,0-.11.07-.22.11-.34A18.07,18.07,0,0,0,6,18.51l0,.27m-1.68-1A17.28,17.28,0,0,1,5,16.13c.42.26.85.5,1.29.73-.09.49-.17,1-.23,1.48-.58-.15-1.16-.33-1.73-.53m1.81,1.53.28,0c0,.67,0,1.35,0,2l-.37,0a18.23,18.23,0,0,1,.05-2.09M6.06,21.5l.38,0c0,.15,0,.29,0,.44l-.4,0c0-.15,0-.3,0-.45m0,.58.41,0c0,.13,0,.27,0,.4l-.42.07,0-.43M6.74,25a.92.92,0,0,1-.41-.7c-.09-.55-.16-1.09-.2-1.64l.43-.06a18.84,18.84,0,0,0,.4,2.2,1,1,0,0,0,.1.29A.62.62,0,0,1,6.74,25m.46.09a1.75,1.75,0,0,1-.12-.32c-.17-.73-.3-1.46-.4-2.2l.46-.08A21,21,0,0,0,7.71,25L7.55,25a2,2,0,0,1-.35.09m.35.36a.75.75,0,0,1-.26-.2,1.5,1.5,0,0,0,.32-.09h0l.14-.06a.42.42,0,0,0,0,.1,1.27,1.27,0,0,0,.13.32.66.66,0,0,1-.38-.07m.45.06a1.36,1.36,0,0,1-.14-.33.76.76,0,0,0,0-.11A22.38,22.38,0,0,0,10.14,24c.07.12.13.24.19.36a20.13,20.13,0,0,1-1.95,1.05,1.68,1.68,0,0,1-.38.12m1.24.23a1,1,0,0,1-.85.12.81.81,0,0,1-.31-.23,1.9,1.9,0,0,0,.36-.12h0c.67-.32,1.33-.68,2-1.06l.24.43c-.45.3-.92.59-1.4.86m1.3-1.38c.12-.07.24-.14.35-.22.08.13.16.26.25.39l-.36.25-.24-.42m1.87,2.36a.94.94,0,0,1-.68-.46c-.32-.46-.63-.94-.91-1.42l.35-.25a21.26,21.26,0,0,0,1.35,1.85,1.45,1.45,0,0,0,.21.22.66.66,0,0,1-.32.06m.45-.12a1.81,1.81,0,0,1-.24-.24,19.72,19.72,0,0,1-1.34-1.85l.37-.27a21.76,21.76,0,0,0,1.6,2l-.11.13a2.09,2.09,0,0,1-.28.24m.48.17h0a.74.74,0,0,1-.31-.07,1.7,1.7,0,0,0,.24-.22h0l.11-.12.08.08a1.94,1.94,0,0,0,.26.23.76.76,0,0,1-.37.1m.43-.14a3.11,3.11,0,0,1-.28-.23l-.07-.09a22.4,22.4,0,0,0,1.64-2l.33.24c-.41.63-.85,1.24-1.33,1.84a1.86,1.86,0,0,1-.29.27M15,26.31a1,1,0,0,1-.71.48.78.78,0,0,1-.38-.07,2.23,2.23,0,0,0,.27-.26h0a21.71,21.71,0,0,0,1.34-1.85l.39.28c-.28.48-.58,1-.91,1.42m.95-1.47-.4-.28.25-.39.39.24-.24.43m2.34,1a1,1,0,0,1-.85-.12h0c-.49-.28-1-.58-1.44-.89.09-.14.17-.28.25-.43a20.27,20.27,0,0,0,2,1.09h0a2.06,2.06,0,0,0,.35.12.81.81,0,0,1-.31.23m0-.47a22.33,22.33,0,0,1-2-1.08l.19-.36a22.16,22.16,0,0,0,2.36,1.12l0,.11a2,2,0,0,1-.15.33,1.29,1.29,0,0,1-.38-.12m.83.06a.65.65,0,0,1-.38.07,1.83,1.83,0,0,0,.14-.32l0-.1.15.06h0a1.68,1.68,0,0,0,.32.09.75.75,0,0,1-.26.2m.36-.36a2.37,2.37,0,0,1-.36-.09L19,25a21,21,0,0,0,.57-2.44l.46.08a20.09,20.09,0,0,1-.4,2.19,1.6,1.6,0,0,1-.11.33m.87-.79a.93.93,0,0,1-.42.7.61.61,0,0,1-.31.09c0-.09.07-.2.1-.29.17-.73.3-1.47.4-2.2l.43.06c-.05.55-.12,1.09-.2,1.64m.21-1.81-.42-.07c0-.13,0-.27.05-.4l.4,0,0,.43m0-.56-.4,0c0-.15,0-.29,0-.44l.38,0c0,.15,0,.3,0,.45m0-.52-.38,0c.05-.68.06-1.36.05-2l.28,0a20.76,20.76,0,0,1,.05,2.09m-.21-4.57c.44-.23.88-.47,1.3-.73.25.55.47,1.11.67,1.68-.57.2-1.15.38-1.73.53-.06-.5-.14-1-.24-1.48m.26,1.65c.59-.15,1.18-.33,1.76-.54l.12.34c-.62.19-1.23.34-1.86.47a2.45,2.45,0,0,0,0-.27m0,.4c.63-.13,1.25-.29,1.87-.48.05.14.09.28.13.42-.65.16-1.31.3-2,.4l0-.34m2.44,3.55a.93.93,0,0,1-.78.24c-.55,0-1.09-.09-1.64-.16a3.25,3.25,0,0,0,0-.44,20.49,20.49,0,0,0,2.07.1H23a1.63,1.63,0,0,0,.31,0,.76.76,0,0,1-.16.29m.18-.43a1.24,1.24,0,0,1-.33,0,20.68,20.68,0,0,1-2.23-.1c0-.15,0-.31,0-.46q.55,0,1.11,0c.46,0,.93,0,1.4-.05a1,1,0,0,1,0,.17,1.15,1.15,0,0,1,0,.37m.44-.26a.63.63,0,0,1-.26.2,1.82,1.82,0,0,0,0-.33l0-.16h.11a2,2,0,0,0,.34-.06.79.79,0,0,1-.15.36m-.19-.36h-.12a21.43,21.43,0,0,0-.57-2.55l.39-.11a20.08,20.08,0,0,1,.61,2.18,1.36,1.36,0,0,1,0,.4,1.55,1.55,0,0,1-.35.07m.84-1.23a1,1,0,0,1-.07.86.86.86,0,0,1-.29.25,2.33,2.33,0,0,0,0-.38,20.08,20.08,0,0,0-.61-2.18l.47-.15c.2.53.38,1.06.54,1.6m1.71-2.84a1,1,0,0,1-.63.59c-.52.21-1,.4-1.58.57-.06-.15-.12-.3-.19-.45a21.3,21.3,0,0,0,2.1-.89h0a1.65,1.65,0,0,0,.31-.2.7.7,0,0,1,0,.38m.21-.91a.67.67,0,0,1-.19.34,1.43,1.43,0,0,0-.16-.3l-.06-.09.14-.08h0a2.34,2.34,0,0,0,.27-.2.91.91,0,0,1,0,.33m-.14-1.67a.93.93,0,0,1,.29.76.68.68,0,0,1-.12.3,2.33,2.33,0,0,0-.17-.26,21.66,21.66,0,0,0-1.48-1.68l.33-.3c.39.38.78.77,1.15,1.18M25,13.34l-.33-.29c.52-.54,1-1.1,1.48-1.69a2.33,2.33,0,0,0,.17-.26.77.77,0,0,1,.12.31.92.92,0,0,1-.29.75c-.37.41-.76.8-1.15,1.18"/><path class="cls-1" d="M34.94,2.1a1.79,1.79,0,0,1,1.24.42l.12.09.19-.23-.12-.1a2.1,2.1,0,0,0-1.43-.48,2.17,2.17,0,0,0-2.18,2.4,2.17,2.17,0,0,0,2.18,2.39,2.1,2.1,0,0,0,1.43-.48l.12-.1-.19-.23-.12.1a1.84,1.84,0,0,1-1.24.41A1.9,1.9,0,0,1,33.06,4.2a1.9,1.9,0,0,1,1.88-2.1"/><path class="cls-1" d="M40.34,5.13v.18a.92.92,0,0,1-.25.71A1,1,0,0,1,38.7,6a1,1,0,0,1-.26-.71V3.39h-.3V5.31a1.31,1.31,0,0,0,.34.93,1.32,1.32,0,0,0,.91.35,1.29,1.29,0,0,0,.91-.35l0,0v.38h.31V3.39h-.31Z"/><path class="cls-1" d="M50.75,5.13v.16a.93.93,0,0,1-.26.71,1,1,0,0,1-1.64-.71V3.39h-.3v1.9a1.23,1.23,0,0,0,.34.92,1.33,1.33,0,0,0,1.82,0l0,0v.4h.3V3.39h-.3Z"/><path class="cls-1" d="M54.34,3.4a1.33,1.33,0,0,0-.85.29l-.1.11V3.4h-.3V6.57h.3V4.68a1,1,0,0,1,.3-.76,1,1,0,0,1,.65-.22,1.21,1.21,0,0,1,.38.06l.14.06L55,3.53l-.14,0a1.33,1.33,0,0,0-.49-.08"/><path class="cls-1" d="M58.89,4.9a1.7,1.7,0,0,0-.37-1.05,1.47,1.47,0,0,0-2.17,0A1.76,1.76,0,0,0,56,5a1.76,1.76,0,0,0,.37,1.13,1.35,1.35,0,0,0,1.09.48,1.89,1.89,0,0,0,1.13-.34l.12-.09-.18-.25L58.39,6a1.51,1.51,0,0,1-1,.29,1.1,1.1,0,0,1-.86-.37,1.42,1.42,0,0,1-.29-.87h2.6ZM56.3,4.75a1.3,1.3,0,0,1,.28-.7,1.07,1.07,0,0,1,.86-.38,1.05,1.05,0,0,1,.85.38,1.38,1.38,0,0,1,.29.7Z"/><rect class="cls-1" x="42.89" y="1.82" width="0.3" height="4.74"/><path class="cls-1" d="M45.92,2.59h-.3v.93H45v.3h.65V5.69c0,.78.57.88,1.07.88h.15v-.3h-.15c-.58,0-.77-.15-.77-.58V3.82h1v-.3h-1Z"/><path class="cls-1" d="M42.14,14.1l-.13,0c-.59-.19-.79-.35-.79-.62s.39-.5.74-.5a1.12,1.12,0,0,1,.84.31l.1.11.22-.21L43,13a1.43,1.43,0,0,0-1.06-.4c-.61,0-1,.33-1,.8s.49.74,1,.91l.13,0c.5.16.8.28.8.63s-.31.54-.83.54a1.15,1.15,0,0,1-.91-.4L41,15l-.25.18.09.12a1.48,1.48,0,0,0,1.16.52c.83,0,1.13-.45,1.13-.84,0-.59-.56-.77-1-.91"/><polygon class="cls-1" points="34.85 15.39 32.99 11.08 32.72 11.2 34.71 15.83 34.99 15.83 36.98 11.2 36.7 11.08 34.85 15.39"/><path class="cls-1" d="M54.14,13a1.35,1.35,0,0,0-1.81,0l0,0v-.38H52v3.18h.3V13.91a1,1,0,0,1,.26-.71,1,1,0,0,1,1.39,0,1,1,0,0,1,.26.71v1.92h.3V13.91a1.28,1.28,0,0,0-.35-.93"/><rect class="cls-1" x="38.66" y="12.65" width="0.3" height="3.17"/><rect class="cls-1" x="38.66" y="11.08" width="0.3" height="0.74"/><rect class="cls-1" x="45.02" y="12.65" width="0.3" height="3.17"/><rect class="cls-1" x="45.02" y="11.08" width="0.3" height="0.74"/><path class="cls-1" d="M48.65,12.63a1.45,1.45,0,0,0-1.45,1.61,1.46,1.46,0,1,0,2.91,0,1.46,1.46,0,0,0-1.46-1.61m0,2.92a1.17,1.17,0,0,1-1.15-1.31,1.16,1.16,0,1,1,2.3,0,1.17,1.17,0,0,1-1.15,1.31"/><path class="cls-1" d="M35.9,20.3v2.85a1.62,1.62,0,0,1-.45,1.17,1.58,1.58,0,0,1-1.1.45,1.44,1.44,0,0,1-1.48-1.07h-.31a1.75,1.75,0,0,0,1.79,1.37,1.83,1.83,0,0,0,1.85-1.92V20.3Z"/><path class="cls-1" d="M40.64,22.81c0-.66-.57-1-1.15-1a2.26,2.26,0,0,0-1,.23l-.14.06.12.28.14-.07a2.17,2.17,0,0,1,.89-.2c.09,0,.85,0,.85.66v.34h0v0a2.69,2.69,0,0,0-1.93.36.8.8,0,0,0-.28.62.77.77,0,0,0,.24.58,1.3,1.3,0,0,0,.93.32h0a1.51,1.51,0,0,0,.88-.27,1.07,1.07,0,0,0,.16-.14v.39h.3V23h0ZM40,24.56a1.29,1.29,0,0,1-.71.21h0a1,1,0,0,1-.72-.24.48.48,0,0,1-.14-.35.5.5,0,0,1,.17-.41,1.87,1.87,0,0,1,1.22-.3,4.52,4.52,0,0,1,.51,0v.12h0v.28a.84.84,0,0,1-.33.67"/><path class="cls-1" d="M54.06,22.2a1.35,1.35,0,0,0-1.81,0l0,.05v-.38H51.9v3.18h.31V23.13a.92.92,0,0,1,.25-.71,1,1,0,0,1,1.39,0,1,1,0,0,1,.26.71v1.92h.3V23.13a1.28,1.28,0,0,0-.35-.93"/><path class="cls-1" d="M49.79,22.81a1,1,0,0,0-1.15-1,2.33,2.33,0,0,0-1,.23l-.13.06.12.28.14-.07a2.17,2.17,0,0,1,.89-.2c.09,0,.85,0,.85.66v.34h0v0a2.68,2.68,0,0,0-1.93.36.8.8,0,0,0-.28.62.77.77,0,0,0,.24.58,1.28,1.28,0,0,0,.93.32h0a1.53,1.53,0,0,0,.88-.27,1.07,1.07,0,0,0,.16-.14v.39h.3V23h0Zm-.63,1.75a1.29,1.29,0,0,1-.71.21h0a1,1,0,0,1-.72-.24.45.45,0,0,1-.14-.35.5.5,0,0,1,.17-.41,1.87,1.87,0,0,1,1.22-.3,4.52,4.52,0,0,1,.51,0v.12h0v.28a.84.84,0,0,1-.33.67"/><path class="cls-1" d="M44.2,21.85a1.32,1.32,0,0,0-1.14.7v-.68h-.31v5.19h.31V24.38a1.31,1.31,0,0,0,1.14.69,1.43,1.43,0,0,0,1.39-1.61,1.43,1.43,0,0,0-1.39-1.61m0,2.92c-.75,0-1.09-.78-1.09-1.31s.34-1.31,1.09-1.31,1.09.71,1.09,1.31S45,24.77,44.2,24.77"/></g></g></svg>