<svg xmlns="http://www.w3.org/2000/svg" viewBox="0 0 24.82 24.22"><defs><style>.cls-1{fill:#231815;}</style></defs><g id="レイヤー_2" data-name="レイヤー 2"><g id="图层_1" data-name="图层 1"><path class="cls-1" d="M4.51,7.25a.74.74,0,1,0-.73-.73.74.74,0,0,0,.73.73"/><path class="cls-1" d="M20.25,7.09A.73.73,0,1,1,21,6.36a.73.73,0,0,1-.73.73"/><path class="cls-1" d="M12.35,8.41a.74.74,0,1,0-.74-.73.73.73,0,0,0,.74.73"/><path class="cls-1" d="M7,11.44,7.1,11c.12-.49.25-1.06.37-1.6A11.22,11.22,0,0,1,10.1,4,6.82,6.82,0,0,1,12.44,2.4a7.79,7.79,0,0,1,4.8,9.07c-.54.06-1.2.1-1.47.11a1,1,0,0,0-.92.94v0a1,1,0,0,0,1,.91,16.84,16.84,0,0,0,2.35-.24.93.93,0,0,0,.7-.63A9.68,9.68,0,0,0,15.42,1.9a7.78,7.78,0,0,1-.27,15.55.95.95,0,1,0,0,1.89A9.67,9.67,0,0,0,15.15,0a9.27,9.27,0,0,0-2.72.4A9.67,9.67,0,1,0,8.91,19.3a.94.94,0,0,0,1-.63.87.87,0,0,0,.06-.32,1,1,0,0,0-.37-.75A.66.66,0,0,1,9.35,17,3.61,3.61,0,0,0,9.49,16v0c0-.21-.1-.28-.34-.47S9,14.81,9,14.72s0-.24-.13-.31a.66.66,0,0,1-.39-.74,4.78,4.78,0,0,0,.17-1.33h0a.8.8,0,0,0-.61-.7,5.49,5.49,0,0,0-.8,0c-.17,0-.3-.09-.28-.19M9.56,17.6l0,0,0,0M8.73,2.71A13.09,13.09,0,0,0,5.62,9c-.11.53-.25,1.08-.36,1.56-.18.73-.28,1.16-.32,1.4,0,.05,0,.11,0,.16a1.16,1.16,0,0,0,.28.75,1.78,1.78,0,0,0,1.34.49c.16,0,.36-.09.36,0a2.79,2.79,0,0,1-.09.63.76.76,0,0,0,.49.9.9.9,0,0,0-.15.84.63.63,0,0,0,.25.3c.25.12.18.34.09.54a1,1,0,0,0,0,.55A7.77,7.77,0,0,1,9.62,1.9a7.49,7.49,0,0,0-.89.81"/><path class="cls-1" d="M1.46,21.81a1.18,1.18,0,0,0-.87.35,1.26,1.26,0,0,0,0,1.72,1.14,1.14,0,0,0,.84.34,1,1,0,0,0,.89-.42v.29c0,.09,0,.13.11.13s.12,0,.12-.13v-.92A.19.19,0,0,0,2.34,23h-1c-.07,0-.11,0-.11.1s0,.09.11.09h.88a.05.05,0,0,1,.06.06v.14a.63.63,0,0,1-.25.47.86.86,0,0,1-.58.21.94.94,0,0,1-.7-.28,1.13,1.13,0,0,1,0-1.45,1,1,0,0,1,.71-.3.83.83,0,0,1,.46.1,1.22,1.22,0,0,1,.3.3c.06.08.12.1.19.06a.15.15,0,0,0,0-.2A1.19,1.19,0,0,0,2,21.92a1.18,1.18,0,0,0-.57-.11"/><path class="cls-1" d="M1.46,21.81a1.18,1.18,0,0,0-.87.35,1.26,1.26,0,0,0,0,1.72,1.14,1.14,0,0,0,.84.34,1,1,0,0,0,.89-.42v.29c0,.09,0,.13.11.13s.12,0,.12-.13v-.92A.19.19,0,0,0,2.34,23h-1c-.07,0-.11,0-.11.1s0,.09.11.09h.88a.05.05,0,0,1,.06.06v.14a.63.63,0,0,1-.25.47.86.86,0,0,1-.58.21.94.94,0,0,1-.7-.28,1.13,1.13,0,0,1,0-1.45,1,1,0,0,1,.71-.3.83.83,0,0,1,.46.1,1.22,1.22,0,0,1,.3.3c.06.08.12.1.19.06a.15.15,0,0,0,0-.2A1.19,1.19,0,0,0,2,21.92a1.18,1.18,0,0,0-.57-.11"/><path class="cls-1" d="M3.38,22.93a.55.55,0,0,1,.42-.19.56.56,0,0,1,.41.16.44.44,0,0,1,.14.3.05.05,0,0,1-.06.06H3.21a.53.53,0,0,1,.17-.33m.43-.36a.81.81,0,0,0-.6.24.78.78,0,0,0-.23.55.85.85,0,0,0,.23.62.82.82,0,0,0,.61.24.67.67,0,0,0,.72-.47.1.1,0,0,0,0-.13.09.09,0,0,0-.13.05.53.53,0,0,1-.11.21.59.59,0,0,1-.44.17.6.6,0,0,1-.43-.18.61.61,0,0,1-.17-.45H4.43c.11,0,.16-.05.16-.15a.65.65,0,0,0-.2-.47.78.78,0,0,0-.58-.23"/><path class="cls-1" d="M3.38,22.93a.55.55,0,0,1,.42-.19.56.56,0,0,1,.41.16.44.44,0,0,1,.14.3.05.05,0,0,1-.06.06H3.21a.53.53,0,0,1,.17-.33m.43-.36a.81.81,0,0,0-.6.24.78.78,0,0,0-.23.55.85.85,0,0,0,.23.62.82.82,0,0,0,.61.24.67.67,0,0,0,.72-.47.1.1,0,0,0,0-.13.09.09,0,0,0-.13.05.53.53,0,0,1-.11.21.59.59,0,0,1-.44.17.6.6,0,0,1-.43-.18.61.61,0,0,1-.17-.45H4.43c.11,0,.16-.05.16-.15a.65.65,0,0,0-.2-.47.78.78,0,0,0-.58-.23"/><path class="cls-1" d="M5.07,24.1c0,.08,0,.12.11.12s.1,0,.1-.12V22.69c0-.08,0-.12-.1-.12s-.11,0-.11.12ZM5.18,22a.17.17,0,0,0-.17.17.18.18,0,0,0,0,.12.16.16,0,0,0,.12,0,.15.15,0,0,0,.11,0,.15.15,0,0,0,0-.12.13.13,0,0,0,0-.12A.16.16,0,0,0,5.18,22"/><path class="cls-1" d="M5.07,24.1c0,.08,0,.12.11.12s.1,0,.1-.12V22.69c0-.08,0-.12-.1-.12s-.11,0-.11.12ZM5.18,22a.17.17,0,0,0-.17.17.18.18,0,0,0,0,.12.16.16,0,0,0,.12,0,.15.15,0,0,0,.11,0,.15.15,0,0,0,0-.12.13.13,0,0,0,0-.12A.16.16,0,0,0,5.18,22"/><path class="cls-1" d="M6.64,22.74a.73.73,0,0,1,.52.23.46.46,0,0,1,.13.2v.45a.56.56,0,0,1-.15.23.6.6,0,0,1-.49.2.63.63,0,0,1-.46-.18A.64.64,0,0,1,6,23.4a.61.61,0,0,1,.19-.47.58.58,0,0,1,.45-.19m.65.17A.85.85,0,0,0,6,22.83a.81.81,0,0,0-.23.57A.82.82,0,0,0,6,24a.86.86,0,0,0,1.26-.12v.22c0,.08,0,.12.11.12s.11,0,.11-.12V21.93c0-.08,0-.12-.11-.12s-.11,0-.11.12Z"/><path class="cls-1" d="M6.64,22.74a.73.73,0,0,1,.52.23.46.46,0,0,1,.13.2v.45a.56.56,0,0,1-.15.23.6.6,0,0,1-.49.2.63.63,0,0,1-.46-.18A.64.64,0,0,1,6,23.4a.61.61,0,0,1,.19-.47.58.58,0,0,1,.45-.19m.65.17A.85.85,0,0,0,6,22.83a.81.81,0,0,0-.23.57A.82.82,0,0,0,6,24a.86.86,0,0,0,1.26-.12v.22c0,.08,0,.12.11.12s.11,0,.11-.12V21.93c0-.08,0-.12-.11-.12s-.11,0-.11.12Z"/><path class="cls-1" d="M9.27,23.74a.77.77,0,0,1-.66.31c-.26,0-.4-.09-.4-.29s.21-.3.63-.34a1.27,1.27,0,0,0,.43-.09Zm-.49-1.17a.81.81,0,0,0-.59.2.72.72,0,0,0-.12.21c0,.07,0,.11.06.13A.1.1,0,0,0,8.26,23c.06-.19.23-.29.51-.29a.58.58,0,0,1,.43.13.17.17,0,0,1,.07.14.22.22,0,0,1-.2.23,1.6,1.6,0,0,1-.33,0,.87.87,0,0,0-.63.21.4.4,0,0,0-.12.29.44.44,0,0,0,.14.3.71.71,0,0,0,.48.14.84.84,0,0,0,.66-.28.36.36,0,0,0,.12.23.4.4,0,0,0,.25,0c.07,0,.1,0,.1-.1s0-.07-.1-.07a.14.14,0,0,1-.16-.16V23.1a.46.46,0,0,0-.13-.35.76.76,0,0,0-.57-.18"/><path class="cls-1" d="M9.27,23.74a.77.77,0,0,1-.66.31c-.26,0-.4-.09-.4-.29s.21-.3.63-.34a1.27,1.27,0,0,0,.43-.09Zm-.49-1.17a.81.81,0,0,0-.59.2.72.72,0,0,0-.12.21c0,.07,0,.11.06.13A.1.1,0,0,0,8.26,23c.06-.19.23-.29.51-.29a.58.58,0,0,1,.43.13.17.17,0,0,1,.07.14.22.22,0,0,1-.2.23,1.6,1.6,0,0,1-.33,0,.87.87,0,0,0-.63.21.4.4,0,0,0-.12.29.44.44,0,0,0,.14.3.71.71,0,0,0,.48.14.84.84,0,0,0,.66-.28.36.36,0,0,0,.12.23.4.4,0,0,0,.25,0c.07,0,.1,0,.1-.1s0-.07-.1-.07a.14.14,0,0,1-.16-.16V23.1a.46.46,0,0,0-.13-.35.76.76,0,0,0-.57-.18"/><path class="cls-1" d="M10.23,24.1c0,.08,0,.12.1.12s.11,0,.11-.12V22.69c0-.08,0-.12-.11-.12s-.1,0-.1.12Zm.1-2.13a.18.18,0,0,0-.12.05.16.16,0,0,0,0,.12.14.14,0,0,0,.16.16.16.16,0,0,0,.12,0,.18.18,0,0,0,.05-.12.17.17,0,0,0-.17-.17"/><path class="cls-1" d="M10.23,24.1c0,.08,0,.12.1.12s.11,0,.11-.12V22.69c0-.08,0-.12-.11-.12s-.1,0-.1.12Zm.1-2.13a.18.18,0,0,0-.12.05.16.16,0,0,0,0,.12.14.14,0,0,0,.16.16.16.16,0,0,0,.12,0,.18.18,0,0,0,.05-.12.17.17,0,0,0-.17-.17"/><path class="cls-1" d="M12.48,21.81c-.15,0-.22.07-.22.21v2.07c0,.09,0,.13.12.13s.12,0,.12-.13V23h1.21c.07,0,.11,0,.11-.09s0-.09-.11-.09H12.5v-.8a.05.05,0,0,1,.06-.06h1.33c.07,0,.1,0,.1-.1s0-.09-.1-.09Z"/><path class="cls-1" d="M12.48,21.81c-.15,0-.22.07-.22.21v2.07c0,.09,0,.13.12.13s.12,0,.12-.13V23h1.21c.07,0,.11,0,.11-.09s0-.09-.11-.09H12.5v-.8a.05.05,0,0,1,.06-.06h1.33c.07,0,.1,0,.1-.1s0-.09-.1-.09Z"/><path class="cls-1" d="M14.48,24.1c0,.08,0,.12.1.12s.11,0,.11-.12v-.85a.82.82,0,0,1,.21-.36.45.45,0,0,1,.35-.13h.13c.07,0,.11,0,.11-.09a.1.1,0,0,0-.11-.1.74.74,0,0,0-.53.16.84.84,0,0,0-.16.26v-.3c0-.08,0-.12-.11-.12s-.1,0-.1.12Z"/><path class="cls-1" d="M14.48,24.1c0,.08,0,.12.1.12s.11,0,.11-.12v-.85a.82.82,0,0,1,.21-.36.45.45,0,0,1,.35-.13h.13c.07,0,.11,0,.11-.09a.1.1,0,0,0-.11-.1.74.74,0,0,0-.53.16.84.84,0,0,0-.16.26v-.3c0-.08,0-.12-.11-.12s-.1,0-.1.12Z"/><path class="cls-1" d="M15.94,24.1c0,.08,0,.12.1.12s.11,0,.11-.12V22.69c0-.08,0-.12-.11-.12s-.1,0-.1.12ZM16,22a.17.17,0,0,0-.12.05.16.16,0,0,0,0,.12.17.17,0,0,0,0,.12.2.2,0,0,0,.24,0,.18.18,0,0,0,.05-.12A.17.17,0,0,0,16,22"/><path class="cls-1" d="M15.94,24.1c0,.08,0,.12.1.12s.11,0,.11-.12V22.69c0-.08,0-.12-.11-.12s-.1,0-.1.12ZM16,22a.17.17,0,0,0-.12.05.16.16,0,0,0,0,.12.17.17,0,0,0,0,.12.2.2,0,0,0,.24,0,.18.18,0,0,0,.05-.12A.17.17,0,0,0,16,22"/><path class="cls-1" d="M17,22.93a.58.58,0,0,1,.42-.19.53.53,0,0,1,.41.16.41.41,0,0,1,.15.3.05.05,0,0,1-.06.06H16.87a.52.52,0,0,1,.16-.33m.44-.36a.78.78,0,0,0-.6.24.75.75,0,0,0-.24.55.82.82,0,0,0,.85.86A.69.69,0,0,0,18,24a.71.71,0,0,0,.15-.26.1.1,0,0,0,0-.13.09.09,0,0,0-.13.05.72.72,0,0,1-.12.21.56.56,0,0,1-.43.17.62.62,0,0,1-.44-.18.61.61,0,0,1-.16-.45h1.22a.13.13,0,0,0,.15-.15.65.65,0,0,0-.2-.47.78.78,0,0,0-.57-.23"/><path class="cls-1" d="M17,22.93a.58.58,0,0,1,.42-.19.53.53,0,0,1,.41.16.41.41,0,0,1,.15.3.05.05,0,0,1-.06.06H16.87a.52.52,0,0,1,.16-.33m.44-.36a.78.78,0,0,0-.6.24.75.75,0,0,0-.24.55.82.82,0,0,0,.85.86A.69.69,0,0,0,18,24a.71.71,0,0,0,.15-.26.1.1,0,0,0,0-.13.09.09,0,0,0-.13.05.72.72,0,0,1-.12.21.56.56,0,0,1-.43.17.62.62,0,0,1-.44-.18.61.61,0,0,1-.16-.45h1.22a.13.13,0,0,0,.15-.15.65.65,0,0,0-.2-.47.78.78,0,0,0-.57-.23"/><path class="cls-1" d="M18.73,24.1c0,.08,0,.12.1.12s.11,0,.11-.12v-.87A.76.76,0,0,1,19.1,23a.73.73,0,0,1,.55-.23.54.54,0,0,1,.4.15.53.53,0,0,1,.13.39v.82c0,.08,0,.12.11.12s.1,0,.1-.12v-.86a.64.64,0,0,0-.16-.47.76.76,0,0,0-.55-.2.82.82,0,0,0-.57.22.92.92,0,0,0-.17.2v-.3c0-.08,0-.12-.11-.12s-.1,0-.1.12Z"/><path class="cls-1" d="M18.73,24.1c0,.08,0,.12.1.12s.11,0,.11-.12v-.87A.76.76,0,0,1,19.1,23a.73.73,0,0,1,.55-.23.54.54,0,0,1,.4.15.53.53,0,0,1,.13.39v.82c0,.08,0,.12.11.12s.1,0,.1-.12v-.86a.64.64,0,0,0-.16-.47.76.76,0,0,0-.55-.2.82.82,0,0,0-.57.22.92.92,0,0,0-.17.2v-.3c0-.08,0-.12-.11-.12s-.1,0-.1.12Z"/><path class="cls-1" d="M21.75,22.74a.77.77,0,0,1,.53.23.76.76,0,0,1,.13.2v.45a.74.74,0,0,1-.16.23.59.59,0,0,1-.49.2.65.65,0,0,1-.46-.18.68.68,0,0,1-.19-.47.65.65,0,0,1,.19-.47.61.61,0,0,1,.45-.19m.66.17a.87.87,0,0,0-.67-.34.88.88,0,0,0-.63.26.81.81,0,0,0-.23.57.82.82,0,0,0,.26.6.85.85,0,0,0,.6.22.82.82,0,0,0,.67-.34v.22c0,.08,0,.12.1.12s.11,0,.11-.12V21.93c0-.08,0-.12-.11-.12s-.1,0-.1.12Z"/><path class="cls-1" d="M21.75,22.74a.77.77,0,0,1,.53.23.76.76,0,0,1,.13.2v.45a.74.74,0,0,1-.16.23.59.59,0,0,1-.49.2.65.65,0,0,1-.46-.18.68.68,0,0,1-.19-.47.65.65,0,0,1,.19-.47.61.61,0,0,1,.45-.19m.66.17a.87.87,0,0,0-.67-.34.88.88,0,0,0-.63.26.81.81,0,0,0-.23.57.82.82,0,0,0,.26.6.85.85,0,0,0,.6.22.82.82,0,0,0,.67-.34v.22c0,.08,0,.12.1.12s.11,0,.11-.12V21.93c0-.08,0-.12-.11-.12s-.1,0-.1.12Z"/><path class="cls-1" d="M23.79,22.57a.77.77,0,0,0-.56.18.38.38,0,0,0-.13.28c0,.2.16.33.46.39l.52.09c.19,0,.28.13.28.26a.21.21,0,0,1-.08.17.76.76,0,0,1-.41.11.59.59,0,0,1-.46-.14.36.36,0,0,1-.11-.17.1.1,0,0,0-.14-.06.12.12,0,0,0-.05.15.59.59,0,0,0,.13.19.93.93,0,0,0,.63.2.86.86,0,0,0,.58-.19.29.29,0,0,0,.12-.25.39.39,0,0,0-.1-.29.76.76,0,0,0-.3-.15l-.6-.12c-.17,0-.26-.09-.26-.19a.29.29,0,0,1,.07-.18.65.65,0,0,1,.43-.11.48.48,0,0,1,.49.27.11.11,0,0,0,.13.06.11.11,0,0,0,.06-.12.33.33,0,0,0-.1-.18.79.79,0,0,0-.6-.2"/></g></g></svg>