<svg xmlns="http://www.w3.org/2000/svg" viewBox="0 0 187.33 25.13"><defs><style>.cls-1{fill:none;}</style></defs><g id="レイヤー_2" data-name="レイヤー 2"><g id="レイヤー_1-2" data-name="レイヤー 1"><rect class="cls-1" x="0.01" width="187.33" height="25.13"/><path d="M2.34,8.53A14.81,14.81,0,0,1,5.19,5.08,13.34,13.34,0,0,1,9,2.69a11.43,11.43,0,0,1,4.55-.89,8.11,8.11,0,0,1,4,.89A5.94,5.94,0,0,1,20,5.08a7.66,7.66,0,0,1,.87,3.45,13.33,13.33,0,0,1-.55,4.05,16.88,16.88,0,0,1-1.78,4,15.28,15.28,0,0,1-2.85,3.44,13.36,13.36,0,0,1-3.77,2.38,11.61,11.61,0,0,1-4.55.88,8.29,8.29,0,0,1-4.05-.88,5.85,5.85,0,0,1-2.4-2.38A7.61,7.61,0,0,1,0,16.63a12.93,12.93,0,0,1,.54-4A16.2,16.2,0,0,1,2.34,8.53Zm.47,7.12a6.57,6.57,0,0,0,.48,2.72A4.3,4.3,0,0,0,5,20.32a5.54,5.54,0,0,0,3,.73,8,8,0,0,0,3.44-.73,9.69,9.69,0,0,0,2.78-1.95,12,12,0,0,0,2.06-2.72,15.26,15.26,0,0,0,1.28-3.07A11.88,11.88,0,0,0,18,9.51a6.64,6.64,0,0,0-.48-2.73,4.33,4.33,0,0,0-1.66-1.94,5.53,5.53,0,0,0-3-.74,8,8,0,0,0-3.44.74A9.86,9.86,0,0,0,6.63,6.78a12.2,12.2,0,0,0-2,2.73,14.75,14.75,0,0,0-1.29,3.07A11.88,11.88,0,0,0,2.81,15.65Z"/><path d="M29.46,2.28l6,16.7h.06l4.8-16.7H43L37,22.87H34L28,6.35H28L23.22,22.87H20.63L26.55,2.28Z"/><path d="M50.13,2.28,44.87,20.56h10.9l-.66,2.31H41.47L47.39,2.28Z"/><path d="M66.28,2.28,60.35,22.87H57.62L63.54,2.28Z"/><path d="M73.77,2.28l6,16.7h.06l4.8-16.7h2.59L81.34,22.87h-3l-6-16.52h-.06L67.53,22.87H64.94L70.86,2.28Z"/><path d="M105.92,2.28l-.67,2.31H93.78L91.9,11.14h10.69l-.66,2.3H91.23l-2,7.12h11.57l-.67,2.31H85.78L91.7,2.28Z"/><path d="M113.56,13.7,112.9,16h-8.34l.67-2.31Z"/><path d="M119.6,22.87,118.29,2.28h2.94L122,20.13H122L133.1,2.28H136L122.71,22.87Z"/><path d="M141,2.28l-5.92,20.59h-2.74l5.93-20.59Z"/><path d="M159.83,2.28l-.66,2.31H147.69l-1.88,6.55h10.7l-.67,2.3H145.15l-2.05,7.12h11.56L154,22.87H139.7l5.92-20.59Z"/><path d="M173.05,22.87l.28-17.3h-.06l-9.73,17.3h-2.86l.65-20.59h2.8l-.89,17.13h0l9.54-17.13h3l-.37,17.13h.06L184.6,2.28h2.73L175.91,22.87Z"/></g></g></svg>