<svg xmlns="http://www.w3.org/2000/svg" viewBox="0 0 107.4 25.13"><defs><style>.cls-1{fill:none;}</style></defs><g id="レイヤー_2" data-name="レイヤー 2"><g id="レイヤー_1-2" data-name="レイヤー 1"><rect class="cls-1" width="107.4" height="25.13"/><path d="M3.82,8.53A14.81,14.81,0,0,1,6.67,5.08a13.34,13.34,0,0,1,3.77-2.39A11.43,11.43,0,0,1,15,1.8a8.14,8.14,0,0,1,4,.89,5.94,5.94,0,0,1,2.4,2.39,7.79,7.79,0,0,1,.87,3.45,13.33,13.33,0,0,1-.55,4.05,16.53,16.53,0,0,1-1.79,4,14.76,14.76,0,0,1-2.85,3.44,13.17,13.17,0,0,1-3.76,2.38,11.61,11.61,0,0,1-4.55.88,8.26,8.26,0,0,1-4.05-.88,5.85,5.85,0,0,1-2.4-2.38,7.61,7.61,0,0,1-.87-3.44,13.25,13.25,0,0,1,.55-4A16.2,16.2,0,0,1,3.82,8.53Zm.47,7.12a6.57,6.57,0,0,0,.48,2.72,4.3,4.3,0,0,0,1.66,1.95,5.54,5.54,0,0,0,3,.73,8,8,0,0,0,3.44-.73,9.69,9.69,0,0,0,2.78-1.95,11.92,11.92,0,0,0,2-2.72A14.75,14.75,0,0,0,19,12.58a11.88,11.88,0,0,0,.48-3.07A6.64,6.64,0,0,0,19,6.78a4.33,4.33,0,0,0-1.66-1.94,5.53,5.53,0,0,0-3-.74,8,8,0,0,0-3.44.74A9.86,9.86,0,0,0,8.11,6.78a11.91,11.91,0,0,0-2,2.73,14.75,14.75,0,0,0-1.29,3.07A11.88,11.88,0,0,0,4.29,15.65Z"/><path d="M30.94,2.28,37,19H37l4.81-16.7h2.59L38.51,22.87h-3l-6-16.52h-.06L24.7,22.87H22.1L28,2.28Z"/><path d="M51.61,2.28,46.35,20.56h10.9l-.66,2.31H43L48.87,2.28Z"/><path d="M67.76,2.28,61.83,22.87H59.09L65,2.28Z"/><path d="M75.25,2.28l6,16.7h.06l4.8-16.7h2.59L82.82,22.87h-3l-6-16.52h-.06L69,22.87H66.42L72.34,2.28Z"/><path d="M107.4,2.28l-.67,2.31H95.26l-1.89,6.55h10.7l-.66,2.3H92.71l-2,7.12h11.56l-.66,2.31H87.26L93.18,2.28Z"/></g></g></svg>