<svg xmlns="http://www.w3.org/2000/svg" viewBox="0 0 145.83 37.23"><g id="レイヤー_2" data-name="レイヤー 2"><g id="图层_1" data-name="图层 1"><path d="M30.33,21.2c-.62.57-3.34,3.2-3.93,3.69l-3.11-2.46a47.14,47.14,0,0,0,6.22-5.09H20.65l-2.4,8.37c-.26.9-1.24,4.88-1.47,5.66-1,3.6-2.2,5.37-6.38,5.37a16.26,16.26,0,0,1-3.51-.33l-.25-4.26a13.51,13.51,0,0,0,3.5.65c1.8,0,2.24-.65,3-3.2l3.53-12.26H6a49.48,49.48,0,0,0-6,.54l1.27-4.43c2.15.25,9.56.41,12.1.41h6.15A15,15,0,0,0,15,8.16L19,5.7a22.62,22.62,0,0,1,2.54,2.71c3.24-2,4.1-2.55,5.8-3.78H16.6c-.61,0-3.38.21-3.93.29-1.11.12-1.79.21-2.63.29L11.29.86a46.54,46.54,0,0,0,6.13.37c.45,0,2.43.08,2.84.08h5.25c1.68,0,7.65-.37,8.29-.45L35,4.14C33.32,5,27.93,8,23.1,10.82a13.19,13.19,0,0,1,.71,1.69l-2,1.35h2.05c2.17,0,6.63-.08,9.16-.21,1,0,1.64-.12,2.36-.2l1.2,2.21C35.55,16.44,34.24,17.59,30.33,21.2Z"/><path d="M43.4,24.93c-.35,1.07-2.33,6.81-4.85,10.17l-3.43-.9a22.82,22.82,0,0,0,4.69-8.78,20.25,20.25,0,0,0,.56-2.5l3.37.53c.39.09.74.29.63.66S43.87,24.72,43.4,24.93Zm10-2.95c0-.91,0-1.48-.1-2.22-1,.13-2.3.29-3.45.45l-1.78,6.2c-.77,2.66-1.43,5.24-2.35,9.59-.07.25-.15.66-.18.78H41.06a76.92,76.92,0,0,0,3.59-10.5l1.64-5.7c-.8.09-4.42.41-5.14.49-.85.95-1,1-1.28,1-.41,0-.37-.29-.32-.62l.84-4.05c1.12-.05,1.33-.05,3.17-.05.59-.49,1-.86,4.21-3.81a17.65,17.65,0,0,0-5-4.84L46,5.45c.54.54.63.66,1.58,1.64A66.94,66.94,0,0,0,53.44,0l3.24,1.72c.35.21.44.33.35.62s-.24.41-1.57.78c-.53.53-2.84,3-3.36,3.52a31.68,31.68,0,0,1-2.72,2.5c.2.29,1.13,1.48,1.3,1.73C52,9.6,54,7.59,56,5.25l3,2.05a.57.57,0,0,1,.24.57c-.13.45-.3.5-1.57.78-.07.08-5.29,4.84-10.08,8.65,1.16,0,2.46-.12,5-.41-.29-1-.42-1.39-.74-2.25L55.51,13a42.37,42.37,0,0,1,1.93,7.26ZM49.29,32.8a24.57,24.57,0,0,0,1-9.55L54,22.39c.31,1.92.49,4.43-.49,9.55ZM75,22.1c-1.52,4.59-3.69,9.72-6,12.26-1.77,2-3.48,2.13-5.82,2.13a17.21,17.21,0,0,1-3-.29l.27-4.63a24.89,24.89,0,0,0,4.44.94c1.32,0,2-.9,3.46-3.44,1.84-3.28,3.82-9.72,4.24-11.19.33-1.15,1.72-6.11,2-7.14H63.72a44.66,44.66,0,0,1-3.9,5l-3.6-1.48a28,28,0,0,0,5.53-6.68A49.49,49.49,0,0,0,65.57,0l3.7,1c.39.08.64.2.5.69s-.5.58-1.4.86a32.45,32.45,0,0,1-2.56,4.92h5.37c1.8,0,5.54-.16,8.28-.41C78.77,9.43,75.71,19.93,75,22.1ZM63.27,25.83a26.47,26.47,0,0,0-1.74-8.2l4-1.64a26.47,26.47,0,0,1,2.12,8.16Z"/><path d="M109.62,9.51c-2.62,0-3.63.09-5.26.21-.35.9-1.69,4.88-2,5.7a12.52,12.52,0,0,1-.14,6.76,30.67,30.67,0,0,1-11,15l-4.14-1.89a16,16,0,0,0,4.74-2.91A16.84,16.84,0,0,0,96,27.18a6.32,6.32,0,0,1-3.41,1c-4,0-4.66-3.77-3.78-6.81,1-3.48,4.55-7.83,8.73-7.83a14.23,14.23,0,0,1,1.89.13c.36-1.11.43-1.36,1.1-3.7a144.13,144.13,0,0,0-16.85,1.44l.77-4.26c1.1,0,1.37.08,2.6.08,1.48,0,8-.25,9.35-.29l4.91-.08A39.48,39.48,0,0,0,102.73.25l4.33.2c.65,0,1.55,0,1.36.7-.08.29-.43.49-.58.57l-1,.66a32.5,32.5,0,0,0-1.52,4.26,96.06,96.06,0,0,0,12.93-1l-1,4.18C113.64,9.51,110.52,9.51,109.62,9.51Zm-13,7.63c-1.72,0-3.46,1.93-4.12,4.22-.76,2.63.64,3.49,1.46,3.49,2.62,0,3.8-2.67,4.2-4.06C98.81,18.45,98,17.14,96.6,17.14Z"/><path d="M128.4,35c-3.52,0-8.07-1.6-6.93-5.54,1-3.36,4.93-5.45,8-5.45a7.35,7.35,0,0,1,5.59,2.54,7.12,7.12,0,0,1,1.35,2.71,10.18,10.18,0,0,0,4.85-5.74c.16-.58.83-3.33-.38-5s-3.55-1.76-4.62-1.76a18.36,18.36,0,0,0-8.86,2.75c-2.17,1.27-4,2.74-8.13,6.15L116.69,23A175.77,175.77,0,0,0,138,6.15c-2.87.57-4.27.86-7.16,1.23l-5,.49.28-4a19.88,19.88,0,0,0,2.66.16A58.59,58.59,0,0,0,144,1.76l1.63,2.87A29,29,0,0,0,140,8.49c-3.71,2.91-4.35,3.44-7.4,6.19a14,14,0,0,1,5.62-1.27c6,0,8.6,4.71,7.25,9.43C143.53,29.6,135.78,35,128.4,35Zm3.33-6.44a4.59,4.59,0,0,0-3.19-1.15c-2,0-3.25,1.15-3.46,1.89-.45,1.56,1.78,2.37,4.16,2.37a10.23,10.23,0,0,0,3.39-.53A5,5,0,0,0,131.73,28.58Z"/></g></g></svg>