<svg xmlns="http://www.w3.org/2000/svg" viewBox="0 0 92.71 24.94"><defs><style>.cls-1{fill:none;}</style></defs><g id="レイヤー_2" data-name="レイヤー 2"><g id="レイヤー_1-2" data-name="レイヤー 1"><rect class="cls-1" width="92.71" height="24.94"/><path d="M16.7,5a4.61,4.61,0,0,0-3.22-1,9.6,9.6,0,0,0-1.75.17,6.1,6.1,0,0,0-1.65.58A4.66,4.66,0,0,0,8.73,5.84a4.3,4.3,0,0,0-.87,1.69A1.81,1.81,0,0,0,8,9.07,2.82,2.82,0,0,0,9.2,10a9.63,9.63,0,0,0,1.94.62l2.25.54c.77.19,1.5.42,2.22.67a5.38,5.38,0,0,1,1.81,1.06,3.32,3.32,0,0,1,1,1.67,4.77,4.77,0,0,1-.17,2.54,6.94,6.94,0,0,1-1.54,2.81,9.13,9.13,0,0,1-2.44,1.9,11,11,0,0,1-2.88,1.07,13.94,13.94,0,0,1-2.94.33,11.11,11.11,0,0,1-3.15-.43A5.71,5.71,0,0,1,3,21.49a4.19,4.19,0,0,1-1.2-2.24A6.84,6.84,0,0,1,2.05,16H4.64a4.41,4.41,0,0,0-.14,2.24,3.13,3.13,0,0,0,.89,1.54,4,4,0,0,0,1.66.89A7.94,7.94,0,0,0,9.21,21a11.58,11.58,0,0,0,1.91-.17A7.22,7.22,0,0,0,13,20.2a5.18,5.18,0,0,0,1.54-1.14,4.62,4.62,0,0,0,1-1.85,2.28,2.28,0,0,0-.06-1.73,2.8,2.8,0,0,0-1.19-1.08,8.87,8.87,0,0,0-1.93-.68l-2.25-.53c-.77-.18-1.51-.39-2.23-.63a6.26,6.26,0,0,1-1.84-1A3,3,0,0,1,5,10.08a4.1,4.1,0,0,1,.11-2.35A7.25,7.25,0,0,1,6.47,5,8.48,8.48,0,0,1,8.7,3.16a10.22,10.22,0,0,1,2.71-1.1,11.72,11.72,0,0,1,2.85-.36,9.91,9.91,0,0,1,2.84.38,4.59,4.59,0,0,1,2,1.18,3.88,3.88,0,0,1,1,2A6.92,6.92,0,0,1,20,8.22H17.38A3.34,3.34,0,0,0,16.7,5Z"/><path d="M28.63,2.19,26.08,11H36.92l2.54-8.85h2.75L36.28,22.78H33.54l2.72-9.43H25.41L22.7,22.78H20L25.89,2.19Z"/><path d="M44.37,8.43A15.5,15.5,0,0,1,47.22,5,13.39,13.39,0,0,1,51,2.6a11.44,11.44,0,0,1,4.55-.9,8.13,8.13,0,0,1,4,.9A5.85,5.85,0,0,1,62,5a7.65,7.65,0,0,1,.87,3.44,13.23,13.23,0,0,1-.54,4.05,16.81,16.81,0,0,1-1.79,4.06A15,15,0,0,1,57.67,20a13.31,13.31,0,0,1-3.77,2.38,11.57,11.57,0,0,1-4.55.88,8.25,8.25,0,0,1-4-.88A5.92,5.92,0,0,1,42.91,20,7.65,7.65,0,0,1,42,16.54a13,13,0,0,1,.55-4.06A16.88,16.88,0,0,1,44.37,8.43Zm.48,7.12a6.64,6.64,0,0,0,.48,2.73A4.3,4.3,0,0,0,47,20.23,5.51,5.51,0,0,0,50,21a8,8,0,0,0,3.44-.73,9.83,9.83,0,0,0,2.78-1.95,12.2,12.2,0,0,0,2.05-2.73,14.75,14.75,0,0,0,1.29-3.07,11.81,11.81,0,0,0,.48-3.07,6.44,6.44,0,0,0-.49-2.72A4.19,4.19,0,0,0,57.9,4.74a5.5,5.5,0,0,0-3-.73,8,8,0,0,0-3.44.73,9.55,9.55,0,0,0-2.78,2,12.19,12.19,0,0,0-2.06,2.72,14.93,14.93,0,0,0-1.28,3.07A11.88,11.88,0,0,0,44.85,15.55Z"/><path d="M78.43,22.78l.28-17.3h-.06l-9.73,17.3H66.06l.65-20.59h2.8l-.89,17.13h0L78.21,2.19h3l-.37,17.13h.06L90,2.19h2.73L81.29,22.78Z"/></g></g></svg>