<svg xmlns="http://www.w3.org/2000/svg" viewBox="0 0 159.83 24.94"><defs><style>.cls-1{fill:none;}</style></defs><g id="レイヤー_2" data-name="レイヤー 2"><g id="レイヤー_1-2" data-name="レイヤー 1"><rect class="cls-1" width="159.83" height="24.94"/><path d="M20.87,2.19,20.21,4.5H8.73L6.85,11h10.7l-.67,2.31H6.19L4.14,20.47H15.7L15,22.78H.74L6.66,2.19Z"/><path d="M22.4,2.19h3.29l2.81,8.05,7.68-8h3.06l-9.69,10,4.2,10.58H30.4l-3.09-8.51-8.15,8.51H16.1L26.3,12.2Z"/><path d="M44.63,2.19,42.08,11H52.92l2.55-8.85h2.74L52.29,22.78H49.55l2.71-9.43H41.42l-2.71,9.43H36L41.89,2.19Z"/><path d="M65.56,2.19,59.64,22.78H56.9L62.82,2.19Z"/><path d="M77.64,2.19l1.42,0c.51,0,1,0,1.49.08a9.86,9.86,0,0,1,1.34.22,2.69,2.69,0,0,1,1,.43,3.53,3.53,0,0,1,1.24,1.67,4.23,4.23,0,0,1,0,2.63,6.8,6.8,0,0,1-4.38,4.61l0,.06a3.25,3.25,0,0,1,2.41,1.73,4.47,4.47,0,0,1,.08,3.23,7.78,7.78,0,0,1-1,2.19A8.42,8.42,0,0,1,79.38,21,8.92,8.92,0,0,1,77,22.27a7.82,7.82,0,0,1-2.84.51h-10L70.17,2.19ZM74.51,20.47a5.08,5.08,0,0,0,3.13-1,5,5,0,0,0,1.8-2.71,3.19,3.19,0,0,0,.11-1.67,2,2,0,0,0-.7-1,3,3,0,0,0-1.27-.55A7.61,7.61,0,0,0,76,13.35H69.7l-2,7.12ZM75.84,11a6.57,6.57,0,0,0,3.6-.82,4.19,4.19,0,0,0,1.73-2.46A3.43,3.43,0,0,0,81.32,6a1.61,1.61,0,0,0-.67-1,2.78,2.78,0,0,0-1.27-.45,12.19,12.19,0,0,0-1.65-.1H72.25L70.36,11Z"/><path d="M92.78,2.19,86.85,22.78H84.12L90,2.19Z"/><path d="M94.53,4.5l.67-2.31h16.46L111,4.5h-6.87L98.88,22.78H96.14L101.39,4.5Z"/><path d="M116.79,2.19l-5.92,20.59h-2.74l5.92-20.59Z"/><path d="M119.07,8.43A15.5,15.5,0,0,1,121.92,5,13.53,13.53,0,0,1,125.7,2.6a11.44,11.44,0,0,1,4.55-.9,8.13,8.13,0,0,1,4,.9A5.94,5.94,0,0,1,136.69,5a7.77,7.77,0,0,1,.86,3.44,13.23,13.23,0,0,1-.54,4.05,16.81,16.81,0,0,1-1.79,4.06A15,15,0,0,1,132.37,20a13.31,13.31,0,0,1-3.77,2.38,11.53,11.53,0,0,1-4.55.88,8.25,8.25,0,0,1-4-.88,5.92,5.92,0,0,1-2.4-2.38,7.65,7.65,0,0,1-.87-3.44,13,13,0,0,1,.55-4.06A16.88,16.88,0,0,1,119.07,8.43Zm.48,7.12a6.64,6.64,0,0,0,.48,2.73,4.3,4.3,0,0,0,1.66,1.95,5.54,5.54,0,0,0,3,.73,8,8,0,0,0,3.44-.73,9.69,9.69,0,0,0,2.78-1.95,12.2,12.2,0,0,0,2-2.73,14.75,14.75,0,0,0,1.29-3.07,11.81,11.81,0,0,0,.48-3.07,6.44,6.44,0,0,0-.49-2.72,4.19,4.19,0,0,0-1.66-1.95,5.48,5.48,0,0,0-3-.73,8,8,0,0,0-3.44.73,9.55,9.55,0,0,0-2.78,2,12.19,12.19,0,0,0-2.06,2.72A14.93,14.93,0,0,0,120,12.48,11.88,11.88,0,0,0,119.55,15.55Z"/><path d="M146.2,2.19l6,16.69h0L157.1,2.19h2.59l-5.92,20.59h-3l-6-16.52h-.06L140,22.78h-2.6l5.93-20.59Z"/></g></g></svg>