<svg xmlns="http://www.w3.org/2000/svg" viewBox="0 0 105.3 24.94"><defs><style>.cls-1{fill:none;}</style></defs><g id="レイヤー_2" data-name="レイヤー 2"><g id="レイヤー_1-2" data-name="レイヤー 1"><rect class="cls-1" width="105.3" height="24.94"/><path d="M18.49,2.19l2.12,20.59h-3l-.46-6.2H8.41l-4.09,6.2H1.53L15.46,2.19ZM16.92,14.27l-.67-9.6h-.06l-6.25,9.6Z"/><path d="M36,2.19l1.42,0c.51,0,1,0,1.49.08a9.86,9.86,0,0,1,1.34.22,2.69,2.69,0,0,1,1,.43,3.53,3.53,0,0,1,1.24,1.67,4.23,4.23,0,0,1-.05,2.63,6.8,6.8,0,0,1-4.38,4.61l0,.06a3.25,3.25,0,0,1,2.41,1.73,4.47,4.47,0,0,1,.08,3.23,7.78,7.78,0,0,1-1,2.19A8.42,8.42,0,0,1,37.76,21a8.92,8.92,0,0,1-2.34,1.32,7.82,7.82,0,0,1-2.84.51H22.63L28.55,2.19ZM32.89,20.47a5.08,5.08,0,0,0,3.13-1,5,5,0,0,0,1.8-2.71,3.19,3.19,0,0,0,.11-1.67,2,2,0,0,0-.7-1A3,3,0,0,0,36,13.51a7.61,7.61,0,0,0-1.62-.16H28.08l-2,7.12ZM34.22,11a6.57,6.57,0,0,0,3.6-.82,4.19,4.19,0,0,0,1.73-2.46A3.43,3.43,0,0,0,39.7,6a1.61,1.61,0,0,0-.67-1,2.78,2.78,0,0,0-1.27-.45,12.19,12.19,0,0,0-1.65-.1H30.63L28.74,11Z"/><path d="M46,8.43A15.5,15.5,0,0,1,48.82,5,13.39,13.39,0,0,1,52.6,2.6a11.44,11.44,0,0,1,4.55-.9,8.13,8.13,0,0,1,4,.9A5.91,5.91,0,0,1,63.58,5a7.65,7.65,0,0,1,.87,3.44,13.23,13.23,0,0,1-.54,4.05,16.81,16.81,0,0,1-1.79,4.06A15.23,15.23,0,0,1,59.27,20a13.31,13.31,0,0,1-3.77,2.38,11.57,11.57,0,0,1-4.55.88,8.25,8.25,0,0,1-4-.88A5.92,5.92,0,0,1,44.51,20a7.65,7.65,0,0,1-.87-3.44,13,13,0,0,1,.55-4.06A16.49,16.49,0,0,1,46,8.43Zm.48,7.12a6.48,6.48,0,0,0,.48,2.73,4.24,4.24,0,0,0,1.66,1.95,5.51,5.51,0,0,0,3,.73,8,8,0,0,0,3.44-.73,9.83,9.83,0,0,0,2.78-1.95,12.2,12.2,0,0,0,2.05-2.73,14.75,14.75,0,0,0,1.29-3.07,11.81,11.81,0,0,0,.48-3.07,6.44,6.44,0,0,0-.49-2.72A4.24,4.24,0,0,0,59.5,4.74a5.48,5.48,0,0,0-3-.73A8.05,8.05,0,0,0,53,4.74a9.83,9.83,0,0,0-2.78,2,12.45,12.45,0,0,0-2,2.72,14.4,14.4,0,0,0-1.28,3.07A11.88,11.88,0,0,0,46.45,15.55Z"/><path d="M79.06,21.26a10.76,10.76,0,0,1-6.57,2q-4,0-5.67-1.89t-.5-6L70.1,2.19h2.73L69.05,15.34q-.8,2.76.27,4.19c.7,1,2,1.43,3.83,1.43a6.78,6.78,0,0,0,4.4-1.43,8.06,8.06,0,0,0,2.57-4.19L83.91,2.19h2.74L82.86,15.34A10.7,10.7,0,0,1,79.06,21.26Z"/><path d="M88.17,4.5l.67-2.31H105.3l-.66,2.31H97.77L92.51,22.78H89.78L95,4.5Z"/></g></g></svg>