<svg xmlns="http://www.w3.org/2000/svg" viewBox="0 0 1554.68 2340.33"><g id="レイヤー_2" data-name="レイヤー 2"><g id="svg"><g id="レイヤー_2-2" data-name="レイヤー 2"><g id="レイヤー_1-2" data-name="レイヤー 1-2"><path d="M127,1856.33q0,19.38-6.45,33.1t-18.06,20.73a50.29,50.29,0,0,1-27,6.8,75.54,75.54,0,0,1-37.72-10.35,73,73,0,0,1-27.48-28.47Q.1,1859.75,0,1835.44A78.28,78.28,0,0,1,4.56,1808q4.47-12,12.69-18.57l5.85,6.88q-14.67,13.14-14.67,40,0,20.91,9,37a64.49,64.49,0,0,0,24.21,24.87,67.12,67.12,0,0,0,33.42,9.06q20,.24,31.74-13.11t11.72-38.64q0-27.37-15-44.09l6.26-5.82a59.85,59.85,0,0,1,12.69,22.11A89.65,89.65,0,0,1,127,1856.33Zm0-131.93q0,19.2-6.45,32.81t-18.06,20.6a50.26,50.26,0,0,1-27,6.79,75.74,75.74,0,0,1-37.63-10.27,73.92,73.92,0,0,1-27.57-28.25q-10.32-18.25-10.24-42,0-19.18,6.45-32.9t18.06-20.69a50.23,50.23,0,0,1,27-6.8A75.19,75.19,0,0,1,89.21,1654a74.2,74.2,0,0,1,27.52,28.37Q127,1700.67,127,1724.4Zm.13-568.73a80.15,80.15,0,0,1-4.74,27.51q-4.74,13-11.9,19.24l-7-5.21q6.83-6,11.18-17.83a69.58,69.58,0,0,0,4.38-24.56q0-19.2-7.32-30.79t-20.34-11.7a14.8,14.8,0,0,0-11.09,4.14A30,30,0,0,0,73.47,1127a159.6,159.6,0,0,0-5.36,17.14,208.68,208.68,0,0,1-6.62,20.07A33.11,33.11,0,0,1,52.55,1177q-5.91,5.16-15.38,5a31.33,31.33,0,0,1-19.85-6.9Q9,1168.32,4.56,1156.69A75.7,75.7,0,0,1,.19,1130a83.61,83.61,0,0,1,2.87-22.11,56.18,56.18,0,0,1,8-17.86l7.51,4.65A52.19,52.19,0,0,0,10.93,1111a70.15,70.15,0,0,0-2.7,19.55q0,18.63,7.51,30.13t20.55,11.65a15.52,15.52,0,0,0,11.49-4.23,30,30,0,0,0,7-10.65,177.78,177.78,0,0,0,5.55-17.52q3.59-12.5,6.53-19.88a32.34,32.34,0,0,1,8.68-12.44q5.68-5.07,14.79-5,17.53.21,27.18,15t9.65,38.13ZM.34,481.63a81.74,81.74,0,0,1,4.47-28.17q4.47-12.21,12.87-19.33l5.69,6.92Q8.76,454.16,8.73,482.33q0,20.91,8.94,37.08a64.65,64.65,0,0,0,24.22,25.1,67,67,0,0,0,33.52,9.16q20,.24,31.74-13.21t11.73-38.92a64,64,0,0,0-11.44-37.4l-43.09-9.81V445l47,10.63A66.32,66.32,0,0,1,123.09,477a79,79,0,0,1,4.19,25.8q0,19.2-6.44,32.91t-18.07,20.78a49.74,49.74,0,0,1-27,6.85A75.47,75.47,0,0,1,38,553a73.49,73.49,0,0,1-27.43-28.57Q.32,505.94.28,481.62Zm.5,1665L126,2219.82v10.26L14,2246.21,126,2313v10.27L.79,2340.33v-9.69l113-15.31L.82,2248.14V2239l113-16.11-113-66.39Zm8.27-34.89,49.29,11.05v-70.71l8.05,1.81v70.71l51.3,11.65v-82.12l8.23,2v91.62L.83,2119.62v-89l8.22,2ZM.86,1996.26v-9.69l116.93,26.32v-76.56l8.22,2v86.07ZM1,1465.9,126.11,1494v9.51L19.78,1479.63l89.74,74.7v4.75l-91,36.53,107.63,24.12v9.51L1,1601.06v-8l96.73-38.55L1,1474.44Zm8.23-50.63,49.34,11.06v-70.72l8.05,1.81v70.72l51.31,11.65v-82.12l8.22,2v91.66L1,1423.15v-89l8.22,2Zm.11-386.09v47.9l-8.23-2V969.58l8.23,1.81v47.94l116.92,26.29v9.71ZM35.64,857.1q19.34.24,31.56,11.32T83.37,899.5l42.89-25.17V885L84.79,909.33c.24,4.06.35,7.16.35,9.32v39.91l41.12,9.33v9.7L1.15,949.44V902.87q0-22.05,9-34t25.49-11.76ZM91.09,753.63V831l35.26,25v10.84L1.15,777.43v-9.7l125.17-33.06v9.88ZM1.15,577.81,126.26,606v8.18L16.1,679.88l110.16,24.73v9.72L1.15,686.16v-8l110.16-65.95L1.15,587.5ZM9.41,384.24l49.41,11.09V324.62l8.06,1.81v70.71l51.32,11.65V326.67l8.23,2v91.66L1.32,392.19v-89l8.22,2Zm26.4-207.91q19.35.24,31.56,11.32t16.17,31.08l42.93-25.13v10.73L85,228.73c.24,4.06.36,7.16.36,9.32V278l41.13,9.25v9.7L1.34,268.76V222.19q0-22,9.1-34T35.81,176.33Zm82.79,1547q0-20.34-9-36.23a63.94,63.94,0,0,0-24.26-24.57,67.76,67.76,0,0,0-33.35-9q-20-.24-31.75,13T8.46,1704.94q0,20.34,9,36.23a65,65,0,0,0,24.31,24.72A67.29,67.29,0,0,0,75.08,1775q19.83.24,31.65-13.12t11.81-38.44ZM77.11,918.63q0-24.72-10.36-38.15T36.41,866.8q-13-.15-20,9.36t-7,27.38v38l67.77,15.28Zm.18-680.72q0-24.72-10.37-38.15T36.53,186.09q-13.05-.17-20,9.35t-7,27.38v38L77.29,276.1ZM83.4,755.62,10.81,774.33l72.58,51.25Z"/></g></g><path d="M109.43,156.55a6.56,6.56,0,0,1,2.62-4.42,6.24,6.24,0,0,1,4.89-1.22,7.94,7.94,0,0,1,2.76,1,21.14,21.14,0,0,1,2.27,1.53,10.21,10.21,0,0,0,1.39,1l20.38,14.94-.9,5.86-20.92-13.53a6.91,6.91,0,0,1-2.91,2.54,6.25,6.25,0,0,1-3.73.57,6.67,6.67,0,0,1-4.66-2.92,7.27,7.27,0,0,1-1.19-5.35Z"/><path d="M206.73,9.07,156.16,8.9,130.82,128.55l-10.23,0L145.72,8.86,95.14,8.69l2-8.41L208.47.65l-1.74,8.42ZM339.84,91.46a74.84,74.84,0,0,1-29.38,28.09Q291.38,130,266.29,129.93q-20.27-.08-34.77-6.71T209.4,104.65Q201.78,92.73,201.65,77a74.35,74.35,0,0,1,10-38.51Q221.87,20.85,241,10.38T285.12,0Q305.39.06,320,6.71t22.23,18.57Q349.84,37.21,350,53a73.76,73.76,0,0,1-10.12,38.51ZM325.12,20.73Q310.89,8.7,284.39,8.6q-21.48-.07-38.06,9.12a65.64,65.64,0,0,0-34.45,58.93Q212,97,226.39,109.1t40.84,12.23q21.47.08,38.06-9.12A64.77,64.77,0,0,0,330.78,87.4a66.67,66.67,0,0,0,8.75-34.12q-.16-20.51-14.41-32.55ZM527.43,10.16,476.85,10,451.52,129.65l-10.23,0L466.42,10l-50.58-.17,1.94-8.41,111.39.37-1.74,8.42ZM637.76,130.28l-10.23,0L640.28,69.5l-93.92-.32L533.6,129.92l-10.23,0L550.44,1.82l10.23,0L548.3,60.58l93.92.32L654.6,2.17l10.23,0L637.76,130.28Zm55.19.18-10.24,0L709.78,2.36,720,2.4,693,130.46ZM839.17,20.74a58,58,0,0,0-17.32-7.93A77.19,77.19,0,0,0,801.16,10q-19.68-.06-31.65,7.59t-11.87,21a15.94,15.94,0,0,0,4.71,11.74,32.54,32.54,0,0,0,11.39,7.17,190.92,190.92,0,0,0,18.61,5.74Q805.63,67,813.48,70a35.43,35.43,0,0,1,13.31,8.92q5.48,5.88,5.55,15.22.13,17.94-15.23,27.78t-40.06,9.75a88.11,88.11,0,0,1-29.14-4.95q-13.89-4.91-20.57-12.25l5.36-7.12q6.48,7,19.06,11.51a77,77,0,0,0,26,4.57q20.26.07,32.35-7.4t12-20.83a15.32,15.32,0,0,0-4.61-11.37,33,33,0,0,0-11.29-7A178.29,178.29,0,0,0,788,71.28q-13.28-3.7-21.33-6.84a36,36,0,0,1-13.62-9.2q-5.56-6.06-5.64-15.77a30.83,30.83,0,0,1,6.86-20.3q7-8.58,19.16-13t28.06-4.4a92.08,92.08,0,0,1,23.41,3,61.87,61.87,0,0,1,19,8.3l-4.76,7.67ZM1012,76.35q-17.16,13.22-47.25,13.11l-42-.14-8.89,41.9-10.24,0L930.74,3.11l49,.17q23.28.08,36.2,9.37T1029,38.78q.19,24.36-17,37.57Zm-3.77-57.41Q998,11.76,979.18,11.7l-39.94-.14L924.54,80.9l40.14.14q26.09.09,40.05-10.48t13.8-31.08q-.1-13.36-10.3-20.54ZM1136,123.55l-1.94,8.41-90.91-.3L1070.22,3.59l10.24,0-25.34,119.66,80.88.27Zm126.1,8.85-10.32-36.1L1170.1,96l-25.6,36-11.44,0L1224.75,4.11l10.24,0,37.55,128.29-10.44,0ZM1228.24,14l-52.59,74.16,73.86.25L1228.24,14Zm191,13.46Q1405,12.41,1376.73,12.32q-22.08-.08-38.86,9.11a65,65,0,0,0-34.64,58.93q.15,20.51,14.5,32.55t41,12.13q28.9.1,46.24-15.22l6.27,6.43q-9.16,8.39-23.08,12.92a95.72,95.72,0,0,1-30.16,4.47q-20.47-.07-35.08-6.71t-22.22-18.57q-7.62-11.91-7.75-27.67A73.87,73.87,0,0,1,1332.59,14q19.19-10.38,44.88-10.29a86,86,0,0,1,29,4.68q12.78,4.62,19.87,13.07l-7.17,6Zm133.54-13.82-83.49-.29-10.63,50.5,74.66.26-1.74,8.23-74.66-.25-11.22,52.5,86.7.3-1.94,8.41-96.73-.32L1460.76,4.91l93.92.32-1.94,8.42Z"/></g></g></svg>