<svg xmlns="http://www.w3.org/2000/svg" viewBox="0 0 185.97 133.08"><g id="レイヤー_2" data-name="レイヤー 2"><g id="レイヤー_1-2" data-name="レイヤー 1"><path d="M10.15,58.92h-9l.35-1.25H21.22L21,59H12.05L7.51,76.67H5.7Zm.27,28h-9l.35-1.25,19.72.06L21.18,87H12.23L7.78,104.66H6Zm4.52,26.76a12.43,12.43,0,0,1,6.41,1.39A4.36,4.36,0,0,1,23.66,119a6.2,6.2,0,0,1-3,5.57q-3,2-8.36,1.94H4.87l-1.58,6.21H1.47l4.8-19h8.67Zm-2.67,11.53a13.39,13.39,0,0,0,7.1-1.55A5.06,5.06,0,0,0,21.81,119,3.39,3.39,0,0,0,20,116a10.22,10.22,0,0,0-5.15-1.07H7.78l-2.6,10.28h7.09ZM31.5,76.87a17.87,17.87,0,0,1-6.15-1,8.79,8.79,0,0,1-3.92-2.76A6.68,6.68,0,0,1,20.06,69a9.63,9.63,0,0,1,1.77-5.71A12.41,12.41,0,0,1,27,59.15a18.13,18.13,0,0,1,7.82-1.54,17.07,17.07,0,0,1,6.17,1,8.64,8.64,0,0,1,4,2.74,6.69,6.69,0,0,1,1.37,4.11,9.67,9.67,0,0,1-1.79,5.71,12.6,12.6,0,0,1-5.2,4.16,18.5,18.5,0,0,1-7.83,1.54Zm14.06,8.9-4.8,19H39l2.26-9H24.63l-2.26,9H20.51l4.79-19h1.81l-2.19,8.7H41.55l2.19-8.71ZM31.67,75.6a15.94,15.94,0,0,0,6.74-1.36,10.67,10.67,0,0,0,4.51-3.68,8.69,8.69,0,0,0,1.55-5,5.68,5.68,0,0,0-2.55-4.83q-2.52-1.8-7.21-1.8A15.82,15.82,0,0,0,28,60.23a10.84,10.84,0,0,0-4.53,3.68,8.6,8.6,0,0,0-1.6,5.1,5.7,5.7,0,0,0,2.57,4.81c1.69,1.2,4.1,1.8,7.23,1.82ZM31,113.72h1.81l-4.49,17.74H42.64l-.34,1.25-16.1-.05Zm32.14,13.75H48.68l-4.54,5.34h-2l16.24-19h1.81l6.65,19h-1.9ZM53.52,85.79h1.81l-4.8,19H48.72Zm9.19,40.51-3.77-11-9.31,11ZM65.42,105a18.75,18.75,0,0,1-5.16-.73,9.26,9.26,0,0,1-3.64-1.82l1-1a9,9,0,0,0,3.37,1.7,16,16,0,0,0,4.61.68,12.69,12.69,0,0,0,5.73-1.09,3.38,3.38,0,0,0,2.12-3.09,2.13,2.13,0,0,0-.82-1.69,5.88,5.88,0,0,0-2-1c-.79-.25-1.87-.53-3.22-.82-1.57-.37-2.83-.7-3.78-1a6.65,6.65,0,0,1-2.41-1.37,3.07,3.07,0,0,1-1-2.34,4.1,4.1,0,0,1,1.22-3,7.78,7.78,0,0,1,3.39-1.93,16.6,16.6,0,0,1,5-.65,19.23,19.23,0,0,1,4.14.45,11.67,11.67,0,0,1,3.37,1.23l-.84,1.14a11.22,11.22,0,0,0-3.07-1.18A16.12,16.12,0,0,0,69.77,87a11.77,11.77,0,0,0-5.68,1A3.39,3.39,0,0,0,62,91.16a2.23,2.23,0,0,0,.84,1.74,6,6,0,0,0,2,1.07c.8.25,1.9.54,3.3.85,1.57.37,2.81.7,3.74,1a6.2,6.2,0,0,1,2.36,1.32,3,3,0,0,1,1,2.26,4.46,4.46,0,0,1-2.7,4.12A15,15,0,0,1,65.42,105Zm16.51,28a17.73,17.73,0,0,1-6.21-1,8.68,8.68,0,0,1-3.94-2.75,6.68,6.68,0,0,1-1.37-4.1,9.66,9.66,0,0,1,1.79-5.72,12.25,12.25,0,0,1,5.22-4.17,19,19,0,0,1,8-1.53,17.86,17.86,0,0,1,5.14.7A8.06,8.06,0,0,1,94,116.37l-1.27.9c-1.68-1.49-4.18-2.24-7.52-2.25a16.14,16.14,0,0,0-6.88,1.35A10.9,10.9,0,0,0,73.79,120a8.51,8.51,0,0,0-1.57,5.07,5.68,5.68,0,0,0,2.57,4.82c1.69,1.19,4.12,1.79,7.27,1.8a13.47,13.47,0,0,0,8.18-2.25l1.11,1a11.83,11.83,0,0,1-4.08,1.91,20.47,20.47,0,0,1-5.34.67Zm19.69-17.84-1.88,7.49H113l-.31,1.22H99.43l-2,7.78h15.36l-.35,1.25H95.31l4.8-19h16.63l-.34,1.24Zm16.2,17.91a1.71,1.71,0,0,1-1-.33,1,1,0,0,1-.44-.79,1,1,0,0,1,.46-.85,1.79,1.79,0,0,1,1.09-.34,1.64,1.64,0,0,1,1,.33,1,1,0,0,1,.43.79,1,1,0,0,1-.45.84,1.74,1.74,0,0,1-1.1.35Z"/><path d="M8.33,49.23a16.27,16.27,0,0,1-4.9-.75A8.53,8.53,0,0,1,0,46.58l.93-1.11A7.91,7.91,0,0,0,4.1,47.25a14.13,14.13,0,0,0,4.38.7A11.11,11.11,0,0,0,14,46.78a3.64,3.64,0,0,0,2.09-3.25,2.27,2.27,0,0,0-.73-1.77,5.52,5.52,0,0,0-1.88-1.08,29.56,29.56,0,0,0-3.06-.86q-2.22-.57-3.57-1a6,6,0,0,1-2.27-1.43,3.28,3.28,0,0,1-.89-2.45,4.63,4.63,0,0,1,1.22-3.17,7.48,7.48,0,0,1,3.28-2A14.75,14.75,0,0,1,12.9,29a15.84,15.84,0,0,1,3.94.46A10.41,10.41,0,0,1,20,30.73l-.83,1.2a9.85,9.85,0,0,0-2.89-1.23,13.65,13.65,0,0,0-3.48-.43,10.45,10.45,0,0,0-5.37,1.2,3.74,3.74,0,0,0-2.08,3.28,2.33,2.33,0,0,0,.76,1.82A5.42,5.42,0,0,0,8,37.69c.75.26,1.79.56,3.12.88,1.48.38,2.66.73,3.54,1A5.8,5.8,0,0,1,16.9,41a3.11,3.11,0,0,1,.88,2.36,4.89,4.89,0,0,1-2.66,4.34,13.36,13.36,0,0,1-6.79,1.53ZM38.82.14l-13,20H24L21.08,2.25,9.2,20.09H7.37l-3-20H6.05l2.73,18,12-18h1.63l2.87,18L37.06.14Zm-8,30.31H22.33l.35-1.31H41.47l-.32,1.31H32.62L27.93,49.1H26.2ZM45,1.46,43,9.33H55.65l-.32,1.28H42.74l-2.08,8.18H55.29l-.36,1.31H38.61l5-20H59.47l-.36,1.31ZM61.5,34.65a6.9,6.9,0,0,1-2,5A10.17,10.17,0,0,1,54,42.26l4.48,6.85h-1.9l-4.34-6.62c-.72,0-1.28.06-1.66.06H43.42l-1.65,6.56H40.05l5-20h8.29a10.71,10.71,0,0,1,6.06,1.45,4.5,4.5,0,0,1,2.09,4.06Zm-11,6.61a12,12,0,0,0,6.79-1.65,5.65,5.65,0,0,0,2.44-4.85,3.56,3.56,0,0,0-1.67-3.19,8.85,8.85,0,0,0-4.88-1.11H46.46l-2.72,10.8Zm29.39,2.23H66.16l-4.44,5.62H59.79l15.91-20h1.73l5.89,20H81.56ZM65.6.14h1.72L62.63,18.79H76.28l-.36,1.31H60.59Zm14,42.13L76.25,30.69,67.13,42.27Zm10.93-22a15.57,15.57,0,0,1-5.89-1A8.15,8.15,0,0,1,81,16.39,7.28,7.28,0,0,1,79.73,12a11,11,0,0,1,1.84-6,12.53,12.53,0,0,1,5.07-4.39A16.9,16.9,0,0,1,94.24,0a15.28,15.28,0,0,1,4.89.71,7.6,7.6,0,0,1,3.3,2l-1.23.94q-2.34-2.34-7.11-2.34A14.34,14.34,0,0,0,87.5,2.79a11,11,0,0,0-4.43,3.86A9.81,9.81,0,0,0,81.45,12a6,6,0,0,0,2.34,5c1.58,1.24,3.88,1.86,6.88,1.87a12.21,12.21,0,0,0,7.85-2.4l1,1a11.3,11.3,0,0,1-3.94,2,17.68,17.68,0,0,1-5.11.72Zm20.74,8.9-5,20h-1.46L93.07,31.55,88.66,49.12H86.94l5-20h1.42l11.75,17.57,4.4-17.56Zm2.76-8.9a15,15,0,0,1-5.84-1,8.07,8.07,0,0,1-3.67-2.88,7.32,7.32,0,0,1-1.21-4.3,11.1,11.1,0,0,1,1.82-6,12.61,12.61,0,0,1,5-4.39A16.42,16.42,0,0,1,117.64,0a15,15,0,0,1,5.86,1,8.11,8.11,0,0,1,3.68,2.89,7.35,7.35,0,0,1,1.21,4.3,11.06,11.06,0,0,1-1.84,6,12.62,12.62,0,0,1-5,4.39A16.46,16.46,0,0,1,114,20.26Zm.19-1.34a14.12,14.12,0,0,0,6.45-1.44A11.1,11.1,0,0,0,125,13.61a10,10,0,0,0,1.6-5.32,6,6,0,0,0-2.32-5.06q-2.28-1.89-6.8-1.87A14,14,0,0,0,111,2.79a11,11,0,0,0-4.4,3.88A9.92,9.92,0,0,0,105,12a6,6,0,0,0,2.35,5c1.58,1.25,3.87,1.88,6.85,1.88ZM128.38,29a16,16,0,0,1,5,.71,8,8,0,0,1,3.44,2.06l-1.23.91q-2.34-2.34-7.35-2.34a14.66,14.66,0,0,0-6.61,1.42,11.09,11.09,0,0,0-4.47,3.87A9.75,9.75,0,0,0,115.55,41a6,6,0,0,0,2.36,5.07q2.39,1.86,6.93,1.87a12.41,12.41,0,0,0,6.66-1.83l1.75-6.87h1.66l-1.9,7.5a12.58,12.58,0,0,1-3.8,1.87,16.24,16.24,0,0,1-4.59.67,15.42,15.42,0,0,1-5.86-1,8.37,8.37,0,0,1-3.71-2.88,7.24,7.24,0,0,1-1.22-4.4,11,11,0,0,1,1.84-6,12.55,12.55,0,0,1,5.09-4.38A16.86,16.86,0,0,1,128.38,29ZM160.05.17l-5,20h-1.69l4.26-17-13.3,14.31h-.85L137,3l-4.3,17.16H131l5-20h1.42l6.87,15.43L158.53.17ZM145.73,30.48l-2,7.87h12.59L156,39.63H143.44l-2.08,8.19H156l-.36,1.31H139.31l5-20h15.85l-.36,1.31Zm37,4.19a6.9,6.9,0,0,1-2,5,10.28,10.28,0,0,1-5.54,2.58l4.48,6.84h-1.9l-4.34-6.62c-.72,0-1.28.06-1.66.06h-7.11L163,49.13h-1.72l5-20h8.29a10.71,10.71,0,0,1,6.06,1.44,4.5,4.5,0,0,1,2.09,4.06ZM169.07,1.48l-2,7.87h12.6l-.32,1.29h-12.6l-2.07,8.19H179.3l-.3,1.3H162.66l5-20H183.5l-.35,1.31Zm2.72,39.81a11.88,11.88,0,0,0,6.79-1.66A5.64,5.64,0,0,0,181,34.79a3.58,3.58,0,0,0-1.67-3.2,8.85,8.85,0,0,0-4.88-1.11H167.7L165,41.29Zm12.43-23.46a1.42,1.42,0,0,1,1,.34,1,1,0,0,1,.39.82,1.2,1.2,0,0,1-.12.52,3.75,3.75,0,0,1-.24.44.92.92,0,0,0-.16.27l-2.42,4h-1.22l2.12-4a1.41,1.41,0,0,1-.61-.44,1,1,0,0,1-.22-.64,1.1,1.1,0,0,1,.45-.9,1.49,1.49,0,0,1,1.05-.35Zm.35,29a1.41,1.41,0,0,1,1,.35,1,1,0,0,1,.4.82,1.59,1.59,0,0,1-.13.52,4.77,4.77,0,0,1-.24.44,1.2,1.2,0,0,0-.16.27l-2.42,4H181.8l2.12-4a1.41,1.41,0,0,1-.61-.44,1,1,0,0,1-.22-.64,1.1,1.1,0,0,1,.45-.9,1.59,1.59,0,0,1,1-.36Z"/></g></g></svg>