<svg xmlns="http://www.w3.org/2000/svg" viewBox="0 0 537.12 227.07"><defs><style>.cls-1{fill:#000;}</style></defs><g id="レイヤー_2" data-name="レイヤー 2"><g id="图层_1" data-name="图层 1"><path class="cls-1" d="M4.69,29.42l20.89-.28L25.12,31,0,31.28l.42-1.41L19.06,18.18a25.35,25.35,0,0,0,5.6-4.37A5.88,5.88,0,0,0,26.19,10,3.85,3.85,0,0,0,24.07,6.5Q22,5.26,17.69,5.32a20.54,20.54,0,0,0-5.89.91A13.85,13.85,0,0,0,7.11,8.66L5.24,7.47a16.5,16.5,0,0,1,5.6-2.86A24.84,24.84,0,0,1,18,3.52q5.27-.07,8.05,1.61a5.16,5.16,0,0,1,2.8,4.57,7.4,7.4,0,0,1-1.77,4.65,25,25,0,0,1-6.2,5ZM9.35,84.56,3.88,105.2l-2,0L7,86,.29,86l.35-1.36Zm12-23.33a6.94,6.94,0,0,1-3.05-.54A14.3,14.3,0,0,1,15.67,59a13.21,13.21,0,0,0-2.09-1.35,4.4,4.4,0,0,0-2.08-.42,5.36,5.36,0,0,0-5.31,4l-1.93,0a7.18,7.18,0,0,1,2.62-4.1A7.7,7.7,0,0,1,11.5,55.7a7,7,0,0,1,3,.55,13.57,13.57,0,0,1,2.59,1.64,12.65,12.65,0,0,0,2.08,1.36,4.57,4.57,0,0,0,2.09.42,5.5,5.5,0,0,0,3.38-1.1,5.62,5.62,0,0,0,2-2.87l1.88,0a7.14,7.14,0,0,1-2.61,4.08,7.58,7.58,0,0,1-4.58,1.48Zm2,43.86A9.46,9.46,0,0,1,17,103.24a6.6,6.6,0,0,1-2.3-5.38,13.76,13.76,0,0,1,1.68-6.61,13.47,13.47,0,0,1,12-7.08A9.4,9.4,0,0,1,34.68,86,6.67,6.67,0,0,1,37,91.4,13.86,13.86,0,0,1,35.3,98a13.38,13.38,0,0,1-11.93,7.07Zm.2-1.38a10.6,10.6,0,0,0,6.05-1.87,12.14,12.14,0,0,0,4-4.64A12.77,12.77,0,0,0,35,91.46,5.51,5.51,0,0,0,33.19,87a7.42,7.42,0,0,0-5.06-1.48,10.47,10.47,0,0,0-6.07,1.87,12.23,12.23,0,0,0-4,4.63,12.81,12.81,0,0,0-1.39,5.75,5.49,5.49,0,0,0,1.79,4.41,7.41,7.41,0,0,0,5.08,1.49ZM65,63.93,57.36,64l-2,7.6-2.66,0,2-7.6L34,64.35l.37-1.45L58.75,44.26l3.18,0L38,62.54l17.25-.23L57,55.61l2.55,0-1.76,6.7,7.66-.1ZM46.8,30.85c-3.61,0-6.44-.77-8.47-2.46a8.78,8.78,0,0,1-3.06-7.14,18.29,18.29,0,0,1,2.23-8.8A17.89,17.89,0,0,1,53.39,3c3.61,0,6.43.78,8.44,2.47a8.79,8.79,0,0,1,3,7.14,18.38,18.38,0,0,1-2.2,8.8,17.78,17.78,0,0,1-6.33,6.74,18,18,0,0,1-9.53,2.66ZM47.06,29a14,14,0,0,0,8-2.49,16.09,16.09,0,0,0,5.31-6.16,17,17,0,0,0,1.84-7.64,7.3,7.3,0,0,0-2.41-5.86,9.85,9.85,0,0,0-6.72-2,14,14,0,0,0-8.08,2.49,16.26,16.26,0,0,0-5.28,6.16,17.08,17.08,0,0,0-1.84,7.64A7.33,7.33,0,0,0,40.31,27q2.37,2,6.75,2Zm-5.31,75.81a1.85,1.85,0,0,1-1.13-.34,1,1,0,0,1-.47-.84,1.11,1.11,0,0,1,.5-.94,2.08,2.08,0,0,1,1.22-.38,1.83,1.83,0,0,1,1.14.34,1,1,0,0,1,.47.84,1.13,1.13,0,0,1-.51.92,2,2,0,0,1-1.22.4ZM45.23,91.7a1.75,1.75,0,0,1-1.14-.34,1,1,0,0,1-.47-.84,1.12,1.12,0,0,1,.51-.93,2.06,2.06,0,0,1,1.21-.39,1.86,1.86,0,0,1,1.14.34,1,1,0,0,1,.47.85,1.11,1.11,0,0,1-.51.91,1.93,1.93,0,0,1-1.21.4Zm14.9,12.9a9.46,9.46,0,0,1-6.37-1.85,6.6,6.6,0,0,1-2.3-5.38,13.73,13.73,0,0,1,1.68-6.61,13.44,13.44,0,0,1,12-7.08,9.4,9.4,0,0,1,6.35,1.86,6.67,6.67,0,0,1,2.28,5.37,13.86,13.86,0,0,1-1.66,6.62,13.38,13.38,0,0,1-11.93,7.07Zm.19-1.38a10.61,10.61,0,0,0,6.06-1.87,12.22,12.22,0,0,0,4-4.64A12.77,12.77,0,0,0,71.76,91,5.54,5.54,0,0,0,70,86.55a7.42,7.42,0,0,0-5.06-1.48,10.47,10.47,0,0,0-6.07,1.87,12.25,12.25,0,0,0-4,4.63,12.93,12.93,0,0,0-1.38,5.75,5.49,5.49,0,0,0,1.79,4.41,7.4,7.4,0,0,0,5.07,1.49ZM72.49,28.51l20.89-.28L92.92,30l-25.12.33L68.21,29,86.86,17.27a25.24,25.24,0,0,0,5.59-4.37A5.84,5.84,0,0,0,94,9.06a3.87,3.87,0,0,0-2.12-3.47c-1.41-.83-3.53-1.22-6.38-1.18a20.49,20.49,0,0,0-5.89.91,13.76,13.76,0,0,0-4.69,2.43L73,6.56a16.59,16.59,0,0,1,5.6-2.86A24.9,24.9,0,0,1,85.8,2.61q5.27-.07,8,1.61a5.13,5.13,0,0,1,2.79,4.57,7.33,7.33,0,0,1-1.76,4.65,25,25,0,0,1-6.2,5ZM71.38,71.57a2.39,2.39,0,0,1-1.51-.45A1.35,1.35,0,0,1,69.24,70a1.5,1.5,0,0,1,.68-1.24,2.74,2.74,0,0,1,1.62-.51,2.39,2.39,0,0,1,1.51.45,1.37,1.37,0,0,1,.62,1.12A1.49,1.49,0,0,1,73,71a2.62,2.62,0,0,1-1.62.53Zm16.11,32.65a9.46,9.46,0,0,1-6.37-1.85A6.59,6.59,0,0,1,78.82,97a13.77,13.77,0,0,1,1.68-6.62A13.44,13.44,0,0,1,92.44,83.3a9.47,9.47,0,0,1,6.36,1.86,6.67,6.67,0,0,1,2.28,5.37,14,14,0,0,1-1.66,6.62,13.38,13.38,0,0,1-11.93,7.07Zm.19-1.38A10.53,10.53,0,0,0,93.74,101a12.23,12.23,0,0,0,4-4.64,12.74,12.74,0,0,0,1.39-5.74,5.5,5.5,0,0,0-1.81-4.41,7.39,7.39,0,0,0-5.06-1.49,10.45,10.45,0,0,0-6.07,1.87,12.25,12.25,0,0,0-4,4.63,12.93,12.93,0,0,0-1.38,5.75,5.49,5.49,0,0,0,1.79,4.41,7.4,7.4,0,0,0,5.07,1.49Zm25.89-59.32-.36,1.41L90.72,71.16l-3,0,22.17-25.83-20.37.27-1.41,5.25-2.6,0,1.87-7.05Zm2.87-41.13-7.26,27.43-2.66,0,6.8-25.63-8.91.12.46-1.8Zm2.87,93.1a5.41,5.41,0,0,1-2.3-.41,11.43,11.43,0,0,1-2-1.24,9.69,9.69,0,0,0-1.57-1,3.45,3.45,0,0,0-1.56-.32,4.19,4.19,0,0,0-2.55.84,4.13,4.13,0,0,0-1.45,2.18l-1.45,0a5.43,5.43,0,0,1,2-3.08,5.71,5.71,0,0,1,3.46-1.13,5.26,5.26,0,0,1,2.3.41A9.74,9.74,0,0,1,116.13,93a9.69,9.69,0,0,0,1.57,1,3.37,3.37,0,0,0,1.57.31,4.17,4.17,0,0,0,2.54-.82,4.26,4.26,0,0,0,1.49-2.17l1.41,0a5.4,5.4,0,0,1-1.95,3.07,5.72,5.72,0,0,1-3.45,1.12Zm3.82-65.71a2.39,2.39,0,0,1-1.51-.45,1.36,1.36,0,0,1-.62-1.12,1.49,1.49,0,0,1,.67-1.24,2.74,2.74,0,0,1,1.62-.51,2.39,2.39,0,0,1,1.51.45,1.38,1.38,0,0,1,.63,1.12,1.51,1.51,0,0,1-.68,1.22,2.62,2.62,0,0,1-1.62.53Zm17,53.05-5.46,20.63-2,0,5.11-19.28-6.7.09.35-1.36ZM161.93,3.18,148.24,13.91q5.06.09,7.72,1.83a5.47,5.47,0,0,1,2.66,4.82,6.72,6.72,0,0,1-1.79,4.59,12,12,0,0,1-5.11,3.18,24,24,0,0,1-7.58,1.21,25.06,25.06,0,0,1-7.43-.9A10.75,10.75,0,0,1,131.84,26l1.61-1.51a9.22,9.22,0,0,0,4.2,2.38,21.24,21.24,0,0,0,6.64.83,16.66,16.66,0,0,0,8.5-2,5.72,5.72,0,0,0,3.12-5.05q0-5.23-9.49-5.11l-2,0,.41-1.45L158.29,3.62,139,3.88l.47-1.8,22.83-.31ZM188.6,42.53,169,70.12l-2.81,0-4.82-24.38-17.9,24.68-2.81,0L135.5,43.24l2.66,0,4.61,24.62,18-24.92,2.5,0,4.82,24.62,17.8-24.92Zm-27.95,50a7.55,7.55,0,0,1,3.42,1.74A3.71,3.71,0,0,1,165.24,97a4.57,4.57,0,0,1-1.34,3.3,9,9,0,0,1-3.82,2.19,20.12,20.12,0,0,1-5.76.83,15.1,15.1,0,0,1-7.24-1.33,4.28,4.28,0,0,1-2.61-3.89,4.66,4.66,0,0,1,1.92-3.78,11.4,11.4,0,0,1,5.44-2.07,6.31,6.31,0,0,1-2.8-1.58,3.35,3.35,0,0,1-1-2.39,4.38,4.38,0,0,1,1.21-3.06,7.85,7.85,0,0,1,3.45-2,17.51,17.51,0,0,1,5.21-.76,13.64,13.64,0,0,1,6.53,1.23,3.93,3.93,0,0,1,2.45,3.55,4.31,4.31,0,0,1-1.64,3.39,9.84,9.84,0,0,1-4.63,1.92Zm-6.26,9.52a13.68,13.68,0,0,0,6.49-1.4,4,4,0,0,0,2.37-3.57,3.3,3.3,0,0,0-2.12-3,12.74,12.74,0,0,0-5.89-1,13.35,13.35,0,0,0-6.42,1.39A4,4,0,0,0,146.47,98a3.3,3.3,0,0,0,2.1,3,12.57,12.57,0,0,0,5.82,1Zm-4.28-13.87A3,3,0,0,0,152,90.89a10.89,10.89,0,0,0,5.17.93,11.94,11.94,0,0,0,5.71-1.24,3.55,3.55,0,0,0,2.09-3.15A3,3,0,0,0,163,84.68a11.05,11.05,0,0,0-5.18-1A11.6,11.6,0,0,0,152.2,85a3.58,3.58,0,0,0-2.09,3.2Zm16.69-59a2.37,2.37,0,0,1-1.51-.45,1.36,1.36,0,0,1-.63-1.12,1.46,1.46,0,0,1,.68-1.24,2.73,2.73,0,0,1,1.61-.51,2.39,2.39,0,0,1,1.51.45,1.35,1.35,0,0,1,.63,1.12,1.51,1.51,0,0,1-.68,1.22,2.68,2.68,0,0,1-1.61.53Zm4.68,73.87a1.83,1.83,0,0,1-1.14-.34,1,1,0,0,1-.47-.84,1.12,1.12,0,0,1,.51-.93,2.09,2.09,0,0,1,1.22-.39,1.85,1.85,0,0,1,1.13.34,1,1,0,0,1,.47.85,1.14,1.14,0,0,1-.5.91,2,2,0,0,1-1.22.4ZM175,90a1.86,1.86,0,0,1-1.14-.34,1,1,0,0,1-.47-.85,1.12,1.12,0,0,1,.51-.93,2,2,0,0,1,1.21-.38,1.83,1.83,0,0,1,1.14.33,1.06,1.06,0,0,1,.47.85,1.14,1.14,0,0,1-.51.92A2,2,0,0,1,175,90Zm5.6-62.9,20.9-.28-.47,1.8-25.12.34.42-1.41,18.64-11.69a25.35,25.35,0,0,0,5.6-4.37,5.88,5.88,0,0,0,1.53-3.85A3.84,3.84,0,0,0,200,4.15c-1.41-.83-3.54-1.22-6.39-1.19a20.9,20.9,0,0,0-5.89.92A13.8,13.8,0,0,0,183,6.31l-1.88-1.19a16.32,16.32,0,0,1,5.6-2.86,25.24,25.24,0,0,1,7.16-1.1c3.51,0,6.19.49,8,1.61a5.15,5.15,0,0,1,2.8,4.57A7.36,7.36,0,0,1,203,12a24.73,24.73,0,0,1-6.19,5Zm9.3,75.79a9.46,9.46,0,0,1-6.37-1.85,6.59,6.59,0,0,1-2.3-5.37A13.66,13.66,0,0,1,182.87,89,13.41,13.41,0,0,1,194.81,82a9.37,9.37,0,0,1,6.35,1.85,6.61,6.61,0,0,1,2.28,5.37,13.75,13.75,0,0,1-1.66,6.62,13.27,13.27,0,0,1-4.75,5.07,13.49,13.49,0,0,1-7.17,2Zm.19-1.38a10.53,10.53,0,0,0,6.06-1.87,12.23,12.23,0,0,0,4-4.64,12.73,12.73,0,0,0,1.38-5.74,5.47,5.47,0,0,0-1.8-4.41,7.44,7.44,0,0,0-5.06-1.49,10.51,10.51,0,0,0-6.08,1.87,12.27,12.27,0,0,0-4,4.64,12.73,12.73,0,0,0-1.38,5.74A5.49,5.49,0,0,0,185,100a7.38,7.38,0,0,0,5.08,1.49ZM193.21,60a11.84,11.84,0,0,0-.11,1.29,5.78,5.78,0,0,0,2.56,5.06q2.57,1.74,7.51,1.68a18.5,18.5,0,0,0,5.29-.8,12,12,0,0,0,4-2.06l1.2,1.35A13.25,13.25,0,0,1,209,68.91a21.6,21.6,0,0,1-6.07.91c-3.85.05-6.89-.67-9.09-2.15a7.09,7.09,0,0,1-3.32-6.24,10.75,10.75,0,0,1,1.92-6.23,13.21,13.21,0,0,1,5.31-4.43,18,18,0,0,1,7.61-1.68c3.54-.05,6.36.67,8.44,2.15A7.2,7.2,0,0,1,217,57.45a10.76,10.76,0,0,1-.31,2.27Zm12.13-9.26a13.87,13.87,0,0,0-7.63,2.17,9.68,9.68,0,0,0-4.19,5.56l20.95-.28a8.25,8.25,0,0,0,.05-1A5.46,5.46,0,0,0,212,52.42a11.33,11.33,0,0,0-6.67-1.65Zm11.88,51.73a9.48,9.48,0,0,1-6.38-1.85,6.61,6.61,0,0,1-2.29-5.38,13.55,13.55,0,0,1,13.62-13.69,9.37,9.37,0,0,1,6.35,1.86,6.61,6.61,0,0,1,2.28,5.37,13.82,13.82,0,0,1-1.66,6.61,13.3,13.3,0,0,1-4.75,5.08,13.58,13.58,0,0,1-7.17,2Zm.19-1.38a10.55,10.55,0,0,0,6.05-1.87,12.25,12.25,0,0,0,4-4.64,12.9,12.9,0,0,0,1.38-5.75A5.47,5.47,0,0,0,227,84.45,7.45,7.45,0,0,0,222,83a10.59,10.59,0,0,0-6.08,1.88,12.31,12.31,0,0,0-4,4.63,12.67,12.67,0,0,0-1.38,5.75,5.49,5.49,0,0,0,1.78,4.41,7.43,7.43,0,0,0,5.08,1.49Zm5.26-72.62c-3.61.05-6.44-.77-8.47-2.46a8.83,8.83,0,0,1-3.06-7.15,18.15,18.15,0,0,1,2.24-8.79,17.77,17.77,0,0,1,6.35-6.74A18,18,0,0,1,229.26.69c3.61,0,6.43.77,8.44,2.46a8.83,8.83,0,0,1,3,7.15,18.31,18.31,0,0,1-2.2,8.79,17.56,17.56,0,0,1-6.33,6.74,18,18,0,0,1-9.53,2.67Zm.26-1.84a14,14,0,0,0,8-2.49A16.17,16.17,0,0,0,236.29,18a17.08,17.08,0,0,0,1.84-7.64,7.29,7.29,0,0,0-2.4-5.86,9.87,9.87,0,0,0-6.73-2A13.94,13.94,0,0,0,220.93,5a16.2,16.2,0,0,0-5.29,6.16,17.08,17.08,0,0,0-1.84,7.64,7.31,7.31,0,0,0,2.38,5.86q2.37,2,6.75,2ZM256.13,40l-7.68,29.08-2.5,0,1-4a14.13,14.13,0,0,1-4.92,3.11,18.93,18.93,0,0,1-6.54,1.18A14.36,14.36,0,0,1,227,67.21a7.16,7.16,0,0,1-3.21-6.15,10.7,10.7,0,0,1,2-6.29,13.41,13.41,0,0,1,5.49-4.45,19.09,19.09,0,0,1,7.89-1.68,15.56,15.56,0,0,1,7,1.27,7.15,7.15,0,0,1,3.75,3.85L253.53,40ZM236.05,67.61a15.53,15.53,0,0,0,6.53-1.41,11.3,11.3,0,0,0,4.56-3.75,9.14,9.14,0,0,0,1.66-5.35,5.75,5.75,0,0,0-2.53-5,12.09,12.09,0,0,0-7.12-1.7,15.24,15.24,0,0,0-6.53,1.44,11.42,11.42,0,0,0-4.56,3.77,9.06,9.06,0,0,0-1.66,5.31,5.72,5.72,0,0,0,2.53,5c1.69,1.18,4.06,1.74,7.12,1.7Zm37.53-39.8a26.84,26.84,0,0,1-7.56-.93,13.2,13.2,0,0,1-5.31-2.53l1.4-1.54A12.58,12.58,0,0,0,267,25.19a23.68,23.68,0,0,0,6.75.86,18.8,18.8,0,0,0,8.41-1.71c2.1-1.1,3.15-2.59,3.15-4.49a2.93,2.93,0,0,0-1.17-2.41A9,9,0,0,0,281.26,16c-1.17-.35-2.74-.72-4.72-1.11q-3.45-.73-5.53-1.37a9.41,9.41,0,0,1-3.52-1.91,4.25,4.25,0,0,1-1.43-3.34,6,6,0,0,1,1.82-4.35,11.71,11.71,0,0,1,5-2.86A25.39,25.39,0,0,1,280.17,0a28.51,28.51,0,0,1,6.07.55,17.58,17.58,0,0,1,4.93,1.69l-1.25,1.65a16.2,16.2,0,0,0-4.48-1.61,24.11,24.11,0,0,0-5.37-.52,17.92,17.92,0,0,0-8.23,1.75Q268.71,5.19,268.71,8a3.08,3.08,0,0,0,1.21,2.49A8.55,8.55,0,0,0,272.86,12c1.17.35,2.77.73,4.82,1.14,2.3.5,4.12.95,5.48,1.36a9.24,9.24,0,0,1,3.44,1.84A4.08,4.08,0,0,1,288,19.58c0,2.55-1.33,4.54-4,6a22.44,22.44,0,0,1-10.42,2.25ZM326,6.54,320.57,27l-2.5,0,1-4a13.85,13.85,0,0,1-4.92,3.11,18.61,18.61,0,0,1-6.54,1.18,14.2,14.2,0,0,1-8.52-2.17A7.09,7.09,0,0,1,295.92,19a10.63,10.63,0,0,1,2-6.3,13.38,13.38,0,0,1,5.49-4.44,19.18,19.18,0,0,1,7.9-1.69,15.65,15.65,0,0,1,7,1.27A7.18,7.18,0,0,1,322,11.67l1.35-5.1Zm-17.8,19a15.62,15.62,0,0,0,6.54-1.42,11.27,11.27,0,0,0,4.55-3.75A9.13,9.13,0,0,0,320.93,15a5.75,5.75,0,0,0-2.54-5c-1.68-1.18-4.05-1.74-7.11-1.7a15.47,15.47,0,0,0-6.54,1.43,11.42,11.42,0,0,0-4.56,3.77,9.06,9.06,0,0,0-1.66,5.31,5.78,5.78,0,0,0,2.54,5q2.52,1.76,7.11,1.7Zm30.17-4.71a5.35,5.35,0,0,0-.21,1.45q0,2.93,4.18,2.87A8.63,8.63,0,0,0,346.73,24l.79,1.44a11.2,11.2,0,0,1-5.84,1.44,7.78,7.78,0,0,1-4.56-1.09,3.63,3.63,0,0,1-1.64-3.16,5.65,5.65,0,0,1,.2-1.56l3.48-13-5.05.06.41-1.68,5.06-.07,1.19-4.47,2.6,0-1.19,4.47,8.65-.12-.41,1.69L341.77,8Z"/><path class="cls-1" d="M426.29,166.17l.66-3.73h-6.31l-.66,3.73Zm.65-9.24.62-3.52h-5.31l-.63,3.52Zm-6.66-1.79.48-3.18.13-.11,3.19.11h2.19l3.23-.11.09.11-.5,2.36-.3,1.7-.34,2.36-.13.11-3.19-.11h-3.77L420.9,161h4.82l3.24-.11.09.11-.63,2.9-.2,1.1-.62,4.11h-1.83l.26-1.45h-6.31l-.3,1.67h-1.77l.84-4.11Zm-5.87,4.8.47-2.63h-4.82l-.47,2.63Zm1.14-6.39h-4.82L410.3,156h4.82Zm-6.72,1.18.38-2.63.13-.11,2.64.11h.53l.14-.8a10.42,10.42,0,0,0,.24-2.11c2.24.17,2.54.33,2.49.61s-.26.38-1,.52l-.32,1.78h.72l2.68-.11.09.11-.55,2.63-.72,4-.39,2.64-.13.1-2.64-.1h-3.82l-.83,4.68c1.59-.24,3.19-.52,4.77-.85a14.71,14.71,0,0,0-1.33-1.83l1.5-.83a19.06,19.06,0,0,1,3.07,4.58l-1.74,1a12.84,12.84,0,0,0-.73-1.62c-2.49.6-5.11,1.15-8.24,1.76-.2.65-.41.9-.66.9s-.44-.49-.66-2.66a12.25,12.25,0,0,0,2-.16l.31-.06Zm5.33-7.87a42.33,42.33,0,0,1-6.61,6.17,3.45,3.45,0,0,0-1.05-1.23,33.13,33.13,0,0,0,6.5-6,5.79,5.79,0,0,0,.93-1.48c2.12.52,2.44.77,2.39,1s-.29.39-.9.39h-.19a28.64,28.64,0,0,1,3.51,3.15l-1.49,1.37A18.28,18.28,0,0,0,414.16,146.86Zm18.08,3-.33,2.47h-1.72l.57-3.21h-10l-.58,3.26h-1.72l.55-2.47.28-2.19.13-.11,3.19.11H425l.27-1.48a10.19,10.19,0,0,0,.18-2.11c2.41.13,2.71.33,2.66.6s-.27.41-1,.57l-.43,2.42h2.72l3.23-.11.09.11Zm-42-2.11h-3.83c-.49,1.37-1.07,2.74-1.69,4.08h4.7l.83-.77h.36c1.08,1.1,1.29,1.32,1.24,1.6s-.16.46-1,.71c-2.11,8.11-5.38,12-13.76,15.35a2.93,2.93,0,0,0-.84-1.34c4.35-1.56,7.3-3.51,9.34-6.09a14.1,14.1,0,0,0-3.83-2.9l1.2-1.32a20.7,20.7,0,0,1,3.78,2.58,22.18,22.18,0,0,0,2.44-6.37H384a30.35,30.35,0,0,1-5.11,6.92,3.47,3.47,0,0,0-1.08-1.07,28.56,28.56,0,0,0,6.76-11.38h-1.75l-3.34.1.3-1.67,3.3.11h7.42l3.35-.11-.3,1.67Zm6.24,1.31-1.71,9.6-.62,4.11h-1.91l.84-4.11,1.56-8.72a10.13,10.13,0,0,0,.18-2.11c2.41.16,2.65.36,2.6.63S397.11,148.84,396.48,149.08Zm7.52-3.34c0,.22-.27.41-1,.57l-2.78,15.63-.68,4.47c-.28,1.87-.8,2.61-4,2.61h-1a4.94,4.94,0,0,0-.43-1.92,17.8,17.8,0,0,0,2.57.16.91.91,0,0,0,1-.87l3.41-19.14a9.58,9.58,0,0,0,.18-2.12C403.7,145.27,404.05,145.46,404,145.74Zm-44.74,1.75c-1.43,2.47-2.44,4.2-3.94,6.58,2.14,2.31,2.28,3.84,1.89,6a4.63,4.63,0,0,1-4.73,4,5,5,0,0,0-.53-1.81,3.38,3.38,0,0,0,.54,0c1.61,0,2.68-.58,3-2.25.37-2.06.2-3.46-2-5.6,1.87-3,2.92-4.9,4.25-7.4h-3.88l-3.26,18.35-.68,4.11h-1.83l.85-4.11,2.88-16.21.52-3.54.13-.11,3.19.11H358l.72-.6h.33c1,1,1.35,1.45,1.3,1.75S360,147.27,359.26,147.49Zm8.15,7.76h4.37l.46-2.57h-4.37Zm-.23,1.26-.5,2.86h4.37l.51-2.86Zm-5.1-3.83-.46,2.57h4.13l.45-2.57Zm-1.19,6.69H365l.51-2.86h-4.13Zm15.93-12-.29,1.59-4.13-.1h-3.85l-.45,2.55h2.82l3.23-.11.09.11-.67,3.18-.52,2.9-.45,3.13-.14.17-3.19-.11H367a11.4,11.4,0,0,0,6.72,5.48,7.27,7.27,0,0,0-1.38,1.73,13.71,13.71,0,0,1-6.17-6l-1.17,7.7h-1.89l1.57-7.7a23.43,23.43,0,0,1-9.77,6.31,4.71,4.71,0,0,0-.87-1.46,21.69,21.69,0,0,0,10-6.08h-1.8l-3.24.11-.08-.17.67-3.13.52-2.9.45-3.18.13-.11,3.2.11h2.54l.46-2.55H364l-4.18.1.29-1.59,4.13.11h2.88l.18-1a10.57,10.57,0,0,0,.16-2.17c2.54.08,2.75.27,2.7.58s-.38.41-1,.66l-.35,1.91h3.85Zm-40.4,9.55a3.16,3.16,0,0,1-2.93,2.49,2.07,2.07,0,0,1-2.08-2.49,3.15,3.15,0,0,1,3-2.47A2,2,0,0,1,336.42,156.9Zm-23.14,9.27.66-3.73h-6.31l-.67,3.73Zm.65-9.24.62-3.52h-5.32l-.62,3.52Zm-6.67-1.79.49-3.18.13-.11,3.19.11h2.19l3.23-.11.09.11-.5,2.36-.3,1.7-.34,2.36-.13.11-3.19-.11h-3.77l-.46,2.58h4.82l3.23-.11.09.11-.62,2.9-.2,1.1-.62,4.11h-1.83l.26-1.45h-6.31l-.3,1.67h-1.77l.84-4.11Zm-5.86,4.8.47-2.63h-4.82l-.47,2.63Zm1.13-6.39h-4.81l-.43,2.42h4.82Zm-6.71,1.18.38-2.63.13-.11,2.64.11h.53l.14-.8a10.42,10.42,0,0,0,.24-2.11c2.24.17,2.54.33,2.49.61s-.26.38-1,.52l-.31,1.78h.72l2.68-.11.09.11-.56,2.63-.71,4-.39,2.64-.13.1-2.64-.1h-3.82l-.84,4.68c1.6-.24,3.2-.52,4.78-.85a15.8,15.8,0,0,0-1.33-1.83l1.5-.83a18.75,18.75,0,0,1,3.06,4.58l-1.73,1a14.54,14.54,0,0,0-.74-1.62c-2.48.6-5.1,1.15-8.23,1.76-.2.65-.41.9-.66.9s-.44-.49-.66-2.66a12.35,12.35,0,0,0,2-.16l.31-.06Zm5.33-7.87a42.33,42.33,0,0,1-6.61,6.17,3.45,3.45,0,0,0-1.05-1.23,33.42,33.42,0,0,0,6.5-6,6.07,6.07,0,0,0,.93-1.48c2.12.52,2.44.77,2.39,1s-.29.39-.9.39h-.2a27.24,27.24,0,0,1,3.51,3.15l-1.49,1.37A17.88,17.88,0,0,0,301.15,146.86Zm18.07,3-.32,2.47h-1.72l.57-3.21h-10l-.58,3.26h-1.71l.55-2.47.28-2.19.13-.11,3.19.11H312l.26-1.48a9,9,0,0,0,.18-2.11c2.42.13,2.72.33,2.67.6s-.27.41-1,.57l-.43,2.42h2.71l3.24-.11.09.11Zm-35,17,2.13-12h-.72l-2.79.11.29-1.62,2.75.11h2.35l2.79-.11-.29,1.62-2.66-.11-1.24,7-.77,4.91c-.33,2.19-1.23,2.71-3.75,2.71h-.75a4.61,4.61,0,0,0-.43-1.92,13.81,13.81,0,0,0,2.11.17C283.91,167.79,284.09,167.54,284.2,166.91Zm-3.93-11.55,1.7-.16c-.15,2.82-.52,6.3-.93,9.27l-1.8.27.09-.47A64.79,64.79,0,0,0,280.27,155.36Zm-7.11-.16c1.86.14,2.54.16,2.56.52v.08c0,.27-.3.47-1,.71-.91,4.75-2,7.38-3.84,10.21a3.09,3.09,0,0,0-1.38-.8c1.73-2.41,2.69-4.69,3.53-9.13A6.68,6.68,0,0,0,273.16,155.2Zm-3.7-1.81a9.11,9.11,0,0,0,1.22-2c1.83.76,2.28,1,2.23,1.34s-.28.44-.83.44c-.14,0-.27,0-.44,0-.64.82-1.28,1.59-1.91,2.36,1.16.14,1.27.3,1.23.55s-.38.41-1,.66l-2.29,12.83h-1.83l.85-4.11.86-4.86.72-3.43a30,30,0,0,1-3.16,3,3.84,3.84,0,0,0-1.15-1.13A32.29,32.29,0,0,0,269.46,153.39Zm3.75-6.75h-.38a34.4,34.4,0,0,1-5.86,4.14,3.91,3.91,0,0,0-.94-1.29,25.89,25.89,0,0,0,5-3.34,4.89,4.89,0,0,0,1-1.24c1.78.85,2.07,1.1,2,1.46S273.74,146.64,273.21,146.64Zm7.16-.82-.78,4.39h1.08l3.34-.11-.29,1.61-3.3-.1h-1.08l-2.46,13.79-.62,4.11h-1.94l.85-4.11,2.45-13.79h-1.08l-3.34.1.28-1.61,3.31.11h1.08l.63-3.57a9.52,9.52,0,0,0,.15-2.06c2.3.14,2.82.36,2.77.63S281.06,145.65,280.37,145.82Zm.63.93,1.19-.9a12.34,12.34,0,0,1,1.95,1.94l-1.35,1.05A7.69,7.69,0,0,0,281,146.75Zm10.64.93-2.47-.11h-1.61l-2.46.11.29-1.61,2.48.11h1.55l2.51-.11Zm-55,14.51.3-1.7,4.14.11h6.09a10.61,10.61,0,0,0,.51-1.76,5.77,5.77,0,0,0,0-1c2.54.22,2.79.33,2.74.66s-.39.44-1,.63c-.14.49-.29,1-.46,1.48h6.87l4.18-.11-.31,1.7-4.13-.11h-5.74c2,2.94,5.53,4.75,10.08,5.49a14.15,14.15,0,0,0-1.56,1.75,14.46,14.46,0,0,1-10.16-6.88c-2.34,4.28-6.76,6.08-12.37,6.94a5.35,5.35,0,0,0-.91-1.54c5.73-.6,9.61-2.33,11.57-5.76h-5.68Zm25.1-14.37-.3,1.7-4.13-.11h-6l-.45,2.52h4.24l4.17-.11-.3,1.7-4.14-.11H250.6l-.45,2.53h7.23l4.17-.11-.3,1.7-4.14-.11H241.05l-4.18.11.31-1.7,4.13.11h7l.45-2.53h-4.05l-4.17.11.3-1.7,4.14.11h4l.45-2.52h-5.85l-4.17.11.3-1.7,4.14.11h2.46a12.17,12.17,0,0,0-1.37-2.72l1.67-.65a11.67,11.67,0,0,1,1.73,3.37h4.84c.55-.88,1-1.65,1.35-2.3a5.73,5.73,0,0,0,.49-1.18c2.07.52,2.4.68,2.35,1s-.17.35-1,.52c-.44.66-.93,1.37-1.4,2h2.6Zm-42.3,12.67.13-.77a8.64,8.64,0,0,0,.17-2c.43.06.82.09,1.11.14a37.79,37.79,0,0,0,4.68-2.6h-8.12l-4.17.11.3-1.71,4.13.11H227l.83-.6h.33c1.19,1.26,1.43,1.65,1.38,1.92s-.42.47-1.6.6a43.69,43.69,0,0,1-5.42,2.58.23.23,0,0,1,.05.17c-.05.27-.27.41-1.05.63l-.26,1.45h7.26l4.17-.11-.31,1.76-4.14-.11H221l-.23,1.26-.53,3.45c-.34,2.2-1,2.72-4.28,2.72h-1.08a5.54,5.54,0,0,0-.42-2,23.79,23.79,0,0,0,2.8.16c.75,0,1-.16,1.13-.88l.83-4.71h-7.31l-4.17.11.31-1.76,4.14.11Zm-5.88-15.05,1.73-.86a12.19,12.19,0,0,1,2.06,3.21l-1.84,1A12.53,12.53,0,0,0,213.6,145.44Zm7.26-.47,1.74-.8a15.1,15.1,0,0,1,1.72,3.46l-1.9.85A14.56,14.56,0,0,0,220.86,145Zm13.21,4.36.09.11-.62,2.85-.47,3.24h-1.85L232,151H211.92l-.82,4.64h-1.86l.7-3.32.4-2.85.13-.11,4,.11h12.33a40.22,40.22,0,0,0,2.59-3.37,10,10,0,0,0,.9-1.62c2.11.76,2.41,1.1,2.36,1.34s-.32.41-1.18.41a39.4,39.4,0,0,1-2.71,3.24H230Zm-28.46,1.92-.33,1.86-4.14-.11H194.3a17.85,17.85,0,0,0,.36,3.13,15.84,15.84,0,0,0,4,7.62,18.76,18.76,0,0,0,2.27,2,28.16,28.16,0,0,0,2.72,1.7,8.76,8.76,0,0,0-1.79,1.81c-5-3.19-8.35-7.87-9-13.47a21.37,21.37,0,0,1-3,6c-2.27,3.15-5.62,5.78-11.09,7.84a4.06,4.06,0,0,0-1.14-1.51c5.1-1.73,8.55-4,10.82-7.27a23.12,23.12,0,0,0,3.34-7.87h-6.2l-4.18.11.34-1.86,4.13.11h6.26c.11-.44.19-.91.27-1.37l.51-2.88a11.81,11.81,0,0,0,.23-2.5c2.64.22,3,.41,3,.74s-.36.47-1.08.63l-.68,3.82c-.1.52-.19,1-.31,1.56h7.4Zm-51,9.24.14-.77a8.64,8.64,0,0,0,.17-2c.43.06.81.09,1.11.14a37.62,37.62,0,0,0,4.67-2.6h-8.11l-4.18.11.3-1.71,4.14.11h9.28l.83-.6h.33c1.19,1.26,1.42,1.65,1.37,1.92s-.41.47-1.6.6a43,43,0,0,1-5.42,2.58.2.2,0,0,1,.06.17c-.05.27-.27.41-1.06.63l-.26,1.45h7.26l4.18-.11-.32,1.76-4.13-.11h-7.26l-.22,1.26-.54,3.45c-.33,2.2-1,2.72-4.27,2.72h-1.08a5.76,5.76,0,0,0-.42-2,23.75,23.75,0,0,0,2.79.16c.75,0,1-.16,1.13-.88l.84-4.71h-7.31l-4.18.11.31-1.76,4.14.11Zm-5.88-15.05,1.73-.86a11.7,11.7,0,0,1,2.06,3.21l-1.84,1A12.53,12.53,0,0,0,148.78,145.44ZM156,145l1.75-.8a15.06,15.06,0,0,1,1.71,3.46l-1.9.85A14.18,14.18,0,0,0,156,145Zm13.21,4.36.09.11-.62,2.85-.46,3.24H166.4l.81-4.56h-20.1l-.83,4.64h-1.86l.71-3.32.39-2.85.13-.11,4,.11H162c1-1.15,2-2.47,2.6-3.37a9.93,9.93,0,0,0,.89-1.62c2.11.76,2.41,1.1,2.37,1.34s-.32.41-1.18.41c-.84,1.1-1.76,2.22-2.71,3.24h1.22Zm-28.46,1.92-.33,1.86-4.13-.11h-6.84a18.86,18.86,0,0,0,.35,3.13,15.84,15.84,0,0,0,4,7.62,18.12,18.12,0,0,0,2.28,2,27,27,0,0,0,2.72,1.7,9.07,9.07,0,0,0-1.8,1.81c-5-3.19-8.34-7.87-9-13.47a21.92,21.92,0,0,1-3,6c-2.28,3.15-5.63,5.78-11.09,7.84a4,4,0,0,0-1.15-1.51c5.1-1.73,8.56-4,10.83-7.27A23.12,23.12,0,0,0,127,153h-6.21l-4.17.11.33-1.86,4.14.11h6.25c.11-.44.19-.91.28-1.37l.51-2.88a12.4,12.4,0,0,0,.22-2.5c2.65.22,3,.41,3,.74s-.36.47-1.08.63l-.68,3.82c-.09.52-.18,1-.3,1.56h7.39Zm-34.42,15.66,2.13-12h-.72l-2.79.11.29-1.62,2.75.11h2.36l2.79-.11-.29,1.62-2.67-.11-1.24,7-.76,4.91c-.34,2.19-1.23,2.71-3.75,2.71h-.75a4.79,4.79,0,0,0-.44-1.92,13.81,13.81,0,0,0,2.11.17C106.08,167.79,106.26,167.54,106.37,166.91Zm-3.92-11.55,1.69-.16c-.14,2.82-.51,6.3-.93,9.27l-1.79.27.08-.47A63.3,63.3,0,0,0,102.45,155.36Zm-7.12-.16c1.86.14,2.55.16,2.57.52l0,.08c0,.27-.3.47-1,.71-.9,4.75-2,7.38-3.84,10.21a3.09,3.09,0,0,0-1.38-.8c1.73-2.41,2.69-4.69,3.53-9.13A6.68,6.68,0,0,0,95.33,155.2Zm-3.69-1.81a9,9,0,0,0,1.21-2c1.83.76,2.28,1,2.23,1.34s-.27.44-.83.44c-.14,0-.27,0-.44,0-.64.82-1.28,1.59-1.91,2.36,1.16.14,1.28.3,1.23.55s-.38.41-1,.66l-2.28,12.83H88l.84-4.11.86-4.86.72-3.43a29.85,29.85,0,0,1-3.15,3A3.87,3.87,0,0,0,86.1,159,32.39,32.39,0,0,0,91.64,153.39Zm3.75-6.75H95a34.4,34.4,0,0,1-5.86,4.14,3.78,3.78,0,0,0-.94-1.29,25.89,25.89,0,0,0,5-3.34,4.69,4.69,0,0,0,1-1.24c1.79.85,2.08,1.1,2,1.46S95.91,146.64,95.39,146.64Zm7.15-.82-.78,4.39h1.08l3.34-.11-.29,1.61-3.3-.1h-1.08L99.05,165.4l-.62,4.11H96.49l.85-4.11,2.45-13.79H98.71l-3.34.1.29-1.61,3.3.11H100l.64-3.57a9.47,9.47,0,0,0,.14-2.06c2.3.14,2.82.36,2.77.63S103.23,145.65,102.54,145.82Zm.64.93,1.18-.9a12.87,12.87,0,0,1,2,1.94L105,148.84A8.05,8.05,0,0,0,103.18,146.75Zm10.63.93-2.47-.11h-1.61l-2.45.11.29-1.61,2.47.11h1.55l2.51-.11Zm-34.7,9.77a26.88,26.88,0,0,1,.51-5h-2A19.28,19.28,0,0,1,76.44,156a23.36,23.36,0,0,1,1.8,1.89L77,159a12.25,12.25,0,0,0-1.35-1.61,10.41,10.41,0,0,1-4.06,3.53,2.63,2.63,0,0,0-.72-1.23,8,8,0,0,0,3.78-3.24A19.81,19.81,0,0,0,72.84,155l1-1a16.4,16.4,0,0,1,1.5,1,17.41,17.41,0,0,0,.74-2.6H76l-3.09.11.25-1.43,3,.11h.14l.05-.3a9.3,9.3,0,0,0,.23-2.08c2.3.16,2.47.3,2.43.54s-.27.39-1,.53l-.23,1.31h2l.79-.66H81c.94.91,1.15,1.18,1.1,1.43s-.26.36-.94.63a20.49,20.49,0,0,0-.46,4.77c.1,1,.55,1.56,1,1.56s.83-.63,1.27-2.35a3.84,3.84,0,0,0,1.2.76c-.67,2.2-1.56,3.16-2.81,3.16S79.2,159.31,79.11,157.45Zm.43,4-.26,1.43-4.13-.11H65.73l-4.17.11.25-1.43,4.14.11h9.41Zm-4.27,5.62L74,166.33l1.16-1h-8c-.56.69-1.1,1.4-1.69,2.06C68.77,167.35,72,167.26,75.27,167.07Zm2.93-2.93,4.17-.11-.26,1.45L78,165.37H75.21a34.88,34.88,0,0,1,5.13,3.24L79,169.68a18.61,18.61,0,0,0-2.11-1.57c-5.36.41-10,.63-16.7.83-.19.44-.36.74-.64.74s-.5-.28-.75-2.31c.71.06,1.31.11,2,.11,1,0,2,0,2.94,0,.59-.69,1.18-1.38,1.73-2.09H61.72l-4.17.11.26-1.45,4.13.11Zm-17.07-4.8,3.26-.08.24-1.37h-.88l-2.81.08.22-1.29,2.79.08h.88a9.12,9.12,0,0,0,.12-1.59c2,.14,2.31.27,2.26.52s-.2.33-.83.47l-.11.6h1l3.2-.08L70.21,158,67,157.89h-1l-.22,1.28c1.51-.08,3.1-.19,4.85-.35l0,.19a5.76,5.76,0,0,1-.18,1c-3.44.38-6.49.55-10.13.77-.16.44-.32.71-.6.71s-.46-.22-.61-2.14c.38,0,.71,0,1,0ZM86,145.93l-.28,1.56-4.14-.11H77.75l-.13,1.21H75.84l.3-1.21H69.85l-.13,1.21H68.39a.15.15,0,0,1,.09.16c0,.22-.21.39-.87.52l-.11.58h.86l3.34-.08-.23,1.31L68.16,151H67.3l-.22,1.24h2.16l3.07-.11-.24,1.34-3-.11h-.33l-.15.85c-.09.49,0,.55.7.55,1.16,0,1.35-.14,1.51-1a3.13,3.13,0,0,0,1.19.44c-.37,1.48-.95,1.65-2.89,1.65s-2.15-.06-1.9-1.51l.18-1H65c-.58,1.81-2.3,2.77-4.79,3.21a3,3,0,0,0-.61-1.23c2.26-.22,3.46-.77,3.87-2H63.2l-2.93.11.24-1.34,2.89.11h2.21l.22-1.24H65l-3.2.08.23-1.31,3.17.08H66a7,7,0,0,0,.13-1.53,16.48,16.48,0,0,1,1.8.16l.28-1.1H64.48l-4.17.11.28-1.56,4.13.11h3.77a7.69,7.69,0,0,0,.14-1.92c2.33.14,2.63.33,2.58.6s-.26.39-1,.52l-.15.8h6.29a8.24,8.24,0,0,0,.15-1.92c2.33.14,2.63.33,2.58.6s-.26.39-1,.52L78,146h3.79ZM53.65,166.06l-1.59,1.45a23.44,23.44,0,0,0-6-4.69l1.35-1.18A31.44,31.44,0,0,1,53.65,166.06Zm-3.91-8.4.77-4.33H37l-.78,4.33Zm-9.3,9.17,1.37-7.68H38l-3.75.11-.1-.09.53-2.38.47-2.63.31-2.36.13-.11,3.75.13h9.44l3.79-.13.09.11-.53,2.36-.47,2.63-.31,2.36-.13.11-3.74-.11H43.63l-.73,4.14-.52,3.54c-.33,2.13-1.18,2.71-4.22,2.71h-1a6.14,6.14,0,0,0-.41-2.06,17.54,17.54,0,0,0,2.56.22C40.14,167.7,40.33,167.46,40.44,166.83Zm-4-5.3c1.71,1,1.94,1.24,1.9,1.48s-.31.33-.76.33a2.22,2.22,0,0,1-.43,0,21.58,21.58,0,0,1-7.6,4.42,3,3,0,0,0-.8-1.43,18.84,18.84,0,0,0,6.49-3.48A6.25,6.25,0,0,0,36.48,161.53Zm20.61-14.2-.31,1.75L52.65,149H36.36l-4.17.11.31-1.75,4.13.11h7.21l.19-1.07a10,10,0,0,0,.15-2.11c2.49.19,2.9.35,2.85.63s-.3.46-1,.63l-.35,1.92h7.26ZM15.8,155.09h6.87l.49-2.74H16.29Zm-.23,1.31L15,159.34h6.87l.52-2.94Zm-7.2-4.05-.49,2.74h6.17l.49-2.74Zm-1.25,7H13.3l.52-2.94H7.64ZM29,147l-.29,1.64-4.14-.11H17L16.53,151h5.4l3.23-.11.09.11-.68,3.18L24,157.5l-.44,3.13-.14.16-3.2-.11H15.72c2.31,3.21,5.79,5.1,10.27,5.9a18,18,0,0,0-1.41,1.75c-4.43-1.29-7.68-3.23-10-6.85l-1.22,8.09h-2l1.6-7.9a28.76,28.76,0,0,1-11.93,7,11.13,11.13,0,0,0-.91-1.45,26.31,26.31,0,0,0,12-6.5h-4l-3.06.11L5,160.63l.66-3.13.59-3.32L6.75,151l.13-.11,3.19.11h4.71l.44-2.44H8l-4.17.11L4.13,147l4.14.11h7.2l.12-.69a10.63,10.63,0,0,0,.17-2.17c2.53.09,2.83.28,2.77.58s-.37.41-1,.66l-.29,1.62h7.65Z"/><path class="cls-1" d="M237.16,197a8.32,8.32,0,0,1-2.08,2.37,4,4,0,0,1-2.3.65,4.57,4.57,0,0,1-1.66-.29,2.84,2.84,0,0,1-1.22-.79l.87-1.2a2.86,2.86,0,0,0,2.15.88,2.53,2.53,0,0,0,1.45-.44,5.19,5.19,0,0,0,1.34-1.52l.85-1.29-3-12.06h1.66l2.51,10.33,6.62-10.33H246Zm-4.77-12.19-.46,0a4.6,4.6,0,0,0-3.22,1.13,5.84,5.84,0,0,0-1.69,3.36l-1.23,6.16h-1.63l2.39-12.13h1.57l-.41,2.21a5,5,0,0,1,2-1.74,7.06,7.06,0,0,1,2.95-.56Zm-12.84.72a4,4,0,0,0-2.77-.93,4.65,4.65,0,0,0-3.11,1.09,5.4,5.4,0,0,0-1.75,2.92h8.64a2.69,2.69,0,0,0,0-.44A3.39,3.39,0,0,0,219.55,185.49Zm2.39,4.3H211.76a2.93,2.93,0,0,0,0,.49,3.62,3.62,0,0,0,1.05,2.81,4.45,4.45,0,0,0,3.13,1,6.15,6.15,0,0,0,2.24-.41,4.53,4.53,0,0,0,1.72-1.11l.74,1.17a5.89,5.89,0,0,1-2.13,1.33,7.92,7.92,0,0,1-2.71.47,5.92,5.92,0,0,1-4.14-1.38,4.85,4.85,0,0,1-1.51-3.78,7.82,7.82,0,0,1,.86-3.67,6.46,6.46,0,0,1,5.85-3.5,5.35,5.35,0,0,1,3.85,1.37,5,5,0,0,1,1.43,3.77A7.3,7.3,0,0,1,221.94,189.79Zm-16.27,5.61H204l3.41-17.11h1.63Zm-6.2,0h-1.64l3.42-17.11h1.63Zm-7.55-9.79a4.08,4.08,0,0,0-2.94-1,5,5,0,0,0-2.69.73,5.17,5.17,0,0,0-1.88,2,6.09,6.09,0,0,0-.68,2.91,3.63,3.63,0,0,0,1.05,2.77,4.09,4.09,0,0,0,2.93,1,5.06,5.06,0,0,0,2.7-.73,5,5,0,0,0,1.88-2,6.21,6.21,0,0,0,.68-2.91A3.66,3.66,0,0,0,191.92,185.61Zm1.35,9.79H191.7l.39-1.92A5.93,5.93,0,0,1,190,195a6.53,6.53,0,0,1-2.65.53,5.89,5.89,0,0,1-2.74-.62,4.48,4.48,0,0,1-1.87-1.79,5.31,5.31,0,0,1-.67-2.73,7.63,7.63,0,0,1,.89-3.69,6.59,6.59,0,0,1,2.45-2.57,6.77,6.77,0,0,1,3.51-.93,5.73,5.73,0,0,1,2.9.68,3.93,3.93,0,0,1,1.71,1.95l.5-2.54h1.64Zm-13.85-12.89a5,5,0,0,0-2-1.42,8.94,8.94,0,0,0-7.08.64,7.47,7.47,0,0,0-2.85,2.92,8.5,8.5,0,0,0-1,4.08,5,5,0,0,0,1.56,3.85A6.35,6.35,0,0,0,172.5,194a7,7,0,0,0,4.13-1.27l1.08-5.41h1.64l-1.25,6.2a8.27,8.27,0,0,1-2.64,1.47,9.21,9.21,0,0,1-3.14.53,9,9,0,0,1-4-.83,6,6,0,0,1-2.6-2.35,6.78,6.78,0,0,1-.9-3.52,10,10,0,0,1,1.21-4.89,9,9,0,0,1,3.45-3.52,10.16,10.16,0,0,1,5.18-1.3,9.72,9.72,0,0,1,3.56.61,5.84,5.84,0,0,1,2.44,1.74Zm-24.16,6-1.38,6.9h-1.64l1.38-6.92a6.2,6.2,0,0,0,.12-1.11,2.55,2.55,0,0,0-.8-2,3.43,3.43,0,0,0-2.34-.71,4.78,4.78,0,0,0-3.22,1.08,5.4,5.4,0,0,0-1.71,3.17l-1.29,6.5h-1.64l2.4-12.13h1.57l-.39,1.94a5.87,5.87,0,0,1,4.74-2,4.55,4.55,0,0,1,3.2,1,3.73,3.73,0,0,1,1.14,2.89A7.69,7.69,0,0,1,155.26,188.5Zm-18.43-2.89a4.08,4.08,0,0,0-2.94-1,5.06,5.06,0,0,0-2.7.73,5.22,5.22,0,0,0-1.87,2,6.09,6.09,0,0,0-.68,2.91,3.66,3.66,0,0,0,1,2.77,4.12,4.12,0,0,0,2.94,1,5.06,5.06,0,0,0,2.7-.73,5,5,0,0,0,1.88-2,6.21,6.21,0,0,0,.68-2.91A3.66,3.66,0,0,0,136.83,185.61Zm1.35,9.79h-1.57l.39-1.92a5.93,5.93,0,0,1-2.07,1.5,6.53,6.53,0,0,1-2.65.53,6,6,0,0,1-2.75-.62,4.52,4.52,0,0,1-1.86-1.79,5.31,5.31,0,0,1-.67-2.73,7.63,7.63,0,0,1,.89-3.69,6.59,6.59,0,0,1,2.45-2.57,6.75,6.75,0,0,1,3.51-.93,5.73,5.73,0,0,1,2.9.68,4,4,0,0,1,1.71,1.95l.5-2.54h1.64Zm-11.25-12.13-6.41,5,4.36,7.13H123l-3.74-6.14-3.39,2.63-.69,3.51h-1.64l3.41-17.11h1.64l-2.3,11.5,8.34-6.52Zm-18,12.13h-1.57l.39-1.94a5.76,5.76,0,0,1-4.68,2,4.51,4.51,0,0,1-3.17-1,3.76,3.76,0,0,1-1.14-2.91,7.3,7.3,0,0,1,.14-1.36l1.38-6.92h1.64l-1.38,6.92a6.09,6.09,0,0,0-.12,1.08,2.68,2.68,0,0,0,.77,2,3.31,3.31,0,0,0,2.32.72,4.76,4.76,0,0,0,3.2-1.09,5.43,5.43,0,0,0,1.71-3.16l1.29-6.52h1.64Zm-13.12-9.78a5.07,5.07,0,0,0-1.62-.77,7,7,0,0,0-1.93-.27,4.71,4.71,0,0,0-2.58.6,1.83,1.83,0,0,0-.92,1.62,1.28,1.28,0,0,0,.39,1,2.53,2.53,0,0,0,1,.55c.39.12.93.25,1.6.39.83.19,1.5.37,2,.54a3.24,3.24,0,0,1,1.32.87,2.27,2.27,0,0,1,.56,1.61,3.19,3.19,0,0,1-1.47,2.78,6.75,6.75,0,0,1-3.9,1,9.44,9.44,0,0,1-2.78-.41,5.48,5.48,0,0,1-2-1.06l.78-1.3a5.14,5.14,0,0,0,1.82,1,7.55,7.55,0,0,0,2.38.37,5.24,5.24,0,0,0,2.66-.56,1.78,1.78,0,0,0,.93-1.61,1.16,1.16,0,0,0-.38-.92,2.63,2.63,0,0,0-.93-.53c-.37-.12-.91-.26-1.61-.41a17.9,17.9,0,0,1-2.06-.56,3.21,3.21,0,0,1-1.33-.87,2.35,2.35,0,0,1-.56-1.66,3.25,3.25,0,0,1,1.43-2.76,6.48,6.48,0,0,1,3.83-1,8.38,8.38,0,0,1,2.29.31,5.54,5.54,0,0,1,1.81.82Zm-10.44-2.35-.28,1.38H81.41L80,191.73a5.69,5.69,0,0,0-.09.76c0,1.08.58,1.61,1.75,1.61a3,3,0,0,0,1.86-.62l.4,1.25a4.37,4.37,0,0,1-2.7.78,3,3,0,0,1-2.15-.74,2.62,2.62,0,0,1-.8-2,4.69,4.69,0,0,1,.09-.94l1.41-7.15H77.62l.26-1.38H80l.54-2.65h1.63l-.53,2.65Zm-12.61,2.22a4,4,0,0,0-2.76-.93,4.66,4.66,0,0,0-3.12,1.09,5.4,5.4,0,0,0-1.75,2.92h8.65c0-.11,0-.25,0-.44A3.4,3.4,0,0,0,72.76,185.49Zm2.4,4.3H65a3.19,3.19,0,0,0,0,.49,3.65,3.65,0,0,0,1,2.81,4.46,4.46,0,0,0,3.13,1,6.2,6.2,0,0,0,2.25-.41,4.41,4.41,0,0,0,1.71-1.11l.74,1.17A5.89,5.89,0,0,1,71.69,195a7.88,7.88,0,0,1-2.71.47,5.92,5.92,0,0,1-4.14-1.38,4.89,4.89,0,0,1-1.51-3.78,7.71,7.71,0,0,1,.87-3.67,6.44,6.44,0,0,1,2.39-2.57,6.53,6.53,0,0,1,3.45-.93,5.35,5.35,0,0,1,3.85,1.37,5,5,0,0,1,1.43,3.77A7.24,7.24,0,0,1,75.16,189.79Zm-12.73-5-.46,0a4.6,4.6,0,0,0-3.21,1.13,5.85,5.85,0,0,0-1.7,3.36l-1.22,6.16H54.21l2.39-12.13h1.57l-.41,2.21a5,5,0,0,1,2-1.74,7.12,7.12,0,0,1,2.95-.56ZM51.12,188.5l-1.39,6.9H48.1l1.38-6.92a6.2,6.2,0,0,0,.12-1.11,2.55,2.55,0,0,0-.8-2,3.43,3.43,0,0,0-2.34-.71,4.81,4.81,0,0,0-3.23,1.08,5.44,5.44,0,0,0-1.7,3.17l-1.29,6.5H38.6L41,183.27h1.57l-.4,1.94a5.9,5.9,0,0,1,4.75-2,4.53,4.53,0,0,1,3.19,1,3.73,3.73,0,0,1,1.14,2.89A7.63,7.63,0,0,1,51.12,188.5ZM34,195.4H32.4l2.4-12.13h1.63Zm3.21-15.15a1.24,1.24,0,0,1-.92.37,1.08,1.08,0,0,1-1.11-1.08,1.2,1.2,0,0,1,.36-.89,1.23,1.23,0,0,1,.91-.36,1.17,1.17,0,0,1,.81.31,1,1,0,0,1,.32.73A1.22,1.22,0,0,1,37.24,180.25Zm-7.93,8.25-1.38,6.9H26.29l1.38-6.92a6.2,6.2,0,0,0,.12-1.11,2.55,2.55,0,0,0-.8-2,3.43,3.43,0,0,0-2.34-.71,4.78,4.78,0,0,0-3.22,1.08,5.4,5.4,0,0,0-1.71,3.17l-1.29,6.5H16.79l3.42-17.11h1.63l-1.36,6.8a5.87,5.87,0,0,1,4.64-1.91,4.54,4.54,0,0,1,3.19,1,3.73,3.73,0,0,1,1.14,2.89A7.69,7.69,0,0,1,29.31,188.5Zm-14.34-6a5.69,5.69,0,0,0-4.68-1.89,8,8,0,0,0-4.19,1.1,7.49,7.49,0,0,0-2.81,2.94,8.32,8.32,0,0,0-1,4,5,5,0,0,0,1.56,3.85A6.31,6.31,0,0,0,8.29,194a7,7,0,0,0,5.12-1.91l1,1.13a6.89,6.89,0,0,1-2.7,1.7,10.21,10.21,0,0,1-3.55.6,9.11,9.11,0,0,1-4.06-.84,6,6,0,0,1-2.59-2.35,6.83,6.83,0,0,1-.89-3.51,10.07,10.07,0,0,1,1.21-4.89,9,9,0,0,1,3.45-3.52,10.14,10.14,0,0,1,5.16-1.3,9.22,9.22,0,0,1,3.44.61,5.15,5.15,0,0,1,2.3,1.74Z"/><path class="cls-1" d="M361.07,217.78,360,223.4h-1.32l1.08-5.49a2.83,2.83,0,0,0-.31-2.31,2.4,2.4,0,0,0-2-.79,4,4,0,0,0-2.68.93,4.29,4.29,0,0,0-1.43,2.57l-1,5.09H351l1.9-9.7h1.27l-.35,1.79a4.7,4.7,0,0,1,1.77-1.37,5.36,5.36,0,0,1,2.32-.49,3.31,3.31,0,0,1,2.72,1.06A3.6,3.6,0,0,1,361.07,217.78Zm-13.29.11a7.07,7.07,0,0,1-2.22,4.19,6.34,6.34,0,0,1-4.22,1.43,4.42,4.42,0,0,1-3.67-1.43c-.76-1-.95-2.36-.59-4.19l1.44-7.4h1.38l-1.44,7.34a4.28,4.28,0,0,0,.37,3.36,3.17,3.17,0,0,0,2.75,1.11,4.61,4.61,0,0,0,3.19-1.11,5.83,5.83,0,0,0,1.68-3.36l1.44-7.34h1.34ZM327,216.58a2.48,2.48,0,0,0-1-1.34,3.28,3.28,0,0,0-1.78-.47,4.26,4.26,0,0,0-2,.47,4.48,4.48,0,0,0-1.57,1.34,4.79,4.79,0,0,0-.86,2,3.63,3.63,0,0,0,.09,2,2.52,2.52,0,0,0,1,1.33,3.17,3.17,0,0,0,1.78.47,4.17,4.17,0,0,0,2-.47,4.42,4.42,0,0,0,1.56-1.33,4.89,4.89,0,0,0,.85-2A3.7,3.7,0,0,0,327,216.58Zm1.42,2a6,6,0,0,1-1.14,2.55,6.22,6.22,0,0,1-2.12,1.76,5.93,5.93,0,0,1-2.68.63,4.53,4.53,0,0,1-2.43-.63,3.56,3.56,0,0,1-1.44-1.76,4.51,4.51,0,0,1-.15-2.55,5.94,5.94,0,0,1,1.15-2.54,6,6,0,0,1,2.13-1.75,5.89,5.89,0,0,1,2.67-.63,4.48,4.48,0,0,1,2.43.63,3.36,3.36,0,0,1,1.44,1.75A4.58,4.58,0,0,1,328.45,218.55Zm-17.29,6a6,6,0,0,1-1.76,1.94,3.61,3.61,0,0,1-2,.57,3.47,3.47,0,0,1-1.28-.22,2.26,2.26,0,0,1-.93-.66l.81-1a2,2,0,0,0,1.64.74,2.19,2.19,0,0,0,1.22-.37,4.64,4.64,0,0,0,1.13-1.26l.61-.94-2.48-9.68h1.38l2.07,8.25,5.31-8.25h1.3Zm-4-10.86-5,4,3.46,5.73h-1.62l-3-4.87-2.72,2.11-.55,2.76h-1.32l2.68-13.68h1.32L298.68,219l6.88-5.3ZM293,216.58a2.52,2.52,0,0,0-1-1.34,3.3,3.3,0,0,0-1.78-.47,4.33,4.33,0,0,0-2,.47,4.67,4.67,0,0,0-1.57,1.34,5.07,5.07,0,0,0-.86,2,3.83,3.83,0,0,0,.09,2,2.52,2.52,0,0,0,1,1.33,3.2,3.2,0,0,0,1.78.47,4.21,4.21,0,0,0,2-.47,4.39,4.39,0,0,0,1.55-1.33,4.91,4.91,0,0,0,.86-2A3.8,3.8,0,0,0,293,216.58Zm1.42,2a6.15,6.15,0,0,1-1.14,2.55,6.25,6.25,0,0,1-2.13,1.76,5.89,5.89,0,0,1-2.67.63,4.48,4.48,0,0,1-2.43-.63,3.51,3.51,0,0,1-1.44-1.76,4.6,4.6,0,0,1-.16-2.55,6.11,6.11,0,0,1,3.28-4.29,5.93,5.93,0,0,1,2.68-.63,4.53,4.53,0,0,1,2.43.63,3.39,3.39,0,0,1,1.43,1.75A4.67,4.67,0,0,1,294.37,218.55Zm-9.92-6.88h-4.58l-2.3,11.73h-1.38l2.3-11.73h-4.58l.23-1.18h10.54Zm-19.33,10.81a2.08,2.08,0,0,1-.16.48c-.08.17-.18.37-.31.59l-1.28,2.55h-.9l1.16-2.68a.71.71,0,0,1-.42-.34.86.86,0,0,1-.06-.6,1.2,1.2,0,0,1,.41-.71,1.17,1.17,0,0,1,.77-.29.79.79,0,0,1,.65.29A.86.86,0,0,1,265.12,222.48Zm-4.18-4.7-1.1,5.62h-1.33l1.08-5.49a2.92,2.92,0,0,0-.28-2.31,2.23,2.23,0,0,0-1.93-.79,3.77,3.77,0,0,0-2.58.93,4.39,4.39,0,0,0-1.38,2.57l-1,5.09H251.1l1.08-5.49a2.92,2.92,0,0,0-.29-2.31,2.23,2.23,0,0,0-1.94-.79,3.78,3.78,0,0,0-2.57.93,4.41,4.41,0,0,0-1.39,2.57l-1,5.09h-1.32l1.9-9.7h1.27l-.35,1.77a4.67,4.67,0,0,1,1.72-1.36,5.2,5.2,0,0,1,2.24-.48,3.67,3.67,0,0,1,2,.52,2.44,2.44,0,0,1,1.05,1.53,5.07,5.07,0,0,1,1.85-1.51,5.47,5.47,0,0,1,2.42-.54,3.25,3.25,0,0,1,2.69,1.05A3.65,3.65,0,0,1,260.94,217.78Zm-21.35,5.62h-1.27l.35-1.77A4.84,4.84,0,0,1,237,223a5,5,0,0,1-2.19.48,3.48,3.48,0,0,1-2.81-1.06,3.54,3.54,0,0,1-.5-3.1l1.1-5.63h1.32l-1.08,5.5a2.85,2.85,0,0,0,.31,2.32,2.4,2.4,0,0,0,2,.8,3.88,3.88,0,0,0,2.62-.94,4.41,4.41,0,0,0,1.4-2.59l1-5.09h1.32Zm-12.74-7.75a2.78,2.78,0,0,0-2.22-.9,4,4,0,0,0-2.55.9,4.41,4.41,0,0,0-1.54,2.33h6.94A2.91,2.91,0,0,0,226.85,215.65Zm1.79,2.9-.1.41h-8.2a2.86,2.86,0,0,0,.7,2.44,3.28,3.28,0,0,0,2.5.93,4.84,4.84,0,0,0,1.74-.32,4.92,4.92,0,0,0,1.51-.95l.58.85a5.5,5.5,0,0,1-1.86,1.18,6.22,6.22,0,0,1-2.24.4,4.81,4.81,0,0,1-2.54-.63,3.42,3.42,0,0,1-1.47-1.76,4.6,4.6,0,0,1-.16-2.55,6.26,6.26,0,0,1,1.12-2.54,6,6,0,0,1,2.06-1.75,5.52,5.52,0,0,1,2.57-.63,4.13,4.13,0,0,1,2.32.63,3.27,3.27,0,0,1,1.35,1.74A4.7,4.7,0,0,1,228.64,218.55Zm-11.69-3a4.29,4.29,0,0,0-2.73-.83,3.76,3.76,0,0,0-2,.45,1.69,1.69,0,0,0-.87,1.16.94.94,0,0,0,.19.88,1.65,1.65,0,0,0,.8.49,13.84,13.84,0,0,0,1.43.33,13.35,13.35,0,0,1,1.79.44,2.12,2.12,0,0,1,1.07.75,1.86,1.86,0,0,1,.21,1.48,3,3,0,0,1-1.47,2,5.85,5.85,0,0,1-3.11.74,6.89,6.89,0,0,1-2.22-.34,3.79,3.79,0,0,1-1.53-.85l.79-1a4.15,4.15,0,0,0,1.4.79,5.68,5.68,0,0,0,1.87.3,4.28,4.28,0,0,0,2.07-.41,1.71,1.71,0,0,0,.87-1.17.88.88,0,0,0-.19-.84,1.79,1.79,0,0,0-.8-.47,12.85,12.85,0,0,0-1.38-.3,16.32,16.32,0,0,1-1.83-.45,2.2,2.2,0,0,1-1.08-.78,1.91,1.91,0,0,1-.21-1.54,3,3,0,0,1,1.41-2,5.43,5.43,0,0,1,3-.77,6.72,6.72,0,0,1,1.85.25,4.19,4.19,0,0,1,1.44.65Zm-11.37,7.82h-1.27l.35-1.77A4.84,4.84,0,0,1,203,223a5,5,0,0,1-2.19.48,3.48,3.48,0,0,1-2.81-1.06,3.54,3.54,0,0,1-.5-3.1l1.1-5.63h1.32l-1.08,5.5a2.85,2.85,0,0,0,.31,2.32,2.4,2.4,0,0,0,2,.8,3.88,3.88,0,0,0,2.62-.94,4.41,4.41,0,0,0,1.4-2.59l1-5.09h1.32Zm-13.17,0h-1.32l2-10.32-6.82,8.68h-.65l-3.43-8.63-2,10.27h-1.32l2.53-12.91h1.14l3.78,9.57,7.49-9.57h1.13Zm-20.58-9.7-.21,1.11h-3l-1.14,5.79a1.62,1.62,0,0,0,.18,1.32,1.39,1.39,0,0,0,1.17.45,2.54,2.54,0,0,0,.81-.13,2.57,2.57,0,0,0,.74-.37l.28.94a3.25,3.25,0,0,1-1,.51,4,4,0,0,1-1.18.17,2.41,2.41,0,0,1-2-.73,2.47,2.47,0,0,1-.34-2.09l1.15-5.86h-1.75l.22-1.11h1.75l.42-2.12h1.32l-.42,2.12Zm-7.66,1.2-.32,0a3.79,3.79,0,0,0-2.6.94,4.63,4.63,0,0,0-1.4,2.64l-1,4.94h-1.33l1.9-9.7h1.27l-.37,1.9a4.24,4.24,0,0,1,1.68-1.47,5.37,5.37,0,0,1,2.37-.5Zm-13.26-3-4.48,6.94h6.25Zm3,11.49L153,220h-7.26l-2.25,3.45H142l8.49-12.91h1.36l3.43,12.91Zm-22.64,1.16a6.15,6.15,0,0,1-1.75,1.94,3.65,3.65,0,0,1-2,.57,3.47,3.47,0,0,1-1.28-.22,2.26,2.26,0,0,1-.93-.66l.81-1a2,2,0,0,0,1.64.74,2.19,2.19,0,0,0,1.22-.37,4.64,4.64,0,0,0,1.13-1.26l.61-.94-2.48-9.68h1.38l2.07,8.25L137,213.7h1.3Zm-4.61-10.86-.22,1.11h-3l-1.13,5.79a1.55,1.55,0,0,0,.18,1.32,1.39,1.39,0,0,0,1.17.45,2.54,2.54,0,0,0,.81-.13,2.7,2.7,0,0,0,.74-.37l.28.94a3.25,3.25,0,0,1-1,.51,4,4,0,0,1-1.18.17,2.1,2.1,0,0,1-2.32-2.82l1.15-5.86h-1.75l.22-1.11h1.75l.41-2.12h1.33l-.42,2.12Zm-10.49,9.7H114.8l1.9-9.7H118Zm2.41-12.1a1.1,1.1,0,0,1-.74.28.76.76,0,0,1-.79-.94,1.13,1.13,0,0,1,.41-.64,1.1,1.1,0,0,1,.74-.28.8.8,0,0,1,.64.27.7.7,0,0,1,.15.63A1.13,1.13,0,0,1,118.53,211.3Zm-5.92,4.28a4.29,4.29,0,0,0-2.73-.83,3.76,3.76,0,0,0-2,.45,1.69,1.69,0,0,0-.87,1.16.94.94,0,0,0,.19.88,1.75,1.75,0,0,0,.8.49,13.84,13.84,0,0,0,1.43.33,14,14,0,0,1,1.8.44,2.13,2.13,0,0,1,1.06.75,1.82,1.82,0,0,1,.21,1.48,3,3,0,0,1-1.47,2,5.82,5.82,0,0,1-3.11.74,6.93,6.93,0,0,1-2.22-.34,3.79,3.79,0,0,1-1.53-.85l.8-1a4,4,0,0,0,1.39.79,5.74,5.74,0,0,0,1.88.3,4.26,4.26,0,0,0,2.06-.41,1.71,1.71,0,0,0,.87-1.17.88.88,0,0,0-.19-.84,1.79,1.79,0,0,0-.8-.47,12.85,12.85,0,0,0-1.38-.3,15.53,15.53,0,0,1-1.82-.45,2.18,2.18,0,0,1-1.09-.78,1.91,1.91,0,0,1-.21-1.54,3.07,3.07,0,0,1,1.41-2,5.43,5.43,0,0,1,3-.77,6.84,6.84,0,0,1,1.86.25,4.22,4.22,0,0,1,1.43.65Zm-8.53-.68-.31,0a3.84,3.84,0,0,0-2.61.94,4.56,4.56,0,0,0-1.39,2.64l-1,4.94H97.48l1.9-9.7h1.27l-.38,1.9a4.24,4.24,0,0,1,1.68-1.47,5.38,5.38,0,0,1,2.38-.5Zm-10.51.75a2.78,2.78,0,0,0-2.22-.9,4,4,0,0,0-2.55.9A4.43,4.43,0,0,0,87.25,218h7A2.91,2.91,0,0,0,93.57,215.65Zm1.79,2.9-.1.41h-8.2a2.86,2.86,0,0,0,.7,2.44,3.27,3.27,0,0,0,2.5.93A4.84,4.84,0,0,0,92,222a4.92,4.92,0,0,0,1.51-.95l.57.85a5.32,5.32,0,0,1-1.86,1.18,6.16,6.16,0,0,1-2.23.4,4.87,4.87,0,0,1-2.55-.63A3.52,3.52,0,0,1,86,221.1a4.6,4.6,0,0,1-.15-2.55A6.26,6.26,0,0,1,86.94,216,6,6,0,0,1,89,214.26a5.49,5.49,0,0,1,2.57-.63,4.13,4.13,0,0,1,2.32.63A3.27,3.27,0,0,1,95.24,216,4.79,4.79,0,0,1,95.36,218.55Zm-16.1,4.85H77.9l-2.44-9.7h1.38l2,8.26,5.33-8.26h1.3Zm-7.93,0H70l1.9-9.7h1.32Zm2.41-12.1a1.13,1.13,0,0,1-.75.28.76.76,0,0,1-.78-.94,1.08,1.08,0,0,1,.41-.64,1.1,1.1,0,0,1,.74-.28A.81.81,0,0,1,74,210a.7.7,0,0,1,.15.63A1.13,1.13,0,0,1,73.74,211.3Zm-6.6,6.48L66,223.4H64.72l1.07-5.49a2.79,2.79,0,0,0-.31-2.31,2.38,2.38,0,0,0-2-.79,4,4,0,0,0-2.69.93,4.34,4.34,0,0,0-1.43,2.57l-1,5.09H57l1.91-9.7h1.26l-.35,1.79a4.86,4.86,0,0,1,1.77-1.37,5.39,5.39,0,0,1,2.32-.49,3.35,3.35,0,0,1,2.73,1.06A3.6,3.6,0,0,1,67.14,217.78Zm-13.28.11a7.08,7.08,0,0,1-2.23,4.19,6.31,6.31,0,0,1-4.22,1.43,4.42,4.42,0,0,1-3.67-1.43,5,5,0,0,1-.59-4.19l1.45-7.4H46l-1.44,7.34a4.29,4.29,0,0,0,.36,3.36,3.18,3.18,0,0,0,2.75,1.11,4.63,4.63,0,0,0,3.2-1.11,6,6,0,0,0,1.68-3.36L54,210.49h1.34Zm-21.12-2.24a2.78,2.78,0,0,0-2.22-.9,4,4,0,0,0-2.55.9A4.43,4.43,0,0,0,26.42,218h6.95A2.91,2.91,0,0,0,32.74,215.65Zm1.78,2.9-.09.41h-8.2a2.86,2.86,0,0,0,.7,2.44,3.27,3.27,0,0,0,2.5.93,4.83,4.83,0,0,0,1.73-.32,4.7,4.7,0,0,0,1.51-.95l.58.85a5.32,5.32,0,0,1-1.86,1.18,6.16,6.16,0,0,1-2.23.4,4.87,4.87,0,0,1-2.55-.63,3.52,3.52,0,0,1-1.47-1.76,4.51,4.51,0,0,1-.15-2.55A6.13,6.13,0,0,1,26.11,216a5.86,5.86,0,0,1,2.06-1.75,5.49,5.49,0,0,1,2.57-.63,4.13,4.13,0,0,1,2.32.63A3.27,3.27,0,0,1,34.41,216,4.7,4.7,0,0,1,34.52,218.55Zm-12.36-.77-1.1,5.62H19.74l1.07-5.49a2.79,2.79,0,0,0-.31-2.31,2.38,2.38,0,0,0-2-.79,4,4,0,0,0-2.69.93,4.34,4.34,0,0,0-1.43,2.57l-1,5.09H12l2.69-13.68h1.32l-1.12,5.68a4.83,4.83,0,0,1,1.75-1.31,5.52,5.52,0,0,1,2.27-.46,3.35,3.35,0,0,1,2.73,1.06A3.57,3.57,0,0,1,22.16,217.78Zm-10.11-6.11H7.47L5.17,223.4H3.79l2.3-11.73H1.51l.23-1.18H12.28Z"/><path class="cls-1" d="M536.33,215.58a4.26,4.26,0,0,0-2.72-.83,3.8,3.8,0,0,0-2,.45,1.75,1.75,0,0,0-.87,1.16,1,1,0,0,0,.19.88,1.74,1.74,0,0,0,.81.49,13.84,13.84,0,0,0,1.43.33,13.35,13.35,0,0,1,1.79.44,2.09,2.09,0,0,1,1.06.75,1.82,1.82,0,0,1,.22,1.48,3,3,0,0,1-1.47,2,5.86,5.86,0,0,1-3.12.74,6.87,6.87,0,0,1-2.21-.34,3.84,3.84,0,0,1-1.54-.85l.8-1a4.09,4.09,0,0,0,1.39.79,5.74,5.74,0,0,0,1.88.3,4.34,4.34,0,0,0,2.07-.41,1.71,1.71,0,0,0,.87-1.17.9.9,0,0,0-.19-.84,1.89,1.89,0,0,0-.81-.47,12.58,12.58,0,0,0-1.37-.3,15.27,15.27,0,0,1-1.83-.45,2.22,2.22,0,0,1-1.09-.78,2,2,0,0,1-.21-1.54,3,3,0,0,1,1.42-2,5.39,5.39,0,0,1,3-.77,6.77,6.77,0,0,1,1.85.25,4.19,4.19,0,0,1,1.44.65Zm-8.79-1.88-.22,1.11h-3l-1.13,5.79a1.59,1.59,0,0,0,.17,1.32,1.41,1.41,0,0,0,1.17.45,2.56,2.56,0,0,0,.82-.13,2.51,2.51,0,0,0,.73-.37l.29.94a3.42,3.42,0,0,1-1,.51,3.9,3.9,0,0,1-1.17.17,2.1,2.1,0,0,1-2.32-2.82l1.15-5.86h-1.75l.21-1.11h1.76l.41-2.12H525l-.41,2.12Zm-7.67,1.2-.31,0a3.84,3.84,0,0,0-2.61.94,4.62,4.62,0,0,0-1.39,2.64l-1,4.94h-1.32l1.9-9.7h1.27l-.37,1.9a4.15,4.15,0,0,1,1.67-1.47,5.41,5.41,0,0,1,2.38-.5Zm-13.25-3-4.49,6.94h6.26Zm2.94,11.49-.89-3.45h-7.26l-2.24,3.45h-1.43l8.49-12.91h1.36L511,223.4Zm-19.18-7.75a2.78,2.78,0,0,0-2.22-.9,4,4,0,0,0-2.55.9,4.41,4.41,0,0,0-1.54,2.33H491A2.91,2.91,0,0,0,490.38,215.65Zm1.79,2.9-.1.41h-8.2a2.86,2.86,0,0,0,.7,2.44,3.28,3.28,0,0,0,2.5.93,4.84,4.84,0,0,0,1.74-.32,4.92,4.92,0,0,0,1.51-.95l.58.85a5.45,5.45,0,0,1-1.87,1.18,6.13,6.13,0,0,1-2.23.4,4.81,4.81,0,0,1-2.54-.63,3.42,3.42,0,0,1-1.47-1.76,4.6,4.6,0,0,1-.16-2.55,6.26,6.26,0,0,1,1.12-2.54,6,6,0,0,1,2.06-1.75,5.52,5.52,0,0,1,2.57-.63,4.13,4.13,0,0,1,2.32.63,3.27,3.27,0,0,1,1.35,1.74A4.7,4.7,0,0,1,492.17,218.55Zm-12.37-.77-1.1,5.62h-1.32l1.08-5.49a2.83,2.83,0,0,0-.32-2.31,2.38,2.38,0,0,0-2-.79,4.06,4.06,0,0,0-2.69.93,4.33,4.33,0,0,0-1.42,2.57l-1,5.09h-1.32l2.68-13.68h1.32l-1.11,5.68a4.71,4.71,0,0,1,1.74-1.31,5.55,5.55,0,0,1,2.27-.46,3.35,3.35,0,0,1,2.73,1.06A3.57,3.57,0,0,1,479.8,217.78Zm-11.62-4.08-.22,1.11h-3l-1.13,5.79a1.55,1.55,0,0,0,.18,1.32,1.39,1.39,0,0,0,1.17.45,2.54,2.54,0,0,0,.81-.13,2.7,2.7,0,0,0,.74-.37l.28.94a3.25,3.25,0,0,1-1,.51,4,4,0,0,1-1.18.17,2.1,2.1,0,0,1-2.32-2.82l1.15-5.86h-1.75l.22-1.11h1.75l.41-2.12h1.33l-.42,2.12Zm-11.28-2.49a1.87,1.87,0,0,0-1.36-.48,2.08,2.08,0,0,0-1.39.46,2.39,2.39,0,0,0-.7,1.37l-.23,1.14h3l-.22,1.11h-3l-1.68,8.59H450l1.68-8.59H450l.22-1.11h1.75l.23-1.2a3.63,3.63,0,0,1,4.58-2.72,2.08,2.08,0,0,1,.79.45Zm-10.63,5.37a2.52,2.52,0,0,0-1-1.34,3.28,3.28,0,0,0-1.78-.47,4.26,4.26,0,0,0-2,.47,4.48,4.48,0,0,0-1.57,1.34,4.79,4.79,0,0,0-.86,2,3.63,3.63,0,0,0,.09,2,2.52,2.52,0,0,0,1,1.33,3.17,3.17,0,0,0,1.78.47,4.17,4.17,0,0,0,2-.47,4.51,4.51,0,0,0,1.56-1.33,4.89,4.89,0,0,0,.85-2A3.8,3.8,0,0,0,446.27,216.58Zm1.42,2a6,6,0,0,1-1.14,2.55,6.16,6.16,0,0,1-2.13,1.76,5.86,5.86,0,0,1-2.67.63,4.53,4.53,0,0,1-2.43-.63,3.56,3.56,0,0,1-1.44-1.76,4.51,4.51,0,0,1-.15-2.55,5.94,5.94,0,0,1,1.15-2.54,6,6,0,0,1,2.13-1.75,5.89,5.89,0,0,1,2.67-.63,4.48,4.48,0,0,1,2.43.63,3.36,3.36,0,0,1,1.44,1.75A4.58,4.58,0,0,1,447.69,218.55Zm-22.54,6a6.16,6.16,0,0,1-1.76,1.94,3.61,3.61,0,0,1-2,.57,3.47,3.47,0,0,1-1.28-.22,2.26,2.26,0,0,1-.93-.66l.8-1a2,2,0,0,0,1.65.74,2.21,2.21,0,0,0,1.22-.37,4.64,4.64,0,0,0,1.13-1.26l.61-.94-2.48-9.68h1.38l2.07,8.25,5.3-8.25h1.31Zm-4.61-10.86-.22,1.11h-3l-1.14,5.79a1.62,1.62,0,0,0,.18,1.32,1.41,1.41,0,0,0,1.17.45,2.6,2.6,0,0,0,.82-.13,2.64,2.64,0,0,0,.73-.37l.28.94a3.25,3.25,0,0,1-1,.51,4,4,0,0,1-1.18.17,2.09,2.09,0,0,1-2.31-2.82l1.15-5.86h-1.75l.21-1.11h1.75l.42-2.12H418l-.41,2.12Zm-10.49,9.7h-1.32l1.9-9.7H412Zm2.41-12.1a1.13,1.13,0,0,1-.75.28.76.76,0,0,1-.78-.94,1.23,1.23,0,0,1,1.15-.92.81.81,0,0,1,.64.27.7.7,0,0,1,.15.63A1.13,1.13,0,0,1,412.46,211.3Zm-5.93,4.28a4.26,4.26,0,0,0-2.72-.83,3.8,3.8,0,0,0-2,.45,1.75,1.75,0,0,0-.87,1.16,1,1,0,0,0,.19.88,1.74,1.74,0,0,0,.81.49,13.84,13.84,0,0,0,1.43.33,13.35,13.35,0,0,1,1.79.44,2.09,2.09,0,0,1,1.06.75,1.82,1.82,0,0,1,.22,1.48,3,3,0,0,1-1.47,2,5.86,5.86,0,0,1-3.12.74,6.87,6.87,0,0,1-2.21-.34,3.84,3.84,0,0,1-1.54-.85l.8-1a4.09,4.09,0,0,0,1.39.79,5.74,5.74,0,0,0,1.88.3,4.34,4.34,0,0,0,2.07-.41,1.71,1.71,0,0,0,.87-1.17.9.9,0,0,0-.19-.84,1.89,1.89,0,0,0-.81-.47,12.06,12.06,0,0,0-1.37-.3,15.78,15.78,0,0,1-1.83-.45,2.15,2.15,0,0,1-1.08-.78,2,2,0,0,1-.22-1.54,3,3,0,0,1,1.42-2,5.39,5.39,0,0,1,3-.77,6.77,6.77,0,0,1,1.85.25,4.19,4.19,0,0,1,1.44.65ZM398,214.9l-.32,0a3.79,3.79,0,0,0-2.6.94,4.63,4.63,0,0,0-1.4,2.64l-1,4.94H391.4l1.91-9.7h1.26l-.37,1.9a4.24,4.24,0,0,1,1.68-1.47,5.38,5.38,0,0,1,2.38-.5Zm-10.52.75a2.77,2.77,0,0,0-2.21-.9,4,4,0,0,0-2.55.9,4.43,4.43,0,0,0-1.55,2.33h6.95A2.88,2.88,0,0,0,387.49,215.65Zm1.79,2.9-.1.41H381a2.89,2.89,0,0,0,.69,2.44,3.28,3.28,0,0,0,2.5.93,4.71,4.71,0,0,0,3.25-1.27l.58.85a5.5,5.5,0,0,1-1.86,1.18,6.2,6.2,0,0,1-2.23.4,4.82,4.82,0,0,1-2.55-.63,3.52,3.52,0,0,1-1.47-1.76,4.51,4.51,0,0,1-.15-2.55,6.13,6.13,0,0,1,1.12-2.54,5.86,5.86,0,0,1,2.06-1.75,5.46,5.46,0,0,1,2.57-.63,4.15,4.15,0,0,1,2.32.63,3.37,3.37,0,0,1,1.35,1.74A4.8,4.8,0,0,1,389.28,218.55Zm-16.09,4.85h-1.36l-2.44-9.7h1.38l2.05,8.26,5.32-8.26h1.31Zm-7.94,0h-1.32l1.9-9.7h1.33Zm2.41-12.1a1.1,1.1,0,0,1-.74.28.77.77,0,0,1-.64-.28.72.72,0,0,1-.14-.66,1.06,1.06,0,0,1,.4-.64,1.11,1.11,0,0,1,.75-.28.77.77,0,0,1,.63.27.74.74,0,0,1,.16.63A1.2,1.2,0,0,1,367.66,211.3Z"/></g></g></svg>