<svg xmlns="http://www.w3.org/2000/svg" viewBox="0 0 535.76 227.07"><defs><style>.cls-1{fill:#231815;}</style></defs><g id="レイヤー_2" data-name="レイヤー 2"><g id="レイヤー_1-2" data-name="レイヤー 1"><path class="cls-1" d="M189.33,29.42l20.89-.28L209.76,31l-25.12.33.41-1.41L203.7,18.18a25.35,25.35,0,0,0,5.6-4.37A5.88,5.88,0,0,0,210.83,10a3.85,3.85,0,0,0-2.12-3.47q-2.1-1.25-6.38-1.18a20.54,20.54,0,0,0-5.89.91,13.85,13.85,0,0,0-4.69,2.43l-1.87-1.19a16.5,16.5,0,0,1,5.6-2.86,24.84,24.84,0,0,1,7.16-1.09q5.27-.07,8.05,1.61a5.16,5.16,0,0,1,2.8,4.57,7.4,7.4,0,0,1-1.77,4.65,25,25,0,0,1-6.2,5ZM313.39,84.56l-5.46,20.64-2,0L311,86l-6.7.09.35-1.36ZM300.11,61.23a6.94,6.94,0,0,1-3.05-.54A14.3,14.3,0,0,1,294.43,59a13.21,13.21,0,0,0-2.09-1.35,4.4,4.4,0,0,0-2.08-.42,5.36,5.36,0,0,0-5.31,4l-1.93,0a7.15,7.15,0,0,1,2.63-4.1,7.65,7.65,0,0,1,4.61-1.51,7,7,0,0,1,3,.55,13.57,13.57,0,0,1,2.59,1.64A12.65,12.65,0,0,0,298,59.25a4.57,4.57,0,0,0,2.09.42,5.5,5.5,0,0,0,3.38-1.1,5.62,5.62,0,0,0,2-2.87l1.88,0a7.14,7.14,0,0,1-2.61,4.08,7.58,7.58,0,0,1-4.58,1.48Zm27.31,43.86a9.46,9.46,0,0,1-6.37-1.85,6.6,6.6,0,0,1-2.3-5.38,13.55,13.55,0,0,1,13.62-13.69A9.37,9.37,0,0,1,338.72,86,6.61,6.61,0,0,1,341,91.4,13.75,13.75,0,0,1,339.34,98a13.27,13.27,0,0,1-4.75,5.07,13.49,13.49,0,0,1-7.17,2Zm.19-1.38a10.61,10.61,0,0,0,6.06-1.87,12.31,12.31,0,0,0,4-4.64A12.76,12.76,0,0,0,339,91.46a5.5,5.5,0,0,0-1.8-4.42,7.44,7.44,0,0,0-5.06-1.48,10.51,10.51,0,0,0-6.08,1.87,12.31,12.31,0,0,0-4,4.63,12.8,12.8,0,0,0-1.38,5.75,5.49,5.49,0,0,0,1.78,4.41,7.43,7.43,0,0,0,5.08,1.49Zm16.17-39.78-7.66.11-2,7.6-2.66,0,2-7.6-20.74.28.37-1.45,24.42-18.64,3.18,0L316.74,62.54,334,62.31l1.82-6.7,2.55,0-1.76,6.7,7.66-.1ZM231.44,30.85c-3.61,0-6.44-.77-8.47-2.46a8.78,8.78,0,0,1-3.06-7.14,18.29,18.29,0,0,1,2.23-8.8A17.89,17.89,0,0,1,238,3c3.61,0,6.42.78,8.44,2.47a8.79,8.79,0,0,1,3,7.14,18.38,18.38,0,0,1-2.2,8.8,17.79,17.79,0,0,1-15.86,9.4ZM231.7,29a14,14,0,0,0,8.05-2.49,16.26,16.26,0,0,0,5.31-6.16,17,17,0,0,0,1.84-7.64,7.3,7.3,0,0,0-2.41-5.86,9.85,9.85,0,0,0-6.72-2,14,14,0,0,0-8.08,2.49,16.26,16.26,0,0,0-5.28,6.16,17.08,17.08,0,0,0-1.84,7.64A7.3,7.3,0,0,0,225,27q2.37,2,6.75,2Zm114.1,75.81a1.9,1.9,0,0,1-1.14-.34,1,1,0,0,1-.47-.84,1.12,1.12,0,0,1,.51-.94,2.08,2.08,0,0,1,1.22-.38,1.78,1.78,0,0,1,1.13.34,1,1,0,0,1,.47.84,1.14,1.14,0,0,1-.5.92,2,2,0,0,1-1.22.4Zm3.47-13.12a1.73,1.73,0,0,1-1.13-.34,1,1,0,0,1-.47-.84,1.12,1.12,0,0,1,.51-.93,2,2,0,0,1,1.21-.39,1.9,1.9,0,0,1,1.14.34,1,1,0,0,1,.47.85,1.11,1.11,0,0,1-.51.91,1.94,1.94,0,0,1-1.22.4Zm14.91,12.9a9.46,9.46,0,0,1-6.37-1.85,6.6,6.6,0,0,1-2.3-5.38,13.55,13.55,0,0,1,13.62-13.69,9.37,9.37,0,0,1,6.35,1.86,6.61,6.61,0,0,1,2.28,5.37,13.75,13.75,0,0,1-1.66,6.62,13.27,13.27,0,0,1-4.75,5.07,13.49,13.49,0,0,1-7.17,2Zm.19-1.38a10.55,10.55,0,0,0,6.05-1.87,12.25,12.25,0,0,0,4-4.64A12.76,12.76,0,0,0,375.8,91a5.5,5.5,0,0,0-1.8-4.42,7.44,7.44,0,0,0-5.06-1.48,10.51,10.51,0,0,0-6.08,1.87,12.31,12.31,0,0,0-4,4.63,12.8,12.8,0,0,0-1.38,5.75,5.49,5.49,0,0,0,1.78,4.41,7.43,7.43,0,0,0,5.08,1.49ZM257.12,28.51l20.9-.28L277.55,30l-25.11.33.41-1.41L271.5,17.27a25.24,25.24,0,0,0,5.59-4.37,5.84,5.84,0,0,0,1.54-3.84,3.87,3.87,0,0,0-2.12-3.47q-2.11-1.25-6.38-1.18a20.49,20.49,0,0,0-5.89.91,13.76,13.76,0,0,0-4.69,2.43l-1.88-1.19a16.59,16.59,0,0,1,5.6-2.86,24.9,24.9,0,0,1,7.17-1.09q5.26-.07,8.05,1.61a5.13,5.13,0,0,1,2.79,4.57,7.39,7.39,0,0,1-1.76,4.65,25,25,0,0,1-6.2,5Zm93,43.06a2.39,2.39,0,0,1-1.51-.45A1.37,1.37,0,0,1,348,70a1.5,1.5,0,0,1,.68-1.24,2.74,2.74,0,0,1,1.62-.51,2.39,2.39,0,0,1,1.51.45,1.37,1.37,0,0,1,.62,1.12,1.49,1.49,0,0,1-.67,1.22,2.62,2.62,0,0,1-1.62.53Zm41.4,32.65a9.48,9.48,0,0,1-6.38-1.85A6.59,6.59,0,0,1,382.87,97a13.65,13.65,0,0,1,1.67-6.62,13.47,13.47,0,0,1,11.95-7.08,9.42,9.42,0,0,1,6.35,1.86,6.61,6.61,0,0,1,2.28,5.37,13.86,13.86,0,0,1-1.66,6.62,13.35,13.35,0,0,1-4.75,5.07,13.49,13.49,0,0,1-7.17,2Zm.19-1.38a10.48,10.48,0,0,0,6-1.87,12.17,12.17,0,0,0,4-4.64,12.86,12.86,0,0,0,1.38-5.74,5.44,5.44,0,0,0-1.81-4.41,7.36,7.36,0,0,0-5.05-1.49,10.51,10.51,0,0,0-6.08,1.87,12.23,12.23,0,0,0-4,4.63,12.81,12.81,0,0,0-1.39,5.75,5.52,5.52,0,0,0,1.79,4.41,7.43,7.43,0,0,0,5.08,1.49Zm.6-59.32L392,44.93,369.48,71.16l-3,0,22.17-25.83-20.37.27-1.41,5.25-2.6,0,1.87-7.05ZM301.08,2.39l-7.26,27.43-2.66,0L298,4.23l-8.91.12.46-1.8Zm122.27,93.1a5.36,5.36,0,0,1-2.29-.41,11.43,11.43,0,0,1-2-1.24,10.15,10.15,0,0,0-1.57-1,3.49,3.49,0,0,0-1.57-.32,4.19,4.19,0,0,0-2.54.84A4.13,4.13,0,0,0,412,95.52l-1.45,0a5.42,5.42,0,0,1,2-3.08,5.74,5.74,0,0,1,3.47-1.13,5.19,5.19,0,0,1,2.29.41A9.51,9.51,0,0,1,420.18,93a10.12,10.12,0,0,0,1.56,1,3.39,3.39,0,0,0,1.57.31,4.2,4.2,0,0,0,2.55-.82,4.32,4.32,0,0,0,1.49-2.17l1.41,0a5.37,5.37,0,0,1-2,3.07,5.68,5.68,0,0,1-3.45,1.12ZM307.77,29.78a2.39,2.39,0,0,1-1.51-.45,1.33,1.33,0,0,1-.62-1.12,1.47,1.47,0,0,1,.67-1.24,2.74,2.74,0,0,1,1.62-.51,2.39,2.39,0,0,1,1.51.45,1.35,1.35,0,0,1,.62,1.12,1.49,1.49,0,0,1-.67,1.22,2.62,2.62,0,0,1-1.62.53ZM444.14,82.83l-5.46,20.63-2,0,5.11-19.28-6.7.09.35-1.36ZM346.57,3.18,332.88,13.91q5.06.09,7.71,1.83a5.48,5.48,0,0,1,2.67,4.82,6.69,6.69,0,0,1-1.8,4.59,11.9,11.9,0,0,1-5.1,3.18,24,24,0,0,1-7.58,1.21,25,25,0,0,1-7.43-.9A10.75,10.75,0,0,1,316.48,26l1.61-1.51a9.17,9.17,0,0,0,4.2,2.38,21.24,21.24,0,0,0,6.64.83,16.66,16.66,0,0,0,8.5-2,5.72,5.72,0,0,0,3.12-5.05q0-5.23-9.49-5.11l-2,0,.41-1.45L342.93,3.62l-19.34.26.47-1.8,22.82-.31ZM467.36,42.53,447.74,70.12l-2.81,0-4.82-24.38-17.9,24.68-2.81,0-5.14-27.26,2.66,0,4.61,24.62,18-24.92,2.5,0,4.83,24.62,17.79-24.92Zm-2.66,50a7.45,7.45,0,0,1,3.41,1.74A3.68,3.68,0,0,1,469.29,97a4.62,4.62,0,0,1-1.35,3.3,8.85,8.85,0,0,1-3.82,2.19,20,20,0,0,1-5.76.83,15.08,15.08,0,0,1-7.23-1.33,4.28,4.28,0,0,1-2.61-3.89,4.65,4.65,0,0,1,1.91-3.78,11.44,11.44,0,0,1,5.45-2.07,6.31,6.31,0,0,1-2.8-1.58,3.32,3.32,0,0,1-1-2.39,4.39,4.39,0,0,1,1.22-3.06,7.75,7.75,0,0,1,3.44-2,17.61,17.61,0,0,1,5.21-.76,13.62,13.62,0,0,1,6.53,1.23A3.94,3.94,0,0,1,471,87.22a4.29,4.29,0,0,1-1.65,3.39,9.8,9.8,0,0,1-4.62,1.92Zm-6.26,9.52a13.67,13.67,0,0,0,6.48-1.4,4,4,0,0,0,2.37-3.57,3.29,3.29,0,0,0-2.12-3,12.67,12.67,0,0,0-5.88-1,13.37,13.37,0,0,0-6.43,1.39A4,4,0,0,0,450.52,98a3.3,3.3,0,0,0,2.1,3,12.57,12.57,0,0,0,5.82,1Zm-4.29-13.87A3,3,0,0,0,456,90.89a10.89,10.89,0,0,0,5.17.93,11.87,11.87,0,0,0,5.7-1.24,3.55,3.55,0,0,0,2.1-3.15A3,3,0,0,0,467,84.68a11,11,0,0,0-5.17-1A11.65,11.65,0,0,0,456.24,85a3.61,3.61,0,0,0-2.09,3.2Zm-102.71-59a2.37,2.37,0,0,1-1.51-.45,1.36,1.36,0,0,1-.63-1.12A1.48,1.48,0,0,1,350,26.4a2.76,2.76,0,0,1,1.62-.51,2.39,2.39,0,0,1,1.51.45,1.35,1.35,0,0,1,.63,1.12,1.51,1.51,0,0,1-.68,1.22,2.68,2.68,0,0,1-1.61.53Zm124.09,73.87a1.79,1.79,0,0,1-1.14-.34,1,1,0,0,1-.47-.84,1.12,1.12,0,0,1,.51-.93,2.06,2.06,0,0,1,1.21-.39,1.86,1.86,0,0,1,1.14.34,1,1,0,0,1,.47.85,1.13,1.13,0,0,1-.51.91,1.93,1.93,0,0,1-1.21.4ZM479,90a1.9,1.9,0,0,1-1.14-.34,1,1,0,0,1-.47-.85,1.12,1.12,0,0,1,.51-.93,2,2,0,0,1,1.22-.38,1.78,1.78,0,0,1,1.13.33,1.07,1.07,0,0,1,.48.85,1.14,1.14,0,0,1-.51.92A2,2,0,0,1,479,90ZM365.2,27.07l20.9-.28-.47,1.8-25.12.34.42-1.41,18.64-11.69a25.35,25.35,0,0,0,5.6-4.37,5.88,5.88,0,0,0,1.53-3.85,3.84,3.84,0,0,0-2.11-3.46c-1.41-.83-3.54-1.22-6.39-1.19a20.9,20.9,0,0,0-5.89.92,13.71,13.71,0,0,0-4.68,2.43l-1.88-1.19a16.32,16.32,0,0,1,5.6-2.86,25.18,25.18,0,0,1,7.16-1.1c3.51,0,6.19.49,8.05,1.61a5.17,5.17,0,0,1,2.8,4.57A7.36,7.36,0,0,1,387.59,12a24.81,24.81,0,0,1-6.2,5Zm128.7,75.79a9.47,9.47,0,0,1-6.37-1.85,6.62,6.62,0,0,1-2.3-5.37A13.77,13.77,0,0,1,486.91,89,13.44,13.44,0,0,1,498.86,82a9.38,9.38,0,0,1,6.35,1.85,6.61,6.61,0,0,1,2.28,5.37,13.86,13.86,0,0,1-1.66,6.62,13.3,13.3,0,0,1-4.76,5.07,13.44,13.44,0,0,1-7.17,2Zm.2-1.38a10.48,10.48,0,0,0,6-1.87,12.17,12.17,0,0,0,4-4.64,12.86,12.86,0,0,0,1.38-5.74,5.44,5.44,0,0,0-1.81-4.41,7.42,7.42,0,0,0-5.06-1.49,10.47,10.47,0,0,0-6.07,1.87,12.18,12.18,0,0,0-4,4.64,12.74,12.74,0,0,0-1.39,5.74A5.49,5.49,0,0,0,489,100a7.36,7.36,0,0,0,5.08,1.49ZM472,60a11.84,11.84,0,0,0-.11,1.29,5.78,5.78,0,0,0,2.56,5.06q2.56,1.74,7.51,1.68a18.5,18.5,0,0,0,5.29-.8,12,12,0,0,0,4-2.06l1.2,1.35a13.16,13.16,0,0,1-4.66,2.36,21.6,21.6,0,0,1-6.07.91c-3.85.05-6.89-.67-9.09-2.15a7.09,7.09,0,0,1-3.32-6.24,10.75,10.75,0,0,1,1.92-6.23,13.28,13.28,0,0,1,5.31-4.43,18,18,0,0,1,7.61-1.68c3.54-.05,6.36.67,8.44,2.15a7.2,7.2,0,0,1,3.14,6.21,10.76,10.76,0,0,1-.31,2.27Zm12.13-9.26a13.87,13.87,0,0,0-7.63,2.17,9.68,9.68,0,0,0-4.19,5.56l21-.28a8.25,8.25,0,0,0,0-1,5.46,5.46,0,0,0-2.51-4.79,11.33,11.33,0,0,0-6.67-1.65Zm37.16,51.73a9.46,9.46,0,0,1-6.37-1.85,6.64,6.64,0,0,1-2.3-5.38,13.73,13.73,0,0,1,1.68-6.61,13.47,13.47,0,0,1,12-7.08,9.38,9.38,0,0,1,6.35,1.86,6.61,6.61,0,0,1,2.28,5.37,13.82,13.82,0,0,1-1.66,6.61,13.25,13.25,0,0,1-4.76,5.08,13.53,13.53,0,0,1-7.17,2Zm.2-1.38a10.58,10.58,0,0,0,6-1.87,12.14,12.14,0,0,0,4-4.64,12.78,12.78,0,0,0,1.39-5.75,5.5,5.5,0,0,0-1.81-4.41A7.48,7.48,0,0,0,526,83,10.55,10.55,0,0,0,520,84.84a12.23,12.23,0,0,0-4,4.63,12.81,12.81,0,0,0-1.39,5.75,5.49,5.49,0,0,0,1.79,4.41,7.41,7.41,0,0,0,5.08,1.49ZM407.31,28.5c-3.61.05-6.44-.77-8.47-2.46a8.83,8.83,0,0,1-3.06-7.15A18.26,18.26,0,0,1,398,10.1,17.89,17.89,0,0,1,413.9.69c3.61,0,6.43.77,8.44,2.46a8.83,8.83,0,0,1,3,7.15,18.31,18.31,0,0,1-2.2,8.79,17.64,17.64,0,0,1-6.33,6.74,18,18,0,0,1-9.53,2.67Zm.26-1.84a14,14,0,0,0,8.05-2.49A16.17,16.17,0,0,0,420.93,18a17.08,17.08,0,0,0,1.84-7.64,7.3,7.3,0,0,0-2.41-5.86,9.85,9.85,0,0,0-6.72-2A13.94,13.94,0,0,0,405.57,5a16.2,16.2,0,0,0-5.29,6.16,17.08,17.08,0,0,0-1.84,7.64,7.31,7.31,0,0,0,2.38,5.86q2.37,2,6.75,2ZM534.89,40l-7.68,29.08-2.5,0,1-4a14.13,14.13,0,0,1-4.92,3.11,18.93,18.93,0,0,1-6.54,1.18,14.36,14.36,0,0,1-8.53-2.17,7.16,7.16,0,0,1-3.21-6.15,10.7,10.7,0,0,1,2-6.29A13.41,13.41,0,0,1,510,50.32a19.09,19.09,0,0,1,7.89-1.68,15.56,15.56,0,0,1,7,1.27,7.15,7.15,0,0,1,3.75,3.85L532.29,40ZM514.81,67.61a15.53,15.53,0,0,0,6.53-1.41,11.3,11.3,0,0,0,4.56-3.75,9.14,9.14,0,0,0,1.66-5.35,5.75,5.75,0,0,0-2.53-5,12.09,12.09,0,0,0-7.12-1.7,15.24,15.24,0,0,0-6.53,1.44,11.42,11.42,0,0,0-4.56,3.77,9.06,9.06,0,0,0-1.66,5.31,5.72,5.72,0,0,0,2.53,5c1.69,1.18,4.06,1.74,7.12,1.7Zm-56.59-39.8a26.84,26.84,0,0,1-7.56-.93,13.2,13.2,0,0,1-5.31-2.53l1.4-1.54a12.58,12.58,0,0,0,4.93,2.38,23.68,23.68,0,0,0,6.75.86,18.8,18.8,0,0,0,8.41-1.71c2.1-1.1,3.15-2.59,3.15-4.49a2.92,2.92,0,0,0-1.18-2.41A8.76,8.76,0,0,0,465.89,16q-1.74-.52-4.71-1.11-3.45-.73-5.53-1.37a9.41,9.41,0,0,1-3.52-1.91,4.25,4.25,0,0,1-1.43-3.34,6,6,0,0,1,1.82-4.35,11.73,11.73,0,0,1,5-2.86A25.46,25.46,0,0,1,464.81,0a28.51,28.51,0,0,1,6.07.55,17.58,17.58,0,0,1,4.93,1.69l-1.25,1.65a16.15,16.15,0,0,0-4.49-1.61,24,24,0,0,0-5.36-.52,17.92,17.92,0,0,0-8.23,1.75Q453.35,5.19,453.35,8a3,3,0,0,0,1.2,2.49A8.69,8.69,0,0,0,457.5,12c1.16.35,2.77.73,4.82,1.14,2.3.5,4.12.95,5.48,1.36a9.24,9.24,0,0,1,3.44,1.84,4.08,4.08,0,0,1,1.41,3.23q0,3.83-4,6a22.47,22.47,0,0,1-10.42,2.25ZM510.61,6.54,505.21,27l-2.5,0,1-4a13.85,13.85,0,0,1-4.92,3.11,18.61,18.61,0,0,1-6.54,1.18,14.2,14.2,0,0,1-8.52-2.17A7.09,7.09,0,0,1,480.56,19a10.63,10.63,0,0,1,2-6.3A13.38,13.38,0,0,1,488,8.27a19.18,19.18,0,0,1,7.9-1.69,15.65,15.65,0,0,1,7,1.27,7.22,7.22,0,0,1,3.76,3.82L508,6.57Zm-17.8,19a15.62,15.62,0,0,0,6.54-1.42,11.27,11.27,0,0,0,4.55-3.75A9.13,9.13,0,0,0,505.57,15,5.75,5.75,0,0,0,503,10c-1.68-1.18-4.06-1.74-7.11-1.7a15.47,15.47,0,0,0-6.54,1.43,11.42,11.42,0,0,0-4.56,3.77,9.06,9.06,0,0,0-1.66,5.31,5.77,5.77,0,0,0,2.53,5,12.09,12.09,0,0,0,7.12,1.7ZM523,20.85a5.35,5.35,0,0,0-.21,1.45c0,1.95,1.4,2.91,4.17,2.87A8.64,8.64,0,0,0,531.37,24l.79,1.44a11.2,11.2,0,0,1-5.84,1.44,7.78,7.78,0,0,1-4.56-1.09,3.63,3.63,0,0,1-1.64-3.16,5.3,5.3,0,0,1,.2-1.56L523.8,8l-5.06.06.42-1.68,5.05-.07,1.2-4.47,2.6,0-1.19,4.47,8.65-.12-.41,1.69L526.41,8Z"/><path class="cls-1" d="M528.72,166.17l.66-3.73h-6.31l-.67,3.73Zm.65-9.24.62-3.52h-5.32l-.62,3.52Zm-6.67-1.79.49-3.18.13-.11,3.19.11h2.19l3.23-.11.09.11-.5,2.36-.3,1.7-.34,2.36-.13.11-3.19-.11h-3.77l-.46,2.58h4.82l3.23-.11.09.11-.63,2.9-.19,1.1-.62,4.11H528.2l.26-1.45h-6.32l-.29,1.67h-1.78l.85-4.11Zm-5.86,4.8.46-2.63h-4.82l-.46,2.63Zm1.13-6.39h-4.82l-.43,2.42h4.82Zm-6.72,1.18.39-2.63.13-.11,2.64.11h.53l.14-.8a10.42,10.42,0,0,0,.24-2.11c2.24.17,2.54.33,2.49.61s-.26.38-1,.52l-.32,1.78h.72l2.68-.11.09.11-.55,2.63-.71,4-.39,2.64-.13.1-2.64-.1h-3.82l-.84,4.68c1.6-.24,3.2-.52,4.78-.85a17.08,17.08,0,0,0-1.33-1.83l1.5-.83a18.75,18.75,0,0,1,3.06,4.58l-1.73,1a14.54,14.54,0,0,0-.74-1.62c-2.49.6-5.1,1.15-8.23,1.76-.2.65-.41.9-.66.9s-.44-.49-.66-2.66a12.44,12.44,0,0,0,2-.16l.31-.06Zm5.34-7.87A42.78,42.78,0,0,1,510,153a3.58,3.58,0,0,0-1.06-1.23,33.21,33.21,0,0,0,6.51-6,6.07,6.07,0,0,0,.93-1.48c2.12.52,2.44.77,2.39,1s-.3.39-.9.39h-.2a27.24,27.24,0,0,1,3.51,3.15l-1.49,1.37A17.88,17.88,0,0,0,516.59,146.86Zm18.07,3-.32,2.47h-1.72l.57-3.21h-10l-.58,3.26h-1.71l.55-2.47.27-2.19.13-.11,3.2.11h2.41l.26-1.48a9.54,9.54,0,0,0,.18-2.11c2.42.13,2.71.33,2.67.6s-.27.41-1,.57l-.43,2.42h2.71l3.23-.11.1.11Zm-42-2.11h-3.82c-.49,1.37-1.07,2.74-1.7,4.08h4.71l.83-.77H493c1.08,1.1,1.29,1.32,1.24,1.6s-.17.46-1,.71c-2.11,8.11-5.39,12-13.76,15.35a2.93,2.93,0,0,0-.84-1.34c4.35-1.56,7.3-3.51,9.34-6.09a14.1,14.1,0,0,0-3.83-2.9l1.2-1.32a20.7,20.7,0,0,1,3.78,2.58,22.17,22.17,0,0,0,2.43-6.37h-5.18a30,30,0,0,1-5.1,6.92,3.48,3.48,0,0,0-1.09-1.07A28.56,28.56,0,0,0,487,147.77h-1.74l-3.34.1.29-1.67,3.31.11h7.42l3.34-.11-.29,1.67Zm6.25,1.31-1.71,9.6-.62,4.11h-1.91l.84-4.11,1.55-8.72a9.49,9.49,0,0,0,.18-2.11c2.41.16,2.66.36,2.61.63S499.53,148.84,498.91,149.08Zm7.52-3.34c0,.22-.27.41-1,.57l-2.78,15.63-.69,4.47c-.28,1.87-.8,2.61-4,2.61h-1a4.79,4.79,0,0,0-.44-1.92,17.85,17.85,0,0,0,2.58.16.91.91,0,0,0,1-.87l3.41-19.14a10.22,10.22,0,0,0,.18-2.12C506.12,145.27,506.48,145.46,506.43,145.74Zm-44.74,1.75c-1.44,2.47-2.44,4.2-3.94,6.58,2.14,2.31,2.28,3.84,1.89,6a4.63,4.63,0,0,1-4.73,4,4.78,4.78,0,0,0-.54-1.81,3.51,3.51,0,0,0,.55,0c1.61,0,2.68-.58,3-2.25.36-2.06.2-3.46-2-5.6,1.87-3,2.93-4.9,4.26-7.4h-3.88L453,165.43l-.67,4.11h-1.83l.84-4.11,2.89-16.21.52-3.54.13-.11,3.19.11h2.38l.72-.6h.33c1,1,1.35,1.45,1.29,1.75S462.45,147.27,461.69,147.49Zm8.14,7.76h4.38l.46-2.57h-4.38Zm-.22,1.26-.51,2.86h4.38l.5-2.86Zm-5.11-3.83-.46,2.57h4.13l.46-2.57Zm-1.19,6.69h4.13l.51-2.86h-4.13Zm15.93-12-.28,1.59-4.13-.1H471l-.46,2.55h2.83l3.23-.11.09.11-.68,3.18-.51,2.9L475,160.6l-.14.17-3.19-.11h-2.3a11.4,11.4,0,0,0,6.72,5.48,7.59,7.59,0,0,0-1.39,1.73,13.64,13.64,0,0,1-6.16-6l-1.18,7.7h-1.88l1.56-7.7a23.33,23.33,0,0,1-9.76,6.31,5,5,0,0,0-.88-1.46,21.59,21.59,0,0,0,10-6.08h-1.8l-3.23.11-.08-.17.67-3.13.51-2.9.46-3.18.13-.11,3.19.11h2.55l.45-2.55h-2.88l-4.17.1.28-1.59,4.14.11h2.88l.17-1a10,10,0,0,0,.17-2.17c2.53.08,2.75.27,2.69.58s-.37.41-1,.66l-.34,1.91h3.85Zm-40.39,9.55a3.16,3.16,0,0,1-2.94,2.49,2.07,2.07,0,0,1-2.07-2.49,3.15,3.15,0,0,1,3-2.47A2,2,0,0,1,438.85,156.9Zm-23.14,9.27.66-3.73h-6.32l-.66,3.73Zm.64-9.24.63-3.52h-5.32l-.62,3.52Zm-6.66-1.79.48-3.18.14-.11,3.19.11h2.19l3.23-.11.09.11-.5,2.36-.31,1.7-.33,2.36-.13.11-3.2-.11h-3.76l-.46,2.58h4.82l3.23-.11.09.11-.63,2.9-.19,1.1-.62,4.11h-1.83l.26-1.45h-6.32l-.3,1.67h-1.77l.84-4.11Zm-5.87,4.8.47-2.63h-4.82l-.46,2.63Zm1.14-6.39h-4.82l-.43,2.42h4.82Zm-6.72,1.18.39-2.63.13-.11,2.64.11h.52l.15-.8a10.36,10.36,0,0,0,.23-2.11c2.25.17,2.55.33,2.5.61s-.26.38-1,.52l-.32,1.78h.72l2.68-.11.09.11-.55,2.63-.72,4-.38,2.64-.13.1-2.64-.1h-3.82l-.84,4.68c1.6-.24,3.2-.52,4.78-.85a15.89,15.89,0,0,0-1.34-1.83l1.51-.83a18.75,18.75,0,0,1,3.06,4.58l-1.73,1a14.54,14.54,0,0,0-.74-1.62c-2.49.6-5.11,1.15-8.23,1.76-.2.65-.41.9-.66.9s-.44-.49-.66-2.66a12.22,12.22,0,0,0,2-.16l.32-.06Zm5.34-7.87A42.78,42.78,0,0,1,397,153a3.58,3.58,0,0,0-1.06-1.23,33.5,33.5,0,0,0,6.51-6,5.74,5.74,0,0,0,.92-1.48c2.13.52,2.44.77,2.39,1s-.29.39-.9.39h-.19a27.24,27.24,0,0,1,3.51,3.15l-1.49,1.37A18.23,18.23,0,0,0,403.58,146.86Zm18.07,3-.33,2.47h-1.71l.57-3.21h-10l-.58,3.26h-1.72l.55-2.47.28-2.19.13-.11,3.2.11h2.41l.26-1.48a10.19,10.19,0,0,0,.18-2.11c2.41.13,2.71.33,2.66.6s-.26.41-1,.57l-.44,2.42h2.72l3.23-.11.09.11Zm-35,17,2.13-12H388l-2.79.11.29-1.62,2.75.11h2.35l2.79-.11-.29,1.62-2.67-.11-1.24,7-.76,4.91c-.33,2.19-1.23,2.71-3.75,2.71H384a4.94,4.94,0,0,0-.43-1.92,13.7,13.7,0,0,0,2.1.17C386.33,167.79,386.52,167.54,386.63,166.91Zm-3.93-11.55,1.69-.16c-.14,2.82-.51,6.3-.93,9.27l-1.79.27.08-.47A63.3,63.3,0,0,0,382.7,155.36Zm-7.11-.16c1.85.14,2.54.16,2.56.52v.08c-.05.27-.31.47-1,.71-.9,4.75-1.95,7.38-3.84,10.21a3,3,0,0,0-1.38-.8c1.73-2.41,2.69-4.69,3.54-9.13A6.68,6.68,0,0,0,375.59,155.2Zm-3.7-1.81a9.51,9.51,0,0,0,1.22-2c1.82.76,2.28,1,2.22,1.34s-.27.44-.82.44c-.14,0-.28,0-.44,0-.65.82-1.28,1.59-1.92,2.36,1.17.14,1.28.3,1.23.55s-.37.41-1,.66l-2.28,12.83h-1.83l.84-4.11.87-4.86.72-3.43a30,30,0,0,1-3.16,3,3.87,3.87,0,0,0-1.16-1.13A32.39,32.39,0,0,0,371.89,153.39Zm3.75-6.75h-.39a33.63,33.63,0,0,1-5.86,4.14,3.89,3.89,0,0,0-.93-1.29,25.46,25.46,0,0,0,4.94-3.34,4.69,4.69,0,0,0,1.05-1.24c1.79.85,2.08,1.1,2,1.46S376.17,146.64,375.64,146.64Zm7.15-.82-.78,4.39h1.08l3.35-.11-.29,1.61-3.31-.1h-1.08l-2.45,13.79-.62,4.11h-1.94l.84-4.11,2.46-13.79H379l-3.35.1.29-1.61,3.3.11h1.09l.63-3.57a8.88,8.88,0,0,0,.14-2.06c2.31.14,2.82.36,2.77.63S383.49,145.65,382.79,145.82Zm.64.93,1.19-.9a12.78,12.78,0,0,1,1.95,1.94l-1.35,1.05A7.87,7.87,0,0,0,383.43,146.75Zm10.64.93-2.48-.11H390l-2.46.11.29-1.61,2.47.11h1.55l2.51-.11Zm-55,14.51.3-1.7,4.14.11h6.09a11.67,11.67,0,0,0,.51-1.76,7,7,0,0,0,0-1c2.53.22,2.79.33,2.73.66s-.38.44-1,.63c-.15.49-.29,1-.46,1.48h6.87l4.17-.11-.3,1.7-4.14-.11h-5.73c2,2.94,5.53,4.75,10.07,5.49a14.88,14.88,0,0,0-1.55,1.75,14.44,14.44,0,0,1-10.16-6.88c-2.34,4.28-6.76,6.08-12.37,6.94a5.38,5.38,0,0,0-.92-1.54c5.73-.6,9.61-2.33,11.58-5.76h-5.68Zm25.1-14.37-.3,1.7-4.14-.11h-6l-.44,2.52h4.23l4.18-.11-.31,1.7-4.13-.11H353l-.45,2.53h7.23l4.18-.11-.31,1.7-4.13-.11H343.47l-4.17.11.3-1.7,4.14.11h7l.45-2.53h-4l-4.17.11.3-1.7,4.13.11h4.05l.44-2.52h-5.84l-4.17.11.3-1.7,4.14.11h2.46a12.17,12.17,0,0,0-1.37-2.72l1.66-.65a11.42,11.42,0,0,1,1.73,3.37h4.85c.54-.88,1-1.65,1.35-2.3a5.73,5.73,0,0,0,.49-1.18c2.06.52,2.4.68,2.35,1s-.18.35-1,.52c-.45.66-.94,1.37-1.41,2H360ZM321.9,160.49l.14-.77a8.64,8.64,0,0,0,.17-2c.43.06.81.09,1.11.14a36.91,36.91,0,0,0,4.67-2.6h-8.11l-4.18.11.31-1.71,4.13.11h9.28l.83-.6h.33c1.19,1.26,1.42,1.65,1.37,1.92s-.41.47-1.6.6a43,43,0,0,1-5.42,2.58.2.2,0,0,1,.06.17c-.05.27-.27.41-1.06.63l-.25,1.45h7.25l4.18-.11-.32,1.76-4.13-.11H323.4l-.22,1.26-.53,3.45c-.34,2.2-1,2.72-4.28,2.72h-1.08a5.76,5.76,0,0,0-.42-2,23.75,23.75,0,0,0,2.79.16c.75,0,1-.16,1.13-.88l.84-4.71h-7.31l-4.17.11.31-1.76,4.13.11ZM316,145.44l1.73-.86a12.19,12.19,0,0,1,2.06,3.21l-1.85,1A12.78,12.78,0,0,0,316,145.44Zm7.25-.47,1.75-.8a15.06,15.06,0,0,1,1.71,3.46l-1.9.85A14.18,14.18,0,0,0,323.28,145Zm13.21,4.36.09.11-.62,2.85-.46,3.24h-1.86l.81-4.56h-20.1l-.83,4.64h-1.85l.7-3.32.4-2.85.13-.11,4,.11h12.32c1-1.15,2-2.47,2.6-3.37a10,10,0,0,0,.9-1.62c2.1.76,2.4,1.1,2.36,1.34s-.32.41-1.18.41a39.4,39.4,0,0,1-2.71,3.24h1.22ZM308,151.25l-.34,1.86-4.13-.11h-6.84a17.85,17.85,0,0,0,.36,3.13,15.76,15.76,0,0,0,4,7.62,17.36,17.36,0,0,0,2.27,2,27,27,0,0,0,2.72,1.7,8.76,8.76,0,0,0-1.79,1.81c-5-3.19-8.35-7.87-9-13.47a21.64,21.64,0,0,1-3,6c-2.28,3.15-5.63,5.78-11.09,7.84a4.06,4.06,0,0,0-1.14-1.51c5.1-1.73,8.55-4,10.82-7.27a23.12,23.12,0,0,0,3.34-7.87H288l-4.17.11.33-1.86,4.14.11h6.26c.1-.44.18-.91.27-1.37l.51-2.88a12.4,12.4,0,0,0,.22-2.5c2.65.22,3,.41,3,.74s-.36.47-1.08.63l-.68,3.82c-.09.52-.18,1-.3,1.56h7.39Zm-51,9.24.14-.77a8.56,8.56,0,0,0,.16-2c.43.06.82.09,1.11.14a37.79,37.79,0,0,0,4.68-2.6h-8.12l-4.17.11.3-1.71,4.14.11h9.27l.83-.6h.33c1.19,1.26,1.43,1.65,1.38,1.92s-.42.47-1.61.6a43,43,0,0,1-5.41,2.58.23.23,0,0,1,.05.17c-.05.27-.26.41-1.05.63l-.26,1.45h7.26l4.17-.11-.31,1.76-4.14-.11h-7.25l-.23,1.26-.53,3.45c-.34,2.2-1,2.72-4.28,2.72h-1.08a5.54,5.54,0,0,0-.42-2,23.79,23.79,0,0,0,2.8.16c.75,0,1-.16,1.12-.88l.84-4.71H249.5l-4.17.11.31-1.76,4.14.11Zm-5.88-15.05,1.73-.86a11.94,11.94,0,0,1,2.06,3.21l-1.84,1A12.53,12.53,0,0,0,251.21,145.44Zm7.26-.47,1.74-.8a15.1,15.1,0,0,1,1.72,3.46l-1.9.85A14.56,14.56,0,0,0,258.47,145Zm13.21,4.36.09.11-.62,2.85-.47,3.24h-1.85l.81-4.56H249.53l-.82,4.64h-1.86l.7-3.32.4-2.85.13-.11,4,.11h12.33a40.22,40.22,0,0,0,2.59-3.37,10,10,0,0,0,.9-1.62c2.11.76,2.41,1.1,2.36,1.34s-.32.41-1.18.41a39.4,39.4,0,0,1-2.71,3.24h1.22Zm-28.46,1.92-.33,1.86-4.14-.11h-6.84a17.85,17.85,0,0,0,.36,3.13,15.84,15.84,0,0,0,4,7.62,18.12,18.12,0,0,0,2.28,2,26.84,26.84,0,0,0,2.71,1.7,8.76,8.76,0,0,0-1.79,1.81c-5-3.19-8.35-7.87-9-13.47a21.92,21.92,0,0,1-3,6c-2.28,3.15-5.63,5.78-11.09,7.84a4.19,4.19,0,0,0-1.15-1.51c5.1-1.73,8.55-4,10.82-7.27a23.12,23.12,0,0,0,3.34-7.87h-6.2l-4.18.11.34-1.86,4.13.11h6.26c.11-.44.19-.91.27-1.37l.51-2.88a11.81,11.81,0,0,0,.23-2.5c2.64.22,3,.41,3,.74s-.36.47-1.08.63L232,149.8c-.09.52-.19,1-.31,1.56h7.4ZM208.8,166.91l2.13-12h-.72l-2.79.11.29-1.62,2.75.11h2.35l2.79-.11-.29,1.62-2.66-.11-1.24,7-.77,4.91c-.33,2.19-1.23,2.71-3.75,2.71h-.75a4.61,4.61,0,0,0-.43-1.92,13.79,13.79,0,0,0,2.1.17C208.51,167.79,208.69,167.54,208.8,166.91Zm-3.93-11.55,1.69-.16c-.14,2.82-.51,6.3-.93,9.27l-1.79.27.08-.47A63.3,63.3,0,0,0,204.87,155.36Zm-7.11-.16c1.86.14,2.54.16,2.56.52v.08c-.05.27-.31.47-1,.71-.9,4.75-1.95,7.38-3.83,10.21a3.07,3.07,0,0,0-1.39-.8c1.73-2.41,2.69-4.69,3.54-9.13A6.68,6.68,0,0,0,197.76,155.2Zm-3.7-1.81a9.11,9.11,0,0,0,1.22-2c1.83.76,2.28,1,2.23,1.34s-.28.44-.83.44c-.14,0-.27,0-.44,0-.64.82-1.28,1.59-1.92,2.36,1.17.14,1.28.3,1.24.55s-.38.41-1,.66l-2.28,12.83h-1.83l.85-4.11.86-4.86.72-3.43a30,30,0,0,1-3.16,3,3.84,3.84,0,0,0-1.15-1.13A32.66,32.66,0,0,0,194.06,153.39Zm3.75-6.75h-.39a33.63,33.63,0,0,1-5.86,4.14,3.75,3.75,0,0,0-.93-1.29,25.46,25.46,0,0,0,4.94-3.34,4.69,4.69,0,0,0,1.05-1.24c1.79.85,2.08,1.1,2,1.46S198.34,146.64,197.81,146.64Zm7.16-.82-.78,4.39h1.07l3.35-.11-.29,1.61-3.3-.1h-1.08l-2.46,13.79-.62,4.11h-1.94l.84-4.11,2.46-13.79h-1.08l-3.34.1.28-1.61,3.31.11h1.08l.63-3.57a9.52,9.52,0,0,0,.15-2.06c2.3.14,2.81.36,2.77.63S205.66,145.65,205,145.82Zm.63.93,1.19-.9a12.78,12.78,0,0,1,2,1.94l-1.35,1.05A7.87,7.87,0,0,0,205.6,146.75Zm10.64.93-2.47-.11h-1.61l-2.46.11.29-1.61,2.47.11H214l2.52-.11Zm-34.7,9.77a26.88,26.88,0,0,1,.51-5h-2a19.24,19.24,0,0,1-1.15,3.54,21.67,21.67,0,0,1,1.79,1.89L179.44,159a11.45,11.45,0,0,0-1.34-1.61,10.37,10.37,0,0,1-4.07,3.53,2.63,2.63,0,0,0-.72-1.23,8,8,0,0,0,3.79-3.24,19.81,19.81,0,0,0-1.83-1.37l1-1a16.6,16.6,0,0,1,1.51,1,20.17,20.17,0,0,0,.74-2.6h-.11l-3.1.11.26-1.43,3,.11h.14l.06-.3a10,10,0,0,0,.23-2.08c2.3.16,2.47.3,2.42.54s-.26.39-.95.53l-.23,1.31h2l.78-.66h.33c.95.91,1.15,1.18,1.11,1.43s-.26.36-.95.63a20.49,20.49,0,0,0-.46,4.77c.11,1,.56,1.56,1,1.56s.83-.63,1.28-2.35a3.8,3.8,0,0,0,1.19.76c-.67,2.2-1.56,3.16-2.8,3.16S181.62,159.31,181.54,157.45Zm.42,4-.25,1.43-4.14-.11h-9.41l-4.18.11.26-1.43,4.13.11h9.42Zm-4.27,5.62-1.25-.74,1.17-1h-8c-.57.69-1.11,1.4-1.7,2.06C171.19,167.35,174.45,167.26,177.69,167.07Zm2.94-2.93,4.17-.11-.26,1.45-4.13-.11h-2.77a34.27,34.27,0,0,1,5.12,3.24l-1.38,1.07a19.44,19.44,0,0,0-2.1-1.57c-5.36.41-10,.63-16.71.83-.19.44-.35.74-.63.74s-.5-.28-.75-2.31c.71.06,1.31.11,2,.11,1,0,2,0,2.94,0,.6-.69,1.19-1.38,1.73-2.09h-3.68l-4.18.11.26-1.45,4.14.11Zm-17.07-4.8,3.26-.08.24-1.37h-.89l-2.81.08.23-1.29,2.78.08h.89a10.21,10.21,0,0,0,.12-1.59c2.05.14,2.3.27,2.26.52s-.2.33-.83.47l-.11.6h1l3.2-.08-.23,1.29-3.17-.08h-1l-.23,1.28c1.51-.08,3.11-.19,4.86-.35l0,.19a5.71,5.71,0,0,1-.17,1c-3.45.38-6.5.55-10.13.77-.17.44-.32.71-.6.71s-.46-.22-.62-2.14c.38,0,.72,0,1.05,0Zm24.82-13.41-.28,1.56-4.13-.11h-3.8l-.13,1.21h-1.77l.3-1.21h-6.29l-.13,1.21h-1.33a.16.16,0,0,1,.08.16c0,.22-.21.39-.87.52l-.1.58h.86l3.34-.08-.24,1.31-3.31-.08h-.85l-.22,1.24h2.16l3.06-.11-.24,1.34-3-.11h-.34l-.15.85c-.08.49,0,.55.71.55,1.16,0,1.35-.14,1.5-1a3.17,3.17,0,0,0,1.2.44c-.37,1.48-1,1.65-2.9,1.65s-2.15-.06-1.89-1.51l.18-1h-2.36c-.57,1.81-2.29,2.77-4.78,3.21a3.16,3.16,0,0,0-.61-1.23c2.25-.22,3.46-.77,3.87-2h-.28l-2.93.11.24-1.34,2.89.11H168l.22-1.24h-.81l-3.2.08.24-1.31,3.17.08h.8a6.5,6.5,0,0,0,.14-1.53,17,17,0,0,1,1.8.16l.27-1.1h-3.76l-4.18.11.28-1.56,4.14.11h3.76a8.24,8.24,0,0,0,.15-1.92c2.33.14,2.63.33,2.58.6s-.26.39-1,.52l-.14.8h6.29a8.82,8.82,0,0,0,.15-1.92c2.32.14,2.62.33,2.57.6s-.26.39-1,.52l-.15.8h3.8Zm-32.31,20.13-1.58,1.45a23.44,23.44,0,0,0-6-4.69l1.34-1.18A30.87,30.87,0,0,1,156.07,166.06Zm-3.9-8.4.77-4.33H139.45l-.77,4.33Zm-9.3,9.17,1.36-7.68h-3.82l-3.76.11-.1-.09.54-2.38.47-2.63.31-2.36.13-.11,3.74.13h9.45l3.79-.13.09.11-.53,2.36-.47,2.63-.31,2.36-.13.11-3.75-.11h-3.82l-.74,4.14-.52,3.54c-.32,2.13-1.17,2.71-4.22,2.71h-1a5.91,5.91,0,0,0-.41-2.06,17.65,17.65,0,0,0,2.57.22C142.57,167.7,142.75,167.46,142.87,166.83Zm-4-5.3c1.7,1,1.94,1.24,1.89,1.48s-.31.33-.75.33a2.27,2.27,0,0,1-.44,0,21.5,21.5,0,0,1-7.6,4.42,3,3,0,0,0-.79-1.43,18.84,18.84,0,0,0,6.49-3.48A6.54,6.54,0,0,0,138.91,161.53Zm20.61-14.2-.31,1.75-4.14-.11H138.79l-4.18.11.32-1.75,4.13.11h7.2l.19-1.07a10.07,10.07,0,0,0,.16-2.11c2.48.19,2.9.35,2.85.63s-.31.46-1,.63l-.34,1.92h7.26Zm-41.3,7.76h6.87l.49-2.74h-6.87ZM118,156.4l-.52,2.94h6.87l.52-2.94Zm-7.2-4.05-.49,2.74h6.18l.49-2.74Zm-1.24,7h6.17l.53-2.94h-6.18ZM131.46,147l-.29,1.64-4.14-.11h-7.64L119,151h5.4l3.24-.11.09.11-.68,3.18-.59,3.32-.45,3.13-.14.16-3.19-.11h-4.49c2.31,3.21,5.8,5.1,10.28,5.9a19.83,19.83,0,0,0-1.42,1.75c-4.42-1.29-7.68-3.23-10-6.85l-1.22,8.09h-2l1.6-7.9a28.7,28.7,0,0,1-11.93,7,11,11,0,0,0-.9-1.45,26.31,26.31,0,0,0,12-6.5h-4l-3.07.11-.08-.16.67-3.13.59-3.32.46-3.18.13-.11,3.19.11h4.71l.43-2.44h-7.2l-4.17.11.29-1.64,4.14.11h7.2l.12-.69a10.57,10.57,0,0,0,.16-2.17c2.54.09,2.83.28,2.78.58s-.38.41-1,.66l-.29,1.62h7.65Z"/><path class="cls-1" d="M526.91,197a8.32,8.32,0,0,1-2.08,2.37,4,4,0,0,1-2.3.65,4.6,4.6,0,0,1-1.66-.29,2.84,2.84,0,0,1-1.22-.79l.87-1.2a2.86,2.86,0,0,0,2.15.88,2.53,2.53,0,0,0,1.45-.44,5.19,5.19,0,0,0,1.34-1.52l.85-1.29-3-12.06H525l2.51,10.33,6.62-10.33h1.68Zm-4.77-12.19-.46,0a4.6,4.6,0,0,0-3.22,1.13,5.84,5.84,0,0,0-1.69,3.36l-1.23,6.16h-1.63l2.4-12.13h1.56l-.41,2.21a5,5,0,0,1,2-1.74,7.06,7.06,0,0,1,3-.56Zm-12.84.72a4,4,0,0,0-2.77-.93,4.65,4.65,0,0,0-3.11,1.09,5.4,5.4,0,0,0-1.75,2.92h8.64a2.51,2.51,0,0,0,0-.44A3.4,3.4,0,0,0,509.3,185.49Zm2.4,4.3H501.51a2.93,2.93,0,0,0,0,.49,3.62,3.62,0,0,0,1,2.81,4.45,4.45,0,0,0,3.13,1,6.11,6.11,0,0,0,2.24-.41,4.45,4.45,0,0,0,1.72-1.11l.74,1.17a5.89,5.89,0,0,1-2.13,1.33,7.92,7.92,0,0,1-2.71.47,5.92,5.92,0,0,1-4.14-1.38,4.85,4.85,0,0,1-1.51-3.78,7.71,7.71,0,0,1,.87-3.67,6.44,6.44,0,0,1,2.39-2.57,6.51,6.51,0,0,1,3.45-.93,5.35,5.35,0,0,1,3.85,1.37,5,5,0,0,1,1.43,3.77A8,8,0,0,1,511.7,189.79Zm-16.28,5.61h-1.63l3.41-17.11h1.63Zm-6.2,0h-1.64L491,178.29h1.63Zm-7.55-9.79a4.08,4.08,0,0,0-2.94-1,5,5,0,0,0-2.69.73,5.17,5.17,0,0,0-1.88,2,6.09,6.09,0,0,0-.68,2.91,3.63,3.63,0,0,0,1,2.77,4.12,4.12,0,0,0,2.94,1,5.05,5.05,0,0,0,2.69-.73,5,5,0,0,0,1.88-2,6.21,6.21,0,0,0,.68-2.91A3.66,3.66,0,0,0,481.67,185.61ZM483,195.4h-1.57l.4-1.92a6.06,6.06,0,0,1-2.08,1.5,6.53,6.53,0,0,1-2.65.53,5.89,5.89,0,0,1-2.74-.62,4.54,4.54,0,0,1-1.87-1.79,5.31,5.31,0,0,1-.67-2.73,7.63,7.63,0,0,1,.89-3.69,6.59,6.59,0,0,1,2.45-2.57,6.77,6.77,0,0,1,3.51-.93,5.73,5.73,0,0,1,2.9.68,3.93,3.93,0,0,1,1.71,1.95l.5-2.54h1.64Zm-13.85-12.89a5,5,0,0,0-2-1.42,8.94,8.94,0,0,0-7.08.64,7.47,7.47,0,0,0-2.85,2.92,8.5,8.5,0,0,0-1,4.08,5,5,0,0,0,1.56,3.85,6.36,6.36,0,0,0,4.48,1.43,7,7,0,0,0,4.13-1.27l1.08-5.41h1.64l-1.25,6.2a8.27,8.27,0,0,1-2.64,1.47,9.21,9.21,0,0,1-3.14.53,9.08,9.08,0,0,1-4-.83,6,6,0,0,1-2.6-2.35,6.78,6.78,0,0,1-.9-3.52,10,10,0,0,1,1.21-4.89,9,9,0,0,1,3.45-3.52,10.16,10.16,0,0,1,5.18-1.3,9.72,9.72,0,0,1,3.56.61,5.84,5.84,0,0,1,2.44,1.74Zm-24.16,6-1.38,6.9H442l1.38-6.92a6.2,6.2,0,0,0,.12-1.11,2.55,2.55,0,0,0-.8-2,3.43,3.43,0,0,0-2.34-.71,4.78,4.78,0,0,0-3.22,1.08,5.4,5.4,0,0,0-1.71,3.17l-1.29,6.5h-1.64l2.4-12.13h1.57l-.39,1.94a5.88,5.88,0,0,1,4.75-2,4.54,4.54,0,0,1,3.19,1,3.73,3.73,0,0,1,1.14,2.89A7.69,7.69,0,0,1,445,188.5Zm-18.43-2.89a4.08,4.08,0,0,0-2.94-1,5.06,5.06,0,0,0-2.7.73,5.22,5.22,0,0,0-1.87,2,6.09,6.09,0,0,0-.68,2.91,3.66,3.66,0,0,0,1,2.77,4.12,4.12,0,0,0,2.94,1,5.06,5.06,0,0,0,2.7-.73,5,5,0,0,0,1.88-2,6.21,6.21,0,0,0,.68-2.91A3.66,3.66,0,0,0,426.58,185.61Zm1.35,9.79h-1.57l.39-1.92a5.93,5.93,0,0,1-2.07,1.5,6.53,6.53,0,0,1-2.65.53,6,6,0,0,1-2.75-.62,4.52,4.52,0,0,1-1.86-1.79,5.31,5.31,0,0,1-.67-2.73,7.63,7.63,0,0,1,.89-3.69,6.59,6.59,0,0,1,2.45-2.57,6.75,6.75,0,0,1,3.51-.93,5.73,5.73,0,0,1,2.9.68,4,4,0,0,1,1.71,1.95l.5-2.54h1.64Zm-11.25-12.13-6.41,5,4.36,7.13h-1.91L409,189.26l-3.39,2.63-.69,3.51h-1.64l3.42-17.11h1.63l-2.3,11.5,8.34-6.52Zm-18,12.13h-1.57l.39-1.94a5.75,5.75,0,0,1-4.68,2,4.51,4.51,0,0,1-3.17-1,3.76,3.76,0,0,1-1.14-2.91,7.3,7.3,0,0,1,.14-1.36l1.38-6.92h1.64l-1.38,6.92a6.09,6.09,0,0,0-.12,1.08,2.68,2.68,0,0,0,.77,2,3.31,3.31,0,0,0,2.32.72,4.76,4.76,0,0,0,3.2-1.09,5.43,5.43,0,0,0,1.71-3.16l1.29-6.52h1.64Zm-13.12-9.78a5.07,5.07,0,0,0-1.62-.77,7,7,0,0,0-1.93-.27,4.71,4.71,0,0,0-2.58.6,1.83,1.83,0,0,0-.92,1.62,1.28,1.28,0,0,0,.39,1,2.53,2.53,0,0,0,1,.55c.39.12.93.25,1.6.39.83.19,1.5.37,2,.54a3.24,3.24,0,0,1,1.32.87,2.27,2.27,0,0,1,.56,1.61,3.19,3.19,0,0,1-1.47,2.78,6.75,6.75,0,0,1-3.9,1,9.44,9.44,0,0,1-2.78-.41,5.56,5.56,0,0,1-2-1.06l.78-1.3a5.14,5.14,0,0,0,1.82,1,7.55,7.55,0,0,0,2.38.37,5.24,5.24,0,0,0,2.66-.56,1.78,1.78,0,0,0,.93-1.61,1.16,1.16,0,0,0-.38-.92,2.63,2.63,0,0,0-.93-.53c-.37-.12-.91-.26-1.61-.41a17.11,17.11,0,0,1-2-.56,3.18,3.18,0,0,1-1.34-.87,2.35,2.35,0,0,1-.56-1.66,3.25,3.25,0,0,1,1.43-2.76,6.48,6.48,0,0,1,3.83-1,8.38,8.38,0,0,1,2.29.31,5.54,5.54,0,0,1,1.81.82Zm-10.44-2.35-.28,1.38h-3.68l-1.41,7.08a5.69,5.69,0,0,0-.09.76c0,1.08.58,1.61,1.75,1.61a3,3,0,0,0,1.86-.62l.4,1.25a4.37,4.37,0,0,1-2.7.78,3,3,0,0,1-2.15-.74,2.62,2.62,0,0,1-.8-2,4.69,4.69,0,0,1,.09-.94l1.41-7.15h-2.14l.25-1.38h2.17l.53-2.65H372l-.53,2.65Zm-12.61,2.22a4,4,0,0,0-2.76-.93,4.66,4.66,0,0,0-3.12,1.09,5.4,5.4,0,0,0-1.75,2.92h8.65c0-.11,0-.25,0-.44A3.4,3.4,0,0,0,362.51,185.49Zm2.4,4.3H354.72c0,.11,0,.27,0,.49a3.62,3.62,0,0,0,1.05,2.81,4.42,4.42,0,0,0,3.12,1,6.2,6.2,0,0,0,2.25-.41,4.41,4.41,0,0,0,1.71-1.11l.74,1.17a5.89,5.89,0,0,1-2.13,1.33,7.88,7.88,0,0,1-2.71.47,5.92,5.92,0,0,1-4.14-1.38,4.89,4.89,0,0,1-1.51-3.78,7.71,7.71,0,0,1,.87-3.67,6.44,6.44,0,0,1,2.39-2.57,6.56,6.56,0,0,1,3.45-.93,5.35,5.35,0,0,1,3.85,1.37,5,5,0,0,1,1.43,3.77A7.24,7.24,0,0,1,364.91,189.79Zm-12.72-5-.47,0a4.6,4.6,0,0,0-3.21,1.13,5.91,5.91,0,0,0-1.7,3.36l-1.22,6.16H344l2.39-12.13h1.57l-.41,2.21a5,5,0,0,1,2-1.74,7.12,7.12,0,0,1,3-.56Zm-11.32,3.73-1.39,6.9h-1.63l1.38-6.92a6.2,6.2,0,0,0,.12-1.11,2.55,2.55,0,0,0-.8-2,3.43,3.43,0,0,0-2.34-.71,4.81,4.81,0,0,0-3.23,1.08,5.44,5.44,0,0,0-1.7,3.17L330,195.4h-1.64l2.4-12.13h1.57l-.4,1.94a5.9,5.9,0,0,1,4.75-2,4.53,4.53,0,0,1,3.19,1,3.69,3.69,0,0,1,1.14,2.89A7.63,7.63,0,0,1,340.87,188.5Zm-17.08,6.9h-1.64l2.4-12.13h1.63Zm3.2-15.15a1.24,1.24,0,0,1-.92.37,1.08,1.08,0,0,1-1.11-1.08,1.2,1.2,0,0,1,.36-.89,1.23,1.23,0,0,1,.91-.36,1.17,1.17,0,0,1,.81.31,1,1,0,0,1,.32.73A1.22,1.22,0,0,1,327,180.25Zm-7.93,8.25-1.38,6.9H316l1.38-6.92a6.2,6.2,0,0,0,.12-1.11,2.55,2.55,0,0,0-.8-2,3.43,3.43,0,0,0-2.34-.71,4.78,4.78,0,0,0-3.22,1.08,5.4,5.4,0,0,0-1.71,3.17l-1.29,6.5h-1.64L310,178.29h1.63l-1.36,6.8a5.87,5.87,0,0,1,4.64-1.91,4.54,4.54,0,0,1,3.19,1,3.73,3.73,0,0,1,1.14,2.89A7.69,7.69,0,0,1,319.06,188.5Zm-14.34-6a5.69,5.69,0,0,0-4.68-1.89,8,8,0,0,0-4.19,1.1,7.49,7.49,0,0,0-2.81,2.94,8.32,8.32,0,0,0-1,4,5,5,0,0,0,1.56,3.85A6.31,6.31,0,0,0,298,194a7,7,0,0,0,5.12-1.91l1,1.13a6.89,6.89,0,0,1-2.7,1.7,10.21,10.21,0,0,1-3.55.6,9.11,9.11,0,0,1-4.06-.84,6,6,0,0,1-2.59-2.35,6.83,6.83,0,0,1-.89-3.51,10.07,10.07,0,0,1,1.21-4.89,9,9,0,0,1,3.45-3.52,10.14,10.14,0,0,1,5.16-1.3,9.22,9.22,0,0,1,3.44.61,5.15,5.15,0,0,1,2.3,1.74Z"/><path class="cls-1" d="M359.56,217.78l-1.11,5.62h-1.32l1.08-5.49a2.83,2.83,0,0,0-.31-2.31,2.4,2.4,0,0,0-2-.79,4,4,0,0,0-2.68.93,4.29,4.29,0,0,0-1.43,2.57l-1,5.09h-1.32l1.9-9.7h1.27l-.35,1.79a4.7,4.7,0,0,1,1.77-1.37,5.36,5.36,0,0,1,2.32-.49,3.31,3.31,0,0,1,2.72,1.06A3.6,3.6,0,0,1,359.56,217.78Zm-13.29.11a7.07,7.07,0,0,1-2.22,4.19,6.34,6.34,0,0,1-4.22,1.43,4.42,4.42,0,0,1-3.67-1.43c-.76-1-1-2.36-.59-4.19l1.44-7.4h1.38L337,217.83a4.28,4.28,0,0,0,.37,3.36,3.17,3.17,0,0,0,2.75,1.11,4.61,4.61,0,0,0,3.19-1.11,5.83,5.83,0,0,0,1.68-3.36l1.44-7.34h1.34Zm-20.75-1.31a2.52,2.52,0,0,0-1-1.34,3.28,3.28,0,0,0-1.78-.47,4.26,4.26,0,0,0-2,.47,4.48,4.48,0,0,0-1.57,1.34,4.79,4.79,0,0,0-.86,2,3.63,3.63,0,0,0,.09,2,2.52,2.52,0,0,0,1,1.33,3.17,3.17,0,0,0,1.78.47,4.17,4.17,0,0,0,2-.47,4.42,4.42,0,0,0,1.56-1.33,4.89,4.89,0,0,0,.85-2A3.7,3.7,0,0,0,325.52,216.58Zm1.42,2a6,6,0,0,1-1.14,2.55,6.22,6.22,0,0,1-2.12,1.76,5.93,5.93,0,0,1-2.68.63,4.53,4.53,0,0,1-2.43-.63,3.56,3.56,0,0,1-1.44-1.76,4.51,4.51,0,0,1-.15-2.55,5.94,5.94,0,0,1,1.15-2.54,6,6,0,0,1,2.13-1.75,5.89,5.89,0,0,1,2.67-.63,4.48,4.48,0,0,1,2.43.63A3.36,3.36,0,0,1,326.8,216,4.58,4.58,0,0,1,326.94,218.55Zm-17.29,6a6,6,0,0,1-1.76,1.94,3.61,3.61,0,0,1-2,.57,3.47,3.47,0,0,1-1.28-.22,2.26,2.26,0,0,1-.93-.66l.81-1a2,2,0,0,0,1.64.74,2.19,2.19,0,0,0,1.22-.37,4.64,4.64,0,0,0,1.13-1.26l.61-.94-2.48-9.68H308l2.07,8.25,5.31-8.25h1.3Zm-4-10.86-5,4,3.46,5.73h-1.62l-3-4.87-2.73,2.11-.54,2.76H295l2.68-13.68H299L297.17,219l6.88-5.3Zm-14.25,2.88a2.49,2.49,0,0,0-1-1.34,3.24,3.24,0,0,0-1.77-.47,4.3,4.3,0,0,0-2,.47,4.67,4.67,0,0,0-1.57,1.34,5.07,5.07,0,0,0-.86,2,3.83,3.83,0,0,0,.09,2,2.52,2.52,0,0,0,1,1.33,3.2,3.2,0,0,0,1.78.47,4.21,4.21,0,0,0,2-.47,4.39,4.39,0,0,0,1.55-1.33,4.91,4.91,0,0,0,.86-2A3.8,3.8,0,0,0,291.44,216.58Zm1.42,2a6.15,6.15,0,0,1-1.14,2.55,6.25,6.25,0,0,1-2.13,1.76,5.89,5.89,0,0,1-2.67.63,4.48,4.48,0,0,1-2.43-.63,3.46,3.46,0,0,1-1.44-1.76,4.6,4.6,0,0,1-.16-2.55,6.11,6.11,0,0,1,3.28-4.29,5.93,5.93,0,0,1,2.68-.63,4.53,4.53,0,0,1,2.43.63,3.39,3.39,0,0,1,1.43,1.75A4.67,4.67,0,0,1,292.86,218.55Zm-9.92-6.88h-4.58l-2.3,11.73h-1.38l2.3-11.73H272.4l.23-1.18h10.54Zm-19.33,10.81a2.08,2.08,0,0,1-.16.48c-.08.17-.18.37-.31.59l-1.28,2.55H261l1.16-2.68a.68.68,0,0,1-.42-.34.86.86,0,0,1-.06-.6,1.2,1.2,0,0,1,.41-.71,1.17,1.17,0,0,1,.77-.29.79.79,0,0,1,.65.29A.86.86,0,0,1,263.61,222.48Zm-4.18-4.7-1.1,5.62H257l1.08-5.49a2.92,2.92,0,0,0-.28-2.31,2.23,2.23,0,0,0-1.93-.79,3.77,3.77,0,0,0-2.58.93,4.39,4.39,0,0,0-1.38,2.57l-1,5.09h-1.32l1.08-5.49a2.92,2.92,0,0,0-.29-2.31,2.23,2.23,0,0,0-1.94-.79,3.78,3.78,0,0,0-2.57.93,4.41,4.41,0,0,0-1.39,2.57l-1,5.09h-1.32l1.9-9.7h1.27l-.35,1.77a4.67,4.67,0,0,1,1.72-1.36,5.2,5.2,0,0,1,2.24-.48,3.67,3.67,0,0,1,2,.52,2.44,2.44,0,0,1,1.05,1.53,5.07,5.07,0,0,1,1.85-1.51,5.47,5.47,0,0,1,2.42-.54,3.25,3.25,0,0,1,2.69,1.05A3.65,3.65,0,0,1,259.43,217.78Zm-21.35,5.62h-1.27l.35-1.77a4.84,4.84,0,0,1-1.7,1.38,5,5,0,0,1-2.19.48,3.48,3.48,0,0,1-2.81-1.06,3.54,3.54,0,0,1-.5-3.1l1.1-5.63h1.32l-1.08,5.5a2.85,2.85,0,0,0,.31,2.32,2.4,2.4,0,0,0,2,.8,3.88,3.88,0,0,0,2.62-.94,4.41,4.41,0,0,0,1.4-2.59l1-5.09H240Zm-12.74-7.75a2.78,2.78,0,0,0-2.22-.9,4,4,0,0,0-2.55.9A4.41,4.41,0,0,0,219,218H226A2.91,2.91,0,0,0,225.34,215.65Zm1.79,2.9-.1.41h-8.2a2.86,2.86,0,0,0,.7,2.44,3.28,3.28,0,0,0,2.5.93,4.84,4.84,0,0,0,1.74-.32,4.92,4.92,0,0,0,1.51-.95l.58.85a5.45,5.45,0,0,1-1.87,1.18,6.13,6.13,0,0,1-2.23.4,4.81,4.81,0,0,1-2.54-.63,3.42,3.42,0,0,1-1.47-1.76,4.6,4.6,0,0,1-.16-2.55,6.26,6.26,0,0,1,1.12-2.54,6,6,0,0,1,2.06-1.75,5.52,5.52,0,0,1,2.57-.63,4.13,4.13,0,0,1,2.32.63A3.27,3.27,0,0,1,227,216,4.7,4.7,0,0,1,227.13,218.55Zm-11.69-3a4.29,4.29,0,0,0-2.73-.83,3.76,3.76,0,0,0-2,.45,1.69,1.69,0,0,0-.87,1.16.94.94,0,0,0,.19.88,1.65,1.65,0,0,0,.8.49,13.84,13.84,0,0,0,1.43.33,13.35,13.35,0,0,1,1.79.44,2.12,2.12,0,0,1,1.07.75,1.86,1.86,0,0,1,.21,1.48,3,3,0,0,1-1.47,2,5.85,5.85,0,0,1-3.11.74,6.89,6.89,0,0,1-2.22-.34,3.79,3.79,0,0,1-1.53-.85l.79-1a4.15,4.15,0,0,0,1.4.79,5.68,5.68,0,0,0,1.87.3,4.28,4.28,0,0,0,2.07-.41,1.71,1.71,0,0,0,.87-1.17.88.88,0,0,0-.19-.84,1.85,1.85,0,0,0-.8-.47,12.85,12.85,0,0,0-1.38-.3,16.32,16.32,0,0,1-1.83-.45,2.2,2.2,0,0,1-1.08-.78,1.91,1.91,0,0,1-.21-1.54,3,3,0,0,1,1.41-2,5.43,5.43,0,0,1,3-.77,6.72,6.72,0,0,1,1.85.25,4.19,4.19,0,0,1,1.44.65Zm-11.37,7.82H202.8l.35-1.77a4.84,4.84,0,0,1-1.7,1.38,5,5,0,0,1-2.19.48,3.48,3.48,0,0,1-2.81-1.06,3.54,3.54,0,0,1-.5-3.1l1.1-5.63h1.32l-1.08,5.5a2.85,2.85,0,0,0,.31,2.32,2.4,2.4,0,0,0,2,.8,3.88,3.88,0,0,0,2.62-.94,4.41,4.41,0,0,0,1.4-2.59l1-5.09H206Zm-13.17,0h-1.32l2-10.32-6.82,8.68h-.65l-3.43-8.63-2,10.27h-1.32l2.53-12.91H181l3.78,9.57,7.48-9.57h1.14Zm-20.58-9.7-.21,1.11h-3L166,220.6a1.62,1.62,0,0,0,.18,1.32,1.39,1.39,0,0,0,1.17.45,2.54,2.54,0,0,0,.81-.13,2.57,2.57,0,0,0,.74-.37l.28.94a3.25,3.25,0,0,1-1,.51,4,4,0,0,1-1.18.17,2.41,2.41,0,0,1-2-.73,2.47,2.47,0,0,1-.34-2.09l1.15-5.86h-1.75l.22-1.11H166l.42-2.12h1.32l-.42,2.12Zm-7.67,1.2-.31,0a3.79,3.79,0,0,0-2.6.94,4.63,4.63,0,0,0-1.4,2.64l-1,4.94h-1.33l1.9-9.7h1.27l-.37,1.9a4.24,4.24,0,0,1,1.68-1.47,5.37,5.37,0,0,1,2.37-.5Zm-13.25-3-4.49,6.94h6.26Zm2.95,11.49-.89-3.45H144.2L142,223.4h-1.43L149,210.49h1.36l3.43,12.91Zm-22.64,1.16A6.15,6.15,0,0,1,128,226.5a3.65,3.65,0,0,1-2,.57,3.47,3.47,0,0,1-1.28-.22,2.26,2.26,0,0,1-.93-.66l.81-1a2,2,0,0,0,1.64.74,2.19,2.19,0,0,0,1.22-.37,4.64,4.64,0,0,0,1.13-1.26l.61-.94-2.48-9.68h1.38l2.07,8.25,5.31-8.25h1.3ZM125.1,213.7l-.22,1.11h-3l-1.13,5.79a1.55,1.55,0,0,0,.18,1.32,1.39,1.39,0,0,0,1.17.45,2.54,2.54,0,0,0,.81-.13,2.7,2.7,0,0,0,.74-.37l.28.94a3.25,3.25,0,0,1-1,.51,4,4,0,0,1-1.18.17,2.1,2.1,0,0,1-2.32-2.82l1.15-5.86h-1.75l.22-1.11h1.75l.41-2.12h1.33l-.42,2.12Zm-10.49,9.7h-1.32l1.9-9.7h1.32ZM117,211.3a1.1,1.1,0,0,1-.74.28.76.76,0,0,1-.79-.94,1.13,1.13,0,0,1,.41-.64,1.1,1.1,0,0,1,.74-.28.8.8,0,0,1,.64.27.7.7,0,0,1,.15.63A1.13,1.13,0,0,1,117,211.3Zm-5.92,4.28a4.29,4.29,0,0,0-2.73-.83,3.76,3.76,0,0,0-2,.45,1.69,1.69,0,0,0-.87,1.16.94.94,0,0,0,.19.88,1.75,1.75,0,0,0,.8.49,13.84,13.84,0,0,0,1.43.33,14,14,0,0,1,1.8.44,2.13,2.13,0,0,1,1.06.75,1.86,1.86,0,0,1,.21,1.48,3,3,0,0,1-1.47,2,5.85,5.85,0,0,1-3.11.74,6.93,6.93,0,0,1-2.22-.34,3.79,3.79,0,0,1-1.53-.85l.8-1a4,4,0,0,0,1.39.79,5.7,5.7,0,0,0,1.88.3,4.26,4.26,0,0,0,2.06-.41,1.71,1.71,0,0,0,.87-1.17.88.88,0,0,0-.19-.84,1.79,1.79,0,0,0-.8-.47,12.85,12.85,0,0,0-1.38-.3,15.53,15.53,0,0,1-1.82-.45,2.18,2.18,0,0,1-1.09-.78,1.91,1.91,0,0,1-.21-1.54,3.07,3.07,0,0,1,1.41-2,5.43,5.43,0,0,1,3-.77,6.72,6.72,0,0,1,1.85.25,4.19,4.19,0,0,1,1.44.65Zm-8.53-.68-.31,0a3.84,3.84,0,0,0-2.61.94,4.56,4.56,0,0,0-1.39,2.64l-1,4.94H96l1.9-9.7h1.27l-.38,1.9a4.24,4.24,0,0,1,1.68-1.47,5.38,5.38,0,0,1,2.38-.5Zm-10.51.75a2.78,2.78,0,0,0-2.22-.9,4,4,0,0,0-2.55.9A4.43,4.43,0,0,0,85.74,218h7A2.91,2.91,0,0,0,92.06,215.65Zm1.78,2.9-.09.41h-8.2a2.86,2.86,0,0,0,.7,2.44,3.27,3.27,0,0,0,2.5.93,4.92,4.92,0,0,0,1.74-.32,4.76,4.76,0,0,0,1.5-.95l.58.85a5.32,5.32,0,0,1-1.86,1.18,6.16,6.16,0,0,1-2.23.4,4.87,4.87,0,0,1-2.55-.63,3.52,3.52,0,0,1-1.47-1.76,4.51,4.51,0,0,1-.15-2.55A6.13,6.13,0,0,1,85.43,216a6,6,0,0,1,2.06-1.75,5.49,5.49,0,0,1,2.57-.63,4.13,4.13,0,0,1,2.32.63A3.27,3.27,0,0,1,93.73,216,4.7,4.7,0,0,1,93.84,218.55ZM77.75,223.4H76.39L74,213.7h1.38l2,8.26,5.33-8.26H84Zm-7.93,0H68.5l1.9-9.7h1.32Zm2.41-12.1a1.13,1.13,0,0,1-.75.28.76.76,0,0,1-.78-.94,1.08,1.08,0,0,1,.41-.64,1.1,1.1,0,0,1,.74-.28.81.81,0,0,1,.64.27.7.7,0,0,1,.15.63A1.13,1.13,0,0,1,72.23,211.3Zm-6.6,6.48-1.1,5.62H63.21l1.07-5.49A2.79,2.79,0,0,0,64,215.6a2.38,2.38,0,0,0-2-.79,4,4,0,0,0-2.69.93,4.34,4.34,0,0,0-1.43,2.57l-1,5.09H55.51l1.91-9.7h1.26l-.35,1.79a4.86,4.86,0,0,1,1.77-1.37,5.39,5.39,0,0,1,2.32-.49,3.35,3.35,0,0,1,2.73,1.06A3.6,3.6,0,0,1,65.63,217.78Zm-13.28.11a7.08,7.08,0,0,1-2.23,4.19,6.32,6.32,0,0,1-4.22,1.43,4.42,4.42,0,0,1-3.67-1.43,5,5,0,0,1-.59-4.19l1.45-7.4h1.38L43,217.83a4.29,4.29,0,0,0,.36,3.36,3.18,3.18,0,0,0,2.75,1.11,4.63,4.63,0,0,0,3.2-1.11A6,6,0,0,0,51,217.83l1.44-7.34H53.8Zm-21.12-2.24a2.78,2.78,0,0,0-2.22-.9,4,4,0,0,0-2.55.9A4.43,4.43,0,0,0,24.91,218h7A2.91,2.91,0,0,0,31.23,215.65Zm1.78,2.9-.09.41h-8.2a2.86,2.86,0,0,0,.7,2.44,3.27,3.27,0,0,0,2.5.93,4.83,4.83,0,0,0,1.73-.32,4.7,4.7,0,0,0,1.51-.95l.58.85a5.32,5.32,0,0,1-1.86,1.18,6.16,6.16,0,0,1-2.23.4,4.85,4.85,0,0,1-2.55-.63,3.52,3.52,0,0,1-1.47-1.76,4.51,4.51,0,0,1-.15-2.55A6.13,6.13,0,0,1,24.6,216a5.86,5.86,0,0,1,2.06-1.75,5.49,5.49,0,0,1,2.57-.63,4.13,4.13,0,0,1,2.32.63A3.27,3.27,0,0,1,32.9,216,4.7,4.7,0,0,1,33,218.55Zm-12.36-.77-1.1,5.62H18.23l1.07-5.49A2.79,2.79,0,0,0,19,215.6a2.38,2.38,0,0,0-2-.79,4,4,0,0,0-2.69.93,4.34,4.34,0,0,0-1.43,2.57l-1,5.09H10.53l2.69-13.68h1.32l-1.12,5.68a4.83,4.83,0,0,1,1.75-1.31,5.52,5.52,0,0,1,2.27-.46,3.35,3.35,0,0,1,2.73,1.06A3.6,3.6,0,0,1,20.65,217.78Zm-10.11-6.11H6L3.66,223.4H2.28l2.3-11.73H0l.23-1.18H10.77Z"/><path class="cls-1" d="M534.82,215.58a4.26,4.26,0,0,0-2.72-.83,3.8,3.8,0,0,0-2,.45,1.75,1.75,0,0,0-.87,1.16,1,1,0,0,0,.19.88,1.74,1.74,0,0,0,.81.49,13.84,13.84,0,0,0,1.43.33,13.35,13.35,0,0,1,1.79.44,2.09,2.09,0,0,1,1.06.75,1.82,1.82,0,0,1,.22,1.48,3,3,0,0,1-1.47,2,5.86,5.86,0,0,1-3.12.74,6.87,6.87,0,0,1-2.21-.34,3.84,3.84,0,0,1-1.54-.85l.8-1a4.09,4.09,0,0,0,1.39.79,5.74,5.74,0,0,0,1.88.3,4.34,4.34,0,0,0,2.07-.41,1.71,1.71,0,0,0,.87-1.17.9.9,0,0,0-.19-.84,1.89,1.89,0,0,0-.81-.47,12.58,12.58,0,0,0-1.37-.3,15.27,15.27,0,0,1-1.83-.45,2.22,2.22,0,0,1-1.09-.78,1.91,1.91,0,0,1-.21-1.54,3,3,0,0,1,1.42-2,5.39,5.39,0,0,1,3-.77,6.77,6.77,0,0,1,1.85.25,4.19,4.19,0,0,1,1.44.65ZM526,213.7l-.22,1.11h-3l-1.13,5.79a1.59,1.59,0,0,0,.17,1.32,1.41,1.41,0,0,0,1.17.45,2.56,2.56,0,0,0,.82-.13,2.51,2.51,0,0,0,.73-.37l.28.94a3.25,3.25,0,0,1-1,.51,4,4,0,0,1-1.18.17,2.39,2.39,0,0,1-2-.73,2.44,2.44,0,0,1-.34-2.09l1.15-5.86h-1.75l.21-1.11h1.76l.41-2.12h1.32l-.41,2.12Zm-7.67,1.2-.31,0a3.84,3.84,0,0,0-2.61.94,4.62,4.62,0,0,0-1.39,2.64l-1,4.94h-1.32l1.9-9.7h1.27l-.37,1.9a4.15,4.15,0,0,1,1.67-1.47,5.38,5.38,0,0,1,2.38-.5Zm-13.25-3-4.49,6.94h6.26Zm2.94,11.49-.89-3.45H499.9l-2.24,3.45h-1.43l8.49-12.91h1.36l3.43,12.91Zm-19.18-7.75a2.78,2.78,0,0,0-2.22-.9,4,4,0,0,0-2.55.9,4.41,4.41,0,0,0-1.54,2.33h6.94A2.91,2.91,0,0,0,488.87,215.65Zm1.79,2.9-.1.41h-8.2a2.86,2.86,0,0,0,.7,2.44,3.28,3.28,0,0,0,2.5.93,4.84,4.84,0,0,0,1.74-.32,4.92,4.92,0,0,0,1.51-.95l.58.85a5.45,5.45,0,0,1-1.87,1.18,6.13,6.13,0,0,1-2.23.4,4.81,4.81,0,0,1-2.54-.63,3.42,3.42,0,0,1-1.47-1.76,4.6,4.6,0,0,1-.16-2.55,6.26,6.26,0,0,1,1.12-2.54,6,6,0,0,1,2.06-1.75,5.52,5.52,0,0,1,2.57-.63,4.13,4.13,0,0,1,2.32.63,3.27,3.27,0,0,1,1.35,1.74A4.79,4.79,0,0,1,490.66,218.55Zm-12.37-.77-1.1,5.62h-1.32l1.08-5.49a2.83,2.83,0,0,0-.32-2.31,2.38,2.38,0,0,0-2-.79,4.06,4.06,0,0,0-2.69.93,4.33,4.33,0,0,0-1.42,2.57l-1,5.09h-1.32l2.68-13.68h1.32l-1.11,5.68a4.71,4.71,0,0,1,1.74-1.31,5.52,5.52,0,0,1,2.27-.46,3.35,3.35,0,0,1,2.73,1.06A3.57,3.57,0,0,1,478.29,217.78Zm-11.62-4.08-.22,1.11h-3l-1.13,5.79a1.55,1.55,0,0,0,.18,1.32,1.39,1.39,0,0,0,1.17.45,2.54,2.54,0,0,0,.81-.13,2.7,2.7,0,0,0,.74-.37l.28.94a3.25,3.25,0,0,1-1,.51,4,4,0,0,1-1.18.17,2.1,2.1,0,0,1-2.32-2.82l1.15-5.86H460.4l.22-1.11h1.75l.41-2.12h1.32l-.41,2.12Zm-11.28-2.49a1.87,1.87,0,0,0-1.36-.48,2.08,2.08,0,0,0-1.39.46,2.39,2.39,0,0,0-.7,1.37l-.23,1.14h3l-.22,1.11h-3l-1.68,8.59h-1.32l1.68-8.59h-1.75l.22-1.11h1.75l.23-1.2a3.63,3.63,0,0,1,4.58-2.72,2.08,2.08,0,0,1,.79.45Zm-10.63,5.37a2.52,2.52,0,0,0-1-1.34,3.28,3.28,0,0,0-1.78-.47,4.26,4.26,0,0,0-2,.47,4.48,4.48,0,0,0-1.57,1.34,4.79,4.79,0,0,0-.86,2,3.63,3.63,0,0,0,.09,2,2.52,2.52,0,0,0,1,1.33,3.17,3.17,0,0,0,1.78.47,4.17,4.17,0,0,0,2-.47,4.51,4.51,0,0,0,1.56-1.33,4.89,4.89,0,0,0,.85-2A3.8,3.8,0,0,0,444.76,216.58Zm1.42,2A6,6,0,0,1,445,221.1a6.16,6.16,0,0,1-2.13,1.76,5.86,5.86,0,0,1-2.67.63,4.53,4.53,0,0,1-2.43-.63,3.56,3.56,0,0,1-1.44-1.76,4.51,4.51,0,0,1-.15-2.55,5.94,5.94,0,0,1,1.15-2.54,6,6,0,0,1,2.13-1.75,5.89,5.89,0,0,1,2.67-.63,4.48,4.48,0,0,1,2.43.63A3.36,3.36,0,0,1,446,216,4.58,4.58,0,0,1,446.18,218.55Zm-22.54,6a6.16,6.16,0,0,1-1.76,1.94,3.61,3.61,0,0,1-2,.57,3.47,3.47,0,0,1-1.28-.22,2.26,2.26,0,0,1-.93-.66l.8-1a2,2,0,0,0,1.65.74,2.16,2.16,0,0,0,1.21-.37,4.49,4.49,0,0,0,1.14-1.26l.61-.94-2.48-9.68H422l2.07,8.25,5.3-8.25h1.31ZM419,213.7l-.22,1.11h-3l-1.14,5.79a1.62,1.62,0,0,0,.18,1.32,1.41,1.41,0,0,0,1.17.45,2.6,2.6,0,0,0,.82-.13,2.64,2.64,0,0,0,.73-.37l.28.94a3.25,3.25,0,0,1-1,.51,4,4,0,0,1-1.18.17,2.09,2.09,0,0,1-2.31-2.82l1.15-5.86h-1.75l.21-1.11h1.75l.42-2.12h1.32l-.41,2.12Zm-10.49,9.7h-1.32l1.9-9.7h1.32ZM411,211.3a1.13,1.13,0,0,1-.75.28.76.76,0,0,1-.78-.94,1.11,1.11,0,0,1,.4-.64,1.13,1.13,0,0,1,.75-.28.77.77,0,0,1,.63.27.68.68,0,0,1,.16.63A1.13,1.13,0,0,1,411,211.3ZM405,215.58a4.26,4.26,0,0,0-2.72-.83,3.8,3.8,0,0,0-2,.45,1.75,1.75,0,0,0-.87,1.16,1,1,0,0,0,.19.88,1.74,1.74,0,0,0,.81.49,13.84,13.84,0,0,0,1.43.33,13.35,13.35,0,0,1,1.79.44,2.09,2.09,0,0,1,1.06.75,1.82,1.82,0,0,1,.22,1.48,3,3,0,0,1-1.47,2,5.86,5.86,0,0,1-3.12.74,6.87,6.87,0,0,1-2.21-.34,3.84,3.84,0,0,1-1.54-.85l.8-1a4.09,4.09,0,0,0,1.39.79,5.74,5.74,0,0,0,1.88.3,4.34,4.34,0,0,0,2.07-.41,1.71,1.71,0,0,0,.87-1.17.9.9,0,0,0-.19-.84,1.89,1.89,0,0,0-.81-.47,12.06,12.06,0,0,0-1.37-.3,15.78,15.78,0,0,1-1.83-.45,2.15,2.15,0,0,1-1.08-.78,2,2,0,0,1-.22-1.54,3,3,0,0,1,1.42-2,5.39,5.39,0,0,1,3-.77,6.77,6.77,0,0,1,1.85.25,4.19,4.19,0,0,1,1.44.65Zm-8.52-.68-.32,0a3.79,3.79,0,0,0-2.6.94,4.63,4.63,0,0,0-1.4,2.64l-1,4.94h-1.33l1.91-9.7h1.26l-.37,1.9a4.24,4.24,0,0,1,1.68-1.47,5.38,5.38,0,0,1,2.38-.5Zm-10.52.75a2.77,2.77,0,0,0-2.21-.9,4,4,0,0,0-2.55.9,4.43,4.43,0,0,0-1.55,2.33h6.95A2.88,2.88,0,0,0,386,215.65Zm1.79,2.9-.1.41h-8.19a2.89,2.89,0,0,0,.69,2.44,3.28,3.28,0,0,0,2.5.93,4.71,4.71,0,0,0,3.25-1.27l.58.85a5.5,5.5,0,0,1-1.86,1.18,6.2,6.2,0,0,1-2.23.4,4.82,4.82,0,0,1-2.55-.63,3.52,3.52,0,0,1-1.47-1.76,4.6,4.6,0,0,1-.16-2.55,6.28,6.28,0,0,1,1.13-2.54,5.86,5.86,0,0,1,2.06-1.75,5.46,5.46,0,0,1,2.57-.63,4.09,4.09,0,0,1,2.31.63,3.34,3.34,0,0,1,1.36,1.74A4.8,4.8,0,0,1,387.77,218.55Zm-16.09,4.85h-1.36l-2.44-9.7h1.38l2.05,8.26,5.32-8.26h1.31Zm-7.94,0h-1.32l1.9-9.7h1.33Zm2.41-12.1a1.1,1.1,0,0,1-.74.28.77.77,0,0,1-.64-.28.76.76,0,0,1-.15-.66A1.13,1.13,0,0,1,365,210a1.1,1.1,0,0,1,.74-.28.78.78,0,0,1,.64.27.74.74,0,0,1,.16.63A1.2,1.2,0,0,1,366.15,211.3Z"/></g></g></svg>