<svg xmlns="http://www.w3.org/2000/svg" viewBox="0 0 138 29.61"><defs><style>.cls-1{fill:none;stroke:#000;stroke-miterlimit:10;stroke-width:2px;}</style></defs><g id="レイヤー_2" data-name="レイヤー 2"><g id="图层_1" data-name="图层 1"><path d="M23.21,13.74H20.93L21.61,3,16.14,13.74H13.86l.51-13h2l-.62,10.53L21.09.73h2.35l-.68,10.53L28.22.73h2Z"/><path d="M28.47,13.74l3.74-13h9.62l-.51,1.78H33.67l-1,3.6h7.11l-.51,1.78H32.12L31,12H38.8l-.51,1.78Z"/><path d="M46.52,13.74H40.78l3.74-13h5.63c1.8,0,3.34.93,2.69,3.19a4.21,4.21,0,0,1-2.77,2.85c.55.14,2.33.64,1.59,3.21A5.26,5.26,0,0,1,46.52,13.74ZM48,7.8H44.46L43.27,12h3.51a2.88,2.88,0,0,0,2.87-2.11C50,8.69,49.44,7.8,48,7.8Zm1.07-5.29H46L45,6H48a2.47,2.47,0,0,0,2.63-1.76C51.08,2.85,50,2.51,49.05,2.51Z"/><path d="M62.69,12.65c.11-.27.15-.39.32-.93H58.18c-1.23,0-3.85.06-5,.2L53.75,10c1.88.09,3.77.16,5.69.16h4.13l2-6.81H61.22c-.68,0-3.65.06-4.26.07s-1.06.09-1.56.15L56,1.62c.58.06.89.07,1.35.09s2.64.05,3.09.05h4.17c.89,0,2.45,0,3.35-.05-.28.71-.92,2.8-1.14,3.56l-.86,3a41.45,41.45,0,0,0-1,4.36Z"/><path d="M69,13.26c-.06.07-.23.35-.28.41a.29.29,0,0,1-.23.1c-.12,0-.16-.07-.25-.43l-.43-1.85C70.63,11.12,77.85,8.32,82.5,4l.21,1.72C78,9.8,71.73,12.2,69,13.26Zm5.12-9.2A10.17,10.17,0,0,0,70.91,1.6L72.35,0a8.68,8.68,0,0,1,3.21,2.48Z"/><path d="M93.61,6.34h-.86a13.48,13.48,0,0,1-3.52,5.86,12.1,12.1,0,0,1-4.39,2.25L83.61,13A8.15,8.15,0,0,0,88,11.15c.8-.6,2-1.78,2.88-4.81H89c-1.57,0-3.14,0-4.75.16l.53-1.85c1.55.13,4,.16,4.66.16h4.64c.16,0,2.83,0,4.8-.16L98.32,6.5C96.77,6.38,95.19,6.34,93.61,6.34ZM94,1.89h-3A28.75,28.75,0,0,0,88,2.05l.57-2a28.12,28.12,0,0,0,3,.16h3A28.89,28.89,0,0,0,97.62.07l-.57,2A28.09,28.09,0,0,0,94,1.89Z"/><path d="M100.33,13.26c-.06.07-.23.35-.28.41a.28.28,0,0,1-.23.1c-.12,0-.15-.07-.25-.43l-.43-1.85C102,11.12,109.22,8.32,113.86,4l.21,1.72C109.4,9.8,103.09,12.2,100.33,13.26Zm5.12-9.2a10.05,10.05,0,0,0-3.18-2.46L103.72,0a8.6,8.6,0,0,1,3.2,2.48Z"/><path d="M130.28,2.19a30.25,30.25,0,0,1-5,6.68,24.12,24.12,0,0,1-7.65,4.78l-1.15-1.46a12.78,12.78,0,0,0,4.21-1.8,18.6,18.6,0,0,0,6.09-5.69A13.08,13.08,0,0,0,128.94.52l1.79.8c.31.14.44.25.4.39S131,1.92,130.28,2.19ZM117.82,5.43a9,9,0,0,0-.86-3.6l1.84-.62a8.81,8.81,0,0,1,.88,3.64Zm4.63-.85A7.26,7.26,0,0,0,121.7.86L123.59.3A7.55,7.55,0,0,1,124.35,4Z"/><line class="cls-1" y1="8.17" x2="138" y2="8.17"/><path d="M35.59,24.52l-.38,1.77H33.44l.39-1.77Z"/><path d="M40,24.52l-.38,1.77H37.86l.38-1.77Z"/><path d="M44.43,24.52l-.38,1.77H42.28l.38-1.77Z"/><path d="M52.61,19.49a1.8,1.8,0,0,0-1.27-.42,2.66,2.66,0,0,0-1.37.35,3.12,3.12,0,0,0-1,.91,3.85,3.85,0,0,0-.62,1.25,5,5,0,0,0-.2,1.35,3.85,3.85,0,0,0,.1.91,2,2,0,0,0,.34.75,1.77,1.77,0,0,0,.63.51,2.28,2.28,0,0,0,1,.19,2.52,2.52,0,0,0,1.5-.46,2.67,2.67,0,0,0,.9-1.23h1.35a3.77,3.77,0,0,1-1.33,2.13,3.89,3.89,0,0,1-2.42.73,3.24,3.24,0,0,1-2.53-.92,3.68,3.68,0,0,1-.85-2.61A6,6,0,0,1,47.09,21,5.11,5.11,0,0,1,48,19.43a4.22,4.22,0,0,1,3.38-1.55,3.4,3.4,0,0,1,2.22.68,2.72,2.72,0,0,1,.86,2.12H53.07A1.52,1.52,0,0,0,52.61,19.49Z"/><path d="M55.58,21.11a5,5,0,0,1,.9-1.66,4.5,4.5,0,0,1,1.45-1.14,4.18,4.18,0,0,1,1.93-.43,3.45,3.45,0,0,1,2.54.87,3.37,3.37,0,0,1,.88,2.53,6.3,6.3,0,0,1-.3,1.94,5.19,5.19,0,0,1-.89,1.66A4.43,4.43,0,0,1,60.66,26a4.18,4.18,0,0,1-1.93.43,3.9,3.9,0,0,1-1.45-.25,3.17,3.17,0,0,1-1.09-.71,3,3,0,0,1-.68-1.08,3.83,3.83,0,0,1-.24-1.37A6,6,0,0,1,55.58,21.11Zm1.61,3.56a2.19,2.19,0,0,0,1.69.62,2.34,2.34,0,0,0,1.31-.38,3.66,3.66,0,0,0,1-1,4.28,4.28,0,0,0,.59-1.26,4.78,4.78,0,0,0,.2-1.29,2.92,2.92,0,0,0-.13-.9,1.83,1.83,0,0,0-.4-.74,2,2,0,0,0-.67-.5,2.35,2.35,0,0,0-1-.18,2.49,2.49,0,0,0-1.37.38,3.77,3.77,0,0,0-1,1,4.52,4.52,0,0,0-.59,1.28,5.06,5.06,0,0,0-.2,1.34A2.34,2.34,0,0,0,57.19,24.67Z"/><path d="M67.05,18.07l-.31,1.22,0,0A3.92,3.92,0,0,1,68,18.27a3.35,3.35,0,0,1,1.6-.39,2.57,2.57,0,0,1,1.33.33,1.67,1.67,0,0,1,.73,1.15,3.54,3.54,0,0,1,1.23-1.07,3.22,3.22,0,0,1,1.59-.41,3.44,3.44,0,0,1,.84.1,2.59,2.59,0,0,1,.74.32,1.48,1.48,0,0,1,.51.57,1.7,1.7,0,0,1,.19.85,5.16,5.16,0,0,1-.07.83c-.06.31-.11.58-.16.81l-1,4.93H74.18l1.15-5.22a3.4,3.4,0,0,0,.08-.45,2.55,2.55,0,0,0,0-.44,1,1,0,0,0-.35-.79,1.32,1.32,0,0,0-.9-.32,1.69,1.69,0,0,0-.58.1,2.87,2.87,0,0,0-.57.24,3,3,0,0,0-.51.36,4.12,4.12,0,0,0-.41.43,2.22,2.22,0,0,0-.49.84,7.71,7.71,0,0,0-.27,1l-.91,4.25H69.11l1-4.69c.07-.32.13-.62.18-.89a3.66,3.66,0,0,0,.07-.56,1.07,1.07,0,0,0-.29-.79,1.18,1.18,0,0,0-.85-.29,2.24,2.24,0,0,0-1.11.32,3.74,3.74,0,0,0-.91.73,2.37,2.37,0,0,0-.59.83,7.75,7.75,0,0,0-.29,1l-.92,4.31H64.06l1.73-8.22Z"/><path d="M80.65,18.07l-1.72,8.22H77.6l1.7-8.22ZM79.6,16.59,80,14.94h1.37L81,16.59Z"/><path d="M84.15,18.07l-.26,1.24h0a3.09,3.09,0,0,1,1.28-1.07,3.88,3.88,0,0,1,1.64-.36,2.49,2.49,0,0,1,1.72.51,2,2,0,0,1,.57,1.6,4.1,4.1,0,0,1-.07.7c0,.29-.1.59-.17.91l-1,4.69H86.55l1-4.8c0-.09,0-.19,0-.3a3.09,3.09,0,0,0,.07-.35c0-.12,0-.23.05-.35a1.57,1.57,0,0,0,0-.27,1,1,0,0,0-.42-.87,1.72,1.72,0,0,0-1-.28,2.52,2.52,0,0,0-1.11.27,3.22,3.22,0,0,0-.93.69,2.21,2.21,0,0,0-.57.77,5,5,0,0,0-.33.94l-1,4.55H81.13l1.71-8.22Z"/><path d="M97,26.31a7.05,7.05,0,0,1-.33,1,3.5,3.5,0,0,1-1.46,1.77,4.63,4.63,0,0,1-2.28.52,5.28,5.28,0,0,1-1.21-.14,3.32,3.32,0,0,1-1-.45,2.35,2.35,0,0,1-.72-.78,2.53,2.53,0,0,1-.3-1.17H91a1.33,1.33,0,0,0,.21.67,1.45,1.45,0,0,0,.47.42,1.78,1.78,0,0,0,.64.2,4.56,4.56,0,0,0,.75.06,2.58,2.58,0,0,0,1.28-.29,2.43,2.43,0,0,0,.81-.75,3.4,3.4,0,0,0,.5-1.05c.13-.4.24-.8.35-1.2l0,0a2.55,2.55,0,0,1-1.12.95,3.6,3.6,0,0,1-1.44.29,3.53,3.53,0,0,1-1.35-.25,2.71,2.71,0,0,1-1-.7,3.15,3.15,0,0,1-.58-1.07,4.58,4.58,0,0,1-.2-1.37,5.72,5.72,0,0,1,.3-1.81,5.15,5.15,0,0,1,.84-1.63,4.34,4.34,0,0,1,1.34-1.18,3.59,3.59,0,0,1,1.8-.45,3.17,3.17,0,0,1,.88.12,3.39,3.39,0,0,1,.78.33,2.2,2.2,0,0,1,.6.53,1.6,1.6,0,0,1,.34.69v0h0l.25-1.51H98.8l-1.48,7C97.23,25.52,97.13,25.92,97,26.31Zm-5.18-2.52a2.23,2.23,0,0,0,.37.7,1.91,1.91,0,0,0,.63.49,2.08,2.08,0,0,0,.89.18,2.36,2.36,0,0,0,1.33-.38,3.19,3.19,0,0,0,.93-1,4.72,4.72,0,0,0,.55-1.28,5.21,5.21,0,0,0,.18-1.31,2.25,2.25,0,0,0-.52-1.56,2,2,0,0,0-1.58-.59,2,2,0,0,0-1.25.4,3.41,3.41,0,0,0-.91,1,4.87,4.87,0,0,0-.56,1.25A4.94,4.94,0,0,0,91.71,23,2.84,2.84,0,0,0,91.84,23.79Z"/><path d="M108.74,19.43a2.08,2.08,0,0,0-1.23-.36,4.56,4.56,0,0,0-.62.05,1.84,1.84,0,0,0-.56.17,1.17,1.17,0,0,0-.41.31.87.87,0,0,0-.16.52.67.67,0,0,0,.19.49,1.83,1.83,0,0,0,.49.39,6.6,6.6,0,0,0,.7.32l.79.31c.27.12.54.24.8.38a4,4,0,0,1,.69.47,2.1,2.1,0,0,1,.49.62,1.74,1.74,0,0,1,.19.84,2.15,2.15,0,0,1-.3,1.16,2.36,2.36,0,0,1-.78.79,3.4,3.4,0,0,1-1.07.44,5.44,5.44,0,0,1-1.2.13,6,6,0,0,1-1.32-.13,2.67,2.67,0,0,1-1-.46,2.16,2.16,0,0,1-.69-.85,3,3,0,0,1-.26-1.32h1.34a1.37,1.37,0,0,0,.13.75,1.38,1.38,0,0,0,.46.5,2.36,2.36,0,0,0,.69.26,4.3,4.3,0,0,0,.82.08,3,3,0,0,0,.66-.07,1.91,1.91,0,0,0,.61-.21,1.38,1.38,0,0,0,.44-.39,1,1,0,0,0,.16-.59.76.76,0,0,0-.19-.52,2,2,0,0,0-.49-.39,5.61,5.61,0,0,0-.69-.32l-.79-.33a7.17,7.17,0,0,1-.8-.35,3,3,0,0,1-.7-.45,1.91,1.91,0,0,1-.49-.61,1.62,1.62,0,0,1-.19-.81,1.94,1.94,0,0,1,.27-1,2.22,2.22,0,0,1,.69-.74,3.33,3.33,0,0,1,1-.45,3.91,3.91,0,0,1,1.13-.16,4.7,4.7,0,0,1,1.12.13,3,3,0,0,1,1,.45,2.39,2.39,0,0,1,.7.81,2.53,2.53,0,0,1,.27,1.22h-1.35A1.14,1.14,0,0,0,108.74,19.43Z"/><path d="M111.8,21.11a5,5,0,0,1,.9-1.66,4.5,4.5,0,0,1,1.45-1.14,4.18,4.18,0,0,1,1.93-.43,3.45,3.45,0,0,1,2.54.87,3.37,3.37,0,0,1,.88,2.53,6.3,6.3,0,0,1-.3,1.94,5.19,5.19,0,0,1-.89,1.66A4.36,4.36,0,0,1,116.87,26a4.11,4.11,0,0,1-1.92.43,3.9,3.9,0,0,1-1.45-.25,3.08,3.08,0,0,1-1.09-.71,2.88,2.88,0,0,1-.68-1.08,3.83,3.83,0,0,1-.24-1.37A6,6,0,0,1,111.8,21.11Zm1.61,3.56a2.18,2.18,0,0,0,1.68.62,2.35,2.35,0,0,0,1.32-.38,3.66,3.66,0,0,0,1-1,4.55,4.55,0,0,0,.59-1.26,4.78,4.78,0,0,0,.2-1.29,3.26,3.26,0,0,0-.13-.9,2,2,0,0,0-.4-.74,2,2,0,0,0-.67-.5,2.37,2.37,0,0,0-1-.18,2.48,2.48,0,0,0-1.36.38,3.77,3.77,0,0,0-1,1,4.52,4.52,0,0,0-.59,1.28,4.69,4.69,0,0,0-.2,1.34A2.34,2.34,0,0,0,113.41,24.67Z"/><path d="M120.92,21.11a5,5,0,0,1,.91-1.66,4.36,4.36,0,0,1,1.44-1.14,4.18,4.18,0,0,1,1.93-.43,3.47,3.47,0,0,1,2.55.87,3.41,3.41,0,0,1,.87,2.53,6.3,6.3,0,0,1-.3,1.94,5,5,0,0,1-.89,1.66A4.33,4.33,0,0,1,126,26a4.13,4.13,0,0,1-1.93.43,3.9,3.9,0,0,1-1.45-.25,3.17,3.17,0,0,1-1.09-.71,3,3,0,0,1-.68-1.08,3.83,3.83,0,0,1-.24-1.37A6,6,0,0,1,120.92,21.11Zm1.61,3.56a2.2,2.2,0,0,0,1.69.62,2.32,2.32,0,0,0,1.31-.38,3.66,3.66,0,0,0,1-1,4.28,4.28,0,0,0,.59-1.26,4.78,4.78,0,0,0,.2-1.29,2.92,2.92,0,0,0-.13-.9,1.72,1.72,0,0,0-.4-.74,2,2,0,0,0-.67-.5,2.35,2.35,0,0,0-1-.18,2.49,2.49,0,0,0-1.37.38,3.58,3.58,0,0,0-1,1,4.29,4.29,0,0,0-.6,1.28A5.06,5.06,0,0,0,122,23,2.34,2.34,0,0,0,122.53,24.67Z"/><path d="M132.42,18.07l-.25,1.24h0a3.22,3.22,0,0,1,1.28-1.07,3.88,3.88,0,0,1,1.64-.36,2.52,2.52,0,0,1,1.73.51,2.07,2.07,0,0,1,.56,1.6,5.2,5.2,0,0,1-.06.7,8.58,8.58,0,0,1-.18.91l-1,4.69h-1.35l1.05-4.8c0-.09,0-.19,0-.3s0-.22.06-.35l.06-.35c0-.11,0-.2,0-.27a1,1,0,0,0-.41-.87,1.77,1.77,0,0,0-1-.28,2.52,2.52,0,0,0-1.11.27,3.22,3.22,0,0,0-.93.69,2.21,2.21,0,0,0-.57.77,5,5,0,0,0-.33.94l-1,4.55H129.4l1.72-8.22Z"/></g></g></svg>