<svg xmlns="http://www.w3.org/2000/svg" viewBox="0 0 123.56 29.61"><defs><style>.cls-1{fill:none;}</style></defs><g id="レイヤー_2" data-name="レイヤー 2"><g id="图层_1" data-name="图层 1"><path d="M9.36,13.74H7.08L7.75,3,2.28,13.74H0L.51.73h2L1.85,11.26,7.23.73H9.59L8.91,11.26,14.36.73h2Z"/><path d="M14.61,13.74l3.74-13H28l-.52,1.78H19.82l-1,3.6h7.11l-.51,1.78H18.27L17.1,12h7.84l-.51,1.78Z"/><path d="M32.66,13.74H26.92l3.75-13H36.3c1.8,0,3.33.93,2.68,3.19a4.19,4.19,0,0,1-2.76,2.85c.55.14,2.33.64,1.59,3.21A5.28,5.28,0,0,1,32.66,13.74ZM34.12,7.8H30.61L29.42,12h3.51a2.87,2.87,0,0,0,2.86-2.11C36.13,8.69,35.58,7.8,34.12,7.8ZM35.2,2.51H32.13L31.12,6h3.07a2.48,2.48,0,0,0,2.63-1.76C37.22,2.85,36.18,2.51,35.2,2.51Z"/><path d="M48.84,12.65c.11-.27.14-.39.32-.93H44.33c-1.23,0-3.85.06-5,.2L39.89,10c1.88.09,3.77.16,5.69.16h4.14l2-6.81H47.36c-.67,0-3.65.06-4.26.07s-1.06.09-1.55.15l.55-1.93c.57.06.89.07,1.35.09s2.64.05,3.08.05H50.7c.89,0,2.45,0,3.35-.05-.27.71-.91,2.8-1.13,3.56l-.87,3c-.29,1-.92,3.45-1,4.36Z"/><path d="M55.11,13.26c-.06.07-.23.35-.28.41a.26.26,0,0,1-.22.1c-.13,0-.16-.07-.25-.43l-.43-1.85C56.78,11.12,64,8.32,68.64,4l.22,1.72C64.18,9.8,57.87,12.2,55.11,13.26Zm5.12-9.2A10.14,10.14,0,0,0,57.06,1.6L58.5,0a8.79,8.79,0,0,1,3.21,2.48Z"/><path d="M79.75,6.34H78.9a13.52,13.52,0,0,1-3.53,5.86A12,12,0,0,1,71,14.45L69.75,13a8.17,8.17,0,0,0,4.43-1.89c.8-.6,2-1.78,2.88-4.81H75.12c-1.57,0-3.15,0-4.75.16l.53-1.85c1.55.13,3.94.16,4.66.16h4.63c.16,0,2.83,0,4.81-.16L84.46,6.5C82.91,6.38,81.34,6.34,79.75,6.34Zm.43-4.45h-3a28.88,28.88,0,0,0-3.08.16l.57-2a28.29,28.29,0,0,0,3,.16h3A28.89,28.89,0,0,0,83.76.07l-.56,2A28.19,28.19,0,0,0,80.18,1.89Z"/><path d="M86.47,13.26c0,.07-.22.35-.27.41a.29.29,0,0,1-.23.1c-.13,0-.16-.07-.25-.43l-.43-1.85C88.14,11.12,95.36,8.32,100,4l.22,1.72C95.54,9.8,89.24,12.2,86.47,13.26Zm5.13-9.2A10.17,10.17,0,0,0,88.42,1.6L89.86,0a8.79,8.79,0,0,1,3.21,2.48Z"/><path d="M116.42,2.19a30.25,30.25,0,0,1-5,6.68,23.89,23.89,0,0,1-7.65,4.78l-1.14-1.46a12.76,12.76,0,0,0,4.2-1.8A18.6,18.6,0,0,0,112.9,4.7,13.47,13.47,0,0,0,115.09.52l1.78.8c.32.14.45.25.41.39S117.14,1.92,116.42,2.19ZM104,5.43a9,9,0,0,0-.85-3.6l1.83-.62a8.49,8.49,0,0,1,.88,3.64Zm4.63-.85a7.27,7.27,0,0,0-.74-3.72L109.73.3A7.54,7.54,0,0,1,110.5,4Z"/><path d="M21.73,24.52l-.38,1.77H19.59L20,24.52Z"/><path d="M26.15,24.52l-.38,1.77H24l.38-1.77Z"/><path d="M30.57,24.52l-.38,1.77H28.43l.38-1.77Z"/><path d="M38.76,19.49a1.82,1.82,0,0,0-1.27-.42,2.72,2.72,0,0,0-1.38.35,3.23,3.23,0,0,0-1,.91,4,4,0,0,0-.61,1.25,4.62,4.62,0,0,0-.21,1.35,4.45,4.45,0,0,0,.1.91,2,2,0,0,0,.35.75,1.74,1.74,0,0,0,.62.51,2.29,2.29,0,0,0,1,.19,2.47,2.47,0,0,0,1.49-.46,2.69,2.69,0,0,0,.91-1.23h1.35a3.78,3.78,0,0,1-1.34,2.13,3.86,3.86,0,0,1-2.41.73,3.27,3.27,0,0,1-2.54-.92,3.68,3.68,0,0,1-.85-2.61A6.32,6.32,0,0,1,33.23,21a4.94,4.94,0,0,1,.88-1.61,4.22,4.22,0,0,1,3.38-1.55,3.35,3.35,0,0,1,2.21.68,2.69,2.69,0,0,1,.87,2.12H39.22A1.52,1.52,0,0,0,38.76,19.49Z"/><path d="M41.72,21.11a5,5,0,0,1,.91-1.66,4.5,4.5,0,0,1,1.45-1.14A4.15,4.15,0,0,1,46,17.88a3.45,3.45,0,0,1,2.54.87,3.41,3.41,0,0,1,.87,2.53,6.3,6.3,0,0,1-.3,1.94,5,5,0,0,1-.89,1.66A4.33,4.33,0,0,1,46.8,26a4.11,4.11,0,0,1-1.92.43,4,4,0,0,1-1.46-.25,3,3,0,0,1-1.77-1.79,3.83,3.83,0,0,1-.24-1.37A6.3,6.3,0,0,1,41.72,21.11Zm1.62,3.56a2.18,2.18,0,0,0,1.68.62,2.29,2.29,0,0,0,1.31-.38,3.55,3.55,0,0,0,1-1,4.26,4.26,0,0,0,.58-1.26,4.41,4.41,0,0,0,.2-1.29,3.26,3.26,0,0,0-.12-.9,2,2,0,0,0-.4-.74,2,2,0,0,0-.68-.5,2.35,2.35,0,0,0-1-.18,2.52,2.52,0,0,0-1.37.38,3.58,3.58,0,0,0-1,1,4.29,4.29,0,0,0-.6,1.28,5.06,5.06,0,0,0-.2,1.34A2.3,2.3,0,0,0,43.34,24.67Z"/><path d="M53.19,18.07l-.3,1.22,0,0a3.88,3.88,0,0,1,1.26-1.06,3.41,3.41,0,0,1,1.6-.39,2.59,2.59,0,0,1,1.34.33,1.7,1.7,0,0,1,.73,1.15,3.54,3.54,0,0,1,1.23-1.07,3.18,3.18,0,0,1,1.58-.41,3.33,3.33,0,0,1,.84.1,2.37,2.37,0,0,1,.74.32,1.51,1.51,0,0,1,.52.57,1.7,1.7,0,0,1,.19.85,5.26,5.26,0,0,1-.08.83c0,.31-.11.58-.16.81l-1,4.93H60.33l1.14-5.22q0-.18.09-.45a4.2,4.2,0,0,0,0-.44,1,1,0,0,0-.36-.79,1.32,1.32,0,0,0-.9-.32,1.73,1.73,0,0,0-.58.1,3,3,0,0,0-.56.24,3,3,0,0,0-.51.36,2.74,2.74,0,0,0-.41.43,2.24,2.24,0,0,0-.5.84c-.1.32-.19.65-.27,1l-.9,4.25H55.26l1-4.69c.08-.32.14-.62.18-.89a4.17,4.17,0,0,0,.08-.56,1,1,0,0,0-.3-.79,1.17,1.17,0,0,0-.85-.29,2.18,2.18,0,0,0-1.1.32,3.8,3.8,0,0,0-.92.73,2.33,2.33,0,0,0-.58.83,6.48,6.48,0,0,0-.29,1l-.92,4.31H50.2l1.73-8.22Z"/><path d="M66.8,18.07l-1.72,8.22H63.74l1.7-8.22Zm-1-1.48.35-1.65h1.36l-.35,1.65Z"/><path d="M70.29,18.07,70,19.31h0a3.18,3.18,0,0,1,1.29-1.07A3.84,3.84,0,0,1,73,17.88a2.52,2.52,0,0,1,1.73.51,2.07,2.07,0,0,1,.56,1.6,5.2,5.2,0,0,1-.06.7,8.58,8.58,0,0,1-.18.91l-1,4.69H72.69l1-4.8c0-.09,0-.19.05-.3s0-.22.06-.35l.06-.35c0-.11,0-.2,0-.27a1,1,0,0,0-.41-.87,1.77,1.77,0,0,0-1-.28,2.45,2.45,0,0,0-1.1.27,3,3,0,0,0-.93.69,2.12,2.12,0,0,0-.58.77,7,7,0,0,0-.33.94l-1,4.55H67.27L69,18.07Z"/><path d="M83.17,26.31a8.46,8.46,0,0,1-.34,1,3.45,3.45,0,0,1-1.46,1.77,4.56,4.56,0,0,1-2.27.52,5.36,5.36,0,0,1-1.22-.14,3.26,3.26,0,0,1-1-.45,2.37,2.37,0,0,1-.73-.78,2.53,2.53,0,0,1-.29-1.17h1.33a1.44,1.44,0,0,0,.22.67,1.42,1.42,0,0,0,.46.42,1.85,1.85,0,0,0,.64.2,4.74,4.74,0,0,0,.75.06,2.55,2.55,0,0,0,1.28-.29,2.46,2.46,0,0,0,.82-.75,3.65,3.65,0,0,0,.5-1.05c.12-.4.24-.8.34-1.2l0,0a2.58,2.58,0,0,1-1.11.95,3.68,3.68,0,0,1-1.45.29,3.44,3.44,0,0,1-1.34-.25,2.54,2.54,0,0,1-1-.7,3,3,0,0,1-.58-1.07,4.28,4.28,0,0,1-.2-1.37,6,6,0,0,1,.29-1.81,5.59,5.59,0,0,1,.84-1.63A4.5,4.5,0,0,1,79,18.33a3.58,3.58,0,0,1,1.79-.45,3.3,3.3,0,0,1,.89.12,3.14,3.14,0,0,1,.77.33,2.4,2.4,0,0,1,.61.53,1.72,1.72,0,0,1,.34.69v0h0l.26-1.51H85l-1.48,7C83.37,25.52,83.27,25.92,83.17,26.31ZM78,23.79a2,2,0,0,0,.37.7A1.73,1.73,0,0,0,79,25a2,2,0,0,0,.89.18,2.3,2.3,0,0,0,1.32-.38,3.19,3.19,0,0,0,.93-1,4.43,4.43,0,0,0,.55-1.28,5.25,5.25,0,0,0,.19-1.31,2.29,2.29,0,0,0-.52-1.56,2,2,0,0,0-1.58-.59,2,2,0,0,0-1.26.4,3.38,3.38,0,0,0-.9,1,4.89,4.89,0,0,0-.75,2.5A2.55,2.55,0,0,0,78,23.79Z"/><path d="M94.88,19.43a2.07,2.07,0,0,0-1.22-.36,4.44,4.44,0,0,0-.62.05,2,2,0,0,0-.57.17,1.13,1.13,0,0,0-.4.31.81.81,0,0,0-.16.52.71.71,0,0,0,.18.49,2,2,0,0,0,.49.39,6.6,6.6,0,0,0,.7.32l.79.31c.28.12.54.24.8.38a4.5,4.5,0,0,1,.7.47,2.28,2.28,0,0,1,.49.62,1.86,1.86,0,0,1,.19.84A2.15,2.15,0,0,1,96,25.1a2.36,2.36,0,0,1-.78.79,3.46,3.46,0,0,1-1.08.44,5.32,5.32,0,0,1-1.2.13,6,6,0,0,1-1.31-.13,2.71,2.71,0,0,1-1-.46,2.16,2.16,0,0,1-.69-.85,3,3,0,0,1-.25-1.32h1.33a1.37,1.37,0,0,0,.14.75,1.3,1.3,0,0,0,.46.5,2.29,2.29,0,0,0,.68.26,4.38,4.38,0,0,0,.82.08,3.05,3.05,0,0,0,.67-.07,1.94,1.94,0,0,0,.6-.21,1.28,1.28,0,0,0,.44-.39A1,1,0,0,0,94.9,24a.81.81,0,0,0-.19-.52,2.07,2.07,0,0,0-.5-.39,5.61,5.61,0,0,0-.69-.32l-.78-.33a7.32,7.32,0,0,1-.81-.35,3,3,0,0,1-.7-.45,2.06,2.06,0,0,1-.49-.61,1.73,1.73,0,0,1-.18-.81,2,2,0,0,1,.26-1,2.44,2.44,0,0,1,.69-.74,3.39,3.39,0,0,1,1-.45,3.89,3.89,0,0,1,1.12-.16,4.78,4.78,0,0,1,1.13.13,3,3,0,0,1,1,.45,2.42,2.42,0,0,1,.71.81,2.53,2.53,0,0,1,.27,1.22H95.36A1.15,1.15,0,0,0,94.88,19.43Z"/><path d="M97.94,21.11a5,5,0,0,1,.91-1.66,4.58,4.58,0,0,1,1.44-1.14,4.2,4.2,0,0,1,1.94-.43,3.45,3.45,0,0,1,2.54.87,3.41,3.41,0,0,1,.87,2.53,6.3,6.3,0,0,1-.3,1.94,5,5,0,0,1-.89,1.66A4.33,4.33,0,0,1,103,26a4.11,4.11,0,0,1-1.92.43,4,4,0,0,1-1.46-.25,3,3,0,0,1-1.77-1.79,3.83,3.83,0,0,1-.24-1.37A6,6,0,0,1,97.94,21.11Zm1.61,3.56a2.22,2.22,0,0,0,1.69.62,2.32,2.32,0,0,0,1.31-.38,3.38,3.38,0,0,0,1-1,4.28,4.28,0,0,0,.59-1.26,4.41,4.41,0,0,0,.2-1.29,2.92,2.92,0,0,0-.13-.9,1.81,1.81,0,0,0-.39-.74,2,2,0,0,0-.68-.5,2.35,2.35,0,0,0-1-.18,2.49,2.49,0,0,0-1.37.38,3.58,3.58,0,0,0-1,1,4.29,4.29,0,0,0-.6,1.28A5.06,5.06,0,0,0,99,23,2.34,2.34,0,0,0,99.55,24.67Z"/><path d="M107.06,21.11a5,5,0,0,1,.91-1.66,4.5,4.5,0,0,1,1.45-1.14,4.15,4.15,0,0,1,1.93-.43,3.45,3.45,0,0,1,2.54.87,3.41,3.41,0,0,1,.88,2.53,6,6,0,0,1-.31,1.94,4.83,4.83,0,0,1-.89,1.66A4.33,4.33,0,0,1,112.14,26a4.11,4.11,0,0,1-1.92.43,3.87,3.87,0,0,1-1.45-.25,3.08,3.08,0,0,1-1.09-.71,3,3,0,0,1-.69-1.08,3.83,3.83,0,0,1-.24-1.37A6.3,6.3,0,0,1,107.06,21.11Zm1.62,3.56a2.18,2.18,0,0,0,1.68.62,2.29,2.29,0,0,0,1.31-.38,3.55,3.55,0,0,0,1-1,4.55,4.55,0,0,0,.59-1.26,4.74,4.74,0,0,0,.19-1.29,3.26,3.26,0,0,0-.12-.9,2,2,0,0,0-.4-.74,2,2,0,0,0-.68-.5,2.35,2.35,0,0,0-1-.18,2.46,2.46,0,0,0-1.36.38,3.62,3.62,0,0,0-1,1,4.84,4.84,0,0,0-.6,1.28,5,5,0,0,0-.19,1.34A2.34,2.34,0,0,0,108.68,24.67Z"/><path d="M118.56,18.07l-.25,1.24h0a3.18,3.18,0,0,1,1.29-1.07,3.85,3.85,0,0,1,1.64-.36,2.49,2.49,0,0,1,1.72.51,2,2,0,0,1,.57,1.6,5.46,5.46,0,0,1-.07.7c0,.29-.1.59-.17.91l-1,4.69H121l1.05-4.8c0-.09,0-.19,0-.3s0-.22.06-.35a2.14,2.14,0,0,0,.06-.35,1.57,1.57,0,0,0,0-.27,1,1,0,0,0-.42-.87,1.73,1.73,0,0,0-1-.28,2.48,2.48,0,0,0-1.1.27,3,3,0,0,0-.93.69,2.1,2.1,0,0,0-.57.77,5.83,5.83,0,0,0-.34.94l-1,4.55h-1.34l1.72-8.22Z"/><rect class="cls-1" width="123.56" height="29.61"/></g></g></svg>